<svg width="125" height="125" viewBox="0 0 125 125" fill="none" xmlns="http://www.w3.org/2000/svg">
<circle cx="62.5" cy="62.5" r="61.5" fill="white" stroke="#2E7A6C" stroke-width="2"/>
<path d="M100 93.9462C100 106.588 25 106.588 25 93.9462C25 81.3047 54.5954 76.3892 62.4997 76.3892C70.4046 76.3892 100 81.3053 100 93.9462Z" fill="#2B8A7D"/>
<path d="M62.5003 82.8901C58.8306 82.8901 55.8563 79.9151 55.8563 76.2461V61.1097H69.1443V76.2461C69.1443 79.9151 66.17 82.8901 62.5003 82.8901Z" fill="#FFE0A4"/>
<path d="M69.1416 72.3574V66.5632H55.8549V72.3574C57.9072 73.1921 60.1541 73.6503 62.5014 73.6503C64.8487 73.6503 67.0893 73.1921 69.1416 72.3574Z" fill="#EFD29A"/>
<path d="M62.5004 69.4722C52.7202 69.4722 44.7921 61.5441 44.7921 51.7645V37.7077C44.7921 27.9281 52.7202 20 62.4998 20C72.2793 20 80.2074 27.9281 80.2074 37.7077V51.7639C80.2081 61.5441 72.28 69.4722 62.5004 69.4722Z" fill="#FFE0A4"/>
<path d="M44.8685 54.1529C47.3398 53.1292 48.5134 50.296 47.4897 47.8246C46.466 45.3533 43.6327 44.1797 41.1614 45.2034C38.69 46.2271 37.5165 49.0604 38.5402 51.5317C39.5639 54.0031 42.3971 55.1766 44.8685 54.1529Z" fill="#FFE0A4"/>
<path d="M39.5475 49.9908C39.3743 49.9908 39.2337 49.8502 39.2337 49.677C39.2337 47.5964 40.9264 45.9044 43.0069 45.9044C43.1802 45.9044 43.3207 46.0449 43.3207 46.2182C43.3207 46.3914 43.1802 46.532 43.0069 46.532C41.2722 46.532 39.8613 47.9429 39.8613 49.677C39.8613 49.8502 39.7207 49.9908 39.5475 49.9908Z" fill="#0E2443"/>
<path d="M86.4772 51.529C87.5009 49.0577 86.3274 46.2244 83.856 45.2007C81.3847 44.177 78.5514 45.3506 77.5277 47.8219C76.504 50.2933 77.6776 53.1266 80.1489 54.1502C82.6203 55.1739 85.4535 54.0004 86.4772 51.529Z" fill="#FFE0A4"/>
<path d="M85.4529 49.9909C85.2797 49.9909 85.1391 49.8503 85.1391 49.6771C85.1391 47.943 83.7282 46.5321 81.9941 46.5321C81.8209 46.5321 81.6803 46.3915 81.6803 46.2183C81.6803 46.0451 81.8209 45.9045 81.9941 45.9045C84.0747 45.9045 85.7667 47.5972 85.7667 49.6771C85.7667 49.8503 85.6261 49.9909 85.4529 49.9909Z" fill="#0E2443"/>
<path d="M80.2072 37.7064V42.5987C80.2072 37.7095 78.224 33.2848 75.0231 30.0777C71.816 26.8768 67.3912 24.8935 62.5021 24.8935C52.7175 24.8935 44.7906 32.8204 44.7906 42.5987V37.7064C44.7906 27.9281 52.7175 20.0012 62.5021 20.0012C67.3912 20.0012 71.816 21.9845 75.0231 25.1854C78.224 28.3925 80.2072 32.8172 80.2072 37.7064Z" fill="#B9A67F"/>
</svg>
