<svg width="1920" height="420" viewBox="0 0 1920 420" fill="none" xmlns="http://www.w3.org/2000/svg">
<rect x="-6" width="1932" height="420" fill="#E5E5E5"/>
<path d="M2.12669 419.975H0.804203C0.804203 419.975 -2.22448 404.109 3.4733 391.559C4.00664 397.35 5.60907 406.619 5.60907 406.619C5.60907 406.619 8.27817 400.054 7.74483 393.877C7.74483 393.877 12.0164 402.758 12.5497 410.48C12.0164 403.529 13.6176 396.195 15.2188 389.63C15.7521 397.352 17.8879 407.391 20.5582 413.184C18.4224 406.233 20.5582 399.284 22.1594 395.037C22.1594 395.037 22.6928 404.689 24.8285 407.779C24.2952 401.214 25.3631 396.194 29.1001 390.403C28.5667 395.809 28.5667 402.759 30.1679 410.868C30.1679 410.711 30.7025 403.76 34.9728 394.651C34.2838 400.282 35.8187 405.334 37.6371 410.701C37.5333 405.368 38.232 398.392 41.3801 391.561C41.9146 397.352 43.5159 406.621 43.5159 406.621C43.5159 406.621 46.185 400.056 45.6516 393.879C45.6516 393.879 49.9232 402.759 50.4565 410.482C49.9232 403.531 51.5244 396.196 53.1256 389.631C53.6601 397.354 55.7947 407.393 58.465 413.186C56.3292 406.235 58.465 399.286 60.0662 395.039C60.0662 395.039 60.5996 404.691 62.7353 407.781C62.2008 401.216 63.2687 390.791 67.0068 385C66.4735 390.405 66.4735 402.761 68.0747 410.87C70.7438 406.237 71.8117 398.9 69.6759 392.335C72.0832 395.042 74.289 399.843 75.755 405.026C76.1556 400.837 77.1644 396.166 79.2857 391.563C79.819 397.354 81.4214 406.623 81.4214 406.623C81.4214 406.623 84.0905 400.058 83.5572 393.881C83.5572 393.881 87.8287 402.761 88.3621 410.484C87.8275 403.533 89.43 396.198 91.0312 389.633C91.5657 397.356 93.7003 407.395 96.3706 413.188C94.2348 406.237 96.3706 399.288 97.9718 395.04C97.9718 395.04 98.5063 404.693 100.641 407.783C100.108 401.218 103.31 394.655 107.048 388.861C106.515 394.267 104.379 402.761 105.98 410.87C105.98 410.712 106.515 403.761 110.785 394.653C110.096 400.284 111.631 405.336 113.449 410.703C113.346 405.37 114.044 398.394 117.192 391.563C117.726 397.354 119.328 406.623 119.328 406.623C119.328 406.623 121.997 400.058 121.464 393.881C121.464 393.881 125.736 402.761 126.269 410.484C125.734 403.533 127.337 396.198 128.938 389.633C129.473 397.356 131.607 407.395 134.277 413.188C132.142 406.237 134.277 399.288 135.879 395.04C135.879 395.04 136.413 404.693 138.548 407.783C138.014 401.218 139.082 393.111 142.819 387.318C142.286 392.723 142.286 402.763 143.887 410.872C146.556 406.239 147.624 398.902 145.488 392.337C147.331 394.409 149.774 397.563 151.834 401.197C152.401 398.081 153.339 394.807 154.833 391.565C155.366 397.356 156.968 406.625 156.968 406.625C156.968 406.625 159.637 400.06 159.104 393.883C159.104 393.883 163.376 402.763 163.909 410.486C163.374 403.535 164.977 396.2 166.578 389.635C167.113 397.358 169.247 407.397 171.917 413.19C169.782 406.239 171.917 399.29 173.519 395.042C173.519 395.042 174.053 404.695 176.189 407.784C175.654 401.219 176.722 396.2 180.461 390.409C179.926 395.814 179.926 402.765 181.528 410.874C181.528 410.716 182.062 403.765 186.333 394.656C185.781 399.172 186.659 403.317 187.967 407.549C188.175 402.765 189.115 397.117 191.673 391.567C192.207 397.358 193.808 406.627 193.808 406.627C193.808 406.627 196.478 400.062 195.944 393.885C195.944 393.885 200.216 402.765 200.749 410.488C200.216 403.537 201.817 396.202 203.418 389.637C203.952 397.36 206.087 407.399 208.758 413.192C206.622 406.241 208.758 399.292 210.359 395.044C210.359 395.044 210.892 404.697 213.028 407.786C212.495 401.221 213.562 396.202 217.299 390.411C216.765 395.816 216.765 402.767 218.367 410.876C218.367 410.718 218.901 403.767 223.172 394.658C222.552 399.719 223.732 404.315 225.297 409.093C225.36 404.009 226.207 397.729 229.046 391.571C229.581 397.362 231.182 406.63 231.182 406.63C231.182 406.63 233.851 400.065 233.318 393.888C233.318 393.888 237.589 402.769 238.123 410.492C237.588 403.541 239.19 396.206 240.792 389.641C241.325 397.364 243.461 407.402 246.131 413.195C243.995 406.244 246.131 399.295 247.732 395.048C247.732 395.048 248.267 404.701 250.401 407.79C249.867 401.225 250.935 396.206 254.673 390.415C254.14 395.82 254.14 402.771 255.741 410.88C258.41 406.246 259.478 398.91 257.342 392.345C259.544 394.822 261.577 399.054 263.03 403.725C263.507 399.885 264.514 395.7 266.418 391.571C266.953 397.362 268.554 406.63 268.554 406.63C268.554 406.63 271.223 400.065 270.69 393.888C270.69 393.888 274.961 402.769 275.495 410.492C274.96 403.541 276.563 396.206 278.164 389.641C278.697 397.364 280.833 407.402 283.503 413.195C281.368 406.244 283.503 399.295 285.105 395.048C285.105 395.048 285.639 404.701 287.774 407.79C287.24 401.225 288.307 393.118 292.045 387.325C291.512 392.73 291.512 402.771 293.113 410.88C293.113 410.722 293.648 403.771 297.918 394.662C297.299 399.723 298.478 404.319 300.043 409.096C300.106 404.012 300.953 397.733 303.792 391.574C304.325 397.366 305.928 406.634 305.928 406.634C305.928 406.634 308.597 400.069 308.063 393.892C308.063 393.892 312.335 402.773 312.868 410.496C312.335 403.545 313.936 396.21 315.537 389.645C316.072 397.368 318.206 407.406 320.877 413.199C318.741 406.248 320.877 399.299 322.478 395.052C322.478 395.052 323.013 404.704 325.147 407.794C324.613 401.229 325.68 394.666 329.419 388.873C328.884 394.278 328.884 402.773 330.486 410.882C330.486 410.724 331.02 403.773 335.291 394.664C334.671 399.725 335.851 404.32 337.416 409.098C337.479 404.014 338.326 397.735 341.165 391.576C341.7 397.368 343.301 406.636 343.301 406.636C343.301 406.636 345.97 400.071 345.437 393.894C345.437 393.894 349.708 402.775 350.242 410.498C349.707 403.547 351.31 396.212 352.911 389.647C353.445 397.369 355.58 407.408 358.25 413.201C356.114 406.25 358.25 399.301 359.851 395.054C359.851 395.054 360.386 404.706 362.521 407.796C361.986 401.231 363.054 390.806 366.792 385.015C366.258 390.42 366.257 402.777 367.86 410.885C370.529 406.252 371.597 398.915 369.461 392.35C371.663 394.828 373.696 399.06 375.149 403.733C375.626 399.892 376.633 395.708 378.538 391.578C379.071 397.369 380.673 406.638 380.673 406.638C380.673 406.638 383.342 400.073 382.809 393.896C382.809 393.896 387.081 402.777 387.614 410.499C387.079 403.549 388.682 396.213 390.283 389.648C390.816 397.371 392.952 407.41 395.622 413.203C393.487 406.252 395.622 399.303 397.225 395.056C397.225 395.056 397.759 404.708 399.894 407.798C399.361 401.233 400.429 396.214 404.165 390.422C403.631 395.828 403.631 402.779 405.233 410.887C405.233 410.73 405.768 403.779 410.038 394.67C409.349 400.301 410.884 405.353 412.703 410.72C412.599 405.387 413.297 398.411 416.446 391.58C416.979 397.371 418.581 406.64 418.581 406.64C418.581 406.64 421.25 400.075 420.717 393.898C420.717 393.898 424.989 402.779 425.522 410.501C424.987 403.55 426.59 396.215 428.191 389.65C428.726 397.373 430.86 407.412 433.53 413.205C431.395 406.254 433.53 399.305 435.132 395.058C435.132 395.058 435.666 404.71 437.801 407.8C437.267 401.235 438.335 390.81 442.072 385.019C441.538 390.424 441.538 402.78 443.14 410.889C445.809 406.256 446.877 398.919 444.741 392.354C447.149 395.061 449.354 399.862 450.82 405.045C451.221 400.856 452.23 396.185 454.352 391.582C454.886 397.373 456.488 406.642 456.488 406.642C456.488 406.642 459.157 400.077 458.624 393.9C458.624 393.9 462.895 402.78 463.429 410.503C462.894 403.552 464.497 396.217 466.098 389.652C466.631 397.375 468.767 407.414 471.437 413.207C469.301 406.256 471.437 399.307 473.038 395.059C473.038 395.059 473.572 404.712 475.708 407.802C475.174 401.237 478.377 394.674 482.115 388.88C481.58 394.286 479.446 402.78 481.047 410.889C481.047 410.731 481.58 403.781 485.852 394.672C485.163 400.303 486.698 405.355 488.516 410.722C488.412 405.389 489.111 398.413 492.259 391.582C492.794 397.373 494.395 406.642 494.395 406.642C494.395 406.642 497.064 400.077 496.531 393.9C496.531 393.9 500.802 402.78 501.336 410.503C500.801 403.552 502.403 396.217 504.005 389.652C504.539 397.375 506.674 407.414 509.344 413.207C507.208 406.256 509.344 399.307 510.945 395.059C510.945 395.059 511.479 404.712 513.614 407.802C513.081 401.237 514.149 393.13 517.886 387.337C517.353 392.742 517.353 402.782 518.954 410.891C521.623 406.258 522.691 398.921 520.555 392.356C525.36 397.761 528.563 410.503 524.012 420H2.12669V419.975Z" fill="#73BBAF"/>
<path d="M524.127 419.975H522.804C522.804 419.975 519.776 404.109 525.473 391.559C526.007 397.35 527.609 406.619 527.609 406.619C527.609 406.619 530.278 400.054 529.745 393.877C529.745 393.877 534.016 402.758 534.55 410.48C534.016 403.529 535.618 396.195 537.219 389.63C537.752 397.352 539.888 407.391 542.558 413.184C540.422 406.233 542.558 399.284 544.159 395.037C544.159 395.037 544.693 404.689 546.829 407.779C546.295 401.214 547.363 396.194 551.1 390.403C550.567 395.809 550.567 402.759 552.168 410.868C552.168 410.711 552.702 403.76 556.973 394.651C556.284 400.282 557.819 405.334 559.637 410.701C559.533 405.368 560.232 398.392 563.38 391.561C563.915 397.352 565.516 406.621 565.516 406.621C565.516 406.621 568.185 400.056 567.652 393.879C567.652 393.879 571.923 402.759 572.456 410.482C571.923 403.531 573.524 396.196 575.126 389.631C575.66 397.354 577.795 407.393 580.465 413.186C578.329 406.235 580.465 399.286 582.066 395.039C582.066 395.039 582.6 404.691 584.735 407.781C584.201 401.216 585.269 390.791 589.007 385C588.474 390.405 588.474 402.761 590.075 410.87C592.744 406.237 593.812 398.9 591.676 392.335C594.083 395.042 596.289 399.843 597.755 405.026C598.156 400.837 599.164 396.166 601.286 391.563C601.819 397.354 603.421 406.623 603.421 406.623C603.421 406.623 606.091 400.058 605.557 393.881C605.557 393.881 609.829 402.761 610.362 410.484C609.828 403.533 611.43 396.198 613.031 389.633C613.566 397.356 615.7 407.395 618.371 413.188C616.235 406.237 618.371 399.288 619.972 395.04C619.972 395.04 620.506 404.693 622.641 407.783C622.108 401.218 625.31 394.655 629.048 388.861C628.515 394.267 626.379 402.761 627.98 410.87C627.98 410.712 628.515 403.761 632.785 394.653C632.096 400.284 633.631 405.336 635.449 410.703C635.346 405.37 636.044 398.394 639.192 391.563C639.726 397.354 641.328 406.623 641.328 406.623C641.328 406.623 643.997 400.058 643.464 393.881C643.464 393.881 647.736 402.761 648.269 410.484C647.734 403.533 649.337 396.198 650.938 389.633C651.473 397.356 653.607 407.395 656.277 413.188C654.142 406.237 656.277 399.288 657.879 395.04C657.879 395.04 658.413 404.693 660.548 407.783C660.014 401.218 661.082 393.111 664.819 387.318C664.286 392.723 664.286 402.763 665.887 410.872C668.556 406.239 669.624 398.902 667.488 392.337C669.331 394.409 671.774 397.563 673.834 401.197C674.401 398.081 675.339 394.807 676.833 391.565C677.366 397.356 678.968 406.625 678.968 406.625C678.968 406.625 681.637 400.06 681.104 393.883C681.104 393.883 685.376 402.763 685.909 410.486C685.374 403.535 686.977 396.2 688.578 389.635C689.113 397.358 691.247 407.397 693.917 413.19C691.782 406.239 693.917 399.29 695.519 395.042C695.519 395.042 696.053 404.695 698.189 407.784C697.654 401.219 698.722 396.2 702.461 390.409C701.926 395.814 701.926 402.765 703.528 410.874C703.528 410.716 704.062 403.765 708.333 394.656C707.781 399.172 708.659 403.317 709.967 407.549C710.175 402.765 711.115 397.117 713.673 391.567C714.207 397.358 715.808 406.627 715.808 406.627C715.808 406.627 718.478 400.062 717.944 393.885C717.944 393.885 722.216 402.765 722.749 410.488C722.216 403.537 723.817 396.202 725.418 389.637C725.952 397.36 728.087 407.399 730.758 413.192C728.622 406.241 730.758 399.292 732.359 395.044C732.359 395.044 732.892 404.697 735.028 407.786C734.495 401.221 735.562 396.202 739.299 390.411C738.765 395.816 738.765 402.767 740.367 410.876C740.367 410.718 740.901 403.767 745.172 394.658C744.552 399.719 745.732 404.315 747.297 409.093C747.36 404.009 748.207 397.729 751.046 391.571C751.581 397.362 753.182 406.63 753.182 406.63C753.182 406.63 755.851 400.065 755.318 393.888C755.318 393.888 759.589 402.769 760.123 410.492C759.588 403.541 761.19 396.206 762.792 389.641C763.325 397.364 765.461 407.402 768.131 413.195C765.995 406.244 768.131 399.295 769.732 395.048C769.732 395.048 770.267 404.701 772.401 407.79C771.867 401.225 772.935 396.206 776.673 390.415C776.14 395.82 776.14 402.771 777.741 410.88C780.41 406.246 781.478 398.91 779.342 392.345C781.544 394.822 783.577 399.054 785.03 403.725C785.507 399.885 786.514 395.7 788.418 391.571C788.953 397.362 790.554 406.63 790.554 406.63C790.554 406.63 793.223 400.065 792.69 393.888C792.69 393.888 796.961 402.769 797.495 410.492C796.96 403.541 798.563 396.206 800.164 389.641C800.697 397.364 802.833 407.402 805.503 413.195C803.368 406.244 805.503 399.295 807.105 395.048C807.105 395.048 807.639 404.701 809.774 407.79C809.24 401.225 810.307 393.118 814.045 387.325C813.512 392.73 813.512 402.771 815.113 410.88C815.113 410.722 815.648 403.771 819.918 394.662C819.299 399.723 820.478 404.319 822.043 409.096C822.106 404.012 822.953 397.733 825.792 391.574C826.325 397.366 827.928 406.634 827.928 406.634C827.928 406.634 830.597 400.069 830.063 393.892C830.063 393.892 834.335 402.773 834.868 410.496C834.335 403.545 835.936 396.21 837.537 389.645C838.072 397.368 840.206 407.406 842.877 413.199C840.741 406.248 842.877 399.299 844.478 395.052C844.478 395.052 845.013 404.704 847.147 407.794C846.613 401.229 847.68 394.666 851.419 388.873C850.884 394.278 850.884 402.773 852.486 410.882C852.486 410.724 853.02 403.773 857.291 394.664C856.671 399.725 857.851 404.32 859.416 409.098C859.479 404.014 860.326 397.735 863.165 391.576C863.7 397.368 865.301 406.636 865.301 406.636C865.301 406.636 867.97 400.071 867.437 393.894C867.437 393.894 871.708 402.775 872.242 410.498C871.707 403.547 873.31 396.212 874.911 389.647C875.445 397.369 877.58 407.408 880.25 413.201C878.114 406.25 880.25 399.301 881.851 395.054C881.851 395.054 882.386 404.706 884.521 407.796C883.986 401.231 885.054 390.806 888.792 385.015C888.258 390.42 888.257 402.777 889.86 410.885C892.529 406.252 893.597 398.915 891.461 392.35C893.663 394.828 895.696 399.06 897.149 403.733C897.626 399.892 898.633 395.708 900.538 391.578C901.071 397.369 902.673 406.638 902.673 406.638C902.673 406.638 905.342 400.073 904.809 393.896C904.809 393.896 909.081 402.777 909.614 410.499C909.079 403.549 910.682 396.213 912.283 389.648C912.816 397.371 914.952 407.41 917.622 413.203C915.487 406.252 917.622 399.303 919.225 395.056C919.225 395.056 919.759 404.708 921.894 407.798C921.361 401.233 922.429 396.214 926.165 390.422C925.631 395.828 925.631 402.779 927.233 410.887C927.233 410.73 927.768 403.779 932.038 394.67C931.349 400.301 932.884 405.353 934.703 410.72C934.599 405.387 935.297 398.411 938.446 391.58C938.979 397.371 940.581 406.64 940.581 406.64C940.581 406.64 943.25 400.075 942.717 393.898C942.717 393.898 946.989 402.779 947.522 410.501C946.987 403.55 948.59 396.215 950.191 389.65C950.726 397.373 952.86 407.412 955.53 413.205C953.395 406.254 955.53 399.305 957.132 395.058C957.132 395.058 957.666 404.71 959.801 407.8C959.267 401.235 960.335 390.81 964.072 385.019C963.538 390.424 963.538 402.78 965.14 410.889C967.809 406.256 968.877 398.919 966.741 392.354C969.149 395.061 971.354 399.862 972.82 405.045C973.221 400.856 974.23 396.185 976.352 391.582C976.886 397.373 978.488 406.642 978.488 406.642C978.488 406.642 981.157 400.077 980.624 393.9C980.624 393.9 984.895 402.78 985.429 410.503C984.894 403.552 986.497 396.217 988.098 389.652C988.631 397.375 990.767 407.414 993.437 413.207C991.301 406.256 993.437 399.307 995.038 395.059C995.038 395.059 995.572 404.712 997.708 407.802C997.174 401.237 1000.38 394.674 1004.11 388.88C1003.58 394.286 1001.45 402.78 1003.05 410.889C1003.05 410.731 1003.58 403.781 1007.85 394.672C1007.16 400.303 1008.7 405.355 1010.52 410.722C1010.41 405.389 1011.11 398.413 1014.26 391.582C1014.79 397.373 1016.39 406.642 1016.39 406.642C1016.39 406.642 1019.06 400.077 1018.53 393.9C1018.53 393.9 1022.8 402.78 1023.34 410.503C1022.8 403.552 1024.4 396.217 1026 389.652C1026.54 397.375 1028.67 407.414 1031.34 413.207C1029.21 406.256 1031.34 399.307 1032.95 395.059C1032.95 395.059 1033.48 404.712 1035.61 407.802C1035.08 401.237 1036.15 393.13 1039.89 387.337C1039.35 392.742 1039.35 402.782 1040.95 410.891C1043.62 406.258 1044.69 398.921 1042.55 392.356C1047.36 397.761 1050.56 410.503 1046.01 420H524.127V419.975Z" fill="#73BBAF"/>
<path d="M874.127 419.975H872.804C872.804 419.975 869.776 404.109 875.473 391.559C876.007 397.35 877.609 406.619 877.609 406.619C877.609 406.619 880.278 400.054 879.745 393.877C879.745 393.877 884.016 402.758 884.55 410.48C884.016 403.529 885.618 396.195 887.219 389.63C887.752 397.352 889.888 407.391 892.558 413.184C890.422 406.233 892.558 399.284 894.159 395.037C894.159 395.037 894.693 404.689 896.829 407.779C896.295 401.214 897.363 396.194 901.1 390.403C900.567 395.809 900.567 402.759 902.168 410.868C902.168 410.711 902.702 403.76 906.973 394.651C906.284 400.282 907.819 405.334 909.637 410.701C909.533 405.368 910.232 398.392 913.38 391.561C913.915 397.352 915.516 406.621 915.516 406.621C915.516 406.621 918.185 400.056 917.652 393.879C917.652 393.879 921.923 402.759 922.456 410.482C921.923 403.531 923.524 396.196 925.126 389.631C925.66 397.354 927.795 407.393 930.465 413.186C928.329 406.235 930.465 399.286 932.066 395.039C932.066 395.039 932.6 404.691 934.735 407.781C934.201 401.216 935.269 390.791 939.007 385C938.474 390.405 938.474 402.761 940.075 410.87C942.744 406.237 943.812 398.9 941.676 392.335C944.083 395.042 946.289 399.843 947.755 405.026C948.156 400.837 949.164 396.166 951.286 391.563C951.819 397.354 953.421 406.623 953.421 406.623C953.421 406.623 956.091 400.058 955.557 393.881C955.557 393.881 959.829 402.761 960.362 410.484C959.828 403.533 961.43 396.198 963.031 389.633C963.566 397.356 965.7 407.395 968.371 413.188C966.235 406.237 968.371 399.288 969.972 395.04C969.972 395.04 970.506 404.693 972.641 407.783C972.108 401.218 975.31 394.655 979.048 388.861C978.515 394.267 976.379 402.761 977.98 410.87C977.98 410.712 978.515 403.761 982.785 394.653C982.096 400.284 983.631 405.336 985.449 410.703C985.346 405.37 986.044 398.394 989.192 391.563C989.726 397.354 991.328 406.623 991.328 406.623C991.328 406.623 993.997 400.058 993.464 393.881C993.464 393.881 997.736 402.761 998.269 410.484C997.734 403.533 999.337 396.198 1000.94 389.633C1001.47 397.356 1003.61 407.395 1006.28 413.188C1004.14 406.237 1006.28 399.288 1007.88 395.04C1007.88 395.04 1008.41 404.693 1010.55 407.783C1010.01 401.218 1011.08 393.111 1014.82 387.318C1014.29 392.723 1014.29 402.763 1015.89 410.872C1018.56 406.239 1019.62 398.902 1017.49 392.337C1019.33 394.409 1021.77 397.563 1023.83 401.197C1024.4 398.081 1025.34 394.807 1026.83 391.565C1027.37 397.356 1028.97 406.625 1028.97 406.625C1028.97 406.625 1031.64 400.06 1031.1 393.883C1031.1 393.883 1035.38 402.763 1035.91 410.486C1035.37 403.535 1036.98 396.2 1038.58 389.635C1039.11 397.358 1041.25 407.397 1043.92 413.19C1041.78 406.239 1043.92 399.29 1045.52 395.042C1045.52 395.042 1046.05 404.695 1048.19 407.784C1047.65 401.219 1048.72 396.2 1052.46 390.409C1051.93 395.814 1051.93 402.765 1053.53 410.874C1053.53 410.716 1054.06 403.765 1058.33 394.656C1057.78 399.172 1058.66 403.317 1059.97 407.549C1060.17 402.765 1061.11 397.117 1063.67 391.567C1064.21 397.358 1065.81 406.627 1065.81 406.627C1065.81 406.627 1068.48 400.062 1067.94 393.885C1067.94 393.885 1072.22 402.765 1072.75 410.488C1072.22 403.537 1073.82 396.202 1075.42 389.637C1075.95 397.36 1078.09 407.399 1080.76 413.192C1078.62 406.241 1080.76 399.292 1082.36 395.044C1082.36 395.044 1082.89 404.697 1085.03 407.786C1084.49 401.221 1085.56 396.202 1089.3 390.411C1088.76 395.816 1088.76 402.767 1090.37 410.876C1090.37 410.718 1090.9 403.767 1095.17 394.658C1094.55 399.719 1095.73 404.315 1097.3 409.093C1097.36 404.009 1098.21 397.729 1101.05 391.571C1101.58 397.362 1103.18 406.63 1103.18 406.63C1103.18 406.63 1105.85 400.065 1105.32 393.888C1105.32 393.888 1109.59 402.769 1110.12 410.492C1109.59 403.541 1111.19 396.206 1112.79 389.641C1113.32 397.364 1115.46 407.402 1118.13 413.195C1116 406.244 1118.13 399.295 1119.73 395.048C1119.73 395.048 1120.27 404.701 1122.4 407.79C1121.87 401.225 1122.93 396.206 1126.67 390.415C1126.14 395.82 1126.14 402.771 1127.74 410.88C1130.41 406.246 1131.48 398.91 1129.34 392.345C1131.54 394.822 1133.58 399.054 1135.03 403.725C1135.51 399.885 1136.51 395.7 1138.42 391.571C1138.95 397.362 1140.55 406.63 1140.55 406.63C1140.55 406.63 1143.22 400.065 1142.69 393.888C1142.69 393.888 1146.96 402.769 1147.49 410.492C1146.96 403.541 1148.56 396.206 1150.16 389.641C1150.7 397.364 1152.83 407.402 1155.5 413.195C1153.37 406.244 1155.5 399.295 1157.1 395.048C1157.1 395.048 1157.64 404.701 1159.77 407.79C1159.24 401.225 1160.31 393.118 1164.05 387.325C1163.51 392.73 1163.51 402.771 1165.11 410.88C1165.11 410.722 1165.65 403.771 1169.92 394.662C1169.3 399.723 1170.48 404.319 1172.04 409.096C1172.11 404.012 1172.95 397.733 1175.79 391.574C1176.33 397.366 1177.93 406.634 1177.93 406.634C1177.93 406.634 1180.6 400.069 1180.06 393.892C1180.06 393.892 1184.33 402.773 1184.87 410.496C1184.33 403.545 1185.94 396.21 1187.54 389.645C1188.07 397.368 1190.21 407.406 1192.88 413.199C1190.74 406.248 1192.88 399.299 1194.48 395.052C1194.48 395.052 1195.01 404.704 1197.15 407.794C1196.61 401.229 1197.68 394.666 1201.42 388.873C1200.88 394.278 1200.88 402.773 1202.49 410.882C1202.49 410.724 1203.02 403.773 1207.29 394.664C1206.67 399.725 1207.85 404.32 1209.42 409.098C1209.48 404.014 1210.33 397.735 1213.17 391.576C1213.7 397.368 1215.3 406.636 1215.3 406.636C1215.3 406.636 1217.97 400.071 1217.44 393.894C1217.44 393.894 1221.71 402.775 1222.24 410.498C1221.71 403.547 1223.31 396.212 1224.91 389.647C1225.45 397.369 1227.58 407.408 1230.25 413.201C1228.11 406.25 1230.25 399.301 1231.85 395.054C1231.85 395.054 1232.39 404.706 1234.52 407.796C1233.99 401.231 1235.05 390.806 1238.79 385.015C1238.26 390.42 1238.26 402.777 1239.86 410.885C1242.53 406.252 1243.6 398.915 1241.46 392.35C1243.66 394.828 1245.7 399.06 1247.15 403.733C1247.63 399.892 1248.63 395.708 1250.54 391.578C1251.07 397.369 1252.67 406.638 1252.67 406.638C1252.67 406.638 1255.34 400.073 1254.81 393.896C1254.81 393.896 1259.08 402.777 1259.61 410.499C1259.08 403.549 1260.68 396.213 1262.28 389.648C1262.82 397.371 1264.95 407.41 1267.62 413.203C1265.49 406.252 1267.62 399.303 1269.22 395.056C1269.22 395.056 1269.76 404.708 1271.89 407.798C1271.36 401.233 1272.43 396.214 1276.17 390.422C1275.63 395.828 1275.63 402.779 1277.23 410.887C1277.23 410.73 1277.77 403.779 1282.04 394.67C1281.35 400.301 1282.88 405.353 1284.7 410.72C1284.6 405.387 1285.3 398.411 1288.45 391.58C1288.98 397.371 1290.58 406.64 1290.58 406.64C1290.58 406.64 1293.25 400.075 1292.72 393.898C1292.72 393.898 1296.99 402.779 1297.52 410.501C1296.99 403.55 1298.59 396.215 1300.19 389.65C1300.73 397.373 1302.86 407.412 1305.53 413.205C1303.39 406.254 1305.53 399.305 1307.13 395.058C1307.13 395.058 1307.67 404.71 1309.8 407.8C1309.27 401.235 1310.34 390.81 1314.07 385.019C1313.54 390.424 1313.54 402.78 1315.14 410.889C1317.81 406.256 1318.88 398.919 1316.74 392.354C1319.15 395.061 1321.35 399.862 1322.82 405.045C1323.22 400.856 1324.23 396.185 1326.35 391.582C1326.89 397.373 1328.49 406.642 1328.49 406.642C1328.49 406.642 1331.16 400.077 1330.62 393.9C1330.62 393.9 1334.9 402.78 1335.43 410.503C1334.89 403.552 1336.5 396.217 1338.1 389.652C1338.63 397.375 1340.77 407.414 1343.44 413.207C1341.3 406.256 1343.44 399.307 1345.04 395.059C1345.04 395.059 1345.57 404.712 1347.71 407.802C1347.17 401.237 1350.38 394.674 1354.11 388.88C1353.58 394.286 1351.45 402.78 1353.05 410.889C1353.05 410.731 1353.58 403.781 1357.85 394.672C1357.16 400.303 1358.7 405.355 1360.52 410.722C1360.41 405.389 1361.11 398.413 1364.26 391.582C1364.79 397.373 1366.39 406.642 1366.39 406.642C1366.39 406.642 1369.06 400.077 1368.53 393.9C1368.53 393.9 1372.8 402.78 1373.34 410.503C1372.8 403.552 1374.4 396.217 1376 389.652C1376.54 397.375 1378.67 407.414 1381.34 413.207C1379.21 406.256 1381.34 399.307 1382.95 395.059C1382.95 395.059 1383.48 404.712 1385.61 407.802C1385.08 401.237 1386.15 393.13 1389.89 387.337C1389.35 392.742 1389.35 402.782 1390.95 410.891C1393.62 406.258 1394.69 398.921 1392.55 392.356C1397.36 397.761 1400.56 410.503 1396.01 420H874.127V419.975Z" fill="#73BBAF"/>
<path d="M1396.13 419.975H1394.8C1394.8 419.975 1391.78 404.109 1397.47 391.559C1398.01 397.35 1399.61 406.619 1399.61 406.619C1399.61 406.619 1402.28 400.054 1401.74 393.877C1401.74 393.877 1406.02 402.758 1406.55 410.48C1406.02 403.529 1407.62 396.195 1409.22 389.63C1409.75 397.352 1411.89 407.391 1414.56 413.184C1412.42 406.233 1414.56 399.284 1416.16 395.037C1416.16 395.037 1416.69 404.689 1418.83 407.779C1418.3 401.214 1419.36 396.194 1423.1 390.403C1422.57 395.809 1422.57 402.759 1424.17 410.868C1424.17 410.711 1424.7 403.76 1428.97 394.651C1428.28 400.282 1429.82 405.334 1431.64 410.701C1431.53 405.368 1432.23 398.392 1435.38 391.561C1435.91 397.352 1437.52 406.621 1437.52 406.621C1437.52 406.621 1440.18 400.056 1439.65 393.879C1439.65 393.879 1443.92 402.759 1444.46 410.482C1443.92 403.531 1445.52 396.196 1447.13 389.631C1447.66 397.354 1449.79 407.393 1452.46 413.186C1450.33 406.235 1452.46 399.286 1454.07 395.039C1454.07 395.039 1454.6 404.691 1456.74 407.781C1456.2 401.216 1457.27 390.791 1461.01 385C1460.47 390.405 1460.47 402.761 1462.07 410.87C1464.74 406.237 1465.81 398.9 1463.68 392.335C1466.08 395.042 1468.29 399.843 1469.76 405.026C1470.16 400.837 1471.16 396.166 1473.29 391.563C1473.82 397.354 1475.42 406.623 1475.42 406.623C1475.42 406.623 1478.09 400.058 1477.56 393.881C1477.56 393.881 1481.83 402.761 1482.36 410.484C1481.83 403.533 1483.43 396.198 1485.03 389.633C1485.57 397.356 1487.7 407.395 1490.37 413.188C1488.23 406.237 1490.37 399.288 1491.97 395.04C1491.97 395.04 1492.51 404.693 1494.64 407.783C1494.11 401.218 1497.31 394.655 1501.05 388.861C1500.51 394.267 1498.38 402.761 1499.98 410.87C1499.98 410.712 1500.51 403.761 1504.79 394.653C1504.1 400.284 1505.63 405.336 1507.45 410.703C1507.35 405.37 1508.04 398.394 1511.19 391.563C1511.73 397.354 1513.33 406.623 1513.33 406.623C1513.33 406.623 1516 400.058 1515.46 393.881C1515.46 393.881 1519.74 402.761 1520.27 410.484C1519.73 403.533 1521.34 396.198 1522.94 389.633C1523.47 397.356 1525.61 407.395 1528.28 413.188C1526.14 406.237 1528.28 399.288 1529.88 395.04C1529.88 395.04 1530.41 404.693 1532.55 407.783C1532.01 401.218 1533.08 393.111 1536.82 387.318C1536.29 392.723 1536.29 402.763 1537.89 410.872C1540.56 406.239 1541.62 398.902 1539.49 392.337C1541.33 394.409 1543.77 397.563 1545.83 401.197C1546.4 398.081 1547.34 394.807 1548.83 391.565C1549.37 397.356 1550.97 406.625 1550.97 406.625C1550.97 406.625 1553.64 400.06 1553.1 393.883C1553.1 393.883 1557.38 402.763 1557.91 410.486C1557.37 403.535 1558.98 396.2 1560.58 389.635C1561.11 397.358 1563.25 407.397 1565.92 413.19C1563.78 406.239 1565.92 399.29 1567.52 395.042C1567.52 395.042 1568.05 404.695 1570.19 407.784C1569.65 401.219 1570.72 396.2 1574.46 390.409C1573.93 395.814 1573.93 402.765 1575.53 410.874C1575.53 410.716 1576.06 403.765 1580.33 394.656C1579.78 399.172 1580.66 403.317 1581.97 407.549C1582.17 402.765 1583.11 397.117 1585.67 391.567C1586.21 397.358 1587.81 406.627 1587.81 406.627C1587.81 406.627 1590.48 400.062 1589.94 393.885C1589.94 393.885 1594.22 402.765 1594.75 410.488C1594.22 403.537 1595.82 396.202 1597.42 389.637C1597.95 397.36 1600.09 407.399 1602.76 413.192C1600.62 406.241 1602.76 399.292 1604.36 395.044C1604.36 395.044 1604.89 404.697 1607.03 407.786C1606.49 401.221 1607.56 396.202 1611.3 390.411C1610.76 395.816 1610.76 402.767 1612.37 410.876C1612.37 410.718 1612.9 403.767 1617.17 394.658C1616.55 399.719 1617.73 404.315 1619.3 409.093C1619.36 404.009 1620.21 397.729 1623.05 391.571C1623.58 397.362 1625.18 406.63 1625.18 406.63C1625.18 406.63 1627.85 400.065 1627.32 393.888C1627.32 393.888 1631.59 402.769 1632.12 410.492C1631.59 403.541 1633.19 396.206 1634.79 389.641C1635.32 397.364 1637.46 407.402 1640.13 413.195C1638 406.244 1640.13 399.295 1641.73 395.048C1641.73 395.048 1642.27 404.701 1644.4 407.79C1643.87 401.225 1644.93 396.206 1648.67 390.415C1648.14 395.82 1648.14 402.771 1649.74 410.88C1652.41 406.246 1653.48 398.91 1651.34 392.345C1653.54 394.822 1655.58 399.054 1657.03 403.725C1657.51 399.885 1658.51 395.7 1660.42 391.571C1660.95 397.362 1662.55 406.63 1662.55 406.63C1662.55 406.63 1665.22 400.065 1664.69 393.888C1664.69 393.888 1668.96 402.769 1669.49 410.492C1668.96 403.541 1670.56 396.206 1672.16 389.641C1672.7 397.364 1674.83 407.402 1677.5 413.195C1675.37 406.244 1677.5 399.295 1679.1 395.048C1679.1 395.048 1679.64 404.701 1681.77 407.79C1681.24 401.225 1682.31 393.118 1686.05 387.325C1685.51 392.73 1685.51 402.771 1687.11 410.88C1687.11 410.722 1687.65 403.771 1691.92 394.662C1691.3 399.723 1692.48 404.319 1694.04 409.096C1694.11 404.012 1694.95 397.733 1697.79 391.574C1698.33 397.366 1699.93 406.634 1699.93 406.634C1699.93 406.634 1702.6 400.069 1702.06 393.892C1702.06 393.892 1706.33 402.773 1706.87 410.496C1706.33 403.545 1707.94 396.21 1709.54 389.645C1710.07 397.368 1712.21 407.406 1714.88 413.199C1712.74 406.248 1714.88 399.299 1716.48 395.052C1716.48 395.052 1717.01 404.704 1719.15 407.794C1718.61 401.229 1719.68 394.666 1723.42 388.873C1722.88 394.278 1722.88 402.773 1724.49 410.882C1724.49 410.724 1725.02 403.773 1729.29 394.664C1728.67 399.725 1729.85 404.32 1731.42 409.098C1731.48 404.014 1732.33 397.735 1735.17 391.576C1735.7 397.368 1737.3 406.636 1737.3 406.636C1737.3 406.636 1739.97 400.071 1739.44 393.894C1739.44 393.894 1743.71 402.775 1744.24 410.498C1743.71 403.547 1745.31 396.212 1746.91 389.647C1747.45 397.369 1749.58 407.408 1752.25 413.201C1750.11 406.25 1752.25 399.301 1753.85 395.054C1753.85 395.054 1754.39 404.706 1756.52 407.796C1755.99 401.231 1757.05 390.806 1760.79 385.015C1760.26 390.42 1760.26 402.777 1761.86 410.885C1764.53 406.252 1765.6 398.915 1763.46 392.35C1765.66 394.828 1767.7 399.06 1769.15 403.733C1769.63 399.892 1770.63 395.708 1772.54 391.578C1773.07 397.369 1774.67 406.638 1774.67 406.638C1774.67 406.638 1777.34 400.073 1776.81 393.896C1776.81 393.896 1781.08 402.777 1781.61 410.499C1781.08 403.549 1782.68 396.213 1784.28 389.648C1784.82 397.371 1786.95 407.41 1789.62 413.203C1787.49 406.252 1789.62 399.303 1791.22 395.056C1791.22 395.056 1791.76 404.708 1793.89 407.798C1793.36 401.233 1794.43 396.214 1798.17 390.422C1797.63 395.828 1797.63 402.779 1799.23 410.887C1799.23 410.73 1799.77 403.779 1804.04 394.67C1803.35 400.301 1804.88 405.353 1806.7 410.72C1806.6 405.387 1807.3 398.411 1810.45 391.58C1810.98 397.371 1812.58 406.64 1812.58 406.64C1812.58 406.64 1815.25 400.075 1814.72 393.898C1814.72 393.898 1818.99 402.779 1819.52 410.501C1818.99 403.55 1820.59 396.215 1822.19 389.65C1822.73 397.373 1824.86 407.412 1827.53 413.205C1825.39 406.254 1827.53 399.305 1829.13 395.058C1829.13 395.058 1829.67 404.71 1831.8 407.8C1831.27 401.235 1832.34 390.81 1836.07 385.019C1835.54 390.424 1835.54 402.78 1837.14 410.889C1839.81 406.256 1840.88 398.919 1838.74 392.354C1841.15 395.061 1843.35 399.862 1844.82 405.045C1845.22 400.856 1846.23 396.185 1848.35 391.582C1848.89 397.373 1850.49 406.642 1850.49 406.642C1850.49 406.642 1853.16 400.077 1852.62 393.9C1852.62 393.9 1856.9 402.78 1857.43 410.503C1856.89 403.552 1858.5 396.217 1860.1 389.652C1860.63 397.375 1862.77 407.414 1865.44 413.207C1863.3 406.256 1865.44 399.307 1867.04 395.059C1867.04 395.059 1867.57 404.712 1869.71 407.802C1869.17 401.237 1872.38 394.674 1876.11 388.88C1875.58 394.286 1873.45 402.78 1875.05 410.889C1875.05 410.731 1875.58 403.781 1879.85 394.672C1879.16 400.303 1880.7 405.355 1882.52 410.722C1882.41 405.389 1883.11 398.413 1886.26 391.582C1886.79 397.373 1888.39 406.642 1888.39 406.642C1888.39 406.642 1891.06 400.077 1890.53 393.9C1890.53 393.9 1894.8 402.78 1895.34 410.503C1894.8 403.552 1896.4 396.217 1898 389.652C1898.54 397.375 1900.67 407.414 1903.34 413.207C1901.21 406.256 1903.34 399.307 1904.95 395.059C1904.95 395.059 1905.48 404.712 1907.61 407.802C1907.08 401.237 1908.15 393.13 1911.89 387.337C1911.35 392.742 1911.35 402.782 1912.95 410.891C1915.62 406.258 1916.69 398.921 1914.55 392.356C1919.36 397.761 1922.56 410.503 1918.01 420H1396.13V419.975Z" fill="#73BBAF"/>
</svg>
