<svg width="33" height="19" viewBox="0 0 33 19" fill="none" xmlns="http://www.w3.org/2000/svg">
<path d="M32.9851 0C32.2093 5.86919 29.9857 11.9108 25.1995 15.3779C22.0222 17.6793 17.8873 18.6128 14.0291 17.8999C10.1712 17.1866 6.67273 14.6243 5.78315 9.88757C5.78315 9.88757 18.0512 13.0179 27.3725 5.84816C5.81152 13.9062 0 3.58457 0 3.58457L1.81364 2.5809C2.61993 4.10775 4.10836 5.18404 5.70874 5.83168C6.18619 6.02508 6.67522 6.18435 7.17155 6.31887C8.81189 3.60254 11.7012 1.6507 14.8498 1.20592C17.9627 0.766027 21.0817 1.70867 24.198 2.12203C27.3017 2.5342 30.8317 2.26665 32.9851 0Z" fill="#27685E"/>
</svg>
