<svg width="40" height="40" viewBox="0 0 40 40" fill="none" xmlns="http://www.w3.org/2000/svg">
<g clip-path="url(#clip0_197_789)">
<path d="M38.8559 27.9483C39.7815 25.8671 40.1565 23.5659 39.9405 21.2934C39.8976 20.8414 39.617 20.4467 39.2045 20.2574C38.4142 19.8947 37.5916 19.6123 36.7507 19.4112C36.8616 18.6499 36.9201 17.8719 36.9201 17.0803C36.9201 8.20837 29.7022 0.990479 20.8302 0.990479C11.9583 0.990479 4.74056 8.20829 4.74056 17.0802C4.74056 17.1576 4.74243 17.2345 4.74352 17.3116C4.74267 17.331 4.74056 17.3501 4.74056 17.3698C4.74056 17.4026 4.74298 17.4349 4.74548 17.467C4.75571 17.8994 4.78313 18.3276 4.82696 18.751C3.42087 18.916 2.06493 19.2547 0.798603 19.7627C0.306571 19.9601 -0.0115536 20.4419 0.000321405 20.9719C0.0610245 23.6924 0.880634 26.4759 2.37024 29.0213C3.89087 31.6199 6.08134 33.9088 8.70477 35.6406C11.3282 37.3725 14.2938 38.4874 17.2808 38.8646C18.0478 38.9615 18.8116 39.0096 19.567 39.0096C21.6931 39.0096 23.7506 38.6284 25.6141 37.8809C25.7866 37.8117 25.9371 37.707 26.0601 37.5781C27.933 37.9497 29.8431 38.1391 31.7651 38.1391C33.2702 38.1391 34.7832 38.0234 36.2905 37.7893C36.9849 37.6815 37.4604 37.0312 37.3526 36.3368C37.2448 35.6424 36.5943 35.1669 35.9001 35.2747C33.7421 35.6097 31.5729 35.6774 29.4354 35.4907C31.2342 35.1279 32.9473 34.3907 34.4562 33.3188C36.3795 31.9527 37.901 30.0954 38.8559 27.9483ZM33.2772 11.7724C33.8602 13.1295 34.2288 14.5715 34.3396 16.0984H28.0638C27.9958 14.5716 27.7712 13.1295 27.4011 11.7724H33.2772ZM34.285 18.6431C34.1761 19.5761 33.9703 20.5009 33.6769 21.3761C33.6107 21.3655 33.5434 21.3574 33.4743 21.3574H27.6366C27.8254 20.4244 27.9558 19.5761 28.0259 18.6431H34.285ZM31.8371 9.22767H26.5382C25.6665 7.10704 24.4477 5.26884 22.9374 3.7322C26.5917 4.30532 29.7658 6.34368 31.8371 9.22767ZM16.1461 16.0984C16.2285 14.5716 16.5002 13.1295 16.9388 11.7724H24.7573C25.1799 13.1295 25.4392 14.5715 25.5169 16.0984H16.1461ZM25.4716 18.6431C25.3903 19.5761 25.2394 20.5091 25.0234 21.3574H16.6661C16.6493 21.3574 16.6323 21.3395 16.6154 21.3299C16.4076 20.4592 16.2638 19.5761 16.1862 18.6431H25.4716ZM20.8409 5.23493C22.0105 6.35306 22.9888 7.70087 23.7455 9.22767H17.9672C18.7252 7.70079 19.6951 6.35517 20.8409 5.23493ZM18.7545 3.71056C17.3841 5.12681 16.2229 6.85454 15.3531 8.77306C15.2861 8.92071 15.2215 9.05798 15.1581 9.22759H9.82376C11.9009 6.34368 15.087 4.27704 18.7545 3.71056ZM8.38352 11.7724H14.2815C13.8985 13.1295 13.6683 14.6563 13.5979 16.0984H7.3211C7.43188 14.5716 7.80048 13.1295 8.38352 11.7724ZM13.7759 19.9695C12.2647 19.3815 10.7015 18.9774 9.13188 18.7792C8.54391 18.7049 7.9579 18.6611 7.37602 18.6438C7.37602 18.6435 7.37595 18.6431 7.37595 18.6431H13.6334C13.6666 19.0672 13.7149 19.5312 13.7759 19.9695ZM13.4905 31.8905L15.6121 33.2885C17.5055 34.5362 19.518 35.5496 21.6086 36.3221C17.8427 36.847 13.6641 35.8654 10.1068 33.5171C5.83657 30.6981 3.0236 26.2823 2.59774 21.8186C6.86962 20.4562 12.0356 21.3076 16.3059 24.1266C20.0918 26.6257 22.7306 30.3802 23.5777 34.3102C21.2773 33.5709 19.068 32.5183 17.0125 31.1638L14.8908 29.7656C14.3041 29.379 13.5149 29.5412 13.1282 30.1279C12.7415 30.7146 12.9038 31.5038 13.4905 31.8905ZM22.7338 26.6748C21.9751 25.6819 21.1136 24.7504 20.1667 23.9021H24.1954C23.79 24.92 23.2999 25.8174 22.7338 26.6748ZM24.7884 30.0344C24.617 29.6725 24.4314 29.3152 24.2341 28.9612C25.0482 27.8825 25.757 26.6802 26.3349 25.3856C26.5508 24.9016 26.7475 24.4111 26.9247 23.9022H32.5274C30.8247 26.7861 28.0697 29.0298 24.7884 30.0344ZM32.9824 31.2445C30.9105 32.7163 28.3973 33.3703 25.9219 33.1625C25.8578 32.912 25.7868 32.662 25.7107 32.4127C30.6867 30.8252 34.6189 26.8784 36.1848 21.8929C36.6124 21.9956 37.0356 22.1252 37.4519 22.2818C37.5387 25.8116 35.869 29.1938 32.9824 31.2445Z" fill="white"/>
</g>
<defs>
<clipPath id="clip0_197_789">
<rect width="40" height="40" fill="white"/>
</clipPath>
</defs>
</svg>
