<svg width="219" height="280" viewBox="0 0 219 280" fill="none" xmlns="http://www.w3.org/2000/svg">
<rect width="219" height="280" rx="50" fill="white"/>
<path d="M108.999 107.375C130.536 107.375 147.997 124.837 147.997 146.374C147.997 167.911 130.536 185.372 108.999 185.372C87.4613 185.372 70 167.911 70 146.374C70 124.836 87.4613 107.375 108.999 107.375Z" fill="#5D718F"/>
<path d="M108.999 107.375C124.442 107.375 137.788 116.346 144.102 129.372C145.061 132.908 145.56 136.624 145.56 140.46C145.56 163.995 126.48 183.055 102.965 183.055C99.469 183.055 96.0725 182.635 92.816 181.836C79.3701 175.683 70.02 162.117 70.02 146.354C70.02 124.816 87.4817 107.355 109.019 107.355L108.999 107.375Z" fill="#6B7F9E"/>
<path d="M133.373 115.926C140.625 121.74 145.76 130.071 147.418 139.621C147.298 139.441 147.178 139.201 147.058 138.862C146.299 139.121 146.279 139.121 145.38 139.281L145.34 139.341C144.98 139.841 145.36 139.641 144.721 140.16C143.981 140.8 143.482 141.659 142.643 142.158C142.543 143.057 142.723 143.257 142.503 144.316C142.423 144.715 141.983 145.754 141.464 145.674C141.304 145.654 140.605 143.936 140.445 143.477C140.166 142.677 139.866 142.078 139.666 141.159C139.546 140.66 139.486 139.721 139.367 139.401C138.827 139.481 138.847 139.821 138.348 139.461C137.988 139.201 138.148 139.041 137.948 138.642C137.529 138.242 137.089 137.842 136.65 137.443C136.31 137.343 135.011 137.523 134.472 137.463C133.493 137.363 133.393 137.423 132.814 136.644C131.775 136.704 131.855 137.083 130.855 136.204C130.196 135.645 130.316 134.745 129.357 135.245C129.317 136.064 129.717 136.244 130.076 136.624C130.336 136.923 130.656 137.123 130.796 137.503C130.816 137.523 130.876 137.882 130.876 137.922C131.814 137.982 132.035 137.543 132.554 137.163C133.053 137.622 132.574 137.722 133.293 138.082C133.873 138.382 133.753 138.202 134.132 138.681C134.312 139.321 132.854 141.019 132.354 141.339C131.975 141.578 131.775 141.439 131.435 141.718C130.935 142.138 131.495 142.078 130.616 142.398C129.677 142.737 128.758 143.457 127.779 143.516C127.559 142.937 127.359 142.338 127.139 141.758C126.52 139.74 126.54 140.519 125.901 139.481C125.601 139.021 125.721 138.741 125.521 138.342C125.381 138.042 125.181 137.902 124.982 137.542C124.702 136.963 124.363 136.084 123.703 136.164C123.563 136.604 124.322 138.142 124.502 138.501C124.682 138.881 124.982 139.041 125.082 139.56C125.202 140.28 125.062 140.2 125.461 140.679C126.301 141.698 125.422 141.519 126.72 142.497C127.699 143.237 127.439 143.456 127.859 144.455C128.498 144.635 130.396 143.796 130.716 144.036C131.095 144.735 130.276 145.834 130.056 146.433C129.357 148.451 128.138 148.411 127.199 149.949C126.68 150.788 126.46 150.888 125.981 151.887C125.441 153.026 127.06 156.143 126.101 157.461C125.881 157.761 125.202 157.941 124.343 158.86C123.423 159.839 124.363 159.679 124.023 161.338C123.743 161.717 123.404 161.737 123.084 162.017C122.964 162.397 123.064 162.716 122.844 163.196C122.625 163.775 122.584 163.455 122.265 163.935C122.025 164.295 122.045 164.455 121.785 164.794C121.546 165.114 121.426 165.194 121.206 165.393C120.127 166.392 117.789 166.432 117.59 166.292C117.03 165.833 117.41 165.693 117.27 165.034C117.13 164.454 116.83 163.975 116.571 163.515L116.551 163.476C116.431 163.256 116.311 163.036 116.251 162.836C115.811 161.418 115.971 160.339 115.172 158.9C114.193 157.042 115.711 156.063 115.651 155.024C115.631 154.745 115.532 154.585 115.512 154.345C115.332 153.186 115.212 152.147 114.433 151.228C113.574 150.229 113.693 150.589 113.973 148.95C114.313 147.072 113.534 147.552 112.395 147.512C111.836 145.814 110.777 146.633 109.698 147.152C109.018 147.452 108.779 147.072 108.02 147.172C106.321 147.412 107.66 148.131 105.383 146.333C104.444 145.573 105.063 145.973 104.503 145.034C104.324 144.694 103.744 144.235 103.485 143.895C102.626 142.816 103.644 141.717 103.505 140.479C103.245 138.181 102.865 140.179 104.144 137.402C104.823 135.923 105.842 135.904 106.102 135.244C106.322 134.645 106.182 134.225 106.602 133.686C106.981 133.246 107.521 133.326 107.72 132.647C108.02 131.788 107.441 131.688 106.821 131.668C106.562 130.769 106.562 131.008 106.762 130.169C106.881 129.71 106.782 129.49 106.881 129.031C107.141 127.872 109.099 129.031 109.658 128.551C109.918 128.052 109.958 127.572 109.658 127.113C109.339 126.653 108.939 126.713 108.719 126.254C109.199 125.934 108.839 126.214 109.259 126.134C109.738 126.034 109.678 125.874 110.257 125.774C110.777 125.674 111.097 125.195 111.596 124.875C112.315 124.416 111.975 123.996 112.834 123.857C114.213 123.617 113.314 123.657 113.474 122.358C113.693 122.278 113.893 122.178 114.093 122.098C114.533 122.678 113.973 122.438 114.513 122.818C114.652 122.738 114.812 122.658 114.952 122.578C114.872 121.959 114.593 122.078 114.413 121.299C113.734 121.399 113.474 121.998 112.934 121.779C112.395 121.579 112.375 120.8 112.395 120.16C112.595 119.681 113.594 119.421 113.973 119.301C114.593 119.082 114.513 118.662 115.092 118.103C115.831 117.343 115.292 118.103 115.651 117.144C116.471 117.104 116.091 117.084 116.571 116.824L116.591 116.804L116.651 116.784C116.93 116.644 117.31 116.624 117.69 116.484C119.068 116.025 119.628 116.244 120.626 116.664C121.405 116.984 123.743 117.004 123.903 117.983C123.343 118.562 122.804 118.143 121.985 118.203C122.125 118.962 122.205 118.962 122.884 119.162C123.004 118.802 122.844 118.942 123.024 118.722C123.243 118.762 123.483 118.802 123.703 118.842C123.923 118.062 124.183 118.182 124.962 118.082C124.842 117.543 124.702 117.703 124.982 117.283C125.761 117.363 125.122 117.303 125.521 117.922C126.061 117.862 126.6 117.243 127.359 117.163C127.839 117.123 127.799 117.303 128.478 117.223C129.037 117.163 128.997 116.963 129.557 117.203C129.757 116.824 129.557 116.844 130.037 116.744C130.776 116.624 131.435 117.063 132.155 117.183C131.615 116.524 131.116 116.644 131.775 115.545C132.614 115.365 132.694 115.505 133.054 116.124C133.254 116.005 133.353 115.885 133.453 115.825L133.373 115.926ZM70.939 137.962C72.6971 129.971 76.8928 122.898 82.7267 117.564C83.1861 117.724 83.7856 117.624 84.225 117.604C84.3848 117.304 84.4848 117.045 84.7643 116.925C84.884 116.885 85.0241 116.885 85.204 116.885C85.2241 117.025 85.2639 117.184 85.304 117.325C85.304 117.345 85.3241 117.444 85.3241 117.425C85.3442 117.404 85.3442 117.484 85.3642 117.504C86.1433 117.045 85.4839 117.045 85.9036 116.206C85.2442 116.086 85.3241 116.146 84.9245 115.726C85.3241 115.287 86.1032 115.127 86.6827 115.187C86.6429 115.586 86.463 115.566 86.6027 115.906C87.0425 115.627 87.3618 114.887 88.0814 115.007C88.2211 115.107 88.3809 115.207 88.5211 115.287C88.1416 115.646 87.5821 115.666 87.1027 115.866C86.883 118.044 87.7821 116.226 87.4822 117.704C88.0215 117.665 88.5411 117.265 88.7407 116.865C88.5408 116.606 88.2613 116.606 88.1014 116.286C88.2211 115.886 88.501 115.587 88.8805 115.407C89.1403 115.287 89.4399 115.227 89.7997 115.227C93.7754 115.267 91.8775 115.447 93.1164 116.006C93.3963 116.126 93.8757 116.186 94.0356 116.426C94.2954 116.805 94.0556 117.165 94.4552 117.465C94.795 117.724 94.8548 117.465 95.3142 118.044C95.2142 118.364 94.9745 118.704 94.495 118.724C93.8156 118.724 94.2155 118.264 93.4959 118.344C93.516 119.024 94.1753 119.283 93.5557 119.663C93.0164 119.983 93.3558 119.543 92.9365 119.763C92.9164 119.783 92.8967 119.783 92.8766 119.803C92.8566 119.822 92.8365 119.843 92.8168 119.862C92.7369 119.942 92.677 120.002 92.6172 120.082C91.6181 119.802 91.7979 119.942 91.1988 119.263C90.9791 119.003 90.9389 118.943 90.5394 118.983C90.2796 118.983 89.9599 119.103 89.7201 118.883C90.1996 118.264 90.4394 118.863 91.1586 118.504C91.2787 118.444 92.0778 117.845 92.1975 117.685C91.9778 117.205 92.1775 117.605 91.8578 117.285C91.1586 116.586 90.9587 116.746 90.0197 116.746C89.58 117.265 89.2407 117.885 88.7612 118.164C88.4616 118.324 88.1218 118.364 87.6624 118.164C87.8821 119.023 88.4218 118.364 88.4816 119.403C88.1222 119.323 87.9222 119.143 87.5624 119.283C86.7633 119.583 87.4825 119.563 87.5424 119.723C87.5424 119.723 87.9219 119.763 87.5424 119.923C87.1227 120.062 87.4825 119.843 86.6834 119.363C86.8031 119.164 86.903 118.964 87.0231 118.744C86.3838 118.944 85.5645 119.263 84.8055 119.643C83.9465 120.063 83.1273 120.562 82.6478 121.022C82.6277 121.781 82.7675 121.282 82.8478 122.161C84.0067 122.221 83.6269 122.58 84.7858 122.9C85.0055 122.96 85.3054 123.02 85.6448 123.08C85.6448 123.639 85.1453 124.059 85.485 124.638C86.3042 125.198 86.3239 124.099 86.5239 123.38C89.2811 122.8 87.9423 122.001 88.6615 120.483C88.7615 120.263 88.9213 120.023 89.141 119.764C89.3607 119.784 90.2201 119.864 90.3996 119.903C91.0189 120.003 90.6791 120.163 91.3586 120.463C91.3385 121.002 91.0791 121.702 91.8782 121.582C92.4975 121.482 92.3577 120.982 93.097 120.862C93.4367 121.661 93.3368 122.001 93.4966 122.94C95.2949 123.639 94.4957 124.219 94.1359 125.517C94.3556 125.617 94.5953 125.737 94.8351 125.817C94.815 126.197 94.815 126.576 94.7953 126.936C94.7555 126.936 92.8773 126.516 92.7376 126.496C93.0171 125.677 93.5568 125.657 93.8965 124.818C93.2171 124.938 93.2773 125.138 92.7777 125.297C92.338 125.437 91.9986 125.338 91.5388 125.397C91.379 125.937 91.5188 124.918 91.5786 125.617C91.5987 125.877 91.7184 125.637 91.5586 125.917C90.9393 125.617 91.1389 124.938 89.9803 125.577C90.2401 125.697 90.4999 125.797 90.7795 125.917C90.7397 126.676 90.6795 126.097 90.5197 126.616C90.1201 127.935 91.5983 127.115 91.9983 127.036C91.8983 127.735 91.4786 127.735 90.8794 127.915C90.2201 128.115 90.0204 128.394 89.5008 128.514C89.5008 127.695 89.3811 128.374 89.7406 127.815C89.2209 127.854 88.8214 128.114 88.3222 128.314L88.2623 128.334C87.623 128.594 87.523 128.634 87.4431 129.453C86.9037 129.613 86.2644 129.812 85.8648 130.212C85.4853 130.572 85.0858 130.951 84.7059 131.311C84.6658 131.351 84.646 131.371 84.626 131.391C84.7657 132.43 84.626 132.45 84.0067 132.849C83.4874 133.189 83.3076 133.169 82.8281 133.609C81.2695 135.007 82.0088 134.348 82.1088 136.765C81.7892 136.666 81.4695 136.546 81.1699 136.446C80.9302 134.848 81.2498 135.387 79.9712 135.007C78.5925 134.608 78.7724 135.287 78.193 135.407C77.5536 135.547 77.234 134.827 76.3148 135.427C75.7955 135.767 75.316 136.006 75.196 136.626C75.0562 137.385 74.7165 137.924 74.7566 138.763C74.8365 141.021 76.8942 141.141 77.4139 140.102C77.7536 139.403 77.6737 139.023 78.8126 139.203C78.9323 139.802 78.7527 140.242 78.5929 140.701C78.4929 140.981 78.2134 141.46 78.3531 141.84C79.1724 142.16 79.1921 141.54 80.2711 142.18C80.351 143.239 79.7916 144.457 80.6108 145.077C81.2502 145.536 81.2903 145.116 81.8497 145.037C82.469 144.937 82.3693 145.316 82.9287 145.396C83.2484 144.996 83.1086 145.256 83.3283 144.757C83.7078 143.917 83.8078 144.317 84.6869 143.798C84.7668 143.758 84.8467 143.698 84.9467 143.638C85.0467 143.858 85.1664 144.058 85.2664 144.257C85.9257 143.478 85.9856 144.237 86.745 144.457C87.0646 144.537 87.3044 144.577 87.4642 144.577C88.0035 144.577 88.0637 144.317 88.8027 144.577C88.8826 144.617 89.0027 144.657 89.1023 144.677C89.1224 144.677 89.1421 144.697 89.1421 144.717C89.1621 144.717 89.2019 144.757 89.2019 144.776C89.3216 144.916 89.3417 145.056 89.4417 145.196C89.9613 145.696 90.4605 146.175 90.9601 146.655C91.9391 147.054 91.9391 146.315 93.078 147.394C93.5575 147.853 93.3378 147.834 93.5973 148.413C93.6374 148.513 93.717 148.593 93.7571 148.712C93.8571 148.992 93.9768 149.252 94.0768 149.511C94.596 150.191 95.2956 149.771 95.9947 150.45C96.4144 150.85 96.0947 150.73 97.0136 150.89C98.432 151.13 97.8726 150.99 98.9516 151.809C99.3713 152.109 99.4712 151.929 99.8508 152.189C100.39 152.948 100.25 153.747 99.811 154.406C98.4323 156.424 98.8918 156.105 98.8319 157.703C98.7721 158.622 98.5123 160.52 97.6533 160.76C94.5165 161.639 96.3345 162.258 95.5156 163.797C95.2759 164.236 95.096 164.356 94.9562 164.696C94.3369 166.154 94.7763 166.654 92.9182 166.314C93.0981 166.614 92.978 166.414 93.1579 166.694C93.6973 167.553 93.7972 168.192 92.6784 168.392C91.7395 168.572 92.1391 168.392 92.0592 169.431C91.6994 169.571 91.5395 169.431 91.2998 169.671C91.6195 170.27 91.3199 169.771 91.8793 170.11C91.7793 170.43 91.6994 170.77 91.6195 171.069C91.3998 171.848 91.3396 171.129 91.2797 172.048C91.5994 172.188 91.8391 172.168 92.1187 172.568C92.0789 172.867 91.7789 173.686 91.699 174.146C92.1585 174.845 92.5383 175.584 93.517 175.644C93.4969 176.224 93.6367 176.163 93.1375 176.284C92.7179 176.383 91.8187 175.984 91.4392 175.784C90.7999 175.424 90.2003 174.965 89.761 174.305C89.5212 173.926 89.6212 174.105 89.3413 173.766C88.8618 173.147 89.0618 172.867 88.9217 172.467C88.8418 172.228 88.4623 171.968 88.6221 171.189C88.6619 170.969 89.0016 169.91 88.582 170.09C88.1623 170.27 88.9016 170.19 88.3222 170.469C88.1824 170.09 88.0623 169.53 88.0025 169.051C87.8627 168.252 87.6628 168.232 87.5828 167.752C87.403 166.633 87.8627 166.513 87.3431 164.675C87.0034 163.457 87.1431 160.56 86.7636 159.061C86.7038 158.821 86.6439 158.621 86.5439 158.462C86.2042 157.903 85.385 157.643 84.726 157.183C84.6858 157.183 84.6661 157.163 84.646 157.144C83.7268 156.504 82.8678 153.987 82.1486 153.048C81.8089 152.588 81.6093 152.788 81.4494 152.089C81.2896 151.429 81.5293 151.549 81.749 151.01C80.6302 148.972 83.1875 148.992 82.6682 146.555C82.5485 146.115 82.2285 145.476 81.949 145.276C81.4294 145.516 81.6691 145.636 81.3896 146.075C80.9699 145.835 80.5503 145.596 80.131 145.356C78.8524 144.117 79.5315 145.016 79.172 144.197C78.3929 142.499 77.6536 143.458 76.7344 142.599C76.3148 142.239 76.2549 141.699 75.5558 141.799C74.5169 141.939 75.0963 142.099 74.0173 141.599C73.0981 141.18 72.1592 140.661 71.5198 140.081C71.4797 138.862 71.8596 138.982 70.9404 137.864V137.962H70.939ZM83.166 117.184C83.4058 116.984 83.6455 116.765 83.8853 116.565L83.9053 116.605C83.9455 116.685 83.9852 116.685 84.0451 116.905C83.4058 117.065 83.4058 117.165 83.166 117.205V117.184ZM116.531 128.772C116.871 128.992 117.29 129.152 117.55 129.391C117.869 130.291 117.47 129.851 118.089 130.79C118.449 131.29 118.369 131.649 118.748 131.929C119.428 131.849 118.828 132.049 119.268 131.629C119.348 131.55 119.547 131.29 119.607 131.21C119.388 130.87 119.248 130.83 119.048 130.491C119.827 129.472 120.167 130.051 120.347 130.73C120.826 132.628 121.586 132.069 122.205 131.989C122.844 131.909 122.285 132.009 122.864 132.169C123.424 132.309 123.144 132.169 123.544 132.069C124.863 131.749 123.843 134.286 123.704 134.566C122.984 134.646 123.124 134.506 122.625 134.446C121.586 134.346 122.684 135.065 120.247 134.266C117.91 133.527 118.409 133.347 117.91 134.986C117.37 134.946 117.39 134.846 116.891 134.666C116.691 134.586 116.591 134.546 116.511 134.526H116.491C116.291 134.466 116.491 134.526 116.071 134.127C115.712 133.787 114.833 133.707 114.193 133.367C114.193 132.828 114.673 132.388 114.093 131.729C113.913 131.689 111.256 131.789 110.817 131.868C109.958 132.048 109.798 132.788 108.619 132.628C107.98 132.528 108.199 132.608 108.039 132.228C108.259 132.009 108.039 132.128 108.399 131.989C108.539 131.949 108.579 131.949 108.719 131.949C110.637 131.649 109.657 130.69 110.856 129.751C111.855 128.952 111.076 129.771 111.615 128.792C112.295 128.732 112.195 129.071 112.774 128.792C113.254 128.552 113.094 128.352 113.773 128.312C114.372 128.912 114.252 129.271 115.231 129.731C115.611 129.911 115.851 130.011 116.111 130.35C116.55 130.989 116.17 130.79 116.35 131.229C116.39 131.209 116.43 131.189 116.49 131.169L116.51 131.149C117.029 130.889 116.25 130.81 117.09 130.07C116.85 129.89 116.67 129.771 116.51 129.671L116.49 129.651C115.831 129.271 116.09 129.63 115.252 128.572C115.032 128.272 114.972 128.252 114.972 127.793C115.591 127.693 115.691 128.133 116.25 128.612C116.33 128.692 116.41 128.752 116.51 128.812L116.53 128.832V128.772H116.531ZM129.857 155.684C129.317 155.964 129.237 156.603 128.818 156.963C128.378 157.382 127.759 157.182 127.599 157.942C127.379 158.901 127.979 158.601 127.319 159.84C127.08 160.299 127.06 161.458 127.439 161.798C128.518 162.837 129.117 160.199 129.357 159.36C129.537 158.761 129.717 158.102 129.917 157.542C130.117 156.943 130.396 156.423 129.857 155.664V155.684ZM128.059 127.793C128.139 129.012 128.878 129.491 129.378 130.051C129.318 130.63 129.178 130.491 129.198 131.29C129.817 131.729 130.257 132.009 131.056 131.789C131.176 130.81 130.856 130.85 130.556 130.191C130.596 130.111 130.736 130.011 130.776 129.991C130.996 129.692 130.896 130.111 130.996 129.612C130.416 129.412 129.457 128.813 129.377 128.034C129.657 127.814 129.577 127.954 129.797 127.814C130.256 127.514 129.917 127.974 130.176 127.454C129.937 126.995 129.677 126.915 129.097 127.135C128.838 127.235 128.178 127.714 128.058 127.814V127.793H128.059ZM122.944 128.113C122.565 127.573 122.584 127.294 121.825 127.274C121.526 127.593 121.186 128.073 121.006 128.572C120.766 129.312 120.926 128.812 120.966 129.611C120.946 129.631 120.966 129.671 120.966 129.711C120.946 130.191 120.847 129.611 120.907 130.071C121.486 129.951 121.046 129.951 121.486 129.811C121.906 129.671 123.164 129.291 123.524 129.391C124.383 129.591 125.102 130.27 126.081 129.591C126.042 128.712 124.983 128.392 124.263 128.013C124.303 127.214 124.503 127.853 124.463 127.074C124.224 127.054 124.064 127.034 123.824 127.114C123.265 127.374 123.564 127.434 123.564 127.514C123.584 127.953 124.124 127.434 123.544 127.953C123.384 128.093 123.124 128.093 122.925 128.113L122.944 128.113ZM108.359 122.059C108.339 123.458 108.819 122.998 109.278 123.678C109.059 124.277 109.018 123.797 108.799 124.417C108.579 124.936 108.839 124.477 108.719 125.356C109.078 125.376 109.618 125.256 110.098 125.216C110.777 125.156 110.757 125.096 110.997 124.397C110.617 123.937 110.257 123.478 109.858 123.018C109.378 122.279 109.858 122.779 109.718 122.159C109.598 121.94 109.498 121.72 109.398 121.5C108.759 121.72 108.819 121.66 108.38 122.059H108.359Z" fill="#F7F9F7"/>
<path d="M43.7677 113.548L54.796 109.113L52.858 104.398L70.6393 112.03L63.3871 130.111L61.1093 124.496L51.6392 128.293C47.4237 133.507 47.0438 140.2 50.2007 148.251L40.0313 140.32C35.5159 136.803 33.3783 131.529 34.1574 125.855C34.9569 120.181 38.433 115.686 43.7677 113.548Z" fill="#5FDC68"/>
<path d="M51.6392 128.313C34.4774 134.886 49.7413 147.912 49.7413 147.912L50.2007 148.272C47.3438 141.539 46.984 134.866 51.6392 128.313Z" fill="#56BF5D"/>
<path d="M59.3909 198.039L58.5716 186.171L53.4968 186.551L66.2435 171.986L81.2078 184.473L75.174 184.913L75.8732 195.082C79.5292 200.696 85.7827 203.134 94.4135 202.614L83.7249 209.847C78.9698 213.064 73.2958 213.463 68.1414 210.946C62.9867 208.428 59.7901 203.733 59.3905 197.999L59.3909 198.039Z" fill="#5FDC68"/>
<path d="M75.8535 195.102C76.7924 213.463 93.9144 202.974 93.9144 202.974L94.414 202.634C87.1216 203.274 80.6685 201.536 75.8736 195.102H75.8535Z" fill="#56BF5D"/>
<path d="M144.561 209.287L133.033 206.39L131.834 211.345L121.925 194.722L138.428 184.354L136.969 190.227L146.859 192.705C153.332 190.967 157.567 185.752 159.765 177.401L163.341 189.808C164.919 195.322 163.561 200.836 159.585 204.972C155.609 209.107 150.135 210.686 144.581 209.287H144.561Z" fill="#5FDC68"/>
<path d="M146.859 192.725C164.6 197.5 159.925 177.98 159.925 177.98L159.765 177.421C158.107 184.554 154.471 190.167 146.859 192.725Z" fill="#56BF5D"/>
<path d="M181.582 131.769L175.269 141.839L179.604 144.516L160.724 148.811L155.969 129.911L161.124 133.108L166.538 124.457C166.878 117.764 163.241 112.13 155.969 107.455L168.855 107.895C174.589 108.094 179.404 111.091 182.101 116.166C184.799 121.22 184.619 126.914 181.582 131.769Z" fill="#5FDC68"/>
<path d="M166.538 124.457C176.567 109.053 156.548 107.475 156.548 107.475L155.949 107.454C162.222 111.231 166.438 116.425 166.518 124.456L166.538 124.457Z" fill="#56BF5D"/>
<path d="M119.288 72.5916L126.92 81.722L130.796 78.4254L129.038 97.7051L109.598 96.3863L114.233 92.4705L107.68 84.6387C101.407 82.2413 94.9336 83.9593 88.2407 89.4337L92.6361 77.3066C94.5942 71.9121 98.9494 68.2561 104.584 67.2573C110.238 66.2582 115.592 68.1962 119.268 72.5916H119.288Z" fill="#5FDC68"/>
<path d="M107.68 84.6589C96.132 70.3741 88.4404 88.8944 88.4404 88.8944L88.2405 89.4538C93.7747 84.6589 100.008 82.2614 107.68 84.6589Z" fill="#56BF5D"/>
</svg>
