<svg width="457" height="415" viewBox="0 0 457 415" fill="none" xmlns="http://www.w3.org/2000/svg">
<mask id="mask0_144_2281" style="mask-type:alpha" maskUnits="userSpaceOnUse" x="0" y="0" width="457" height="415">
<rect x="0.5" width="456.5" height="415" fill="#D9D9D9"/>
</mask>
<g mask="url(#mask0_144_2281)">
<path d="M376.396 105.219C376.396 105.219 373.965 96.6751 361.702 111.731C361.702 111.731 362.614 104.954 359.21 97.0729C359.21 97.0729 354.516 111.294 344.506 114.879C344.506 114.879 346.455 112.095 352.655 100.888C352.655 100.888 349.027 92.5483 342.777 98.9844C345.325 90.4052 347.829 79.2633 347.196 70.001C347.196 70.001 341.971 80.2115 335.964 87.8207C335.729 86.458 335.438 85.2144 335.075 84.1806C335.495 83.8382 335.936 83.5026 336.408 83.177C336.408 83.177 333.872 78.5484 325.564 75.4654C325.564 75.4654 333.664 73.4532 340.435 71.5534C340.435 71.5534 336.806 63.6707 321.971 58.0704C321.971 58.0704 327.307 57.6239 338.667 54.7457C338.667 54.7457 328.257 38.507 310.335 51.782C310.335 51.782 314.143 47.2003 314.169 35.7329C314.169 35.7329 307.719 47.2272 295.77 46.1095C306.536 37.1124 305.78 16.5135 300.699 2.69316C302.181 11.7943 299.31 19.724 295.609 25.7708C293.667 27.0932 291.24 29.3656 288.208 33.0879C288.208 33.0879 289.122 26.3112 285.717 18.4301C285.717 18.4301 277.241 38.6983 267.231 42.2814C267.231 42.2814 272.96 33.4521 279.162 22.2448C279.162 22.2448 267.217 18.4016 257.305 40.2725C257.305 40.2725 264.876 -0.888226 257.637 2.66799C253.137 7.93433 250.875 15.7734 249.851 23.8995C248.168 18.9218 244.97 13.632 238.54 7.86217C218.157 -10.4224 215.348 40.9673 209.535 17.3359C209.243 16.146 208.953 15.0132 208.663 13.9123C211.83 11.3596 213.798 9.5421 213.798 9.5421C213.798 9.5421 215.823 2.02522 221.156 -4.1306C221.156 -4.1306 215.631 -12.7148 204.052 0.649052C203.765 0.125439 203.474 -0.339436 203.178 -0.75732C203.15 -3.43077 202.715 -7.93855 200.578 -12.8827C200.578 -12.8827 192.104 7.38555 182.093 10.9686C182.093 10.9686 187.821 2.13766 194.023 -9.06801C194.023 -9.06801 182.079 -12.9129 172.166 8.96142C172.166 8.96142 179.738 -32.1993 172.499 -28.6448C165.544 -20.5053 163.919 -6.22841 163.983 5.76604C160.977 -0.319298 157.655 -6.84265 153.786 -12.4732C147.191 -22.0644 142.498 -12.448 139.312 1.25658C135.69 -5.80214 128.385 -22.9992 134.784 -36.7977C126.651 -26.3959 120.913 -7.47703 128.801 6.34671C117.336 1.40594 114.1 -12.594 114.1 -12.594C111.325 -1.83644 113.773 4.36302 113.773 4.36302C100.223 -17.0548 86.5068 -7.05747 86.5068 -7.05747C96.4465 1.33042 101.336 4.42176 101.336 4.42176C86.0707 2.23668 80.7466 7.80175 80.7466 7.80175C86.6273 12.9741 93.7227 18.9185 93.7227 18.9185C85.1887 17.6447 81.6819 20.7092 81.6819 20.7092C87.1078 28.8168 86.547 36.1541 86.547 36.1541C79.7168 28.0062 74.7915 2.95832 74.7915 2.95832C70.6822 14.9981 71.9185 28.7463 72.7949 34.8736C66.8268 28.998 59.5706 24.5423 52.3231 26.7643C45.8616 32.6382 73.0258 49.8906 73.0258 49.8906C54.9106 47.3094 49.542 63.0716 49.542 63.0716C59.5248 63.1387 67.9168 62.2492 67.9168 62.2492C59.7083 71.2043 43.3674 68.019 43.3674 68.019C43.2311 80.5102 52.3561 87.2769 52.3561 87.2769C36.4885 91.585 34.0473 104.89 34.0473 104.89C35.4114 104.457 37.1124 104.549 38.944 104.942C30.0513 110.806 24.6871 129.938 22.3004 140.67L22.9731 140.681C23.2571 140.967 23.5382 141.253 23.8294 141.546C27.0637 149.944 29.0545 164.154 16.939 180.574C16.939 180.574 19.4174 189.09 31.5961 173.893C31.5961 173.893 30.7211 180.68 34.1692 188.521C34.1692 188.521 38.7848 174.246 48.7732 170.547C48.7732 170.547 46.8398 173.353 40.7024 184.632C40.7024 184.632 44.3786 192.929 50.5905 186.421C48.092 195.029 45.6494 206.199 46.3335 215.455C46.3335 215.455 51.5013 205.184 57.4651 197.506C57.7075 198.865 58.0059 200.106 58.3745 201.136C57.9557 201.483 57.5167 201.824 57.0477 202.155C57.0477 202.155 59.6094 206.753 67.9341 209.741C67.9341 209.741 59.8461 211.847 53.0862 213.824C53.0862 213.824 56.7594 221.663 71.6259 227.095C71.6259 227.095 66.2933 227.604 54.9494 230.611C54.9494 230.611 65.4499 246.729 83.2968 233.248C83.2968 233.248 79.5146 237.873 79.5519 249.34C79.5519 249.34 85.9374 237.772 97.8923 238.752C87.1767 247.874 88.0487 268.462 93.2064 282.224C91.6746 273.141 94.5001 265.176 98.1676 259.089C100.103 257.743 102.516 255.444 105.527 251.687C105.527 251.687 104.652 258.474 108.1 266.314C108.1 266.314 116.461 245.949 126.451 242.25C126.451 242.25 120.772 251.145 114.633 262.424C114.633 262.424 126.6 266.13 136.389 244.145C136.389 244.145 129.048 285.391 136.267 281.753C140.738 276.436 142.956 268.57 143.935 260.432C145.644 265.39 148.873 270.644 155.336 276.338C175.821 294.388 178.341 242.968 184.286 266.531C184.586 267.717 184.881 268.847 185.177 269.943C182.024 272.531 180.066 274.372 180.066 274.372C180.066 274.372 178.082 281.912 172.786 288.128C172.786 288.128 178.359 296.649 189.862 283.15C190.152 283.671 190.446 284.132 190.743 284.547C190.786 287.22 191.248 291.721 193.411 296.642C193.411 296.642 201.771 276.278 211.761 272.579C211.761 272.579 206.083 281.474 199.944 292.753C199.944 292.753 211.91 296.461 221.7 274.474C221.7 274.474 214.36 315.722 221.578 312.082C228.487 303.862 230.031 289.568 229.899 277.574C232.939 283.624 236.298 290.11 240.199 295.694C246.847 305.209 251.486 295.538 254.595 281.798C258.257 288.815 265.657 305.928 259.336 319.798C267.409 309.303 273.042 290.318 265.076 276.587C276.569 281.395 279.883 295.358 279.883 295.358C282.598 284.57 280.114 278.398 280.114 278.398C293.783 299.658 307.443 289.504 307.443 289.504C297.458 281.231 292.551 278.196 292.551 278.196C307.828 280.205 313.122 274.58 313.122 274.58C307.212 269.474 300.084 263.614 300.084 263.614C308.625 264.789 312.115 261.684 312.115 261.684C306.643 253.64 307.162 246.296 307.162 246.296C314.037 254.365 319.103 279.354 319.103 279.354C323.145 267.268 321.831 253.534 320.92 247.417C326.921 253.224 334.202 257.596 341.438 255.29C347.866 249.342 320.606 232.404 320.606 232.404C338.734 234.777 344.014 218.954 344.014 218.954C334.031 219.001 325.645 219.988 325.645 219.988C333.802 210.937 350.161 213.936 350.161 213.936C350.229 201.443 341.065 194.782 341.065 194.782C356.908 190.291 359.275 176.959 359.275 176.959C357.912 177.407 356.211 177.335 354.378 176.964C362.106 171.758 367.093 156.491 369.784 145.534L370.627 145.546C370.402 145.314 370.174 145.079 369.949 144.848C370.273 143.503 370.567 142.216 370.821 141.045L368.263 141.038C365.852 132.44 365.586 119.637 376.396 105.219Z" fill="#2E7A6C"/>
<path d="M490.128 -8.2497L8.16497 -9.22308C8.78459 -8.71122 9.39988 -8.20271 10.0338 -7.67909C14.5089 1.81141 17.2641 17.8706 0.5 36.427C0.5 36.427 3.9309 46.0501 20.7796 28.8765C20.7796 28.8765 19.569 36.5478 24.3409 45.409C24.3409 45.409 30.7265 29.276 44.5474 25.0954C44.5474 25.0954 41.8724 28.2673 33.3799 41.0136C33.3799 41.0136 38.466 50.39 47.0603 43.0359C43.6022 52.7647 40.2244 65.3885 41.171 75.8474C41.171 75.8474 48.3211 64.2406 56.5726 55.5641C56.9082 57.1013 57.3198 58.5027 57.8304 59.6657C57.2509 60.0584 56.6442 60.4444 55.9959 60.817C55.9959 60.817 59.5401 66.0145 71.0576 69.3895C71.0576 69.3895 59.8686 71.7692 50.5141 74.0047C50.5141 74.0047 55.5958 82.8642 76.1651 89.0032C76.1651 89.0032 68.7856 89.5772 53.0929 92.9773C53.0929 92.9773 67.621 111.193 92.3153 95.9579C92.3153 95.9579 87.083 101.186 87.1346 114.145C87.1346 114.145 95.9699 101.071 112.509 102.179C97.6838 112.487 98.8901 135.756 106.024 151.307C103.904 141.041 107.814 132.042 112.889 125.161C115.565 123.641 118.906 121.043 123.071 116.795C123.071 116.795 121.86 124.466 126.632 133.327C126.632 133.327 138.2 110.312 152.022 106.131C152.022 106.131 144.165 116.184 135.673 128.93C135.673 128.93 152.229 133.119 165.773 108.273C165.773 108.273 155.617 154.888 165.605 150.775C171.791 144.765 174.861 135.877 176.215 126.68C178.58 132.284 183.046 138.22 191.989 144.656C220.332 165.053 223.818 106.942 232.045 133.572C232.459 134.913 232.868 136.191 233.277 137.429C228.915 140.354 226.206 142.435 226.206 142.435C226.206 142.435 223.462 150.957 216.133 157.981C216.133 157.981 223.843 167.609 239.76 152.357C240.161 152.946 240.567 153.466 240.979 153.935C241.039 156.956 241.676 162.044 244.671 167.604C244.671 167.604 256.238 144.589 270.061 140.41C270.061 140.41 262.204 150.462 253.71 163.209C253.71 163.209 270.266 167.398 283.81 142.551C283.81 142.551 273.654 189.166 283.642 185.053C293.202 175.764 295.339 159.609 295.157 146.055C299.362 152.892 304.009 160.223 309.407 166.533C318.605 177.288 325.023 166.357 329.325 150.828C334.391 158.758 344.63 178.098 335.884 193.773C347.055 181.911 354.847 160.458 343.825 144.939C359.728 150.373 364.314 166.152 364.314 166.152C368.071 153.96 364.634 146.985 364.634 146.985C383.547 171.013 402.448 159.537 402.448 159.537C388.632 150.187 381.843 146.757 381.843 146.757C402.98 149.027 410.304 142.669 410.304 142.669C402.128 136.899 392.265 130.275 392.265 130.275C404.083 131.604 408.91 128.095 408.91 128.095C401.339 119.004 402.058 110.705 402.058 110.705C411.57 119.824 418.58 148.066 418.58 148.066C424.172 134.407 422.353 118.886 421.094 111.973C429.397 118.537 439.472 123.476 449.482 120.871C458.376 114.15 420.658 95.0063 420.658 95.0063C445.741 97.6881 453.046 79.8064 453.046 79.8064C439.234 79.8601 427.63 80.9744 427.63 80.9744C438.917 70.7472 461.551 74.1339 461.551 74.1339C461.644 60.0165 448.965 52.4878 448.965 52.4878C470.886 47.4128 474.16 32.3455 474.16 32.3455C472.276 32.8523 469.922 32.7701 467.385 32.3505C479.636 25.6006 486.911 3.90922 490.128 -8.2497Z" fill="#3A9181"/>
<path d="M639.984 414.124L547.13 -139.199C546.76 -138.375 546.392 -137.556 546.013 -136.711C537.78 -129.467 522.911 -122.738 501.848 -137.854C501.848 -137.854 493.285 -131.78 513.037 -116.258C513.037 -116.258 505.444 -115.942 497.872 -108.499C497.872 -108.499 514.59 -104.755 521.29 -89.822C521.29 -89.822 517.727 -92.1866 503.847 -99.101C503.847 -99.101 495.843 -91.1814 504.57 -82.9512C494.566 -84.7587 481.798 -85.8311 471.95 -82.4209C471.95 -82.4209 484.474 -76.7937 494.404 -69.2517C492.995 -68.525 491.732 -67.7413 490.713 -66.8971C490.224 -67.4744 489.737 -68.0853 489.252 -68.7465C489.252 -68.7465 484.956 -63.5238 483.959 -49.5574C483.959 -49.5574 479.499 -61.8708 475.536 -72.1081C475.536 -72.1081 468.026 -64.3076 466.141 -39.3402C466.141 -39.3402 464.155 -47.6812 457.839 -64.9352C457.839 -64.9352 443.192 -44.2156 462.613 -19.2617C462.613 -19.2617 456.58 -24.1051 444.159 -21.1665C444.159 -21.1665 458.419 -13.9315 460.576 5.29616C447.804 -9.4288 425.718 -2.87355 412.188 8.76846C421.623 4.05594 431.017 6.54309 438.604 10.8377C440.583 13.5716 443.726 16.8274 448.61 20.6656C448.61 20.6656 441.016 20.9811 433.445 28.4241C433.445 28.4241 457.773 36.5871 464.472 51.5202C464.472 51.5202 453.3 44.7367 439.42 37.8206C439.42 37.8206 438.624 57.7515 465.094 67.774C465.094 67.774 418.403 66.4734 424.293 77.0229C431.26 82.786 440.385 84.3333 449.47 83.8449C444.555 87.8039 439.73 94.2484 435.297 105.941C421.245 143 477.667 134.09 453.723 149.446C452.518 150.22 451.372 150.973 450.263 151.717C446.609 147.362 444.086 144.715 444.086 144.715C444.086 144.715 435.377 143.46 427.213 136.609C427.213 136.609 419.478 147.597 437.206 162.474C436.719 163.065 436.299 163.647 435.929 164.225C433.042 164.965 428.287 166.826 423.535 171.498C423.535 171.498 447.862 179.661 454.562 194.594C454.562 194.594 443.389 187.811 429.511 180.895C429.511 180.895 428.714 200.826 455.184 210.85C455.184 210.85 408.494 209.551 414.382 220.099C425.153 229.007 441.064 227.871 454.031 224.65C448.291 230.996 442.164 237.957 437.16 245.553C428.634 258.499 440.367 263.434 456.1 264.923C449.479 272.499 432.92 288.544 416.182 281.991C429.733 292.176 451.83 296.353 464.571 280.257C462.452 299.715 448.208 308.482 448.208 308.482C460.635 310.085 466.656 304.592 466.656 304.592C447.289 331.633 461.974 350.776 461.974 350.776C468.255 332.842 470.225 324.289 470.225 324.289C472.159 349.052 479.684 356.044 479.684 356.044C483.627 345.38 488.061 332.588 488.061 332.588C489.087 346.446 493.393 351.207 493.393 351.207C500.64 340.5 508.741 339.481 508.741 339.481C501.845 352.424 476.118 366.741 476.118 366.741C490.31 370.124 504.843 364.589 511.23 361.609C506.55 372.595 503.771 385.254 508.219 396.164C516.397 404.877 527.422 357.339 527.422 357.339C529.731 386.72 548.305 391.131 548.305 391.131C545.565 375.291 542.238 362.223 542.238 362.223C554.246 372.903 555.4 399.631 555.4 399.631C568.962 396.602 573.716 380.378 573.716 380.378C582.85 404.407 597.942 404.817 597.942 404.817C597.09 402.766 596.71 400.047 596.618 397.043C605.472 409.603 627.693 413.133 639.984 414.124Z" fill="#27685E"/>
<path d="M550.116 198.375C550.116 198.375 548.051 191.124 537.643 203.903C537.643 203.903 538.417 198.15 535.529 191.461C535.529 191.461 531.543 203.534 523.046 206.575C523.046 206.575 524.7 204.212 529.964 194.698C529.964 194.698 526.883 187.619 521.579 193.082C523.742 185.8 525.867 176.342 525.331 168.479C525.331 168.479 520.896 177.145 515.797 183.605C515.598 182.449 515.351 181.393 515.043 180.515C515.4 180.225 515.774 179.94 516.173 179.665C516.173 179.665 514.02 175.736 506.969 173.119C506.969 173.119 513.844 171.411 519.592 169.798C519.592 169.798 516.511 163.107 503.918 158.352C503.918 158.352 508.448 157.973 518.09 155.53C518.09 155.53 509.254 141.744 494.04 153.014C494.04 153.014 497.273 149.125 497.295 139.39C497.295 139.39 491.818 149.147 481.676 148.199C490.816 140.561 490.173 123.076 485.862 111.345C487.118 119.07 484.683 125.803 481.54 130.935C479.892 132.058 477.831 133.986 475.258 137.146C475.258 137.146 476.032 131.393 473.144 124.704C473.144 124.704 465.949 141.909 457.453 144.95C457.453 144.95 462.315 137.455 467.579 127.941C467.579 127.941 457.44 124.678 449.026 143.245C449.026 143.245 455.453 108.305 449.309 111.323C445.489 115.794 443.569 122.448 442.698 129.346C441.271 125.12 438.556 120.629 433.097 115.732C415.793 100.211 413.411 143.834 408.476 123.774C408.227 122.763 407.981 121.802 407.735 120.869C410.423 118.702 412.094 117.16 412.094 117.16C412.094 117.16 413.814 110.777 418.339 105.555C418.339 105.555 413.649 98.2677 403.82 109.613C403.576 109.168 403.329 108.774 403.078 108.419C403.054 106.149 402.685 102.324 400.871 98.1268C400.871 98.1268 393.678 115.332 385.18 118.373C385.18 118.373 390.042 110.878 395.307 101.364C395.307 101.364 385.168 98.1016 376.753 116.668C376.753 116.668 383.18 81.7269 377.036 84.7461C371.132 91.6554 369.752 103.774 369.807 113.956C367.255 108.79 364.435 103.252 361.151 98.4742C355.553 90.3313 351.57 98.496 348.865 110.13C345.791 104.138 339.59 89.5392 345.021 77.8267C338.117 86.6559 333.247 102.715 339.942 114.449C330.209 110.255 327.462 98.3718 327.462 98.3718C325.105 107.503 327.185 112.766 327.185 112.766C315.684 94.5857 304.04 103.073 304.04 103.073C312.476 110.193 316.627 112.816 316.627 112.816C303.668 110.962 299.149 115.686 299.149 115.686C304.14 120.077 310.164 125.123 310.164 125.123C302.92 124.042 299.944 126.644 299.944 126.644C304.549 133.526 304.074 139.754 304.074 139.754C298.277 132.838 294.096 111.576 294.096 111.576C290.608 121.797 291.658 133.466 292.402 138.668C287.336 133.68 281.176 129.898 275.024 131.784C269.539 136.77 292.599 151.415 292.599 151.415C277.221 149.223 272.665 162.603 272.665 162.603C281.138 162.66 288.263 161.905 288.263 161.905C281.295 169.508 267.424 166.802 267.424 166.802C267.308 177.406 275.054 183.15 275.054 183.15C261.585 186.807 259.512 198.102 259.512 198.102C260.671 197.734 262.114 197.813 263.669 198.145C256.12 203.123 251.566 219.364 249.541 228.475L250.112 228.483C250.353 228.726 250.592 228.968 250.839 229.218C253.584 236.346 255.275 248.409 244.99 262.347C244.99 262.347 247.094 269.575 257.431 256.676C257.431 256.676 256.688 262.437 259.615 269.093C259.615 269.093 263.532 256.975 272.012 253.835C272.012 253.835 270.371 256.216 265.16 265.791C265.16 265.791 268.28 272.834 273.554 267.309C271.433 274.617 269.36 284.099 269.941 291.955C269.941 291.955 274.327 283.236 279.39 276.719C279.597 277.874 279.849 278.926 280.162 279.801C279.806 280.096 279.434 280.385 279.036 280.665C279.036 280.665 281.21 284.569 288.277 287.104C288.277 287.104 281.412 288.892 275.672 290.57C275.672 290.57 278.79 297.224 291.409 301.834C291.409 301.834 286.883 302.266 277.254 304.82C277.254 304.82 286.167 318.503 301.318 307.059C301.318 307.059 298.108 310.984 298.139 320.72C298.139 320.72 303.559 310.9 313.707 311.731C304.611 319.473 305.351 336.95 309.728 348.632C308.427 340.922 310.827 334.162 313.939 328.993C315.582 327.851 317.631 325.899 320.187 322.71C320.187 322.71 319.444 328.472 322.372 335.127C322.372 335.127 329.469 317.84 337.948 314.702C337.948 314.702 333.127 322.252 327.917 331.826C327.917 331.826 338.074 334.973 346.383 316.309C346.383 316.309 340.153 351.323 346.28 348.233C350.075 343.718 351.958 337.042 352.789 330.135C354.24 334.344 356.98 338.803 362.466 343.638C379.856 358.959 381.994 315.311 387.04 335.312C387.294 336.319 387.545 337.279 387.796 338.209C385.119 340.406 383.458 341.968 383.458 341.968C383.458 341.968 381.775 348.369 377.278 353.645C377.278 353.645 382.008 360.877 391.773 349.421C392.02 349.863 392.269 350.254 392.522 350.606C392.559 352.875 392.949 356.696 394.787 360.874C394.787 360.874 401.883 343.588 410.363 340.448C410.363 340.448 405.542 347.998 400.332 357.572C400.332 357.572 410.489 360.719 418.798 342.055C418.798 342.055 412.568 377.069 418.695 373.979C424.56 367.001 425.872 354.867 425.759 344.687C428.339 349.822 431.191 355.329 434.502 360.068C440.146 368.145 444.083 359.935 446.723 348.272C449.831 354.228 456.113 368.755 450.747 380.529C457.602 371.619 462.382 355.505 455.62 343.849C465.376 347.931 468.19 359.783 468.19 359.783C470.495 350.624 468.386 345.385 468.386 345.385C479.99 363.433 491.585 354.813 491.585 354.813C483.108 347.79 478.943 345.214 478.943 345.214C491.912 346.919 496.404 342.143 496.404 342.143C491.388 337.809 485.337 332.833 485.337 332.833C492.587 333.83 495.549 331.195 495.549 331.195C490.905 324.367 491.345 318.132 491.345 318.132C497.181 324.982 501.481 346.194 501.481 346.194C504.912 335.933 503.796 324.276 503.023 319.083C508.118 324.012 514.298 327.725 520.44 325.766C525.897 320.716 502.756 306.339 502.756 306.339C518.145 308.353 522.627 294.922 522.627 294.922C514.153 294.962 507.033 295.799 507.033 295.799C513.958 288.116 527.845 290.662 527.845 290.662C527.903 280.057 520.124 274.403 520.124 274.403C533.572 270.592 535.582 259.274 535.582 259.274C534.426 259.655 532.981 259.593 531.425 259.277C537.986 254.858 542.218 241.899 544.503 232.598L545.219 232.608C545.028 232.412 544.834 232.212 544.644 232.016C544.919 230.875 545.169 229.782 545.384 228.787L543.214 228.782C541.165 221.481 540.939 210.613 550.116 198.375Z" fill="#27685E"/>
<path d="M646.055 -10.2697C646.055 -10.2697 643.863 -20.9383 627.636 -4.15247C627.636 -4.15247 629.347 -12.2701 625.915 -22.2524C625.915 -22.2524 618.95 -5.55716 606.477 -2.42386C606.477 -2.42386 609.09 -5.56723 617.617 -18.4193C617.617 -18.4193 613.952 -28.9855 605.794 -21.9318C609.65 -32.0382 613.681 -45.2612 613.737 -56.5827C613.737 -56.5827 606.486 -44.8215 598.517 -36.3144C598.352 -37.9977 598.111 -39.5417 597.761 -40.8423C598.301 -41.2065 598.866 -41.5623 599.467 -41.898C599.467 -41.898 596.8 -47.8256 586.989 -52.58C586.989 -52.58 597.002 -54.0384 605.392 -55.5186C605.392 -55.5186 601.688 -65.5294 584.174 -74.1388C584.174 -74.1388 590.692 -74.0314 604.74 -76.1427C604.74 -76.1427 593.545 -97.1258 570.604 -83.1896C570.604 -83.1896 575.634 -88.2881 576.687 -102.209C576.687 -102.209 567.833 -89.0383 553.425 -91.8494C567.298 -101.462 568.21 -126.564 563.273 -143.962C564.261 -132.733 560.072 -123.453 555.04 -116.563C552.564 -115.194 549.416 -112.73 545.403 -108.58C545.403 -108.58 547.114 -116.698 543.682 -126.68C543.682 -126.68 531.589 -103.102 519.118 -99.9704C519.118 -99.9704 526.859 -109.993 535.384 -122.847C535.384 -122.847 521.224 -128.967 507.243 -103.619C507.243 -103.619 520.098 -152.673 510.991 -149.237C505.059 -143.392 501.615 -134.148 499.647 -124.406C498.048 -130.654 494.635 -137.468 487.34 -145.255C464.217 -169.937 456.238 -107.883 451.281 -137.283C451.032 -138.763 450.781 -140.175 450.527 -141.544C454.599 -144.256 457.151 -146.225 457.151 -146.225C457.151 -146.225 460.279 -155.106 467.3 -161.93C467.3 -161.93 461.354 -173.025 446.108 -158.209C445.805 -158.88 445.494 -159.479 445.173 -160.023C445.376 -163.274 445.249 -168.799 443.094 -175.062C443.094 -175.062 431.003 -151.486 418.529 -148.354C418.529 -148.354 426.27 -158.379 434.797 -171.231C434.797 -171.231 420.636 -177.353 406.656 -152.003C406.656 -152.003 419.51 -201.056 410.404 -197.621C401.234 -188.585 397.993 -171.45 397.005 -156.878C393.897 -164.632 390.443 -172.958 386.246 -180.265C379.092 -192.714 372.54 -181.607 367.452 -165.357C363.683 -174.367 356.344 -196.138 365.34 -212.111C354.541 -200.471 345.891 -178.2 354.24 -160.456C340.757 -167.851 338.074 -185.244 338.074 -185.244C333.746 -172.521 336.169 -164.695 336.169 -164.695C321.622 -192.35 304.079 -181.882 304.079 -181.882C315.4 -170.487 321.063 -166.139 321.063 -166.139C302.722 -170.65 295.763 -164.541 295.763 -164.541C302.443 -157.544 310.529 -149.464 310.529 -149.464C300.28 -152.05 295.752 -148.755 295.752 -148.755C301.619 -138.251 300.286 -129.41 300.286 -129.41C292.718 -140.134 288.965 -171.145 288.965 -171.145C282.905 -157.028 283.183 -140.185 283.702 -132.638C276.978 -140.498 268.565 -146.792 259.567 -144.976C251.2 -138.631 282.647 -114.377 282.647 -114.377C260.882 -119.717 252.962 -101.232 252.962 -101.232C265.078 -99.9352 275.346 -99.9939 275.346 -99.9939C264.584 -90.1191 245.025 -95.9779 245.025 -95.9779C243.748 -80.8283 254.226 -71.5006 254.226 -71.5006C234.577 -68.2029 230.429 -52.3451 230.429 -52.3451C232.125 -52.7042 234.182 -52.3853 236.37 -51.6855C225.052 -45.6472 216.837 -23.073 212.985 -10.3318L213.802 -10.2378C214.12 -9.85515 214.437 -9.47418 214.764 -9.08315C217.944 1.50661 219.097 19.0023 202.927 37.4631C202.927 37.4631 205.18 48.1032 221.316 31.1361C221.316 31.1361 219.651 39.2706 223.139 49.2108C223.139 49.2108 230.012 32.4401 242.469 29.1658C242.469 29.1658 239.873 32.3377 231.416 45.2838C231.416 45.2838 235.141 55.8047 243.262 48.6604C239.463 58.8071 235.504 72.0736 235.511 83.3918C235.511 83.3918 242.698 71.5517 250.623 62.9557C250.797 64.6356 251.048 66.1779 251.405 67.4735C250.865 67.8445 250.302 68.2053 249.704 68.5476C249.704 68.5476 252.404 74.4433 262.247 79.0837C262.247 79.0837 252.239 80.6562 243.856 82.2338C243.856 82.2338 247.618 92.1992 265.185 100.604C265.185 100.604 258.665 100.572 244.626 102.843C244.626 102.843 255.941 123.692 278.81 109.497C278.81 109.497 273.807 114.652 272.833 128.58C272.833 128.58 281.615 115.312 296.041 117.957C282.221 127.726 281.447 152.831 286.485 170.167C285.433 158.953 289.571 149.627 294.566 142.681C297.034 141.283 300.169 138.784 304.16 134.59C304.16 134.59 302.493 142.725 305.983 152.665C305.983 152.665 317.945 128.956 330.403 125.682C330.403 125.682 322.717 135.79 314.261 148.738C314.261 148.738 328.459 154.694 342.3 129.193C342.3 129.193 329.72 178.379 338.808 174.84C344.709 168.927 348.102 159.648 350.014 149.886C351.649 156.114 355.102 162.885 362.442 170.587C385.71 194.995 393.341 132.87 398.465 162.204C398.723 163.681 398.981 165.089 399.242 166.457C395.185 169.216 392.643 171.213 392.643 171.213C392.643 171.213 389.565 180.128 382.58 187.029C382.58 187.029 388.588 198.051 403.756 183.065C404.061 183.733 404.377 184.327 404.701 184.867C404.516 188.12 404.675 193.639 406.864 199.877C406.864 199.877 418.826 176.17 431.284 172.896C431.284 172.896 423.598 183.006 415.143 195.952C415.143 195.952 429.341 201.91 443.182 176.407C443.182 176.407 430.602 225.593 439.689 222.054C448.81 212.916 451.957 195.749 452.862 181.17C456.015 188.885 459.516 197.169 463.756 204.425C470.982 216.789 477.473 205.61 482.47 189.306C486.291 198.271 493.755 219.949 484.847 236.022C495.583 224.262 504.109 201.898 495.659 184.256C509.185 191.493 511.968 208.849 511.968 208.849C516.224 196.081 513.757 188.284 513.757 188.284C528.463 215.762 545.951 205.097 545.951 205.097C534.562 193.836 528.876 189.553 528.876 189.553C547.246 193.852 554.172 187.665 554.172 187.665C547.453 180.747 539.317 172.762 539.317 172.762C549.584 175.229 554.095 171.884 554.095 171.884C548.167 161.451 549.451 152.598 549.451 152.598C557.08 163.233 561.008 194.19 561.008 194.19C566.991 180.007 566.616 163.174 566.054 155.635C572.824 163.417 581.275 169.612 590.265 167.692C598.6 161.252 567.006 137.368 567.006 137.368C588.806 142.456 596.625 123.888 596.625 123.888C584.499 122.73 574.23 122.906 574.23 122.906C584.939 112.91 604.535 118.543 604.535 118.543C605.727 103.383 595.195 94.1796 595.195 94.1796C614.829 90.6569 618.889 74.7555 618.889 74.7555C617.195 75.1331 615.137 74.8394 612.943 74.1647C622.789 68.7859 630.202 50.8555 634.443 37.8793L635.465 37.9968C635.213 37.688 634.958 37.3758 634.704 37.067C635.217 35.4744 635.689 33.9488 636.101 32.5559L632.997 32.237C630.831 21.4962 631.646 5.91872 646.055 -10.2697Z" fill="#2E7A6C"/>
</g>
</svg>
