<svg width="540" height="360" viewBox="0 0 540 360" fill="none" xmlns="http://www.w3.org/2000/svg">
<mask id="mask0_144_2294" style="mask-type:alpha" maskUnits="userSpaceOnUse" x="0" y="0" width="540" height="360">
<rect width="540" height="360" fill="#D9D9D9"/>
</mask>
<g mask="url(#mask0_144_2294)">
<path d="M115.489 -1.29958L532.37 -2.13885C531.835 -1.69759 531.302 -1.25848 530.753 -0.808561C526.883 7.37437 524.5 21.2224 539 37.2249C539 37.2249 536.033 45.5224 521.459 30.714C521.459 30.714 522.507 37.3287 518.379 44.9687C518.379 44.9687 512.855 31.0579 500.902 27.4521C500.902 27.4521 503.214 30.1862 510.561 41.179C510.561 41.179 506.162 49.2646 498.728 42.9224C501.719 51.3109 504.642 62.1976 503.822 71.2155C503.822 71.2155 497.638 61.2069 490.5 53.7248C490.209 55.0508 489.853 56.2578 489.412 57.2615C489.913 57.5989 490.437 57.932 490.999 58.2543C490.999 58.2543 487.934 62.7362 477.972 65.6477C477.972 65.6477 487.65 67.7005 495.741 69.6278C495.741 69.6278 491.346 77.2678 473.555 82.5609C473.555 82.5609 479.938 83.0562 493.512 85.9872C493.512 85.9872 480.947 101.695 459.586 88.5569C459.586 88.5569 464.113 93.0648 464.066 104.239C464.066 104.239 456.424 92.9653 442.118 93.9214C454.941 102.809 453.897 122.874 447.727 136.283C449.561 127.432 446.179 119.671 441.789 113.737C439.475 112.427 436.586 110.186 432.981 106.523C432.981 106.523 434.029 113.138 429.901 120.778C429.901 120.778 419.895 100.932 407.94 97.3282C407.94 97.3282 414.736 105.996 422.081 116.988C422.081 116.988 407.762 120.601 396.046 99.1755C396.046 99.1755 404.83 139.37 396.19 135.825C390.84 130.642 388.185 122.978 387.013 115.048C384.967 119.88 381.103 124.998 373.368 130.549C348.852 148.139 345.838 98.0291 338.721 120.992C338.363 122.15 338.009 123.251 337.655 124.317C341.427 126.839 343.771 128.632 343.771 128.632C343.771 128.632 346.144 135.98 352.484 142.037C352.484 142.037 345.814 150.339 332.047 137.187C331.7 137.696 331.348 138.143 330.992 138.548C330.94 141.154 330.389 145.539 327.799 150.334C327.799 150.334 317.793 130.488 305.837 126.885C305.837 126.885 312.634 135.554 319.979 146.545C319.979 146.545 305.659 150.157 293.943 128.732C293.943 128.732 302.728 168.928 294.088 165.381C285.819 157.371 283.97 143.441 284.128 131.754C280.49 137.65 276.471 143.971 271.802 149.413C263.845 158.686 258.295 149.262 254.573 135.872C250.191 142.71 241.335 159.387 248.899 172.904C239.235 162.677 232.497 144.176 242.03 130.795C228.274 135.481 224.308 149.089 224.308 149.089C221.059 138.574 224.031 132.56 224.031 132.56C207.672 153.278 191.324 143.382 191.324 143.382C203.275 135.321 209.146 132.361 209.146 132.361C190.862 134.319 184.529 128.836 184.529 128.836C191.6 123.861 200.132 118.148 200.132 118.148C189.909 119.294 185.735 116.268 185.735 116.268C192.282 108.429 191.661 101.272 191.661 101.272C183.433 109.134 177.369 133.486 177.369 133.486C172.533 121.708 174.106 108.325 175.194 102.364C168.012 108.022 159.299 112.284 150.64 110.036C142.947 104.239 175.571 87.7328 175.571 87.7328C153.874 90.0451 147.557 74.6267 147.557 74.6267C159.504 74.6721 169.54 75.6347 169.54 75.6347C159.779 66.8158 140.2 69.736 140.2 69.736C140.121 57.5622 151.085 51.0707 151.085 51.0707C132.126 46.6948 129.293 33.7012 129.293 33.7012C130.923 34.1382 132.959 34.0668 135.153 33.7055C124.564 27.889 118.272 9.18487 115.489 -1.29958Z" fill="#3A9181"/>
<path d="M-55.7485 363L24.5666 -114.126C24.8874 -113.414 25.2063 -112.709 25.5327 -111.98C32.6535 -105.733 45.5155 -99.9317 63.733 -112.966C63.733 -112.966 71.1394 -107.727 54.055 -94.3445C54.055 -94.3445 60.6232 -94.0719 67.1729 -87.6541C67.1729 -87.6541 52.7124 -84.4246 46.9174 -71.55C46.9174 -71.55 49.9994 -73.5897 62.0047 -79.5512C62.0047 -79.5512 68.9289 -72.7223 61.3798 -65.6253C70.0342 -67.1827 81.077 -68.1085 89.5942 -65.1689C89.5942 -65.1689 78.7609 -60.3171 70.1714 -53.8149C71.3897 -53.1876 72.4838 -52.5127 73.3628 -51.7837C73.7856 -52.2812 74.2084 -52.809 74.6256 -53.3779C74.6256 -53.3779 78.3418 -48.8744 79.2041 -36.8304C79.2041 -36.8304 83.063 -47.4468 86.4918 -56.2764C86.4918 -56.2764 92.9877 -49.5514 94.6177 -28.0201C94.6177 -28.0201 96.3367 -35.2124 101.798 -50.0922C101.798 -50.0922 114.467 -32.2252 97.6682 -10.709C97.6682 -10.709 102.886 -14.8859 113.631 -12.3508C113.631 -12.3508 101.297 -6.11246 99.4317 10.4676C110.48 -2.22973 129.582 3.4224 141.285 13.4613C133.124 9.39683 125 11.5426 118.435 15.2458C116.724 17.6035 114.005 20.4112 109.781 23.7207C109.781 23.7207 116.349 23.9911 122.899 30.4111C122.899 30.4111 101.855 37.4498 96.0604 50.3266C96.0604 50.3266 105.724 44.4777 117.729 38.5141C117.729 38.5141 118.417 55.6997 95.5226 64.3434C95.5226 64.3434 135.909 63.2229 130.815 72.3187C124.788 77.2894 116.896 78.624 109.037 78.2022C113.289 81.6156 117.462 87.1725 121.297 97.2547C133.45 129.21 84.6485 121.529 105.358 134.769C106.4 135.435 107.393 136.086 108.351 136.727C111.513 132.971 113.694 130.689 113.694 130.689C113.694 130.689 121.226 129.606 128.288 123.698C128.288 123.698 134.978 133.173 119.644 146.002C120.065 146.512 120.429 147.014 120.748 147.512C123.246 148.15 127.359 149.755 131.468 153.782C131.468 153.782 110.426 160.821 104.631 173.698C104.631 173.698 114.295 167.849 126.3 161.885C126.3 161.885 126.988 179.071 104.094 187.715C104.094 187.715 144.48 186.594 139.386 195.69C130.07 203.371 116.307 202.391 105.091 199.614C110.057 205.086 115.355 211.089 119.683 217.639C127.058 228.8 116.909 233.059 103.3 234.34C109.026 240.872 123.349 254.71 137.828 249.057C126.107 257.84 106.994 261.441 95.9733 247.563C97.8054 264.34 110.126 271.902 110.126 271.902C99.3779 273.284 94.1689 268.547 94.1689 268.547C110.921 291.865 98.2189 308.369 98.2189 308.369C92.7856 292.905 91.0832 285.531 91.0832 285.531C89.4087 306.883 82.9017 312.912 82.9017 312.912C79.4915 303.716 75.6548 292.687 75.6548 292.687C74.7684 304.636 71.0448 308.741 71.0448 308.741C64.7751 299.509 57.7693 298.629 57.7693 298.629C63.7348 309.79 85.9874 322.135 85.9874 322.135C73.7114 325.053 61.1424 320.281 55.6182 317.709C59.6663 327.184 62.0696 338.098 58.2217 347.506C51.1473 355.02 41.6121 314.028 41.6121 314.028C39.6149 339.362 23.5485 343.167 23.5485 343.167C25.9184 329.509 28.7964 318.239 28.7964 318.239C18.41 327.45 17.4124 350.497 17.4124 350.497C5.68341 347.884 1.5704 333.896 1.5704 333.896C-6.32927 354.616 -19.3841 354.968 -19.3841 354.968C-18.6461 353.201 -18.3178 350.856 -18.24 348.265C-25.8967 359.102 -45.1174 362.145 -55.7485 363Z" fill="#27685E"/>
<path d="M21.9854 176.962C21.9854 176.962 23.7711 170.709 32.7741 181.73C32.7741 181.73 32.1047 176.77 34.6026 171.001C34.6026 171.001 38.0499 181.412 45.3988 184.033C45.3988 184.033 43.9672 181.996 39.4147 173.791C39.4147 173.791 42.0794 167.687 46.6672 172.398C44.7961 166.119 42.9584 157.962 43.422 151.183C43.422 151.183 47.2587 158.656 51.6684 164.226C51.8409 163.229 52.0541 162.318 52.3212 161.561C52.0134 161.31 51.6888 161.063 51.3439 160.828C51.3439 160.828 53.2057 157.44 59.3048 155.184C59.3048 155.184 53.3578 153.711 48.3862 152.32C48.3862 152.32 51.0509 146.551 61.9436 142.45C61.9436 142.45 58.0253 142.124 49.6861 140.017C49.6861 140.017 57.3299 128.131 70.4886 137.847C70.4886 137.847 67.6922 134.494 67.6736 126.099C67.6736 126.099 72.4097 134.512 81.1828 133.696C73.2775 127.11 73.8339 112.033 77.563 101.916C76.4764 108.578 78.5829 114.382 81.3015 118.808C82.7275 119.777 84.5095 121.438 86.7348 124.163C86.7348 124.163 86.0635 119.204 88.5632 113.435C88.5632 113.435 94.7847 128.271 102.135 130.893C102.135 130.893 97.9297 124.43 93.3753 116.227C93.3753 116.227 102.147 113.413 109.423 129.424C109.423 129.424 103.864 99.2967 109.178 101.899C112.483 105.754 114.144 111.492 114.895 117.441C116.13 113.798 118.478 109.924 123.201 105.702C138.168 92.3186 140.228 129.932 144.497 112.636C144.712 111.765 144.925 110.936 145.137 110.132C142.811 108.265 141.367 106.932 141.367 106.932C141.367 106.932 139.88 101.43 135.965 96.926C135.965 96.926 140.022 90.6422 148.523 100.426C148.734 100.043 148.947 99.7034 149.164 99.3962C149.185 97.4386 149.506 94.1399 151.074 90.5211C151.074 90.5211 157.296 105.358 164.647 107.979C164.647 107.979 160.441 101.516 155.887 93.3136C155.887 93.3136 164.656 90.4995 171.934 106.511C171.934 106.511 166.375 76.381 171.69 78.9854C176.797 84.9425 177.989 95.3924 177.943 104.172C180.149 99.7185 182.588 94.9424 185.431 90.8218C190.272 83.8004 193.718 90.8412 196.058 100.871C198.717 95.7038 204.08 83.1169 199.383 73.0175C205.354 80.6315 209.567 94.4795 203.776 104.596C212.195 100.98 214.57 90.7331 214.57 90.7331C216.608 98.6067 214.81 103.145 214.81 103.145C224.758 87.469 234.829 94.7867 234.829 94.7867C227.531 100.928 223.942 103.19 223.942 103.19C235.15 101.592 239.059 105.665 239.059 105.665C234.742 109.45 229.531 113.802 229.531 113.802C235.797 112.87 238.371 115.113 238.371 115.113C234.388 121.046 234.8 126.417 234.8 126.417C239.814 120.454 243.432 102.12 243.432 102.12C246.449 110.932 245.54 120.995 244.897 125.481C249.279 121.181 254.606 117.919 259.928 119.545C264.674 123.846 244.728 136.474 244.728 136.474C258.03 134.585 261.97 146.121 261.97 146.121C254.64 146.171 248.48 145.52 248.48 145.52C254.506 152.076 266.504 149.742 266.504 149.742C266.604 158.885 259.904 163.839 259.904 163.839C271.555 166.992 273.347 176.731 273.347 176.731C272.345 176.415 271.096 176.482 269.751 176.77C276.28 181.061 280.219 195.065 281.971 202.921L281.478 202.928C281.271 203.138 281.063 203.347 280.85 203.561C278.474 209.709 277.013 220.109 285.908 232.129C285.908 232.129 284.087 238.361 275.147 227.239C275.147 227.239 275.789 232.207 273.258 237.946C273.258 237.946 269.87 227.496 262.534 224.79C262.534 224.79 263.952 226.845 268.46 235.099C268.46 235.099 265.762 241.173 261.201 236.408C263.036 242.709 264.828 250.885 264.327 257.66C264.327 257.66 260.533 250.143 256.155 244.522C255.977 245.517 255.758 246.425 255.487 247.178C255.795 247.431 256.116 247.682 256.461 247.922C256.461 247.922 254.58 251.288 248.468 253.475C248.468 253.475 254.406 255.017 259.37 256.464C259.37 256.464 256.674 262.203 245.759 266.178C245.759 266.178 249.676 266.55 258.004 268.752C258.004 268.752 250.293 280.55 237.19 270.682C237.19 270.682 239.966 274.067 239.938 282.462C239.938 282.462 235.25 273.994 226.472 274.712C234.34 281.389 233.698 296.459 229.913 306.531C231.039 299.881 228.964 294.054 226.271 289.596C224.851 288.612 223.078 286.927 220.868 284.177C220.868 284.177 221.509 289.146 218.978 294.885C218.978 294.885 212.84 279.979 205.504 277.271C205.504 277.271 209.673 283.781 214.181 292.038C214.181 292.038 205.395 294.75 198.207 278.659C198.207 278.659 203.596 308.852 198.296 306.187C195.014 302.295 193.386 296.537 192.666 290.58C191.411 294.21 189.041 298.053 184.296 302.224C169.255 315.436 167.406 277.796 163.039 295.045C162.818 295.912 162.601 296.74 162.384 297.543C164.699 299.438 166.136 300.785 166.136 300.785C166.136 300.785 167.591 306.306 171.48 310.855C171.48 310.855 167.387 317.091 158.943 307.212C158.729 307.593 158.514 307.93 158.295 308.233C158.264 310.191 157.924 313.485 156.337 317.086C156.337 317.086 150.199 302.181 142.863 299.472C142.863 299.472 147.034 305.983 151.54 314.24C151.54 314.24 142.754 316.952 135.566 300.859C135.566 300.859 140.955 331.051 135.655 328.386C130.582 322.371 129.449 311.908 129.545 303.128C127.312 307.556 124.848 312.304 121.983 316.392C117.102 323.357 113.696 316.277 111.413 306.221C108.724 311.356 103.291 323.883 107.932 334.036C102.004 326.355 97.8685 312.46 103.717 302.408C95.2779 305.927 92.845 316.148 92.845 316.148C90.8515 308.25 92.6744 303.734 92.6744 303.734C82.6385 319.295 72.6081 311.863 72.6081 311.863C79.9403 305.806 83.5434 303.584 83.5434 303.584C72.3262 305.055 68.4395 300.937 68.4395 300.937C72.7787 297.201 78.0118 292.91 78.0118 292.91C71.7403 293.771 69.1794 291.497 69.1794 291.497C73.1978 285.609 72.8158 280.234 72.8158 280.234C67.7682 286.141 64.0483 304.432 64.0483 304.432C61.0813 295.585 62.0456 285.534 62.715 281.056C58.309 285.306 52.9628 288.506 47.65 286.818C42.9306 282.464 62.9449 270.065 62.9449 270.065C49.6342 271.802 45.7585 260.221 45.7585 260.221C53.0889 260.256 59.2454 260.978 59.2454 260.978C53.2558 254.353 41.245 256.548 41.245 256.548C41.1967 247.405 47.9244 242.529 47.9244 242.529C36.2919 239.242 34.5543 229.484 34.5543 229.484C35.5539 229.813 36.8037 229.759 38.15 229.488C32.4756 225.679 28.815 214.502 26.8383 206.482L26.2189 206.49C26.3839 206.322 26.5508 206.149 26.7159 205.98C26.4785 204.996 26.2616 204.055 26.0761 203.196L27.9528 203.192C29.7274 196.886 29.924 187.514 21.9854 176.962Z" fill="#27685E"/>
<path d="M-61 -2.94994C-61 -2.94994 -59.103 -12.1495 -45.0672 2.32582C-45.0672 2.32582 -46.547 -4.67392 -43.5781 -13.2808C-43.5781 -13.2808 -37.5532 1.11665 -26.7663 3.81618C-26.7663 3.81618 -29.0268 1.10583 -36.4016 -9.97778C-36.4016 -9.97778 -33.2325 -19.0887 -26.1747 -13.0083C-29.5089 -21.7233 -32.997 -33.1249 -33.0452 -42.8891C-33.0452 -42.8891 -26.7718 -32.7485 -19.8791 -25.4114C-19.7363 -26.8628 -19.5268 -28.1953 -19.2263 -29.3157C-19.6936 -29.6294 -20.1832 -29.9365 -20.7024 -30.2264C-20.7024 -30.2264 -18.3956 -35.3377 -9.90808 -39.4389C-9.90808 -39.4389 -18.568 -40.6957 -25.8261 -41.9741C-25.8261 -41.9741 -22.6217 -50.6069 -7.47328 -58.0306C-7.47328 -58.0306 -13.1125 -57.9376 -25.2624 -59.7589C-25.2624 -59.7589 -15.5788 -77.8531 4.26311 -65.8372C4.26311 -65.8372 -0.0872765 -70.2347 -0.99778 -82.2376C-0.99778 -82.2376 6.66082 -70.8815 19.1223 -73.3041C7.12442 -81.593 6.33445 -103.239 10.6051 -118.24C9.75021 -108.556 13.3737 -100.555 17.7278 -94.6126C19.8696 -93.4316 22.5918 -91.3074 26.0632 -87.7297C26.0632 -87.7297 24.5834 -94.7294 27.5523 -103.336C27.5523 -103.336 38.011 -83.0055 48.7998 -80.306C48.7998 -80.306 42.1036 -88.9497 34.7287 -100.031C34.7287 -100.031 46.9769 -105.309 59.0694 -83.4511C59.0694 -83.4511 47.9505 -125.75 55.8279 -122.787C60.959 -117.747 63.939 -109.776 65.6394 -101.377C67.0228 -106.765 69.975 -112.64 76.2854 -119.354C96.2849 -140.636 103.187 -87.1305 107.474 -112.48C107.691 -113.756 107.908 -114.974 108.127 -116.155C104.606 -118.493 102.399 -120.191 102.399 -120.191C102.399 -120.191 99.6933 -127.848 93.6202 -133.732C93.6202 -133.732 98.7624 -143.299 111.951 -130.524C112.212 -131.102 112.481 -131.619 112.759 -132.088C112.583 -134.891 112.694 -139.654 114.558 -145.056C114.558 -145.056 125.017 -124.727 135.806 -122.025C135.806 -122.025 129.109 -130.669 121.734 -141.75C121.734 -141.75 133.983 -147.028 146.075 -125.17C146.075 -125.17 134.956 -167.469 142.832 -164.506C150.763 -156.715 153.567 -141.939 154.422 -129.373C157.111 -136.059 160.098 -143.239 163.729 -149.54C169.917 -160.275 175.584 -150.697 179.984 -136.685C183.244 -144.454 189.594 -163.228 181.811 -177C191.151 -166.963 198.634 -147.759 191.413 -132.458C203.075 -138.835 205.395 -153.831 205.395 -153.831C209.137 -142.86 207.042 -136.111 207.042 -136.111C219.624 -159.957 234.798 -150.931 234.798 -150.931C225.005 -141.106 220.108 -137.355 220.108 -137.355C235.972 -141.246 241.991 -135.977 241.991 -135.977C236.215 -129.944 229.218 -122.977 229.218 -122.977C238.084 -125.207 242 -122.367 242 -122.367C236.925 -113.31 238.078 -105.685 238.078 -105.685C244.624 -114.933 247.87 -141.673 247.87 -141.673C253.112 -129.499 252.871 -114.976 252.42 -108.469C258.236 -115.248 265.514 -120.676 273.297 -119.109C280.534 -113.639 253.332 -92.7242 253.332 -92.7242C272.158 -97.3294 279.008 -81.3919 279.008 -81.3919C268.529 -80.2736 259.647 -80.3233 259.647 -80.3233C268.956 -71.8094 285.873 -76.8602 285.873 -76.8602C286.978 -63.7974 277.914 -55.7551 277.914 -55.7551C294.91 -52.9106 298.498 -39.2378 298.498 -39.2378C297.031 -39.5471 295.253 -39.2724 293.359 -38.6689C303.149 -33.4623 310.255 -13.9968 313.587 -3.0105L312.88 -2.93047C312.604 -2.59952 312.33 -2.27289 312.048 -1.93546C309.298 7.19707 308.3 22.2824 322.286 38.2027C322.286 38.2027 320.337 47.3784 306.379 32.7474C306.379 32.7474 307.82 39.7622 304.801 48.3324C304.801 48.3324 298.856 33.87 288.08 31.0472C288.08 31.0472 290.326 33.7813 297.639 44.9471C297.639 44.9471 294.418 54.0191 287.392 47.8586C290.678 56.6083 294.103 68.0467 294.096 77.8087C294.096 77.8087 287.878 67.5989 281.024 60.186C280.874 61.6353 280.657 62.9634 280.349 64.0817C280.814 64.4019 281.302 64.7134 281.82 65.0097C281.82 65.0097 279.483 70.093 270.971 74.0947C270.971 74.0947 279.628 75.4509 286.88 76.8115C286.88 76.8115 283.626 85.4054 268.431 92.6517C268.431 92.6517 274.07 92.6236 286.214 94.5812C286.214 94.5812 276.427 112.559 256.646 100.32C256.646 100.32 260.974 104.765 261.816 116.774C261.816 116.774 254.221 105.334 241.741 107.614C253.696 116.037 254.364 137.685 250.006 152.634C250.916 142.963 247.335 134.923 243.015 128.933C240.88 127.728 238.167 125.574 234.716 121.957C234.716 121.957 236.157 128.972 233.138 137.542C233.138 137.542 222.791 117.099 212.015 114.276C212.015 114.276 218.663 122.993 225.977 134.157C225.977 134.157 213.695 139.294 201.723 117.304C201.723 117.304 212.605 159.718 204.744 156.664C199.641 151.565 196.705 143.564 195.051 135.148C193.636 140.518 190.651 146.357 184.301 152.997C164.176 174.044 157.574 120.475 153.144 145.768C152.921 147.042 152.697 148.256 152.471 149.435C155.981 151.814 158.179 153.536 158.179 153.536C158.179 153.536 160.842 161.224 166.883 167.174C166.883 167.174 161.685 176.679 148.566 163.756C148.3 164.332 148.028 164.845 147.748 165.31C147.907 168.113 147.77 172.874 145.877 178.253C145.877 178.253 135.529 157.81 124.753 154.987C124.753 154.987 131.401 163.705 138.715 174.868C138.715 174.868 126.433 180.006 114.462 158.016C114.462 158.016 125.343 200.429 117.482 197.377C109.594 189.497 106.872 174.695 106.087 162.123C103.359 168.777 100.331 175.919 96.6651 182.175C90.4158 192.835 84.8008 183.196 80.4782 169.138C77.1737 176.869 70.7167 195.562 78.4235 209.419C69.1368 199.279 61.7619 179.995 69.0719 164.782C57.3707 171.022 54.9638 185.989 54.9638 185.989C51.2828 174.979 53.4172 168.256 53.4172 168.256C40.698 191.95 25.5699 182.753 25.5699 182.753C35.4204 173.043 40.3401 169.35 40.3401 169.35C24.4499 173.058 18.4584 167.724 18.4584 167.724C24.2719 161.758 31.3074 154.873 31.3074 154.873C22.4268 157.001 18.5251 154.116 18.5251 154.116C23.6525 145.119 22.5417 137.484 22.5417 137.484C15.942 146.655 12.5448 173.348 12.5448 173.348C7.37105 161.118 7.69371 146.603 8.17956 140.101C2.32342 146.811 -4.98655 152.154 -12.762 150.499C-19.9551 144.948 7.37105 124.352 7.37105 124.352C-11.4843 128.738 -18.2472 112.727 -18.2472 112.727C-7.75885 111.728 1.12363 111.881 1.12363 111.881C-8.139 103.264 -25.0899 108.12 -25.0899 108.12C-26.1209 95.0484 -17.0104 87.1121 -17.0104 87.1121C-33.9928 84.0751 -37.505 70.3633 -37.505 70.3633C-36.04 70.69 -34.2598 70.4347 -32.3609 69.855C-40.8781 65.2174 -47.2887 49.7557 -50.9567 38.5682L-51.8412 38.6699C-51.6224 38.4038 -51.4017 38.1356 -51.1829 37.8674C-51.6261 36.4938 -52.0359 35.1787 -52.392 33.9782L-49.7068 33.7034C-47.832 24.4411 -48.5367 11.0084 -61 -2.94994Z" fill="#2E7A6C"/>
</g>
</svg>
