<svg width="30" height="30" viewBox="0 0 30 30" fill="none" xmlns="http://www.w3.org/2000/svg">
<circle cx="15" cy="15" r="15" fill="#F07162"/>
<g clip-path="url(#clip0_513_9)">
<path d="M14.9792 6.125C15.5545 6.125 16.0208 6.59137 16.0208 7.16667C16.0208 7.70088 15.6187 8.14115 15.1006 8.20133L14.9792 8.20833H9.25V22.7917H19.6667V16.0208C19.6667 15.4455 20.133 14.9792 20.7083 14.9792C21.2426 14.9792 21.6828 15.3813 21.743 15.8993L21.75 16.0208V22.7917H23.8333C24.4086 22.7917 24.875 23.258 24.875 23.8333C24.875 24.3676 24.4729 24.8078 23.9548 24.868L23.8333 24.875H7.16667C6.59137 24.875 6.125 24.4086 6.125 23.8333C6.125 23.2991 6.52713 22.8588 7.04519 22.7987L7.16667 22.7917V8.20833C7.16667 7.11004 8.01654 6.21024 9.09452 6.13071L9.25 6.125H14.9792ZM17.0625 14.4583C17.9254 14.4583 18.625 15.1579 18.625 16.0208C18.625 16.8837 17.9254 17.5833 17.0625 17.5833C16.1996 17.5833 15.5 16.8837 15.5 16.0208C15.5 15.1579 16.1996 14.4583 17.0625 14.4583ZM22.3616 7.34537L24.5699 9.55364C24.9765 9.96025 24.9767 10.6194 24.5703 11.0263L22.3621 13.2375C21.9555 13.6446 21.2959 13.645 20.8889 13.2384C20.4819 12.8319 20.4815 12.1724 20.8879 11.7653L21.3211 11.3315H17.9792C17.4039 11.3315 16.9375 10.8652 16.9375 10.2899C16.9375 9.71457 17.4039 9.2482 17.9792 9.2482H21.3181L20.8884 8.81851C20.4817 8.41171 20.4817 7.75217 20.8884 7.34537C21.2952 6.93857 21.9548 6.93857 22.3616 7.34537Z" fill="white"/>
</g>
<defs>
<clipPath id="clip0_513_9">
<rect width="25" height="25" fill="white" transform="translate(3 3)"/>
</clipPath>
</defs>
</svg>
