<svg width="25" height="31" viewBox="0 0 25 31" fill="none" xmlns="http://www.w3.org/2000/svg">
<path d="M25 13.9788C25 12.375 24.3595 10.9225 23.3231 9.85724C23.3605 9.57789 23.3871 9.2949 23.3871 9.00506C23.3871 5.77826 20.9663 3.1221 17.8424 2.73989C16.2724 1.05794 14.0418 0 11.5589 0C6.80784 0 2.95703 3.85087 2.95703 8.6023C2.95703 8.62744 2.96073 8.65122 2.96073 8.67595C1.17455 9.88381 0 11.9283 0 14.2471C0 17.426 2.20955 20.0831 5.17481 20.7821C5.776 22.2533 7.21978 23.2911 8.90721 23.2911C9.53629 23.2911 10.1293 23.143 10.6595 22.886V30.5095H15.2793V25.5047L17.0811 22.4265C18.9253 22.2921 20.4834 21.1295 21.1774 19.5047C23.4099 18.6589 25 16.5074 25 13.9788ZM12.775 20.393C12.8143 20.4483 12.855 20.5018 12.8966 20.5553L12.6922 20.6385C12.722 20.5572 12.7507 20.4762 12.775 20.393ZM14.2206 24.1574V21.7394C14.6485 21.9995 15.1189 22.1947 15.6204 22.3127L14.2206 24.1574Z" fill="white"/>
</svg>
