<svg width="35" height="35" viewBox="0 0 35 35" fill="none" xmlns="http://www.w3.org/2000/svg">
<g clip-path="url(#clip0_144_2450)">
<path d="M31.0905 4.46811H29.6011C29.2926 4.46811 29.0426 4.7181 29.0426 5.0266C29.0426 5.33511 29.2926 5.5851 29.6011 5.5851H31.0905C32.6303 5.5851 33.883 6.83778 33.883 8.37765V29.975C33.416 29.6235 32.8357 29.4149 32.2075 29.4149H3.90961C3.60117 29.4149 3.35111 29.6649 3.35111 29.9734C3.35111 30.2819 3.60117 30.5319 3.90961 30.5319H32.2075C33.1313 30.5319 33.883 31.2836 33.883 32.2075C33.883 33.1313 33.1313 33.883 32.2075 33.883H3.90961C2.36975 33.883 1.11706 32.6303 1.11706 31.0905C1.11706 29.5506 2.36975 28.2979 3.90961 28.2979H19.9203C20.0684 28.2979 20.2104 28.2391 20.3152 28.1344L27.762 20.6876C27.8668 20.5828 27.9256 20.4408 27.9256 20.2926V0.558496C27.9256 0.24999 27.6756 0 27.3671 0H3.90961C1.75383 0 0 1.7539 0 3.90961V31.0905C0 33.2461 1.75383 35 3.90961 35H32.2075C33.7473 35 35 33.7473 35 32.2075V8.37765C35 6.22193 33.2461 4.46811 31.0905 4.46811ZM20.4787 26.391V20.851H26.0187L20.4787 26.391ZM1.11699 3.90961C1.11699 2.36975 2.36968 1.11706 3.90954 1.11706H26.8085V19.7341H19.9202C19.6117 19.7341 19.3617 19.984 19.3617 20.2925V27.1808H3.90961C2.81675 27.1808 1.82718 27.6316 1.11706 28.3569L1.11699 3.90961Z" fill="white"/>
<path d="M22.8991 3.35104C22.5906 3.35104 22.3406 3.60103 22.3406 3.90954V18.0585C22.3406 18.367 22.5906 18.617 22.8991 18.617C23.2076 18.617 23.4576 18.367 23.4576 18.0585V3.90961C23.4576 3.60103 23.2076 3.35104 22.8991 3.35104Z" fill="white"/>
<path d="M19.9203 14.8936C19.6118 14.8936 19.3618 15.1436 19.3618 15.4521V18.0585C19.3618 18.367 19.6118 18.617 19.9203 18.617C20.2288 18.617 20.4788 18.367 20.4788 18.0585V15.4521C20.4788 15.1436 20.2288 14.8936 19.9203 14.8936Z" fill="white"/>
<path d="M16.9416 14.8936C16.6331 14.8936 16.3831 15.1436 16.3831 15.4521V24.3882C16.3831 24.6967 16.6331 24.9467 16.9416 24.9467C17.25 24.9467 17.5 24.6967 17.5 24.3882V15.4521C17.5 15.1436 17.25 14.8936 16.9416 14.8936Z" fill="white"/>
<path d="M13.9628 14.8936C13.6544 14.8936 13.4043 15.1436 13.4043 15.4521V24.3882C13.4043 24.6967 13.6544 24.9467 13.9628 24.9467C14.2712 24.9467 14.5213 24.6967 14.5213 24.3882V15.4521C14.5214 15.1436 14.2712 14.8936 13.9628 14.8936Z" fill="white"/>
<path d="M10.984 14.8936C10.6756 14.8936 10.4255 15.1436 10.4255 15.4521V24.3882C10.4255 24.6967 10.6756 24.9467 10.984 24.9467C11.2925 24.9467 11.5425 24.6967 11.5425 24.3882V15.4521C11.5425 15.1436 11.2925 14.8936 10.984 14.8936Z" fill="white"/>
<path d="M8.00527 3.35104C7.69684 3.35104 7.44678 3.60103 7.44678 3.90954V24.3882C7.44678 24.6967 7.69684 24.9467 8.00527 24.9467C8.31371 24.9467 8.56377 24.6967 8.56377 24.3882V3.90961C8.56384 3.60103 8.31378 3.35104 8.00527 3.35104Z" fill="white"/>
<path d="M5.02651 3.35104C4.71808 3.35104 4.46802 3.60103 4.46802 3.90954V24.3882C4.46802 24.6967 4.71808 24.9467 5.02651 24.9467C5.33495 24.9467 5.58501 24.6967 5.58501 24.3882V3.90961C5.58501 3.60103 5.33495 3.35104 5.02651 3.35104Z" fill="white"/>
<path d="M19.9202 3.35104H16.5691C16.2607 3.35104 16.0106 3.60103 16.0106 3.90954C16.0106 4.21805 16.2607 4.46804 16.5691 4.46804H19.3617V12.2872H11.5425V4.4681H14.3351C14.6435 4.4681 14.8936 4.21811 14.8936 3.90961C14.8936 3.6011 14.6435 3.35111 14.3351 3.35111H10.984C10.6756 3.35111 10.4255 3.6011 10.4255 3.90961V12.8458C10.4255 13.1543 10.6756 13.4042 10.984 13.4042H19.9202C20.2287 13.4042 20.4787 13.1543 20.4787 12.8458V3.90961C20.4787 3.60103 20.2287 3.35104 19.9202 3.35104Z" fill="white"/>
<path d="M32.2074 31.649H3.90957C3.60113 31.649 3.35107 31.8989 3.35107 32.2075C3.35107 32.516 3.60113 32.7659 3.90957 32.7659H32.2074C32.5159 32.7659 32.7659 32.516 32.7659 32.2075C32.7659 31.8989 32.5159 31.649 32.2074 31.649Z" fill="white"/>
<path d="M30.9042 24.7607C31.2126 24.7607 31.4627 24.5106 31.4627 24.2022C31.4627 23.8937 31.2126 23.6437 30.9042 23.6437C30.5957 23.6437 30.3457 23.8937 30.3457 24.2022C30.3457 24.5106 30.5957 24.7607 30.9042 24.7607Z" fill="white"/>
<path d="M28.6703 26.9946C28.9788 26.9946 29.2288 26.7446 29.2288 26.4361C29.2288 26.1277 28.9788 25.8777 28.6703 25.8777C28.3619 25.8777 28.1118 26.1277 28.1118 26.4361C28.1118 26.7446 28.3619 26.9946 28.6703 26.9946Z" fill="white"/>
</g>
<defs>
<clipPath id="clip0_144_2450">
<rect width="35" height="35" fill="white"/>
</clipPath>
</defs>
</svg>
