<svg width="1919" height="1080" viewBox="0 0 1919 1080" fill="none" xmlns="http://www.w3.org/2000/svg">
<mask id="mask0_374_1179" style="mask-type:alpha" maskUnits="userSpaceOnUse" x="0" y="0" width="1920" height="1080">
<rect width="1920" height="1080" fill="#D9D9D9"/>
</mask>
<g mask="url(#mask0_374_1179)">
<path d="M711.5 871.5C113.5 926 -55.8711 800.905 -55.8711 800.905V1235.4H1973.87C1973.87 1235.4 1973.87 971.912 1973.87 787.227C1686.5 919 1361.5 850.5 711.5 871.5Z" fill="#76AE9B"/>
<path d="M117.446 909.62C117.446 909.62 135.336 916.755 148.691 902.793C162.046 888.832 172.593 855.821 166.237 813.89C121.868 830.696 107.547 879.047 117.446 909.62Z" fill="#27685E"/>
<path d="M102.151 900.728C102.151 900.728 117.14 887.258 114.607 866.514C112.074 845.77 94.7587 815.195 57.6307 812C56.1114 862.535 74.9144 893.429 102.151 900.728Z" fill="#27685E"/>
<path d="M89.4234 954.27C89.4234 954.27 93.4 946.044 88.3655 925.933C83.331 905.822 65.1372 882.298 28 885.326C32.6523 935.6 60.7305 964.423 89.4234 954.27Z" fill="#27685E"/>
<path d="M114.895 957.992C114.895 957.992 125.161 969.566 138.103 965.034C151.044 960.5 167.281 941.903 174.409 910.883C139.507 905.742 116.499 933.403 114.895 957.992Z" fill="#27685E"/>
<path d="M170.997 913.631C156.601 928.633 138.662 947.967 109.343 956.938C107.309 928.555 110.168 924.177 116.733 915.653C123.455 906.924 152.534 842.387 151.267 845.141C133.406 880.941 117.147 907.464 112.304 915.312C107.464 923.162 106.11 905.74 104.266 894.786C101.142 876.221 91.3928 846.658 70.0458 824.287C84.6987 849.287 99.2334 865.544 101.72 910.002C103.373 939.549 102.023 947.615 101.851 958.955C89.2495 956.78 77.0169 937.006 69.7541 927.27C62.4913 917.534 47.7627 903.848 47.7627 903.848C61.7639 920.822 63.9904 923.749 75.5953 940.197C87.2002 956.644 101.399 965.012 101.399 965.012C101.011 973.955 99.7042 981 97.1399 988.945C98.9307 991.842 104.831 992.49 106.662 991.524C108.518 984.05 110.008 971.61 109.637 961.677C118.973 958.474 151.747 945.346 170.997 913.631Z" fill="#3A9181"/>
<mask id="mask1_374_1179" style="mask-type:alpha" maskUnits="userSpaceOnUse" x="396" y="260" width="1250" height="642">
<rect x="396" y="260" width="1250" height="641.851" fill="#D9D9D9"/>
</mask>
<g mask="url(#mask1_374_1179)">
<path d="M1557.13 367.609C1557.13 367.609 1546.32 363.446 1537.84 358.69C1540.23 349.484 1530.59 342.165 1522.16 350.103C1529.87 338.635 1511.7 318.262 1496 334.107C1504.26 309.208 1467.08 301.057 1462.95 315.997C1453.86 278.873 1397.68 290.193 1408.01 330.956C1408.01 330.956 1400.58 325.853 1394.07 326.053C1383.88 326.369 1373.62 334.033 1379.92 351.307L1359.41 367.604H1557.13V367.609Z" fill="#E2F2EE"/>
<path d="M593.72 737.207C593.72 737.207 582.908 733.043 574.425 728.287C576.815 719.082 567.178 711.762 558.745 719.701C566.455 708.232 548.28 687.859 532.583 703.704C540.846 678.805 503.666 670.657 499.536 685.596C490.449 648.473 434.269 659.79 444.597 700.556C444.597 700.556 437.172 695.453 430.66 695.653C420.465 695.969 410.205 703.633 416.507 720.907L396 737.204L593.72 737.207Z" fill="#E2F2EE"/>
<path d="M1059.19 379.18C1059.19 379.18 1045.08 373.745 1034.01 367.538C1037.13 355.522 1024.55 345.969 1013.54 356.329C1023.61 341.358 999.883 314.766 979.393 335.45C990.178 302.948 941.649 292.311 936.256 311.811C924.394 263.354 851.062 278.127 864.542 331.337C864.542 331.337 854.85 324.676 846.35 324.94C833.043 325.351 819.65 335.357 827.875 357.905L801.105 379.178L1059.19 379.18Z" fill="#E2F2EE" fill-opacity="0.5"/>
<path d="M475.379 537.525C475.379 537.525 496.204 529.503 512.541 520.349C507.938 502.62 526.501 488.522 542.741 503.809C527.888 481.719 562.895 442.482 593.13 473C577.218 425.042 648.822 409.346 656.779 438.123C674.281 366.623 782.487 388.42 762.595 466.935C762.595 466.935 776.895 457.106 789.44 457.495C809.074 458.102 828.837 472.865 816.697 506.136L856.194 537.527H475.379V537.525Z" fill="#E2F2EE" fill-opacity="0.5"/>
<path d="M1430.84 801.896C1557.28 678.164 1557.28 477.556 1430.84 353.826C1304.4 230.095 1099.39 230.096 972.949 353.828C846.505 477.559 846.504 678.167 972.947 801.897C1099.39 925.628 1304.4 925.627 1430.84 801.896Z" fill="#FFEE73"/>
<path d="M1421.15 433.806C1436.7 383.317 1388.09 324.348 1312.59 302.095C1237.09 279.842 1163.28 302.732 1147.74 353.221C1132.2 403.709 1180.81 462.678 1256.31 484.931C1331.81 507.184 1405.61 484.294 1421.15 433.806Z" fill="#FFF4B3"/>
<path d="M1175.77 506.596C1175.77 506.596 1161.04 500.92 1149.49 494.445C1152.74 481.902 1139.61 471.928 1128.12 482.744C1138.63 467.117 1113.86 439.358 1092.47 460.947C1103.73 427.019 1053.07 415.915 1047.44 436.273C1035.06 385.69 958.508 401.112 972.58 456.656C972.58 456.656 962.463 449.703 953.59 449.977C939.7 450.408 925.718 460.851 934.305 484.388L906.363 506.596H1175.77Z" fill="white"/>
<path d="M1324.84 598.783C1324.84 598.783 1335.88 594.529 1344.54 589.673C1342.1 580.272 1351.95 572.796 1360.56 580.903C1352.68 569.187 1371.25 548.379 1387.28 564.564C1378.84 539.132 1416.82 530.807 1421.04 546.067C1430.32 508.149 1487.7 519.708 1477.15 561.347C1477.15 561.347 1484.74 556.134 1491.39 556.339C1501.8 556.662 1512.28 564.49 1505.85 582.133L1526.79 598.781H1324.84V598.783Z" fill="white"/>
<path opacity="0.58" d="M1331.13 642.93H884.365C879.182 642.93 874.982 638.745 874.982 633.586V404.497C874.982 399.335 879.184 395.152 884.365 395.152H1331.12C1336.31 395.152 1340.51 399.335 1340.51 404.497V633.586C1340.51 638.748 1336.31 642.93 1331.13 642.93Z" fill="white"/>
<path d="M991.509 524.379H919.305C917.726 524.379 916.446 523.103 916.446 521.532V433.957C916.446 432.384 917.728 431.11 919.305 431.11H991.509C993.089 431.11 994.368 432.384 994.368 433.957V521.532C994.368 523.105 993.089 524.379 991.509 524.379Z" fill="#83D9BC"/>
<path d="M929.534 445.349H977.389" stroke="url(#paint0_linear_374_1179)" stroke-width="1.3217" stroke-miterlimit="10" stroke-linecap="round" stroke-linejoin="round"/>
<path d="M929.534 453.359H969.168" stroke="url(#paint1_linear_374_1179)" stroke-width="1.3217" stroke-miterlimit="10" stroke-linecap="round" stroke-linejoin="round"/>
<path d="M929.534 461.368H977.389" stroke="url(#paint2_linear_374_1179)" stroke-width="1.3217" stroke-miterlimit="10" stroke-linecap="round" stroke-linejoin="round"/>
<path d="M929.534 469.378H947.544" stroke="url(#paint3_linear_374_1179)" stroke-width="1.3217" stroke-miterlimit="10" stroke-linecap="round" stroke-linejoin="round"/>
<path d="M929.534 477.39H977.389" stroke="url(#paint4_linear_374_1179)" stroke-width="1.3217" stroke-miterlimit="10" stroke-linecap="round" stroke-linejoin="round"/>
<path d="M929.534 485.399H961.037" stroke="url(#paint5_linear_374_1179)" stroke-width="1.3217" stroke-miterlimit="10" stroke-linecap="round" stroke-linejoin="round"/>
<path d="M929.534 493.409H961.037" stroke="url(#paint6_linear_374_1179)" stroke-width="1.3217" stroke-miterlimit="10" stroke-linecap="round" stroke-linejoin="round"/>
<path d="M1158.9 526.213H1073.29C1071.58 526.213 1070.19 524.828 1070.19 523.121V436.034C1070.19 434.327 1071.58 432.942 1073.29 432.942H1158.9C1160.62 432.942 1162.01 434.327 1162.01 436.034V523.121C1162.01 524.83 1160.62 526.213 1158.9 526.213Z" fill="#96DFC6"/>
<path d="M1085.61 447.183H1142" stroke="url(#paint7_linear_374_1179)" stroke-width="1.4347" stroke-miterlimit="10" stroke-linecap="round" stroke-linejoin="round"/>
<path d="M1085.61 455.193H1132.32" stroke="url(#paint8_linear_374_1179)" stroke-width="1.4347" stroke-miterlimit="10" stroke-linecap="round" stroke-linejoin="round"/>
<path d="M1085.61 463.202H1142" stroke="url(#paint9_linear_374_1179)" stroke-width="1.4347" stroke-miterlimit="10" stroke-linecap="round" stroke-linejoin="round"/>
<path d="M1085.61 471.212H1106.83" stroke="url(#paint10_linear_374_1179)" stroke-width="1.4347" stroke-miterlimit="10" stroke-linecap="round" stroke-linejoin="round"/>
<path d="M1085.61 479.224H1142" stroke="url(#paint11_linear_374_1179)" stroke-width="1.4347" stroke-miterlimit="10" stroke-linecap="round" stroke-linejoin="round"/>
<path d="M1085.61 487.233H1122.73" stroke="url(#paint12_linear_374_1179)" stroke-width="1.4347" stroke-miterlimit="10" stroke-linecap="round" stroke-linejoin="round"/>
<path d="M1085.61 495.243H1122.73" stroke="url(#paint13_linear_374_1179)" stroke-width="1.4347" stroke-miterlimit="10" stroke-linecap="round" stroke-linejoin="round"/>
<path d="M1149.32 491.849L1147.71 507.215C1147.62 507.99 1146.93 508.553 1146.15 508.473C1145.47 508.403 1144.95 507.866 1144.89 507.215L1143.28 491.849C1143.1 490.187 1144.31 488.698 1145.98 488.525C1147.65 488.351 1149.14 489.559 1149.32 491.221C1149.34 491.427 1149.34 491.647 1149.32 491.849Z" fill="url(#paint14_linear_374_1179)"/>
<path d="M1147.71 511.833L1148.24 514.826C1148.44 515.898 1147.72 516.923 1146.65 517.115C1145.57 517.308 1144.54 516.594 1144.35 515.524C1144.3 515.288 1144.31 515.048 1144.35 514.826L1144.89 511.833C1145.03 511.058 1145.77 510.543 1146.55 510.681C1147.15 510.79 1147.6 511.264 1147.71 511.833Z" fill="url(#paint15_linear_374_1179)"/>
<path d="M1109.38 603.687H1030.67C1029.02 603.687 1027.68 602.359 1027.68 600.718V513.384C1027.68 511.745 1029.02 510.414 1030.67 510.414H1109.38C1111.02 510.414 1112.36 511.742 1112.36 513.384V600.718C1112.36 602.357 1111.02 603.687 1109.38 603.687Z" fill="#2B8A7D"/>
<path d="M1041.91 524.656H1093.91" stroke="#255E44" stroke-width="1.3778" stroke-miterlimit="10" stroke-linecap="round" stroke-linejoin="round"/>
<path d="M1041.91 532.665H1084.97" stroke="#255E44" stroke-width="1.3778" stroke-miterlimit="10" stroke-linecap="round" stroke-linejoin="round"/>
<path d="M1041.91 540.677H1093.91" stroke="#255E44" stroke-width="1.3778" stroke-miterlimit="10" stroke-linecap="round" stroke-linejoin="round"/>
<path d="M1041.91 548.686H1061.48" stroke="#255E44" stroke-width="1.3778" stroke-miterlimit="10" stroke-linecap="round" stroke-linejoin="round"/>
<path d="M1041.91 556.696H1093.91" stroke="#255E44" stroke-width="1.3778" stroke-miterlimit="10" stroke-linecap="round" stroke-linejoin="round"/>
<path d="M1041.91 564.708H1076.14" stroke="#255E44" stroke-width="1.3778" stroke-miterlimit="10" stroke-linecap="round" stroke-linejoin="round"/>
<path d="M1041.91 572.717H1076.14" stroke="#255E44" stroke-width="1.3778" stroke-miterlimit="10" stroke-linecap="round" stroke-linejoin="round"/>
<path d="M1305.82 612.11H1207.52C1204.03 612.11 1201.2 609.292 1201.2 605.819V428.145C1201.2 424.669 1204.03 421.853 1207.52 421.853H1305.82C1309.3 421.853 1312.13 424.669 1312.13 428.145V605.819C1312.13 609.292 1309.3 612.11 1305.82 612.11Z" fill="#1CA79F"/>
<path d="M1287.02 519.042C1287.02 526.721 1284.21 533.74 1279.57 539.156L1255.92 520.466C1256.12 520.085 1254.77 499.491 1254.01 488.129C1254.64 488.09 1255.28 488.067 1255.92 488.067C1273.1 488.067 1287.02 501.933 1287.02 519.042Z" fill="url(#paint16_linear_374_1179)"/>
<path d="M1255.75 520.375L1227.85 505.717C1229.47 502.33 1231.69 499.289 1234.37 496.712C1241.23 504.495 1254.1 519.026 1255.75 520.375Z" fill="#255E44"/>
<path d="M1279.58 539.156C1273.87 545.8 1265.39 550.017 1255.92 550.017C1238.75 550.017 1224.83 536.143 1224.83 519.042C1224.83 514.27 1225.91 509.754 1227.85 505.716L1255.75 520.375C1255.85 520.457 1255.9 520.486 1255.92 520.466L1279.58 539.156Z" fill="url(#paint17_linear_374_1179)"/>
<path d="M1255.92 520.466C1255.9 520.489 1255.85 520.46 1255.75 520.376C1254.1 519.027 1241.23 504.495 1234.37 496.712C1239.53 491.768 1246.4 488.585 1254.01 488.127C1254.77 499.492 1256.12 520.083 1255.92 520.466Z" fill="url(#paint18_linear_374_1179)"/>
<path d="M1215.92 445.349H1293.9" stroke="#255E44" stroke-width="1.3778" stroke-miterlimit="10" stroke-linecap="round" stroke-linejoin="round"/>
<path d="M1215.92 458.281H1293.9" stroke="#255E44" stroke-width="1.3778" stroke-miterlimit="10" stroke-linecap="round" stroke-linejoin="round"/>
<path d="M1215.92 471.212H1247.79" stroke="#255E44" stroke-width="1.3778" stroke-miterlimit="10" stroke-linecap="round" stroke-linejoin="round"/>
<path d="M1231.56 559.983C1231.56 561.065 1230.68 561.942 1229.59 561.942C1228.51 561.942 1227.63 561.065 1227.63 559.983C1227.63 558.902 1228.51 558.024 1229.59 558.024C1230.68 558.024 1231.56 558.902 1231.56 559.983Z" fill="#255E44"/>
<path d="M1231.56 570.84C1231.56 571.921 1230.68 572.799 1229.59 572.799C1228.51 572.799 1227.63 571.921 1227.63 570.84C1227.63 569.759 1228.51 568.881 1229.59 568.881C1230.68 568.881 1231.56 569.759 1231.56 570.84Z" fill="#255E44"/>
<path d="M1231.56 581.699C1231.56 582.781 1230.68 583.658 1229.59 583.658C1228.51 583.658 1227.63 582.781 1227.63 581.699C1227.63 580.618 1228.51 579.741 1229.59 579.741C1230.68 579.741 1231.56 580.618 1231.56 581.699Z" fill="#255E44"/>
<path d="M1231.56 592.556C1231.56 593.638 1230.68 594.515 1229.59 594.515C1228.51 594.515 1227.63 593.638 1227.63 592.556C1227.63 591.475 1228.51 590.598 1229.59 590.598C1230.68 590.598 1231.56 591.475 1231.56 592.556Z" fill="#255E44"/>
<path d="M1241.39 559.983H1276.78" stroke="#255E44" stroke-width="1.3778" stroke-miterlimit="10" stroke-linecap="round" stroke-linejoin="round"/>
<path d="M1241.39 570.84H1276.78" stroke="#255E44" stroke-width="1.3778" stroke-miterlimit="10" stroke-linecap="round" stroke-linejoin="round"/>
<path d="M1241.39 581.699H1276.78" stroke="#255E44" stroke-width="1.3778" stroke-miterlimit="10" stroke-linecap="round" stroke-linejoin="round"/>
<path d="M1241.39 592.556H1276.78" stroke="#255E44" stroke-width="1.3778" stroke-miterlimit="10" stroke-linecap="round" stroke-linejoin="round"/>
<path d="M1331.13 642.93H884.365C879.182 642.93 874.982 638.745 874.982 633.586V404.497C874.982 399.335 879.184 395.152 884.365 395.152H1331.12C1336.31 395.152 1340.51 399.335 1340.51 404.497V633.586C1340.51 638.748 1336.31 642.93 1331.13 642.93Z" stroke="url(#paint19_linear_374_1179)" stroke-width="3.9651" stroke-miterlimit="10"/>
<path d="M957.686 537.464C957.686 537.464 958.758 542.538 958.355 545.741C957.952 548.945 968.541 544.807 968.541 544.807C968.541 544.807 966.128 542.538 967.2 535.195" fill="url(#paint20_linear_374_1179)"/>
<path d="M969.168 685.769C969.168 685.769 967.292 694.383 967.65 695.492C968.007 696.601 980.786 696.787 980.875 695.492C980.963 694.198 980.428 686.188 979.176 683.517" fill="url(#paint21_linear_374_1179)"/>
<path d="M974.172 528.743C973.993 530.384 973.405 532.339 972.427 534.198C970.54 537.777 967.207 540.963 962.55 540.67C955.496 540.228 949.239 531.06 950.313 524.737C950.796 521.876 951.818 520.326 952.781 519.493C953.955 518.482 955.045 518.512 955.045 518.512C954.872 515.485 957.911 511.568 964.965 511.747C972.028 511.919 974.705 523.935 974.172 528.743Z" fill="url(#paint22_linear_374_1179)"/>
<path d="M980.339 591.135C980.212 591.45 980.009 591.801 979.722 592.184C977.555 595.061 970.938 599.45 962.514 600.072C961.258 600.162 959.958 600.169 958.626 600.078C952.203 599.62 947.48 597.598 944.66 595.488C942.47 593.862 941.425 592.185 941.598 591.135C942.003 588.73 942.267 588.063 942.267 588.063C942.267 588.063 943.613 566.968 941.598 564.699C940.485 563.44 936.905 560.017 933.934 557.05C931.535 554.66 929.534 552.563 929.534 552.15C929.534 552.053 929.587 551.865 929.684 551.611C930.338 549.933 933.03 545.288 935.942 542.382V542.375C936.618 541.702 937.303 541.117 937.981 540.69C937.981 540.69 950.179 544.676 952.189 545.476C954.204 546.279 959.696 540.69 972.971 543.08C972.971 543.08 982.884 533.191 983.69 533.461C984.291 533.656 988.857 538.324 991.181 541.065C991.971 541.994 992.505 542.706 992.542 542.937C992.669 543.873 983.155 560.294 978.461 563.096C977.255 566.301 981.543 588.063 980.339 591.135Z" fill="#3ABEAB"/>
<path d="M938.017 685.769C938.017 685.769 936.141 694.383 936.498 695.492C936.856 696.601 949.634 696.787 949.723 695.492C949.812 694.198 949.277 686.188 948.025 683.517" fill="url(#paint23_linear_374_1179)"/>
<path d="M981.498 686.487C979.536 688.21 969.525 688.324 968.096 687.251C966.667 686.188 964.704 610.536 963.99 611.6C963.275 612.672 949.738 687.378 949.738 687.378C949.738 687.378 937.893 689.566 936.111 686.487C935.057 684.674 938.464 651.303 941.444 624.141C942.73 612.425 943.934 601.863 944.662 595.488C947.483 597.601 952.206 599.623 958.629 600.078C963.63 600.43 968.189 599.344 971.829 597.748C975.642 596.084 978.455 593.876 979.725 592.182C982.281 616.349 983.153 685.034 981.498 686.487Z" fill="#1C423B"/>
<path d="M996.872 532.3C996.803 532.472 996.63 532.788 996.382 533.207C995.321 534.953 992.916 538.519 991.177 541.065C988.853 538.324 984.286 533.656 983.686 533.461L985.618 531.377L989.806 526.868C989.806 526.868 994.01 506.313 993.649 504.268C993.296 502.216 989.624 497.945 990.077 496.521C990.521 495.098 992.62 497.324 993.671 497.054C994.725 496.791 993.648 489.226 994.814 488.514C995.973 487.802 998.74 493.406 998.829 498.036C998.925 502.667 997.407 530.967 996.872 532.3Z" fill="url(#paint24_linear_374_1179)"/>
<path d="M935.941 542.377V542.384C933.03 545.29 930.337 549.936 929.684 551.613C928.156 549.958 925.473 547.029 923.162 544.429C921.109 542.13 919.34 540.085 918.942 539.426C917.875 537.644 914.121 516.549 913.759 507.918C913.406 499.28 916.534 497.147 916.534 497.147C916.534 497.147 916.534 497.147 916.707 498.308C916.971 499.986 916.887 508.983 918.052 509.523C919.211 510.056 921.264 504.091 922.249 504.984C923.235 505.869 920.549 513.876 920.549 515.218C920.549 516.551 926.897 535.864 926.897 535.864L933.99 540.981L935.941 542.377Z" fill="url(#paint25_linear_374_1179)"/>
<path opacity="0.15" d="M935.942 542.377V542.384C933.03 545.29 930.338 549.936 929.684 551.613C928.157 549.958 925.473 547.029 923.163 544.429C925.382 544.025 931.114 542.84 933.993 540.976L935.942 542.377Z" fill="black"/>
<path opacity="0.15" d="M996.382 533.207C995.321 534.953 992.916 538.519 991.177 541.065C988.853 538.324 984.286 533.656 983.686 533.461L985.618 531.377C988.283 532.023 992.749 532.982 996.382 533.207Z" fill="black"/>
<path opacity="0.15" d="M972.427 534.195C970.54 537.775 967.207 540.96 962.55 540.668C955.496 540.226 949.239 531.058 950.313 524.735C950.796 521.874 951.818 520.323 952.781 519.491C952.202 521.618 951.841 525.057 953.616 528.922C955.933 533.957 966.319 536.369 972.427 534.195Z" fill="black"/>
<path opacity="0.15" d="M962.514 600.072C961.257 600.162 959.957 600.169 958.626 600.078C952.202 599.62 947.479 597.598 944.659 595.488C942.469 593.862 941.425 592.184 941.598 591.135C942.003 588.729 942.267 588.063 942.267 588.063C942.267 588.063 943.612 566.968 941.598 564.699C940.485 563.44 936.904 560.017 933.934 557.05C938.611 559.342 945.449 563.064 946.2 565.499C947.095 568.371 947.088 596.873 962.514 600.072Z" fill="black"/>
<path opacity="0.15" d="M971.826 597.75C969.486 599.518 965.862 601.622 961.041 602.611C954.212 604.012 945.818 611.817 941.44 624.141C942.726 612.425 943.931 601.863 944.659 595.488C947.479 597.601 952.202 599.623 958.626 600.078C963.627 600.432 968.186 599.346 971.826 597.75Z" fill="black"/>
<path d="M1044.89 799.051H877.943C874.235 799.051 871.229 796.057 871.229 792.364V774.195C871.229 770.502 874.235 767.508 877.943 767.508H1044.89C1048.6 767.508 1051.6 770.502 1051.6 774.195V792.364C1051.6 796.059 1048.6 799.051 1044.89 799.051Z" fill="url(#paint26_linear_374_1179)"/>
<path d="M1049.71 830.428H873.117C869.409 830.428 866.402 827.433 866.402 823.74V805.571C866.402 801.878 869.409 798.884 873.117 798.884H1049.71C1053.42 798.884 1056.43 801.878 1056.43 805.571V823.74C1056.43 827.435 1053.42 830.428 1049.71 830.428Z" fill="url(#paint27_linear_374_1179)"/>
<path d="M1043.55 866.326H879.284C875.576 866.326 872.569 863.332 872.569 859.639V837.115C872.569 833.422 875.576 830.427 879.284 830.427H1043.55C1047.25 830.427 1050.26 833.422 1050.26 837.115V859.639C1050.26 863.332 1047.26 866.326 1043.55 866.326Z" fill="url(#paint28_linear_374_1179)"/>
<path d="M1447.63 552.461L1443.68 554.73L1435.51 540.625L1439.46 538.355L1447.63 552.461Z" fill="url(#paint29_linear_374_1179)"/>
<path d="M1549.24 728.872L1545.3 731.142L1537.12 717.036L1541.07 714.767L1549.24 728.872Z" fill="url(#paint30_linear_374_1179)"/>
<path d="M1490.85 750.087H1480.49V824.848H1490.85V750.087Z" fill="#1C423B"/>
<path d="M1553.35 735.884C1496.18 768.453 1423.06 748.625 1390.36 691.681C1357.66 634.737 1377.57 561.915 1434.74 529.344L1440.34 539.097C1388.57 568.591 1370.54 634.536 1400.16 686.102C1429.77 737.666 1495.98 755.624 1547.75 726.129L1553.35 735.884Z" fill="#1C423B"/>
<path d="M1589.86 633.443C1589.86 638.995 1589.4 644.44 1588.49 649.729C1587.89 653.302 1587.09 656.8 1586.11 660.223C1580.72 678.952 1569.81 695.372 1555.26 707.612C1541.73 718.983 1525.04 726.75 1506.7 729.425C1502.05 730.108 1497.3 730.459 1492.46 730.459C1469.46 730.459 1448.33 722.527 1431.66 709.244C1419.08 699.215 1409.04 686.143 1402.68 671.137C1397.77 659.548 1395.05 646.814 1395.05 633.443C1395.05 600.004 1412.04 570.518 1437.9 553.08C1440.05 551.627 1442.27 550.255 1444.54 548.983C1451.47 545.059 1458.95 541.971 1466.81 539.836C1474.98 537.619 1483.59 536.435 1492.46 536.435C1493.95 536.435 1495.43 536.465 1496.9 536.539C1499.41 536.644 1501.9 536.855 1504.37 537.154C1509.78 537.814 1515.07 538.915 1520.17 540.421C1560.46 552.309 1589.86 589.457 1589.86 633.443Z" fill="#27685E"/>
<path d="M1499.79 554.286C1504.44 564.257 1500.86 586.685 1489.06 597.36C1477.27 608.043 1481.55 634.739 1473.66 627.263C1465.75 619.786 1470.48 605.546 1477.98 587.036C1485.49 568.525 1475.49 568.879 1469.05 553.574C1466.77 548.158 1466.38 543.536 1466.82 539.836C1474.98 537.619 1483.59 536.435 1492.46 536.435C1496.5 536.435 1500.47 536.682 1504.37 537.154C1501.37 543.2 1497.3 548.947 1499.79 554.286Z" fill="#83D9BC"/>
<path d="M1589.86 633.443C1589.86 663.189 1576.42 689.813 1555.26 707.61C1552.82 695.961 1563.16 678.02 1561.27 663.579C1559.12 647.204 1549.83 649.339 1538.75 637.594C1527.67 625.841 1541.25 622.282 1543.04 602.35C1544.82 582.409 1524.81 581.697 1518.73 564.971C1515.4 555.803 1517.55 546.746 1520.17 540.423C1560.46 552.309 1589.86 589.457 1589.86 633.443Z" fill="#83D9BC"/>
<path d="M1500.86 640.795C1492.46 645.78 1493.64 661.586 1485.51 666.363C1477.38 671.139 1463.91 680.328 1472.14 693.132C1480.36 705.936 1493 685.021 1509.8 689.43C1526.6 693.839 1536.61 690.509 1533.39 679.713C1530.17 668.92 1517.11 665.596 1517.03 652.305C1516.95 639.015 1509.27 635.812 1500.86 640.795Z" fill="#83D9BC"/>
<path d="M1506.7 729.425C1502.05 730.108 1497.3 730.459 1492.46 730.459C1469.46 730.459 1448.33 722.527 1431.66 709.244C1433.87 707.979 1436.16 706.136 1437.95 703.461C1442.96 695.977 1454.75 691.94 1463.33 697.342C1471.91 702.742 1474.05 713.71 1480.49 714.1C1486.92 714.49 1490.14 711.291 1499.43 716.093C1504.03 718.466 1506.36 724.055 1506.7 729.425Z" fill="#83D9BC"/>
<path d="M1450.46 597.721C1442.6 610.89 1432.23 607.954 1433.31 624.021C1434.24 638.097 1428.04 667.303 1402.68 671.139C1397.77 659.55 1395.05 646.816 1395.05 633.445C1395.05 600.006 1412.04 570.52 1437.9 553.082C1438.04 556.46 1439.02 560.364 1441.53 564.61C1449.75 578.498 1458.32 584.542 1450.46 597.721Z" fill="#83D9BC"/>
<path d="M1560.2 859.759V866.682H1411.14V859.759L1463.38 833.198L1479.77 824.853H1491.21L1543.06 851.085L1560.2 859.759Z" fill="#65948B"/>
<path opacity="0.15" d="M1560.2 859.759V866.68H1411.14V859.759L1463.38 833.196C1465.78 838.739 1469.83 844.184 1476.55 847.99C1488.7 854.86 1520.35 853.316 1543.06 851.085L1560.2 859.759Z" fill="black"/>
<path opacity="0.15" d="M1586.11 660.223C1580.72 678.952 1569.81 695.372 1555.26 707.612C1541.73 718.983 1525.04 726.75 1506.7 729.425C1502.05 730.108 1497.3 730.459 1492.46 730.459C1469.46 730.459 1448.33 722.527 1431.66 709.244C1419.08 699.215 1409.04 686.143 1402.68 671.137C1397.77 659.548 1395.05 646.814 1395.05 633.443C1395.05 600.004 1412.04 570.518 1437.9 553.08C1440.05 551.627 1442.27 550.255 1444.54 548.983C1437.93 564.581 1427.46 596.408 1434.74 628.566C1444.92 673.64 1484.33 696.651 1519.98 696.673C1549.38 696.689 1565.12 661.049 1586.11 660.223Z" fill="black"/>
<path opacity="0.15" d="M1589.86 633.443C1589.86 638.995 1589.39 644.44 1588.49 649.729C1566.89 648.367 1579.48 618.582 1553.35 583.83C1523.64 544.316 1505.51 556.78 1499.82 546.539C1497.18 541.797 1496.67 538.598 1496.9 536.54C1499.41 536.644 1501.9 536.855 1504.37 537.154C1509.78 537.814 1515.07 538.915 1520.17 540.421C1560.46 552.309 1589.86 589.457 1589.86 633.443Z" fill="white"/>
<path d="M1422 866.682H1030.34C1026.41 866.682 1023.23 863.515 1023.23 859.607V847.66C1023.23 844.969 1025.42 842.788 1028.12 842.788H1424.22C1426.92 842.788 1429.11 844.969 1429.11 847.66V859.607C1429.11 863.513 1425.92 866.682 1422 866.682Z" fill="#2A6F64"/>
<path d="M1401.76 839.058H1050.58C1044.21 839.058 1039.05 833.919 1039.05 827.578V635.188C1039.05 628.847 1044.21 623.708 1050.58 623.708H1401.76C1408.13 623.708 1413.29 628.847 1413.29 635.188V827.578C1413.29 833.919 1408.13 839.058 1401.76 839.058Z" fill="#2A6F64"/>
<path opacity="0.58" d="M1056.74 829.321C1052.37 829.321 1048.83 825.791 1048.83 821.436V641.328C1048.83 636.973 1052.37 633.443 1056.74 633.443H1395.6C1399.97 633.443 1403.51 636.973 1403.51 641.325V821.434C1403.51 825.789 1399.97 829.319 1395.59 829.319L1056.74 829.321Z" fill="white"/>
<path d="M1071.53 839.058H1051.6V842.785H1071.53V839.058Z" fill="url(#paint31_linear_374_1179)"/>
<path d="M1400.73 839.058H1380.8V842.785H1400.73V839.058Z" fill="url(#paint32_linear_374_1179)"/>
<path d="M1593.64 902.459H728.274C723.649 902.459 719.897 898.725 719.897 894.116V875.025C719.897 870.418 723.646 866.682 728.274 866.682H1593.64C1598.27 866.682 1602.02 870.416 1602.02 875.025V894.116C1602.02 898.725 1598.27 902.459 1593.64 902.459Z" fill="#1C423B"/>
<path d="M1532.32 829.321C1532.32 829.321 1542.33 740.765 1593.8 691.314C1605.59 724.1 1602.02 785.8 1602.02 785.8L1574.11 824.851L1532.32 829.321Z" fill="#1CA79F"/>
<path opacity="0.15" d="M1593.8 691.314C1593.8 691.314 1566.07 791.575 1567.42 811.239" stroke="black" stroke-width="0.3304" stroke-miterlimit="10"/>
<path d="M1579.14 785.154C1579.14 785.154 1617.92 732.645 1645.98 718.759C1634.36 798.147 1584.5 869.348 1584.5 869.348H1566.63C1566.63 869.348 1575.21 793.878 1579.14 785.154Z" fill="#1CA79F"/>
<path opacity="0.15" d="M1645.99 718.761C1645.99 718.761 1578.43 820.307 1566.63 852.84" stroke="black" stroke-width="0.3304" stroke-miterlimit="10"/>
<path d="M1548.54 814.214C1548.54 814.214 1543.44 791.785 1557.65 784.71C1557.65 784.71 1560.2 760.947 1573.2 758.544C1573.2 758.544 1577.84 743.592 1589.86 738.251C1591.43 752.402 1588.21 763.882 1588.21 763.882C1588.21 763.882 1591.24 765.485 1589.86 777.632C1588.48 789.781 1585 793.52 1585 793.52C1585 793.52 1588.7 800.328 1586.11 810.874C1583.52 821.42 1580.44 824.848 1580.44 824.848C1580.44 824.848 1586.55 824.225 1586.11 832.636C1585.67 841.046 1570.52 866.682 1570.52 866.682H1563.82L1548.54 814.214Z" fill="#27685E"/>
<path opacity="0.15" d="M1589.86 738.251C1589.86 738.251 1555.19 811.144 1558.59 846.92" stroke="black" stroke-width="0.3304" stroke-miterlimit="10"/>
<path d="M1535.41 851.774C1535.41 851.774 1529.9 843.878 1529.64 839.058C1529.64 839.058 1509.26 831.303 1515.29 820.221C1515.29 820.221 1508.46 815.415 1510.33 807.406C1510.33 807.406 1501.09 798.328 1506.71 792.321C1506.71 792.321 1501.49 771.894 1506.04 763.885C1511 768.024 1518.38 778.702 1518.38 778.702C1518.38 778.702 1518.51 775.499 1524.14 776.433C1529.77 777.367 1533.66 792.454 1533.66 792.454C1533.66 792.454 1538.75 789.917 1541.83 795.259C1544.92 800.598 1543.71 810.076 1543.71 810.076C1543.71 810.076 1548.12 805.404 1553.35 810.611C1558.59 815.819 1556.44 822.76 1556.44 822.76C1556.44 822.76 1566.09 827.299 1562.74 836.644C1562.74 836.644 1567.97 833.445 1569.18 842.788C1570.38 852.13 1567.84 867.75 1567.84 867.75L1547.87 866.415L1535.41 851.774Z" fill="#2B8A7D"/>
<path opacity="0.25" d="M1506.05 763.885C1506.05 763.885 1550.28 855.474 1563.82 866.685" stroke="black" stroke-width="0.3304" stroke-miterlimit="10"/>
<path d="M762.362 757.965C762.362 757.965 753.806 672.302 790.535 598.609C840.668 653.613 871.229 866.326 871.229 866.326H774.72C774.72 866.326 766.628 787.025 762.362 757.965Z" fill="#73BBAF"/>
<path opacity="0.25" d="M790.535 598.609C790.535 598.609 794.355 803.406 819.923 862.277" stroke="white" stroke-width="2" stroke-miterlimit="10"/>
<path d="M683.84 698.201C685.718 744.125 714.4 814.656 714.4 814.656L743.622 837.158L752.201 831.078L755.955 778.192C736.921 731.089 683.84 698.201 683.84 698.201Z" fill="#73BBAF"/>
<path opacity="0.25" d="M683.84 698.201L749.877 817.73" stroke="white" stroke-width="2" stroke-miterlimit="10"/>
<path d="M748.716 831.699C748.716 831.699 728.843 788.675 741.075 782.842C742.996 781.926 745.363 785.676 746.035 785.66C746.706 785.644 741.929 770.557 746.035 764.751C748.536 761.214 750.995 763.347 752.602 764.751C754.211 766.154 750.011 749.768 754.077 745.283C757.382 741.633 760.778 744.393 762.118 743.86C763.459 743.325 760.644 733.581 763.862 725.036C767.081 716.492 777.936 705.678 779.545 706.746C781.154 707.813 781.844 726.641 782.231 742.391C782.359 747.598 781.701 754.272 782.231 755.608C782.761 756.943 784.236 753.74 785.709 754.272C787.184 754.807 790.963 793.878 780.786 812.035C770.606 830.192 755.952 837.161 755.952 837.161L748.716 831.699Z" fill="#1CA79F"/>
<path opacity="0.15" d="M779.545 706.746C779.545 706.746 756.462 778.031 761.213 839.355" stroke="white" stroke-width="2" stroke-miterlimit="10"/>
<path d="M767.75 837.449C767.75 837.449 751.129 818.977 746.124 818.977C741.121 818.977 742.728 829.405 742.728 829.405C742.728 829.405 721.461 803.313 711.81 802.599C702.159 801.887 708.056 812.924 708.056 812.924C708.056 812.924 687.682 799.04 669.632 798.684C671.776 806.338 696.081 824.674 696.081 824.674C696.081 824.674 688.754 824.22 688.397 833.524C688.04 842.828 728.966 845.841 728.966 845.841C728.966 845.841 720.209 851.373 722.174 859.026C724.14 866.68 758.454 866.324 758.454 866.324H804.447L768.462 836.598L767.75 837.449Z" fill="#2B8A7D"/>
<g opacity="0.15">
<path d="M802.567 866.685C758.952 853.826 670.324 799.55 669.434 799.004L669.827 798.367C670.717 798.913 759.262 853.137 802.778 865.968L802.567 866.685Z" fill="white"/>
</g>
<path d="M1023.23 704.989V857.437C1023.23 862.688 1018.96 866.936 1013.69 866.936H904.359C899.087 866.936 894.821 862.688 894.821 857.437V704.989C894.821 699.745 899.085 695.49 904.359 695.49H1013.69C1018.96 695.492 1023.23 699.745 1023.23 704.989Z" fill="#2A6F64"/>
<path opacity="0.15" d="M1023.23 854.554V857.437C1023.23 862.688 1018.96 866.936 1013.69 866.936H904.359C899.087 866.936 894.821 862.688 894.821 857.437V753.91C900.154 764.059 916.636 805.036 925.607 817.73C959.029 865.011 1005.28 852.388 1023.23 854.554Z" fill="black"/>
<path d="M973.321 799.883L963.358 796.73L990.948 710.305L1000.91 713.461L973.321 799.883Z" fill="url(#paint33_linear_374_1179)"/>
<path d="M1016.35 667.918L1004.76 664.248C1004.29 664.1 1003.79 664.356 1003.64 664.823L989.556 708.938C989.408 709.403 989.666 709.902 990.135 710.049L1001.73 713.719C1002.19 713.867 1002.69 713.611 1002.84 713.144L1016.93 669.029C1017.08 668.564 1016.82 668.065 1016.35 667.918Z" fill="url(#paint34_linear_374_1179)"/>
<path d="M1001.01 665.862L1003.91 666.782C1004.38 666.93 1004.88 666.673 1005.03 666.206L1005.3 665.347C1005.45 664.882 1005.19 664.384 1004.72 664.236L1001.82 663.316C1001.35 663.169 1000.85 663.425 1000.7 663.892L1000.43 664.751C1000.28 665.216 1000.54 665.714 1001.01 665.862Z" fill="url(#paint35_linear_374_1179)"/>
<path d="M986.984 708.351C987.451 708.498 987.952 708.242 988.099 707.775L1001.98 664.295C1002.13 663.83 1001.87 663.332 1001.4 663.184C1000.93 663.037 1000.43 663.293 1000.29 663.758L986.406 707.238C986.26 707.705 986.517 708.201 986.984 708.351Z" fill="url(#paint36_linear_374_1179)"/>
<path opacity="0.25" d="M995.93 711.883L968.338 798.308" stroke="black" stroke-width="0.3304" stroke-miterlimit="10"/>
<path opacity="0.4" d="M983.337 776.648L961.026 784.139C958.838 784.873 956.469 783.703 955.731 781.525L913.507 656.757C912.77 654.578 913.944 652.218 916.132 651.484L938.443 643.994C940.631 643.259 943 644.431 943.738 646.607L985.961 771.375C986.699 773.554 985.522 775.916 983.337 776.648Z" fill="url(#paint37_linear_374_1179)"/>
<path opacity="0.25" d="M914.941 661.001L924.087 657.932" stroke="black" stroke-width="0.3432" stroke-miterlimit="10"/>
<path opacity="0.25" d="M917.99 670.008L927.136 666.938" stroke="black" stroke-width="0.3432" stroke-miterlimit="10"/>
<path opacity="0.25" d="M921.037 679.013L930.183 675.943" stroke="black" stroke-width="0.3432" stroke-miterlimit="10"/>
<path opacity="0.25" d="M924.086 688.02L933.232 684.95" stroke="black" stroke-width="0.3432" stroke-miterlimit="10"/>
<path opacity="0.25" d="M927.133 697.025L936.279 693.955" stroke="black" stroke-width="0.3432" stroke-miterlimit="10"/>
<path opacity="0.25" d="M930.181 706.032L939.326 702.962" stroke="black" stroke-width="0.3432" stroke-miterlimit="10"/>
<path opacity="0.25" d="M933.229 715.036L942.374 711.967" stroke="black" stroke-width="0.3432" stroke-miterlimit="10"/>
<path opacity="0.25" d="M936.277 724.043L945.423 720.974" stroke="black" stroke-width="0.3432" stroke-miterlimit="10"/>
<path opacity="0.25" d="M939.324 733.048L948.47 729.979" stroke="black" stroke-width="0.3432" stroke-miterlimit="10"/>
<path opacity="0.25" d="M942.373 742.055L951.519 738.986" stroke="black" stroke-width="0.3432" stroke-miterlimit="10"/>
<path opacity="0.25" d="M945.42 751.06L954.566 747.99" stroke="black" stroke-width="0.3432" stroke-miterlimit="10"/>
<path opacity="0.25" d="M948.469 760.067L957.615 756.997" stroke="black" stroke-width="0.3432" stroke-miterlimit="10"/>
<path opacity="0.25" d="M951.516 769.072L960.661 766.002" stroke="black" stroke-width="0.3432" stroke-miterlimit="10"/>
<path opacity="0.25" d="M954.563 778.079L963.709 775.009" stroke="black" stroke-width="0.3432" stroke-miterlimit="10"/>
<path d="M1004.38 774.236V861.28C1004.38 864.066 1002.11 866.329 999.31 866.329H941.171C938.373 866.329 936.108 864.066 936.108 861.28V774.236C936.108 771.45 938.373 769.187 941.171 769.187H999.31C1002.11 769.187 1004.38 771.45 1004.38 774.236Z" fill="#1CA79F"/>
<path opacity="0.15" d="M936.108 830.972V861.28C936.108 864.066 938.38 866.329 941.178 866.329H984.273C968.126 862.434 945.962 853.071 936.108 830.972Z" fill="black"/>
<path d="M1255.92 520.466L1255.75 520.375" stroke="url(#paint38_linear_374_1179)" stroke-width="0.3304" stroke-miterlimit="10" stroke-linecap="round" stroke-linejoin="round"/>
</g>
<path d="M1057.51 289.408C1057.51 289.408 1100.06 290.501 1116.65 326.494C1124.94 306.569 1144.78 286.9 1175.78 287.93C1160.41 278.032 1122.69 282.724 1116.65 314.089C1104.25 283.439 1079.03 277.066 1057.51 289.408Z" fill="#00776E"/>
<path d="M1019.36 406.891C1019.36 406.891 1039.22 407.399 1046.96 424.198C1050.83 414.9 1060.09 405.721 1074.55 406.201C1067.38 401.582 1049.78 403.771 1046.96 418.408C1041.18 404.104 1029.41 401.132 1019.36 406.891Z" fill="#00776E"/>
<path d="M988.076 174.354C988.076 174.354 1025.3 175.31 1039.81 206.8C1047.07 189.367 1064.43 172.162 1091.55 173.062C1078.1 164.402 1045.1 168.507 1039.81 195.948C1028.97 169.131 1006.9 163.556 988.076 174.354Z" fill="#00776E"/>
<path d="M840 253.544C840 253.544 873.21 254.396 886.159 282.492C892.637 266.94 908.119 251.587 932.319 252.39C920.321 244.664 890.877 248.326 886.159 272.807C876.484 248.884 856.797 243.911 840 253.544Z" fill="#00776E"/>
<path d="M718.094 942.676C718.094 942.676 730.312 947.549 739.434 938.013C748.556 928.478 755.759 905.93 751.418 877.291C721.114 888.77 711.332 921.794 718.094 942.676Z" fill="#27685E"/>
<path d="M707.646 936.603C707.646 936.603 717.884 927.402 716.154 913.234C714.424 899.065 702.597 878.182 677.238 876C676.201 910.516 689.043 931.618 707.646 936.603Z" fill="#27685E"/>
<path d="M698.953 973.173C698.953 973.173 701.669 967.554 698.231 953.818C694.792 940.082 682.365 924.015 657 926.083C660.178 960.421 679.355 980.107 698.953 973.173Z" fill="#27685E"/>
<path d="M716.351 975.715C716.351 975.715 723.363 983.62 732.202 980.525C741.041 977.428 752.131 964.726 757 943.539C733.162 940.027 717.446 958.92 716.351 975.715Z" fill="#27685E"/>
<path d="M754.67 945.416C744.837 955.662 732.585 968.868 712.559 974.995C711.17 955.609 713.123 952.619 717.607 946.797C722.198 940.835 742.059 896.755 741.194 898.636C728.995 923.088 717.889 941.203 714.582 946.564C711.276 951.925 710.351 940.026 709.092 932.544C706.958 919.864 700.299 899.672 685.719 884.392C695.727 901.467 705.654 912.571 707.353 942.937C708.481 963.118 707.56 968.627 707.442 976.373C698.835 974.887 690.48 961.381 685.52 954.731C680.559 948.082 670.499 938.734 670.499 938.734C680.062 950.327 681.583 952.327 689.509 963.56C697.436 974.794 707.134 980.51 707.134 980.51C706.869 986.618 705.976 991.43 704.225 996.856C705.448 998.835 709.478 999.277 710.729 998.618C711.996 993.513 713.013 985.016 712.76 978.232C719.137 976.044 741.522 967.078 754.67 945.416Z" fill="#3A9181"/>
<path d="M1795.54 1045.77C1795.54 1045.77 1811.58 983.081 1856.69 983.028C1834.05 998.191 1807.26 1051.31 1807.26 1051.31L1795.54 1045.77Z" fill="#8CE0DC"/>
<path d="M1782.11 1044.57C1782.11 1044.57 1777.42 980.034 1733.03 971.995C1752.62 990.925 1769.59 1047.95 1769.59 1047.95L1782.11 1044.57Z" fill="#8CE0DC"/>
<path d="M1789.96 1068.98C1789.96 1068.98 1801.91 1026.35 1859.19 1010.52C1879.25 1004.98 1901.41 1008.07 1901.41 1008.07C1904.8 1012.92 1893.59 1045.06 1867.53 1057.14C1822.92 1077.8 1789.96 1068.98 1789.96 1068.98Z" fill="#248E81"/>
<path d="M1893.06 1015.46C1893.06 1015.46 1842.04 1063.81 1790.24 1069.01L1790.53 1065.76C1790.53 1065.76 1839.64 1059.5 1893.06 1015.46Z" fill="#39AAA1"/>
<path d="M1789.96 1068.98C1789.96 1068.98 1792.3 1022.62 1738.75 996.843C1715.75 985.77 1690.31 990.189 1690.31 990.189C1690.31 990.189 1692.75 1022.74 1718.92 1043.95C1757.05 1074.87 1789.96 1068.98 1789.96 1068.98Z" fill="#248E81"/>
<path d="M1698.52 998.106C1698.52 998.106 1740.17 1054.73 1790.24 1069.01L1790.53 1065.76C1790.53 1065.76 1743.3 1050.91 1698.52 998.106Z" fill="#39AAA1"/>
<path d="M1790.24 1069.01C1790.24 1069.01 1818.83 1038.15 1812.21 980.117C1809.69 957.985 1793.84 944.355 1792.38 944.688C1788.1 945.656 1767.39 968.769 1763.9 998.248C1756.86 1057.79 1790.24 1069.01 1790.24 1069.01Z" fill="#49BFB4"/>
<path d="M1791.48 952.141C1791.48 952.141 1778.62 1007.3 1790.24 1069.01C1790.41 1050.39 1791.48 952.141 1791.48 952.141Z" fill="#248E81"/>
</g>
<defs>
<linearGradient id="paint0_linear_374_1179" x1="-nan" y1="-nan" x2="-nan" y2="-nan" gradientUnits="userSpaceOnUse">
<stop stop-color="#25616C"/>
<stop offset="1" stop-color="#54AE9A"/>
</linearGradient>
<linearGradient id="paint1_linear_374_1179" x1="-nan" y1="-nan" x2="-nan" y2="-nan" gradientUnits="userSpaceOnUse">
<stop stop-color="#25616C"/>
<stop offset="1" stop-color="#54AE9A"/>
</linearGradient>
<linearGradient id="paint2_linear_374_1179" x1="-nan" y1="-nan" x2="-nan" y2="-nan" gradientUnits="userSpaceOnUse">
<stop stop-color="#25616C"/>
<stop offset="1" stop-color="#54AE9A"/>
</linearGradient>
<linearGradient id="paint3_linear_374_1179" x1="-nan" y1="-nan" x2="-nan" y2="-nan" gradientUnits="userSpaceOnUse">
<stop stop-color="#25616C"/>
<stop offset="1" stop-color="#54AE9A"/>
</linearGradient>
<linearGradient id="paint4_linear_374_1179" x1="-nan" y1="-nan" x2="-nan" y2="-nan" gradientUnits="userSpaceOnUse">
<stop stop-color="#25616C"/>
<stop offset="1" stop-color="#54AE9A"/>
</linearGradient>
<linearGradient id="paint5_linear_374_1179" x1="-nan" y1="-nan" x2="-nan" y2="-nan" gradientUnits="userSpaceOnUse">
<stop stop-color="#25616C"/>
<stop offset="1" stop-color="#54AE9A"/>
</linearGradient>
<linearGradient id="paint6_linear_374_1179" x1="-nan" y1="-nan" x2="-nan" y2="-nan" gradientUnits="userSpaceOnUse">
<stop stop-color="#25616C"/>
<stop offset="1" stop-color="#54AE9A"/>
</linearGradient>
<linearGradient id="paint7_linear_374_1179" x1="-nan" y1="-nan" x2="-nan" y2="-nan" gradientUnits="userSpaceOnUse">
<stop stop-color="#25616C"/>
<stop offset="1" stop-color="#54AE9A"/>
</linearGradient>
<linearGradient id="paint8_linear_374_1179" x1="-nan" y1="-nan" x2="-nan" y2="-nan" gradientUnits="userSpaceOnUse">
<stop stop-color="#25616C"/>
<stop offset="1" stop-color="#54AE9A"/>
</linearGradient>
<linearGradient id="paint9_linear_374_1179" x1="-nan" y1="-nan" x2="-nan" y2="-nan" gradientUnits="userSpaceOnUse">
<stop stop-color="#25616C"/>
<stop offset="1" stop-color="#54AE9A"/>
</linearGradient>
<linearGradient id="paint10_linear_374_1179" x1="-nan" y1="-nan" x2="-nan" y2="-nan" gradientUnits="userSpaceOnUse">
<stop stop-color="#25616C"/>
<stop offset="1" stop-color="#54AE9A"/>
</linearGradient>
<linearGradient id="paint11_linear_374_1179" x1="-nan" y1="-nan" x2="-nan" y2="-nan" gradientUnits="userSpaceOnUse">
<stop stop-color="#25616C"/>
<stop offset="1" stop-color="#54AE9A"/>
</linearGradient>
<linearGradient id="paint12_linear_374_1179" x1="-nan" y1="-nan" x2="-nan" y2="-nan" gradientUnits="userSpaceOnUse">
<stop stop-color="#25616C"/>
<stop offset="1" stop-color="#54AE9A"/>
</linearGradient>
<linearGradient id="paint13_linear_374_1179" x1="-nan" y1="-nan" x2="-nan" y2="-nan" gradientUnits="userSpaceOnUse">
<stop stop-color="#25616C"/>
<stop offset="1" stop-color="#54AE9A"/>
</linearGradient>
<linearGradient id="paint14_linear_374_1179" x1="1143.27" y1="498.493" x2="1149.32" y2="498.493" gradientUnits="userSpaceOnUse">
<stop stop-color="#25616C"/>
<stop offset="1" stop-color="#54AE9A"/>
</linearGradient>
<linearGradient id="paint15_linear_374_1179" x1="1144.35" y1="513.902" x2="1148.25" y2="513.902" gradientUnits="userSpaceOnUse">
<stop stop-color="#25616C"/>
<stop offset="1" stop-color="#54AE9A"/>
</linearGradient>
<linearGradient id="paint16_linear_374_1179" x1="1282.85" y1="476.983" x2="1261.55" y2="528.665" gradientUnits="userSpaceOnUse">
<stop stop-color="#BCE6C2"/>
<stop offset="1" stop-color="#AEDCC8"/>
</linearGradient>
<linearGradient id="paint17_linear_374_1179" x1="1281.41" y1="488.395" x2="1241.92" y2="537.323" gradientUnits="userSpaceOnUse">
<stop stop-color="#2D717E"/>
<stop offset="1" stop-color="#1C5661"/>
</linearGradient>
<linearGradient id="paint18_linear_374_1179" x1="1231.22" y1="465.379" x2="1265.66" y2="537.756" gradientUnits="userSpaceOnUse">
<stop stop-color="#25616C"/>
<stop offset="1" stop-color="#54AE9A"/>
</linearGradient>
<linearGradient id="paint19_linear_374_1179" x1="870.47" y1="519.042" x2="1345.02" y2="519.042" gradientUnits="userSpaceOnUse">
<stop stop-color="#25616C"/>
<stop offset="1" stop-color="#54AE9A"/>
</linearGradient>
<linearGradient id="paint20_linear_374_1179" x1="962.766" y1="549.786" x2="963.745" y2="525.218" gradientUnits="userSpaceOnUse">
<stop stop-color="#F9CFAF"/>
<stop offset="1" stop-color="#FEE4C9"/>
</linearGradient>
<linearGradient id="paint21_linear_374_1179" x1="974.074" y1="699.361" x2="975.138" y2="672.66" gradientUnits="userSpaceOnUse">
<stop stop-color="#25616C"/>
<stop offset="1" stop-color="#54AE9A"/>
</linearGradient>
<linearGradient id="paint22_linear_374_1179" x1="960.463" y1="507.445" x2="963.654" y2="542.688" gradientUnits="userSpaceOnUse">
<stop stop-color="#2D717E"/>
<stop offset="1" stop-color="#1C5661"/>
</linearGradient>
<linearGradient id="paint23_linear_374_1179" x1="942.972" y1="698.122" x2="944.035" y2="671.421" gradientUnits="userSpaceOnUse">
<stop stop-color="#25616C"/>
<stop offset="1" stop-color="#54AE9A"/>
</linearGradient>
<linearGradient id="paint24_linear_374_1179" x1="990.292" y1="541.03" x2="992.391" y2="488.35" gradientUnits="userSpaceOnUse">
<stop stop-color="#F9CFAF"/>
<stop offset="1" stop-color="#FEE4C9"/>
</linearGradient>
<linearGradient id="paint25_linear_374_1179" x1="923.746" y1="551.376" x2="925.892" y2="497.519" gradientUnits="userSpaceOnUse">
<stop stop-color="#F9CFAF"/>
<stop offset="1" stop-color="#FEE4C9"/>
</linearGradient>
<linearGradient id="paint26_linear_374_1179" x1="956.885" y1="752.355" x2="965.339" y2="810.518" gradientUnits="userSpaceOnUse">
<stop stop-color="#BCE6C2"/>
<stop offset="1" stop-color="#AEDCC8"/>
</linearGradient>
<linearGradient id="paint27_linear_374_1179" x1="898.069" y1="745.829" x2="977.273" y2="832.582" gradientUnits="userSpaceOnUse">
<stop stop-color="#84D08F"/>
<stop offset="1" stop-color="#69BE9A"/>
</linearGradient>
<linearGradient id="paint28_linear_374_1179" x1="965.681" y1="784.665" x2="953.668" y2="965.576" gradientUnits="userSpaceOnUse">
<stop stop-color="#25616C"/>
<stop offset="1" stop-color="#54AE9A"/>
</linearGradient>
<linearGradient id="paint29_linear_374_1179" x1="1433.53" y1="531.693" x2="1444.32" y2="551.781" gradientUnits="userSpaceOnUse">
<stop stop-color="#2D717E"/>
<stop offset="1" stop-color="#1C5661"/>
</linearGradient>
<linearGradient id="paint30_linear_374_1179" x1="1535.14" y1="708.104" x2="1545.93" y2="728.193" gradientUnits="userSpaceOnUse">
<stop stop-color="#2D717E"/>
<stop offset="1" stop-color="#1C5661"/>
</linearGradient>
<linearGradient id="paint31_linear_374_1179" x1="1051.6" y1="840.922" x2="1071.53" y2="840.922" gradientUnits="userSpaceOnUse">
<stop stop-color="#BCE6C2"/>
<stop offset="1" stop-color="#AEDCC8"/>
</linearGradient>
<linearGradient id="paint32_linear_374_1179" x1="1380.81" y1="840.922" x2="1400.73" y2="840.922" gradientUnits="userSpaceOnUse">
<stop stop-color="#BCE6C2"/>
<stop offset="1" stop-color="#AEDCC8"/>
</linearGradient>
<linearGradient id="paint33_linear_374_1179" x1="1011.36" y1="674.858" x2="963.849" y2="806.359" gradientUnits="userSpaceOnUse">
<stop stop-color="#25616C"/>
<stop offset="1" stop-color="#54AE9A"/>
</linearGradient>
<linearGradient id="paint34_linear_374_1179" x1="1020.95" y1="649.872" x2="976.742" y2="748.311" gradientUnits="userSpaceOnUse">
<stop stop-color="#00434C"/>
<stop offset="1" stop-color="#002B4A"/>
</linearGradient>
<linearGradient id="paint35_linear_374_1179" x1="1003.95" y1="662.65" x2="1001.24" y2="668.688" gradientUnits="userSpaceOnUse">
<stop stop-color="#00434C"/>
<stop offset="1" stop-color="#002B4A"/>
</linearGradient>
<linearGradient id="paint36_linear_374_1179" x1="1011.16" y1="648.298" x2="968.806" y2="742.606" gradientUnits="userSpaceOnUse">
<stop stop-color="#00434C"/>
<stop offset="1" stop-color="#002B4A"/>
</linearGradient>
<linearGradient id="paint37_linear_374_1179" x1="955.913" y1="618.558" x2="938.175" y2="765.809" gradientUnits="userSpaceOnUse">
<stop stop-color="#84D08F"/>
<stop offset="1" stop-color="#69BE9A"/>
</linearGradient>
<linearGradient id="paint38_linear_374_1179" x1="1255.37" y1="520.421" x2="1256.3" y2="520.421" gradientUnits="userSpaceOnUse">
<stop stop-color="#25616C"/>
<stop offset="1" stop-color="#54AE9A"/>
</linearGradient>
</defs>
</svg>
