<svg width="625" height="349" viewBox="0 0 625 349" fill="none" xmlns="http://www.w3.org/2000/svg">
<path d="M0 25C0 11.1929 11.1929 0 25 0H600C613.807 0 625 11.1929 625 25V349H0V25Z" fill="#D9D9D9"/>
<path d="M181.459 289.975H177.079C176.664 289.975 176.326 289.831 176.063 289.543C175.776 289.281 175.632 288.942 175.632 288.527C175.632 288.13 175.776 287.787 176.063 287.499C176.343 287.22 176.681 287.08 177.079 287.08H181.269C181.819 287.08 182.284 286.89 182.665 286.509C183.046 286.128 183.236 285.671 183.236 285.138C183.236 284.579 183.05 284.105 182.678 283.716C182.297 283.31 181.836 283.106 181.294 283.106H178.895C178.497 283.106 178.154 282.963 177.866 282.675C177.578 282.404 177.435 282.065 177.435 281.659C177.435 281.253 177.578 280.906 177.866 280.618C178.154 280.33 178.497 280.187 178.895 280.187H181.345C181.869 280.187 182.322 280.005 182.703 279.641C183.076 279.268 183.262 278.815 183.262 278.282C183.262 277.757 183.067 277.3 182.678 276.911C182.305 276.539 181.848 276.331 181.307 276.289H177.079C176.664 276.289 176.326 276.145 176.063 275.857C175.776 275.587 175.632 275.248 175.632 274.842C175.632 274.436 175.776 274.089 176.063 273.801C176.343 273.521 176.681 273.382 177.079 273.382H181.459C182.771 273.382 183.905 273.847 184.861 274.778C185.801 275.718 186.271 276.856 186.271 278.193C186.271 279.531 185.771 280.686 184.772 281.659C185.771 282.658 186.271 283.826 186.271 285.163C186.271 286.492 185.801 287.626 184.861 288.565C183.922 289.505 182.788 289.975 181.459 289.975ZM190.371 292.298C190.092 292.577 189.757 292.717 189.368 292.717C188.979 292.717 188.645 292.577 188.365 292.298C188.077 292.035 187.934 291.701 187.934 291.295V288.527C187.942 288.138 188.082 287.812 188.353 287.55C188.623 287.287 188.97 287.156 189.394 287.156H189.444C190.206 287.156 190.748 286.983 191.069 286.636C191.374 286.314 191.531 285.756 191.539 284.96V279.209C191.539 278.676 191.759 278.265 192.199 277.978L192.364 277.889C192.508 277.812 192.715 277.766 192.986 277.749H198.141C198.521 277.749 198.852 277.889 199.131 278.168C199.385 278.447 199.512 278.79 199.512 279.196V287.182H199.664C199.715 287.182 199.744 287.177 199.753 287.169H199.842C200.214 287.169 200.544 287.3 200.832 287.562C201.111 287.842 201.251 288.163 201.251 288.527V291.295C201.251 291.693 201.116 292.027 200.845 292.298C200.565 292.577 200.231 292.717 199.842 292.717C199.444 292.717 199.105 292.577 198.826 292.298C198.547 292.019 198.407 291.684 198.407 291.295V290H190.777V291.295C190.777 291.693 190.642 292.027 190.371 292.298ZM193.977 287.182H196.693V280.605H194.357V284.96C194.357 285.07 194.353 285.129 194.345 285.138C194.336 285.908 194.214 286.589 193.977 287.182ZM208.64 290.14C207.81 290.14 207.015 289.983 206.253 289.67C205.491 289.348 204.818 288.9 204.234 288.324C203.65 287.757 203.198 287.097 202.876 286.344C202.563 285.582 202.406 284.786 202.406 283.957C202.406 283.119 202.563 282.319 202.876 281.558C203.198 280.796 203.65 280.132 204.234 279.564C204.818 278.989 205.491 278.545 206.253 278.231C207.015 277.91 207.81 277.749 208.64 277.749C210.332 277.749 211.788 278.346 213.007 279.539C213.574 280.106 214.022 280.766 214.353 281.52C214.683 282.273 214.856 283.06 214.873 283.881C214.873 284.287 214.742 284.613 214.479 284.858C214.226 285.104 213.896 285.227 213.489 285.227H205.555C205.775 285.87 206.168 286.399 206.735 286.813C207.285 287.228 207.92 287.436 208.64 287.436C209.283 287.436 209.829 287.304 210.277 287.042C210.582 286.864 210.857 286.775 211.103 286.775C211.483 286.775 211.813 286.924 212.093 287.22C212.355 287.507 212.486 287.846 212.486 288.235C212.486 288.794 212.131 289.255 211.42 289.619C210.743 289.966 209.816 290.14 208.64 290.14ZM205.466 282.865H211.979C211.775 282.154 211.378 281.57 210.785 281.113C210.184 280.665 209.486 280.44 208.69 280.44C207.903 280.44 207.214 280.673 206.621 281.139C206.054 281.562 205.669 282.137 205.466 282.865ZM222.287 290.14C220.535 290.14 219.054 289.547 217.844 288.362C216.608 287.169 215.99 285.717 215.99 284.008C215.99 283.153 216.147 282.345 216.46 281.583C216.782 280.821 217.239 280.148 217.831 279.564C219.058 278.354 220.544 277.749 222.287 277.749C223.108 277.749 223.887 277.893 224.623 278.181C225.359 278.468 225.994 278.879 226.527 279.412C226.866 279.751 227.035 280.14 227.035 280.58C227.035 280.986 226.866 281.329 226.527 281.608C226.231 281.854 225.926 281.977 225.613 281.977C225.351 281.977 225.084 281.892 224.813 281.723C224.695 281.646 224.471 281.486 224.141 281.24C223.548 280.826 222.841 280.618 222.021 280.618C221.149 280.652 220.404 281.007 219.786 281.685C219.185 282.353 218.885 283.106 218.885 283.944C218.885 284.816 219.189 285.582 219.799 286.242C220.442 286.936 221.216 287.283 222.122 287.283C222.884 287.283 223.557 287.076 224.141 286.661C224.615 286.323 224.928 286.115 225.08 286.039C225.258 285.963 225.44 285.925 225.626 285.925C225.965 285.925 226.273 286.052 226.553 286.306C226.874 286.585 227.035 286.919 227.035 287.309C227.035 287.749 226.866 288.138 226.527 288.477C225.994 289.01 225.359 289.42 224.623 289.708C223.887 289.996 223.108 290.14 222.287 290.14ZM235.643 290H230.755C230.34 290 230.002 289.86 229.739 289.581C229.451 289.319 229.308 288.98 229.308 288.565V279.196C229.308 278.782 229.443 278.439 229.714 278.168C229.976 277.889 230.306 277.749 230.704 277.749C231.11 277.749 231.449 277.884 231.72 278.155C231.991 278.426 232.126 278.765 232.126 279.171V282.675H235.643C236.641 282.675 237.505 283.039 238.232 283.767C238.943 284.478 239.299 285.354 239.299 286.395C239.299 287.402 238.943 288.252 238.232 288.946C237.53 289.649 236.667 290 235.643 290ZM232.126 287.524H235.249C235.571 287.524 235.867 287.402 236.138 287.156C236.375 286.919 236.493 286.636 236.493 286.306C236.493 285.959 236.375 285.679 236.138 285.468C235.884 285.239 235.583 285.125 235.236 285.125H232.126V287.524ZM248.3 290C247.902 290 247.568 289.865 247.297 289.594C247.018 289.314 246.878 288.984 246.878 288.604V282.116C246.878 280.914 247.305 279.886 248.16 279.031C249.015 278.176 250.043 277.749 251.245 277.749C252.371 277.749 253.361 278.138 254.216 278.917C255.045 278.138 256.031 277.749 257.174 277.749C258.401 277.749 259.451 278.176 260.322 279.031C261.211 279.92 261.655 280.948 261.655 282.116V288.604C261.655 288.984 261.516 289.314 261.236 289.594C260.965 289.865 260.64 290 260.259 290C259.861 290 259.527 289.865 259.256 289.594C258.985 289.323 258.85 288.993 258.85 288.604V282.192C258.85 281.778 258.68 281.414 258.342 281.101C258.029 280.804 257.648 280.656 257.199 280.656C256.81 280.656 256.463 280.796 256.158 281.075C255.862 281.338 255.693 281.676 255.65 282.091C255.659 282.099 255.663 282.146 255.663 282.23V288.565C255.663 288.963 255.528 289.298 255.257 289.568C254.986 289.839 254.66 289.975 254.279 289.975C253.882 289.975 253.547 289.839 253.276 289.568C253.006 289.298 252.87 288.963 252.87 288.565V282.307L252.845 282.218V282.205C252.845 281.773 252.692 281.405 252.388 281.101C252.083 280.796 251.719 280.644 251.296 280.644C250.898 280.644 250.551 280.766 250.255 281.012C249.959 281.257 249.777 281.57 249.709 281.951C249.709 281.977 249.709 282.01 249.709 282.053C249.717 282.087 249.722 282.116 249.722 282.142C249.73 282.159 249.734 282.171 249.734 282.18L249.684 288.604C249.684 288.984 249.544 289.314 249.265 289.594C248.994 289.865 248.672 290 248.3 290ZM269.387 290.14C267.686 290.14 266.23 289.535 265.02 288.324C264.436 287.757 263.983 287.097 263.661 286.344C263.348 285.582 263.191 284.786 263.191 283.957C263.191 283.128 263.348 282.336 263.661 281.583C263.983 280.821 264.436 280.148 265.02 279.564C266.23 278.354 267.686 277.749 269.387 277.749C270.216 277.749 271.007 277.91 271.761 278.231C272.522 278.545 273.191 278.989 273.767 279.564C274.342 280.148 274.786 280.821 275.1 281.583C275.421 282.336 275.582 283.128 275.582 283.957C275.582 285.658 274.977 287.114 273.767 288.324C273.191 288.9 272.522 289.348 271.761 289.67C271.007 289.983 270.216 290.14 269.387 290.14ZM269.387 287.321C270.326 287.321 271.126 286.991 271.786 286.331C272.438 285.679 272.764 284.888 272.764 283.957C272.764 283.035 272.434 282.243 271.773 281.583C271.122 280.931 270.326 280.605 269.387 280.605C268.456 280.605 267.664 280.931 267.013 281.583C266.353 282.243 266.022 283.035 266.022 283.957C266.022 284.88 266.353 285.671 267.013 286.331C267.673 286.991 268.464 287.321 269.387 287.321ZM277.651 290.013C277.262 290.013 276.932 289.869 276.661 289.581C276.365 289.302 276.217 288.972 276.217 288.591C276.217 288.235 276.352 287.91 276.623 287.613L280.787 283.17L277.194 279.818C276.89 279.564 276.737 279.222 276.737 278.79C276.737 278.375 276.881 278.037 277.169 277.774C277.44 277.504 277.77 277.368 278.159 277.368C278.549 277.368 278.87 277.495 279.124 277.749L283.707 282.015V279.171C283.707 278.773 283.842 278.439 284.113 278.168C284.393 277.889 284.723 277.749 285.104 277.749C285.493 277.749 285.831 277.889 286.119 278.168C286.398 278.447 286.538 278.782 286.538 279.171V282.002L291.108 277.749C291.362 277.495 291.684 277.368 292.073 277.368C292.446 277.368 292.78 277.508 293.076 277.787C293.355 278.066 293.495 278.392 293.495 278.765C293.495 279.162 293.343 279.514 293.038 279.818L289.445 283.183L293.609 287.613C293.872 287.901 294.003 288.227 294.003 288.591C294.003 288.972 293.863 289.302 293.584 289.581C293.296 289.869 292.962 290.013 292.581 290.013C292.192 290.013 291.849 289.865 291.553 289.568L287.376 285.112L286.538 285.899V288.591C286.538 288.98 286.398 289.314 286.119 289.594C285.823 289.865 285.484 290 285.104 290C284.714 290 284.384 289.865 284.113 289.594C283.842 289.323 283.707 288.989 283.707 288.591V285.899L282.869 285.112L278.692 289.568C278.396 289.865 278.049 290.013 277.651 290.013ZM301.036 290.14C300.207 290.14 299.411 289.983 298.649 289.67C297.888 289.348 297.215 288.9 296.631 288.324C296.047 287.757 295.594 287.097 295.272 286.344C294.959 285.582 294.803 284.786 294.803 283.957C294.803 283.119 294.959 282.319 295.272 281.558C295.594 280.796 296.047 280.132 296.631 279.564C297.215 278.989 297.888 278.545 298.649 278.231C299.411 277.91 300.207 277.749 301.036 277.749C302.729 277.749 304.185 278.346 305.403 279.539C305.97 280.106 306.419 280.766 306.749 281.52C307.079 282.273 307.253 283.06 307.27 283.881C307.27 284.287 307.138 284.613 306.876 284.858C306.622 285.104 306.292 285.227 305.886 285.227H297.951C298.171 285.87 298.565 286.399 299.132 286.813C299.682 287.228 300.317 287.436 301.036 287.436C301.679 287.436 302.225 287.304 302.674 287.042C302.979 286.864 303.254 286.775 303.499 286.775C303.88 286.775 304.21 286.924 304.489 287.22C304.752 287.507 304.883 287.846 304.883 288.235C304.883 288.794 304.527 289.255 303.816 289.619C303.139 289.966 302.213 290.14 301.036 290.14ZM297.862 282.865H304.375C304.172 282.154 303.774 281.57 303.182 281.113C302.581 280.665 301.882 280.44 301.087 280.44C300.3 280.44 299.61 280.673 299.018 281.139C298.451 281.562 298.065 282.137 297.862 282.865ZM314.023 290C313.626 290 313.3 289.86 313.046 289.581C312.784 289.319 312.652 288.98 312.652 288.565V280.58H310.037C309.631 280.58 309.292 280.445 309.021 280.174C308.751 279.92 308.615 279.598 308.615 279.209C308.615 278.811 308.751 278.464 309.021 278.168C309.301 277.889 309.639 277.749 310.037 277.749H317.984C318.382 277.749 318.725 277.893 319.013 278.181C319.3 278.468 319.444 278.811 319.444 279.209C319.444 279.598 319.3 279.924 319.013 280.187C318.742 280.449 318.399 280.58 317.984 280.58H315.471V288.565C315.471 288.963 315.331 289.302 315.052 289.581C314.789 289.86 314.447 290 314.023 290ZM333.193 290.14C331.492 290.14 330.036 289.535 328.826 288.324C328.242 287.757 327.789 287.097 327.468 286.344C327.155 285.582 326.998 284.786 326.998 283.957V279.26C326.998 277.499 327.637 276.065 328.915 274.956C330.142 273.907 331.683 273.373 333.536 273.356H335.58C335.961 273.356 336.291 273.488 336.57 273.75C336.85 274.029 336.989 274.351 336.989 274.715C336.989 275.104 336.85 275.434 336.57 275.705C336.308 275.967 335.978 276.099 335.58 276.099H333.549C332.592 276.116 331.78 276.348 331.111 276.797C330.4 277.288 329.973 277.939 329.829 278.752C330.828 278.083 331.949 277.749 333.193 277.749C334.023 277.749 334.814 277.91 335.567 278.231C336.329 278.545 336.998 278.989 337.573 279.564C338.149 280.148 338.593 280.821 338.906 281.583C339.228 282.336 339.389 283.128 339.389 283.957C339.389 285.658 338.784 287.114 337.573 288.324C336.998 288.9 336.329 289.348 335.567 289.67C334.814 289.983 334.023 290.14 333.193 290.14ZM333.193 287.321C334.124 287.321 334.92 286.991 335.58 286.331C336.24 285.671 336.57 284.88 336.57 283.957C336.57 283.035 336.24 282.243 335.58 281.583C334.928 280.931 334.133 280.605 333.193 280.605C332.262 280.605 331.471 280.931 330.819 281.583C330.159 282.243 329.829 283.035 329.829 283.957C329.829 284.88 330.159 285.671 330.819 286.331C331.479 286.991 332.271 287.321 333.193 287.321ZM354.395 290C353.988 290 353.65 289.865 353.379 289.594C353.091 289.331 352.947 288.997 352.947 288.591V279.171C352.947 278.765 353.091 278.43 353.379 278.168C353.667 277.889 354.009 277.749 354.407 277.749C354.788 277.749 355.118 277.889 355.397 278.168C355.668 278.439 355.804 278.773 355.804 279.171V288.591C355.804 288.98 355.664 289.314 355.385 289.594C355.114 289.865 354.784 290 354.395 290ZM347.983 290H343.096C342.689 290 342.351 289.86 342.08 289.581C341.792 289.319 341.648 288.98 341.648 288.565V279.196C341.648 278.782 341.784 278.439 342.055 278.168C342.326 277.889 342.656 277.749 343.045 277.749C343.451 277.749 343.79 277.884 344.061 278.155C344.331 278.426 344.467 278.765 344.467 279.171V282.675H347.983C348.982 282.675 349.845 283.039 350.573 283.767C351.284 284.478 351.64 285.354 351.64 286.395C351.64 287.402 351.284 288.252 350.573 288.946C349.871 289.649 349.007 290 347.983 290ZM344.467 287.524H347.59C347.911 287.524 348.208 287.402 348.479 287.156C348.715 286.919 348.834 286.636 348.834 286.306C348.834 285.959 348.715 285.679 348.479 285.468C348.225 285.239 347.924 285.125 347.577 285.125H344.467V287.524ZM363.941 290C363.544 290 363.218 289.86 362.964 289.581C362.701 289.319 362.57 288.98 362.57 288.565V280.58H359.955C359.549 280.58 359.21 280.445 358.939 280.174C358.669 279.92 358.533 279.598 358.533 279.209C358.533 278.811 358.669 278.464 358.939 278.168C359.219 277.889 359.557 277.749 359.955 277.749H367.902C368.3 277.749 368.643 277.893 368.931 278.181C369.218 278.468 369.362 278.811 369.362 279.209C369.362 279.598 369.218 279.924 368.931 280.187C368.66 280.449 368.317 280.58 367.902 280.58H365.389V288.565C365.389 288.963 365.249 289.302 364.97 289.581C364.707 289.86 364.365 290 363.941 290ZM377.855 290H372.968C372.553 290 372.215 289.86 371.952 289.581C371.664 289.319 371.521 288.98 371.521 288.565V279.196C371.521 278.782 371.656 278.439 371.927 278.168C372.189 277.889 372.519 277.749 372.917 277.749C373.323 277.749 373.662 277.884 373.933 278.155C374.203 278.426 374.339 278.765 374.339 279.171V282.675H377.855C378.854 282.675 379.717 283.039 380.445 283.767C381.156 284.478 381.512 285.354 381.512 286.395C381.512 287.402 381.156 288.252 380.445 288.946C379.743 289.649 378.88 290 377.855 290ZM374.339 287.524H377.462C377.784 287.524 378.08 287.402 378.351 287.156C378.588 286.919 378.706 286.636 378.706 286.306C378.706 285.959 378.588 285.679 378.351 285.468C378.097 285.239 377.796 285.125 377.449 285.125H374.339V287.524ZM397.025 290H390.932C390.542 290 390.208 289.86 389.929 289.581C389.641 289.31 389.497 288.967 389.497 288.553V274.639C389.514 274.249 389.658 273.919 389.929 273.648C390.2 273.378 390.534 273.242 390.932 273.242H396.949C397.584 273.242 398.198 273.369 398.79 273.623C399.382 273.868 399.899 274.22 400.339 274.677C400.771 275.117 401.109 275.654 401.354 276.289C401.608 276.924 401.735 277.571 401.735 278.231C401.735 279.484 401.304 280.567 400.44 281.481C401.456 282.446 401.964 283.635 401.964 285.049C401.964 286.411 401.477 287.579 400.504 288.553C399.539 289.518 398.38 290 397.025 290ZM392.404 280.085H397.025C397.533 280.068 397.969 279.878 398.333 279.514C398.68 279.167 398.854 278.739 398.854 278.231C398.854 277.927 398.794 277.631 398.676 277.343C398.566 277.047 398.418 276.818 398.231 276.657C397.842 276.319 397.347 276.149 396.746 276.149H392.404V280.085ZM392.404 287.093H397.025C397.567 287.093 398.028 286.89 398.409 286.483C398.79 286.086 398.98 285.607 398.98 285.049C398.98 284.507 398.79 284.025 398.409 283.602C398.02 283.187 397.559 282.979 397.025 282.979H392.404V287.093ZM409.822 290.14C409.001 290.14 408.214 289.983 407.461 289.67C406.708 289.348 406.043 288.9 405.468 288.324C404.257 287.114 403.652 285.658 403.652 283.957C403.652 283.128 403.809 282.336 404.122 281.583C404.444 280.821 404.892 280.148 405.468 279.564C406.043 278.989 406.708 278.545 407.461 278.231C408.214 277.91 409.001 277.749 409.822 277.749C411.523 277.749 412.979 278.354 414.189 279.564C415.391 280.792 415.992 282.256 415.992 283.957V288.667C415.992 289.065 415.853 289.403 415.573 289.683C415.311 289.97 414.972 290.114 414.558 290.114C414.228 290.114 413.944 290.025 413.707 289.848C413.47 289.661 413.309 289.416 413.225 289.111C412.201 289.797 411.066 290.14 409.822 290.14ZM407.461 286.331C408.104 286.991 408.891 287.321 409.822 287.321C410.753 287.321 411.549 286.991 412.209 286.331C412.852 285.671 413.174 284.88 413.174 283.957C413.174 283.035 412.852 282.243 412.209 281.583C411.557 280.931 410.762 280.605 409.822 280.605C408.9 280.605 408.113 280.931 407.461 281.583C406.809 282.235 406.483 283.026 406.483 283.957C406.483 284.888 406.809 285.679 407.461 286.331ZM433.816 290H420.232C419.852 289.983 419.526 289.839 419.255 289.568C418.984 289.298 418.849 288.963 418.849 288.565V279.222C418.849 278.815 418.993 278.468 419.28 278.181C419.56 277.901 419.898 277.762 420.296 277.762C420.694 277.762 421.02 277.901 421.273 278.181C421.536 278.46 421.667 278.807 421.667 279.222V287.194H425.603V279.222C425.603 278.815 425.746 278.468 426.034 278.181C426.313 277.901 426.652 277.762 427.05 277.762C427.431 277.762 427.761 277.901 428.04 278.181C428.294 278.46 428.421 278.807 428.421 279.222V287.194H432.331V279.222C432.331 278.815 432.475 278.468 432.763 278.181C433.042 277.901 433.381 277.762 433.778 277.762C434.176 277.762 434.502 277.901 434.756 278.181C435.018 278.46 435.149 278.807 435.149 279.222V288.629C435.132 289.018 435.001 289.344 434.756 289.606C434.51 289.86 434.197 289.992 433.816 290ZM443.147 290.14C442.318 290.14 441.522 289.983 440.761 289.67C439.999 289.348 439.326 288.9 438.742 288.324C438.158 287.757 437.705 287.097 437.384 286.344C437.071 285.582 436.914 284.786 436.914 283.957C436.914 283.119 437.071 282.319 437.384 281.558C437.705 280.796 438.158 280.132 438.742 279.564C439.326 278.989 439.999 278.545 440.761 278.231C441.522 277.91 442.318 277.749 443.147 277.749C444.84 277.749 446.296 278.346 447.515 279.539C448.082 280.106 448.53 280.766 448.86 281.52C449.19 282.273 449.364 283.06 449.381 283.881C449.381 284.287 449.25 284.613 448.987 284.858C448.733 285.104 448.403 285.227 447.997 285.227H440.062C440.283 285.87 440.676 286.399 441.243 286.813C441.793 287.228 442.428 287.436 443.147 287.436C443.791 287.436 444.337 287.304 444.785 287.042C445.09 286.864 445.365 286.775 445.61 286.775C445.991 286.775 446.321 286.924 446.601 287.22C446.863 287.507 446.994 287.846 446.994 288.235C446.994 288.794 446.639 289.255 445.928 289.619C445.251 289.966 444.324 290.14 443.147 290.14ZM439.974 282.865H446.486C446.283 282.154 445.885 281.57 445.293 281.113C444.692 280.665 443.994 280.44 443.198 280.44C442.411 280.44 441.721 280.673 441.129 281.139C440.562 281.562 440.177 282.137 439.974 282.865ZM238.144 318C237.737 318 237.39 317.856 237.103 317.568C236.815 317.306 236.671 316.967 236.671 316.553V307.209C236.671 306.82 236.811 306.477 237.09 306.181C237.361 305.893 237.703 305.749 238.118 305.749C238.524 305.749 238.859 305.893 239.121 306.181C239.375 306.46 239.502 306.803 239.502 307.209V312.922L245.024 306.32C245.321 305.939 245.706 305.749 246.18 305.749C246.577 305.749 246.92 305.893 247.208 306.181C247.487 306.477 247.627 306.82 247.627 307.209V316.553C247.627 316.959 247.492 317.298 247.221 317.568C246.933 317.856 246.59 318 246.192 318C245.786 318 245.477 317.856 245.266 317.568C245.037 317.298 244.923 316.959 244.923 316.553V310.726L239.299 317.429C238.969 317.81 238.584 318 238.144 318ZM256.641 318H254.533C253.738 317.983 252.997 317.814 252.312 317.492C251.685 317.204 251.186 316.811 250.813 316.312C250.585 316.024 250.471 315.711 250.471 315.372C250.471 315.034 250.589 314.725 250.826 314.445C251.097 314.141 251.444 313.988 251.867 313.988C252.358 313.988 252.743 314.174 253.022 314.547C253.336 314.962 253.839 315.173 254.533 315.182H256.539C256.818 315.182 257.06 315.072 257.263 314.852C257.474 314.632 257.58 314.369 257.58 314.064C257.58 313.777 257.479 313.54 257.275 313.354C257.081 313.167 256.835 313.066 256.539 313.049H254.851C254.436 313.049 254.093 312.947 253.822 312.744C253.535 312.533 253.391 312.228 253.391 311.83C253.391 311.424 253.535 311.102 253.822 310.865C254.093 310.637 254.436 310.522 254.851 310.522H256.323C256.619 310.522 256.869 310.434 257.072 310.256C257.275 310.07 257.377 309.833 257.377 309.545C257.377 309.24 257.28 309.003 257.085 308.834C256.899 308.665 256.649 308.58 256.336 308.58H254.812C254.068 308.58 253.53 308.796 253.2 309.228C252.904 309.634 252.502 309.837 251.994 309.837C251.588 309.837 251.254 309.672 250.991 309.342C250.771 309.054 250.661 308.741 250.661 308.402C250.661 307.734 251.089 307.12 251.943 306.562C252.798 306.02 253.755 305.749 254.812 305.749H256.564C257.597 305.749 258.46 306.075 259.154 306.727C259.831 307.361 260.17 308.216 260.17 309.291C260.17 310.315 259.785 311.132 259.015 311.741C259.937 312.342 260.398 313.205 260.398 314.331C260.398 315.406 260.039 316.282 259.319 316.959C258.608 317.653 257.715 318 256.641 318ZM267.939 318.14C266.238 318.14 264.783 317.535 263.572 316.324C262.988 315.757 262.535 315.097 262.214 314.344C261.901 313.582 261.744 312.786 261.744 311.957C261.744 311.128 261.901 310.336 262.214 309.583C262.535 308.821 262.988 308.148 263.572 307.564C264.783 306.354 266.238 305.749 267.939 305.749C268.769 305.749 269.56 305.91 270.313 306.231C271.075 306.545 271.744 306.989 272.319 307.564C272.895 308.148 273.339 308.821 273.652 309.583C273.974 310.336 274.135 311.128 274.135 311.957C274.135 313.658 273.53 315.114 272.319 316.324C271.744 316.9 271.075 317.348 270.313 317.67C269.56 317.983 268.769 318.14 267.939 318.14ZM267.939 315.321C268.879 315.321 269.679 314.991 270.339 314.331C270.991 313.679 271.316 312.888 271.316 311.957C271.316 311.035 270.986 310.243 270.326 309.583C269.674 308.931 268.879 308.605 267.939 308.605C267.008 308.605 266.217 308.931 265.565 309.583C264.905 310.243 264.575 311.035 264.575 311.957C264.575 312.88 264.905 313.671 265.565 314.331C266.226 314.991 267.017 315.321 267.939 315.321ZM281.549 318.14C279.848 318.14 278.392 317.535 277.182 316.324C276.598 315.757 276.145 315.097 275.823 314.344C275.51 313.582 275.354 312.786 275.354 311.957V307.26C275.354 305.499 275.993 304.065 277.271 302.956C278.498 301.907 280.038 301.373 281.892 301.356H283.936C284.316 301.356 284.646 301.488 284.926 301.75C285.205 302.029 285.345 302.351 285.345 302.715C285.345 303.104 285.205 303.434 284.926 303.705C284.663 303.967 284.333 304.099 283.936 304.099H281.904C280.948 304.116 280.135 304.348 279.467 304.797C278.756 305.288 278.328 305.939 278.185 306.752C279.183 306.083 280.305 305.749 281.549 305.749C282.378 305.749 283.17 305.91 283.923 306.231C284.685 306.545 285.353 306.989 285.929 307.564C286.504 308.148 286.949 308.821 287.262 309.583C287.583 310.336 287.744 311.128 287.744 311.957C287.744 313.658 287.139 315.114 285.929 316.324C285.353 316.9 284.685 317.348 283.923 317.67C283.17 317.983 282.378 318.14 281.549 318.14ZM281.549 315.321C282.48 315.321 283.275 314.991 283.936 314.331C284.596 313.671 284.926 312.88 284.926 311.957C284.926 311.035 284.596 310.243 283.936 309.583C283.284 308.931 282.488 308.605 281.549 308.605C280.618 308.605 279.826 308.931 279.175 309.583C278.515 310.243 278.185 311.035 278.185 311.957C278.185 312.88 278.515 313.671 279.175 314.331C279.835 314.991 280.626 315.321 281.549 315.321ZM290.867 322.393C290.461 322.393 290.127 322.249 289.864 321.961C289.576 321.69 289.433 321.343 289.433 320.92V311.957C289.433 311.128 289.589 310.336 289.902 309.583C290.224 308.821 290.677 308.148 291.261 307.564C292.471 306.354 293.931 305.749 295.641 305.749C296.462 305.749 297.249 305.91 298.002 306.231C298.764 306.545 299.432 306.989 300.008 307.564C300.583 308.148 301.028 308.821 301.341 309.583C301.662 310.336 301.823 311.128 301.823 311.957C301.823 313.658 301.218 315.114 300.008 316.324C299.432 316.9 298.764 317.348 298.002 317.67C297.249 317.983 296.462 318.14 295.641 318.14C294.413 318.14 293.284 317.801 292.251 317.124V320.92C292.251 321.352 292.124 321.703 291.87 321.974C291.625 322.253 291.29 322.393 290.867 322.393ZM293.254 314.331C293.914 314.991 294.71 315.321 295.641 315.321C296.572 315.321 297.367 314.991 298.027 314.331C298.679 313.679 299.005 312.888 299.005 311.957C299.005 311.026 298.679 310.235 298.027 309.583C297.376 308.931 296.58 308.605 295.641 308.605C294.701 308.605 293.906 308.931 293.254 309.583C292.594 310.243 292.264 311.035 292.264 311.957C292.264 312.88 292.594 313.671 293.254 314.331ZM309.148 318.14C308.327 318.14 307.54 317.983 306.787 317.67C306.034 317.348 305.369 316.9 304.794 316.324C303.584 315.114 302.979 313.658 302.979 311.957C302.979 311.128 303.135 310.336 303.448 309.583C303.77 308.821 304.218 308.148 304.794 307.564C305.369 306.989 306.034 306.545 306.787 306.231C307.54 305.91 308.327 305.749 309.148 305.749C310.85 305.749 312.305 306.354 313.516 307.564C314.717 308.792 315.318 310.256 315.318 311.957V316.667C315.318 317.065 315.179 317.403 314.899 317.683C314.637 317.97 314.299 318.114 313.884 318.114C313.554 318.114 313.27 318.025 313.033 317.848C312.796 317.661 312.635 317.416 312.551 317.111C311.527 317.797 310.393 318.14 309.148 318.14ZM306.787 314.331C307.43 314.991 308.217 315.321 309.148 315.321C310.079 315.321 310.875 314.991 311.535 314.331C312.178 313.671 312.5 312.88 312.5 311.957C312.5 311.035 312.178 310.243 311.535 309.583C310.883 308.931 310.088 308.605 309.148 308.605C308.226 308.605 307.439 308.931 306.787 309.583C306.135 310.235 305.81 311.026 305.81 311.957C305.81 312.888 306.135 313.679 306.787 314.331ZM317.997 318.013C317.608 318.013 317.278 317.869 317.007 317.581C316.711 317.302 316.562 316.972 316.562 316.591C316.562 316.235 316.698 315.91 316.969 315.613L321.133 311.17L317.54 307.818C317.235 307.564 317.083 307.222 317.083 306.79C317.083 306.375 317.227 306.037 317.515 305.774C317.785 305.504 318.116 305.368 318.505 305.368C318.894 305.368 319.216 305.495 319.47 305.749L324.053 310.015V307.171C324.053 306.773 324.188 306.439 324.459 306.168C324.738 305.889 325.068 305.749 325.449 305.749C325.839 305.749 326.177 305.889 326.465 306.168C326.744 306.447 326.884 306.782 326.884 307.171V310.002L331.454 305.749C331.708 305.495 332.03 305.368 332.419 305.368C332.791 305.368 333.126 305.508 333.422 305.787C333.701 306.066 333.841 306.392 333.841 306.765C333.841 307.162 333.688 307.514 333.384 307.818L329.791 311.183L333.955 315.613C334.217 315.901 334.349 316.227 334.349 316.591C334.349 316.972 334.209 317.302 333.93 317.581C333.642 317.869 333.308 318.013 332.927 318.013C332.537 318.013 332.195 317.865 331.898 317.568L327.722 313.112L326.884 313.899V316.591C326.884 316.98 326.744 317.314 326.465 317.594C326.169 317.865 325.83 318 325.449 318C325.06 318 324.73 317.865 324.459 317.594C324.188 317.323 324.053 316.989 324.053 316.591V313.899L323.215 313.112L319.038 317.568C318.742 317.865 318.395 318.013 317.997 318.013ZM341.382 318.14C340.552 318.14 339.757 317.983 338.995 317.67C338.233 317.348 337.561 316.9 336.977 316.324C336.393 315.757 335.94 315.097 335.618 314.344C335.305 313.582 335.148 312.786 335.148 311.957C335.148 311.119 335.305 310.319 335.618 309.558C335.94 308.796 336.393 308.132 336.977 307.564C337.561 306.989 338.233 306.545 338.995 306.231C339.757 305.91 340.552 305.749 341.382 305.749C343.075 305.749 344.53 306.346 345.749 307.539C346.316 308.106 346.765 308.766 347.095 309.52C347.425 310.273 347.598 311.06 347.615 311.881C347.615 312.287 347.484 312.613 347.222 312.858C346.968 313.104 346.638 313.227 346.231 313.227H338.297C338.517 313.87 338.91 314.399 339.478 314.813C340.028 315.228 340.662 315.436 341.382 315.436C342.025 315.436 342.571 315.304 343.02 315.042C343.324 314.864 343.599 314.775 343.845 314.775C344.226 314.775 344.556 314.924 344.835 315.22C345.097 315.507 345.229 315.846 345.229 316.235C345.229 316.794 344.873 317.255 344.162 317.619C343.485 317.966 342.558 318.14 341.382 318.14ZM338.208 310.865H344.721C344.518 310.154 344.12 309.57 343.527 309.113C342.926 308.665 342.228 308.44 341.433 308.44C340.646 308.44 339.956 308.673 339.363 309.139C338.796 309.562 338.411 310.137 338.208 310.865ZM351.018 318C350.603 318 350.264 317.86 350.002 317.581C349.714 317.319 349.57 316.98 349.57 316.565V307.209C349.57 306.82 349.718 306.477 350.015 306.181C350.285 305.893 350.628 305.749 351.043 305.749C351.432 305.749 351.758 305.893 352.021 306.181C352.266 306.451 352.389 306.794 352.389 307.209V310.357H356.896V307.209C356.896 306.794 357.027 306.451 357.289 306.181C357.551 305.893 357.877 305.749 358.267 305.749C358.673 305.749 359.02 305.893 359.308 306.181C359.587 306.477 359.727 306.82 359.727 307.209V316.565C359.727 316.98 359.583 317.319 359.295 317.581C359.016 317.86 358.673 318 358.267 318C357.869 318 357.543 317.86 357.289 317.581C357.027 317.319 356.896 316.98 356.896 316.565V313.265H352.389V316.565C352.389 316.98 352.262 317.323 352.008 317.594C351.754 317.865 351.424 318 351.018 318ZM363.878 318C363.472 318 363.125 317.856 362.837 317.568C362.549 317.306 362.405 316.967 362.405 316.553V307.209C362.405 306.82 362.545 306.477 362.824 306.181C363.095 305.893 363.438 305.749 363.853 305.749C364.259 305.749 364.593 305.893 364.855 306.181C365.109 306.46 365.236 306.803 365.236 307.209V312.922L370.759 306.32C371.055 305.939 371.44 305.749 371.914 305.749C372.312 305.749 372.655 305.893 372.942 306.181C373.222 306.477 373.361 306.82 373.361 307.209V316.553C373.361 316.959 373.226 317.298 372.955 317.568C372.667 317.856 372.325 318 371.927 318C371.521 318 371.212 317.856 371 317.568C370.771 317.298 370.657 316.959 370.657 316.553V310.726L365.033 317.429C364.703 317.81 364.318 318 363.878 318ZM382.337 318.14C381.507 318.14 380.712 317.983 379.95 317.67C379.188 317.348 378.516 316.9 377.932 316.324C377.348 315.757 376.895 315.097 376.573 314.344C376.26 313.582 376.104 312.786 376.104 311.957C376.104 311.119 376.26 310.319 376.573 309.558C376.895 308.796 377.348 308.132 377.932 307.564C378.516 306.989 379.188 306.545 379.95 306.231C380.712 305.91 381.507 305.749 382.337 305.749C384.03 305.749 385.485 306.346 386.704 307.539C387.271 308.106 387.72 308.766 388.05 309.52C388.38 310.273 388.553 311.06 388.57 311.881C388.57 312.287 388.439 312.613 388.177 312.858C387.923 313.104 387.593 313.227 387.187 313.227H379.252C379.472 313.87 379.866 314.399 380.433 314.813C380.983 315.228 381.618 315.436 382.337 315.436C382.98 315.436 383.526 315.304 383.975 315.042C384.279 314.864 384.554 314.775 384.8 314.775C385.181 314.775 385.511 314.924 385.79 315.22C386.052 315.507 386.184 315.846 386.184 316.235C386.184 316.794 385.828 317.255 385.117 317.619C384.44 317.966 383.513 318.14 382.337 318.14ZM379.163 310.865H385.676C385.473 310.154 385.075 309.57 384.482 309.113C383.882 308.665 383.183 308.44 382.388 308.44C381.601 308.44 380.911 308.673 380.318 309.139C379.751 309.562 379.366 310.137 379.163 310.865Z" fill="black" fill-opacity="0.5"/>
<path d="M403.399 203.521C403.114 203.896 402.83 204.255 402.56 204.615C379.644 233.091 343.016 250.715 306.702 250.102C283.652 249.743 260.706 242.008 241.507 225.058C241.342 224.938 241.207 224.803 241.057 224.668V224.654C240.443 224.13 239.843 223.604 239.244 223.08C184.556 174.731 188.977 83.6092 253.242 44.7917H253.256C290.71 20.4371 332.778 19.7479 366.02 36.2334C380.317 43.3077 392.996 53.5731 402.948 66.4925C417.08 84.8225 425.759 108.501 425.938 136.048C426.825 161.721 418.042 184.876 403.399 203.521Z" fill="#B5E5E8"/>
<path d="M336.394 200.244C336.282 200.927 336.398 201.595 336.863 202.123C337.244 202.558 337.81 202.836 338.379 202.911C339.67 203.083 340.817 202.225 341.39 201.117C341.547 200.815 341.66 200.493 341.746 200.164C341.843 199.798 341.917 199.417 342.071 199.068C342.337 198.465 342.827 198.009 343.307 197.573C343.83 197.099 344.327 196.626 344.726 196.041C345.121 195.462 345.418 194.816 345.637 194.15C346.12 192.673 346.187 191.098 346.126 189.556C346.109 189.133 346.083 188.712 346.054 188.289C346.029 187.936 346.055 187.517 345.91 187.189C345.758 186.841 345.424 186.753 345.079 186.708C344.655 186.653 344.231 186.599 343.805 186.546C343.484 186.505 343.162 186.463 342.841 186.423C342.874 186.405 342.906 186.387 342.939 186.373C343.012 186.343 342.981 186.246 342.906 186.258C342.757 186.281 342.619 186.327 342.491 186.394C342.428 186.405 342.373 186.436 342.336 186.486C342.036 186.688 341.804 186.995 341.661 187.331C341.392 187.957 341.355 188.632 341.228 189.294C341.163 189.631 341.075 189.967 340.907 190.268C340.756 190.538 340.546 190.763 340.31 190.959C339.845 191.347 339.294 191.613 338.796 191.954C338.245 192.33 337.775 192.801 337.506 193.42C337.367 193.743 337.278 194.079 337.248 194.431C337.212 194.842 337.275 195.25 337.32 195.657C337.411 196.456 337.303 197.211 337.077 197.98C336.855 198.733 336.52 199.468 336.394 200.244Z" fill="#1CA79F"/>
<path d="M344.609 166.814C343.439 165.682 341.651 166.582 340.271 166.701C338.393 166.862 336.98 165.294 335.81 164.037C335.082 163.254 334.591 162.436 334.378 161.38C334.204 160.52 334.051 159.699 333.67 158.9C332.99 157.468 331.902 156.287 331.009 154.992C330.55 154.326 330.13 153.623 329.88 152.851C329.593 151.968 329.68 151.035 329.448 150.146C329.221 149.27 328.61 148.596 328.005 147.956C327.25 147.156 326.493 146.359 325.739 145.559C325.1 144.885 324.485 144.158 323.471 144.188C322.538 144.217 321.708 144.759 320.899 145.166C319.083 146.079 317.078 146.68 315.036 146.728C313.191 146.771 311.337 146.333 309.754 145.373C309.001 144.917 308.324 144.342 307.761 143.664C307.218 143.011 306.775 142.263 306.126 141.705C304.574 140.37 302.595 140.954 300.877 141.601C298.907 142.344 296.909 142.878 294.798 143.013C293.822 143.075 292.85 142.985 291.877 143.03C291.181 143.062 290.414 143.198 289.911 143.725C289.37 144.295 289.388 145.073 289.351 145.807C289.332 146.182 289.294 146.602 289.022 146.887C288.744 147.178 288.31 147.255 287.945 147.378C287.111 147.66 286.679 148.212 286.362 149.013C286.068 149.755 285.76 150.44 285.288 151.092C284.383 152.344 283.206 153.371 282.275 154.603C281.272 155.93 280.704 157.452 280.962 159.133C281.262 161.085 282.424 162.779 283.52 164.37C284.138 165.269 284.757 166.167 285.375 167.066C285.954 167.907 286.494 168.814 287.18 169.574C288.411 170.936 290.144 171.036 291.851 170.767C292.759 170.624 293.652 170.396 294.563 170.267C295.588 170.121 296.628 170.146 297.649 170.322C299.657 170.668 301.54 171.508 303.347 172.423C304.165 172.837 305.185 173.22 305.803 173.92C306.11 174.266 306.278 174.724 306.287 175.186C306.295 175.726 306.036 176.188 305.859 176.683C305.188 178.572 306.675 180.362 307.608 181.876C308.574 183.444 309.66 185.251 309.501 187.168C309.42 188.147 308.906 188.925 308.489 189.785C308.067 190.655 307.924 191.581 308.043 192.54C308.167 193.539 308.508 194.489 308.888 195.415C309.323 196.468 309.779 197.513 310.226 198.56C311.095 200.6 311.965 202.642 312.834 204.682C313.268 205.703 313.704 206.722 314.137 207.743C314.354 208.252 314.571 208.763 314.788 209.273C314.977 209.718 315.136 210.216 315.417 210.612C315.94 211.352 316.81 211.328 317.615 211.177C318.457 211.019 319.28 210.763 320.067 210.427C321.659 209.746 323.108 208.743 324.292 207.478C324.873 206.857 325.384 206.173 325.827 205.448C326.046 205.09 326.256 204.719 326.521 204.394C326.836 204.006 327.223 203.749 327.66 203.518C328.465 203.091 329.104 202.659 329.508 201.815C329.912 200.972 330.19 200.062 330.481 199.176C331.048 197.447 331.574 195.682 332.495 194.101C332.967 193.291 333.562 192.607 334.183 191.91C334.808 191.209 335.366 190.465 335.619 189.547C336.117 187.749 335.528 185.877 335.327 184.08C335.162 182.612 335.334 181.207 335.974 179.868C336.541 178.681 337.358 177.636 338.224 176.652C340.006 174.63 342.155 172.837 343.546 170.5C344.183 169.43 344.649 168.253 344.804 167.012C344.82 166.881 344.703 166.801 344.609 166.814Z" fill="#1CA79F"/>
<path d="M248.891 49.3221C248.823 49.9606 248.901 50.6715 248.629 51.2695C248.353 51.8791 247.684 52.0702 247.155 52.3974C246.011 53.1069 245.906 54.3766 245.828 55.6001C245.783 56.2965 245.674 56.9438 245.44 57.6025C245.193 58.2975 244.886 58.978 244.776 59.7121C244.579 61.0427 245.109 62.2777 245.975 63.2681C247.833 65.3979 250.756 65.8728 252.871 67.6377C254.017 68.5933 254.697 69.9138 255.343 71.2314C256.058 72.6923 256.773 74.1575 257.364 75.6734C257.935 77.1372 258.401 78.6604 258.598 80.2226C258.698 81.0088 258.664 81.8008 258.75 82.587C258.829 83.324 259.11 83.9277 259.535 84.5272C259.94 85.1005 260.342 85.6435 260.518 86.3356C260.689 87.0074 260.66 87.7183 260.561 88.4002C260.358 89.8032 259.898 91.1613 259.81 92.5817C259.713 94.1338 260.26 95.5585 260.885 96.9499C261.579 98.4919 262.284 100.028 262.983 101.567C263.335 102.34 263.686 103.114 264.037 103.887C264.317 104.501 264.575 105.138 265.01 105.66C265.384 106.109 265.921 106.435 266.523 106.39C267.124 106.345 267.628 105.96 267.968 105.484C268.833 104.272 268.407 102.692 268.759 101.33C269.082 100.08 269.864 99.0175 270.792 98.143C272.8 96.2521 275.432 95.3138 277.742 93.8761C278.878 93.1695 279.948 92.3298 280.762 91.2569C281.187 90.6951 281.541 90.0856 281.932 89.4992C282.344 88.8766 282.813 88.3351 283.391 87.8602C283.95 87.4012 284.531 86.9755 284.985 86.405C285.354 85.9403 285.645 85.4292 285.87 84.879C286.322 83.7699 286.493 82.5783 286.621 81.3969C286.757 80.1459 286.833 78.8863 287.085 77.6512C287.209 77.0373 287.377 76.4292 287.623 75.853C287.897 75.2086 288.253 74.6034 288.601 73.9982C289.287 72.8023 289.956 71.5528 289.967 70.1382C289.978 68.8076 289.466 67.5494 288.981 66.3346C288.563 65.2849 288.105 64.1976 287.968 63.0668C288.13 63.1392 288.372 63.0581 288.379 62.8236C288.44 61.0658 288.506 59.3081 288.57 57.5519C288.601 56.6933 288.632 55.8347 288.664 54.9775C288.692 54.2087 288.727 53.4138 288.433 52.6855C287.923 51.4259 286.763 50.4341 285.617 49.7594C284.435 49.0644 283.107 48.6286 281.772 48.3376C278.661 47.6614 275.296 47.8424 272.327 46.5813C271.649 46.2932 271.013 45.9182 270.462 45.4273C269.968 44.9872 269.5 44.5007 268.859 44.2821C268.123 44.0302 267.328 44.2169 266.584 44.3212C265.733 44.4399 264.876 44.5268 264.017 44.5803C262.326 44.686 260.641 44.6412 258.951 44.5253C257.331 44.4138 255.699 44.3038 254.091 44.5876C253.808 44.6383 253.524 44.7077 253.244 44.7917C252.074 45.5446 250.921 46.3193 249.779 47.1098C249.314 47.7497 248.981 48.4809 248.891 49.3221Z" fill="#1CA79F"/>
<path d="M277.585 185.275C277.549 186.138 277.1 186.928 276.579 187.611C276.022 188.348 275.338 189.013 275.015 189.912C274.691 190.847 274.746 191.854 274.637 192.824C274.26 195.861 272.552 199.044 269.586 200.176C268.705 200.499 267.734 200.554 266.925 201.02C266.17 201.452 265.685 202.225 265.344 202.998C264.624 204.544 264.194 206.179 263.186 207.582C262.719 208.21 262.18 208.787 261.514 209.199C260.668 209.738 259.681 209.972 258.782 210.404C258.423 210.602 258.045 210.835 257.757 211.141C257.451 211.446 257.218 211.824 257.163 212.237C257.037 213.153 257.738 213.944 257.738 214.862C257.755 215.635 257.234 216.192 256.642 216.624C255.869 217.181 255.025 217.666 254.269 218.241C253.478 218.852 252.722 219.499 252.004 220.2C251.321 220.884 250.603 221.602 250.351 222.554C250.135 223.328 250.171 224.154 249.83 224.891C249.507 225.592 248.841 225.934 248.302 226.455C248.05 226.707 247.853 227.03 247.997 227.408C248.14 227.767 248.428 228.055 248.499 228.45C248.642 229.08 248.337 229.619 247.978 230.122C247.924 230.086 247.888 230.05 247.834 230.014C246.809 229.277 245.822 228.523 244.833 227.749C244.527 227.516 244.222 227.282 243.916 227.03C243.09 226.383 242.299 225.718 241.507 225.052C241.345 224.926 241.202 224.8 241.057 224.674V224.657C241.416 221.493 241.721 218.311 242.208 215.166C242.37 214.196 242.567 213.243 242.838 212.308C243 211.697 243.197 211.103 243.395 210.51C243.665 209.755 243.899 208.982 244.042 208.192C244.205 207.365 244.276 206.519 244.331 205.675C244.439 204.022 244.546 202.349 244.653 200.696C244.707 199.905 244.779 199.096 244.816 198.305C244.834 197.586 244.816 196.849 244.564 196.184C244.096 194.89 242.784 194.351 241.688 193.721C241.15 193.397 240.628 193.038 240.197 192.57C239.729 192.049 239.353 191.438 238.975 190.845C238.076 189.407 237.178 187.95 236.279 186.495C235.83 185.777 235.38 185.039 234.931 184.32C234.572 183.727 234.104 183.098 234.158 182.361C234.211 181.661 234.715 181.103 234.733 180.402C234.75 179.683 234.481 178.999 234.75 178.299C235.002 177.688 235.523 177.239 235.901 176.699C236.333 176.124 236.674 175.458 236.907 174.757C237.142 174.038 237.232 173.301 237.249 172.546C237.249 172.384 237.249 172.222 237.268 172.061C236.728 172.044 236.189 171.989 235.649 171.899C233.816 171.594 232.037 170.839 230.544 169.761C229.807 169.222 229.142 168.611 228.549 167.928C227.902 167.173 227.398 166.31 226.733 165.573C225.242 163.901 223.138 164.063 221.089 164.046C219.041 164.01 217.009 163.578 215.14 162.734C214.205 162.32 213.288 161.818 212.498 161.17C211.743 160.559 211.257 159.786 210.898 158.906C210.556 157.989 210.251 157.09 209.658 156.317C209.137 155.598 208.49 155.005 207.807 154.448C206.495 153.387 205.038 152.47 203.87 151.212C203.241 150.511 202.774 149.719 202.289 148.892C202.09 148.533 201.857 148.209 201.624 147.886C201.607 147.886 201.607 147.869 201.607 147.869C201.553 147.239 201.481 146.628 201.445 146C201.372 145.352 201.336 144.705 201.3 144.041C201.264 143.573 201.227 143.124 201.21 142.674C201.156 141.793 201.101 140.931 201.084 140.049C201.048 139.169 201.03 138.306 201.012 137.424C200.886 129.155 201.785 121.121 203.545 113.391C203.941 111.665 204.372 109.958 204.857 108.249C204.947 107.997 205.019 107.745 205.09 107.493C205.289 106.775 205.504 106.056 205.738 105.355C206.026 104.475 206.312 103.593 206.618 102.73C206.906 101.85 207.229 100.987 207.553 100.124C208.523 97.5537 209.602 95.0011 210.77 92.5209C212.011 92.1966 213.197 91.7478 214.509 91.9273C215.39 92.0533 216.235 92.3414 217.098 92.5021C218.033 92.699 218.986 92.754 219.956 92.699C220.872 92.6454 221.789 92.4833 222.67 92.1952C223.371 91.9794 224.198 91.4582 224.935 91.7101C225.528 91.9258 225.87 92.5195 226.157 93.0219C226.625 93.866 227.073 94.7116 227.541 95.5383C227.9 96.2217 228.295 96.9224 228.368 97.713C228.44 98.3775 228.188 98.9538 227.793 99.475C226.876 100.68 225.654 101.65 224.809 102.927C224.324 103.646 223.963 104.49 223.963 105.371C223.963 105.892 224.125 106.306 224.322 106.791C224.412 107.024 224.466 107.276 224.412 107.528C224.25 108.248 223.568 108.66 223.496 109.415C223.423 110.152 223.784 110.889 224.412 111.267C224.79 111.463 225.203 111.572 225.581 111.77C225.85 111.933 226.102 112.129 226.318 112.345C226.821 112.83 227.234 113.424 227.738 113.892C228.853 114.898 230.596 114.682 231.566 115.869C232.07 116.463 232.32 117.361 233.094 117.702C234.065 118.151 234.245 117.091 234.711 116.551C235.179 115.994 235.807 116.192 236.437 116.12C237.353 116.03 237.533 114.988 237.479 114.233C237.407 113.496 237.191 112.742 237.407 112.005C237.515 111.61 237.785 111.322 237.945 110.944C238.125 110.531 237.982 110.081 238.035 109.649C238.197 108.337 239.456 107.421 240.498 106.774C241.038 106.432 241.541 106.413 242.008 106.881C242.331 107.223 242.619 107.456 243.068 107.618C243.374 107.744 243.679 107.834 243.985 107.977C245.189 108.607 245.386 110.098 246.339 110.961C246.932 111.5 247.597 111.752 247.975 112.507C248.317 113.155 248.424 113.874 248.639 114.575C249.107 116.192 250.312 117.343 251.515 118.458C252.647 119.501 253.798 120.579 254.373 122.034C255.038 123.67 254.482 125.324 254.068 126.941C253.905 127.625 253.816 128.451 253.277 128.936C252.683 129.458 251.839 129.727 251.156 130.124C250.346 130.572 249.539 131.166 249.233 132.083C248.981 132.749 249.359 133.557 248.945 134.168C248.802 134.419 248.567 134.599 248.334 134.761C248.01 135.03 247.759 135.3 247.525 135.66C247.2 136.182 246.914 136.703 246.32 136.972C245.421 137.386 244.306 137.152 243.659 136.415C243.623 136.433 243.605 136.433 243.586 136.433C243.048 136.47 242.508 136.739 242.076 137.044C241.538 137.44 241.124 137.98 240.872 138.591C240.585 139.257 240.656 139.939 240.549 140.64C240.459 141.287 240.136 141.682 239.722 142.167C239.128 142.868 239.525 143.534 239.434 144.342C239.201 146.265 236.755 146.822 235.659 148.135C234.76 149.195 235.174 150.472 235.606 151.658C235.821 152.251 236.056 152.862 236.146 153.491C236.199 153.959 236.253 154.57 235.93 154.947C235.139 155.847 233.702 154.157 233.251 153.599C232.388 152.557 231.741 151.299 230.645 150.436C230.088 149.987 229.423 149.626 228.686 149.626C227.896 149.609 227.23 150.075 226.475 150.201C225.001 150.434 223.564 149.608 222.161 150.4C220.884 151.119 220.183 152.485 219.896 153.888C219.734 154.697 219.681 155.541 219.644 156.368C219.608 157.158 219.555 157.949 219.644 158.722C219.734 159.478 220.003 160.232 220.561 160.753C221.046 161.221 221.802 161.527 222.43 161.149C222.898 160.861 223.221 160.339 223.598 159.927C223.921 159.568 224.299 159.279 224.767 159.117C225.647 158.776 226.942 158.722 227.768 159.261C228.704 159.854 228.001 160.861 227.894 161.67C227.822 162.227 228.488 162.659 228.793 163.054C229.171 163.539 229.315 164.15 229.603 164.69C230.322 165.985 231.418 167.027 232.461 168.052C233.521 169.058 234.725 170.173 236.272 170.282C236.757 170.318 237.261 170.263 237.709 170.444C238.213 169.581 239.094 168.987 239.974 168.575C241.07 168.054 242.293 167.695 243.479 167.479C244.701 167.263 246.032 167.263 247.074 168.036C247.164 168.09 247.181 168.198 247.147 168.288C247.937 168.252 248.71 168.019 249.484 167.82C250.328 167.605 251.191 167.406 252.072 167.569C252.935 167.731 253.636 168.287 254.23 168.916C255.415 170.121 256.494 171.559 258.058 172.313C258.903 172.708 259.801 172.691 260.718 172.888C261.491 173.05 262.083 173.445 262.551 174.074C262.982 174.667 263.251 175.351 263.612 175.979C264.061 176.789 264.618 177.31 265.464 177.722C267.405 178.639 269.4 179.466 271.359 180.347C273.139 181.138 274.918 181.966 276.446 183.188C277.118 183.728 277.621 184.375 277.585 185.275Z" fill="#1CA79F"/>
<path d="M229.781 77.4644C229.716 77.421 229.632 77.4007 229.535 77.4238C229.219 77.5006 228.905 77.5933 228.596 77.6961C228.097 77.864 227.563 78.0537 227.153 78.3939C226.655 78.8051 226.29 79.4133 225.631 79.5942C225.242 79.7014 224.839 79.5653 224.447 79.5436C224.095 79.5233 223.733 79.6116 223.459 79.8389C223.149 80.0967 223.067 80.5049 223.202 80.877C223.307 81.1739 223.514 81.4692 223.53 81.7603C223.543 82.0021 223.478 82.2467 223.377 82.4755C223.252 82.752 223.093 83.0126 222.934 83.2718C222.601 83.8133 222.24 84.3809 222.159 85.0252C222.072 85.7057 222.334 86.3819 222.802 86.8756C223.039 87.1261 223.332 87.3158 223.653 87.4388C224.02 87.5793 224.416 87.5865 224.803 87.546C225.208 87.5025 225.617 87.4142 226.026 87.4591C226.272 87.4851 226.555 87.5735 226.785 87.6806C227.917 88.2062 228.764 89.2197 229.978 89.5933C230.691 89.8119 231.434 89.7177 232.139 89.5136C232.843 89.3094 233.525 89.0025 234.252 88.8867C234.908 88.7824 235.545 88.9055 236.099 89.2733C236.612 89.6135 236.988 90.1376 237.139 90.7327C237.243 91.1425 237.331 91.5059 237.614 91.836C237.844 92.1038 238.149 92.3022 238.351 92.5947C238.742 93.1594 238.792 93.8731 238.747 94.5377C238.689 95.3992 238.445 96.2375 238.435 97.1034C238.424 97.8838 238.64 98.6294 239.044 99.2954C239.431 99.9311 239.952 100.478 240.495 100.981C240.76 101.227 241.034 101.464 241.31 101.699C241.6 101.945 241.902 102.19 242.241 102.368C242.964 102.747 243.743 102.71 244.455 102.326C245.114 101.971 245.681 101.404 246.176 100.852C246.68 100.29 247.133 99.5908 247.015 98.8017C246.954 98.3978 246.738 98.0531 246.618 97.6695C246.53 97.3857 246.501 97.1265 246.502 96.8254C246.511 95.5672 247.099 94.3611 247.161 93.0928C247.191 92.476 247.065 91.8418 246.709 91.3292C246.278 90.7081 245.612 90.3519 245.012 89.9205C243.99 89.1849 243.446 88.0281 242.99 86.8886C242.503 85.6753 242.07 84.4113 241.238 83.3804C240.423 82.3713 239.251 81.795 238.083 81.2955C236.958 80.8148 235.744 80.3703 234.847 79.5262C234.612 79.3061 234.417 79.0628 234.236 78.7979C234.019 78.4808 233.797 78.1681 233.492 77.9292C232.931 77.4948 232.246 77.3283 231.549 77.2979C230.948 77.269 230.363 77.3471 229.781 77.4644Z" fill="#1CA79F"/>
<path d="M289.849 40.4264L289.747 40.4149C289.747 40.4149 289.807 40.493 289.849 40.4264Z" fill="#1CA79F"/>
<path d="M290.134 100.215C290.544 100.444 291.011 100.562 291.48 100.512C292.028 100.454 292.537 100.228 293.006 99.9499C293.846 99.4504 294.611 98.7641 294.971 97.8346C295.155 97.3582 295.21 96.8399 295.12 96.3375C295.029 95.8321 294.748 95.3862 294.391 95.0242C293.629 94.2554 292.629 93.8601 291.575 93.7009C291.021 93.6169 290.464 93.5619 289.921 93.42C289.398 93.2824 288.887 93.1 288.354 92.9987C287.531 92.8423 286.561 92.9291 285.952 93.5763C285.942 93.5865 285.937 93.5995 285.928 93.6097C285.867 93.5865 285.8 93.5851 285.743 93.6299C285.294 93.9702 284.9 94.3973 284.515 94.81C284.18 95.1676 283.839 95.5976 283.756 96.0942C283.679 96.5532 283.834 97.0136 284.189 97.3191C284.506 97.5913 284.911 97.7404 285.315 97.8331C286.278 98.0532 287.302 98.0706 288.158 98.6237C288.87 99.0855 289.387 99.7979 290.134 100.215Z" fill="#1CA79F"/>
<path d="M425.937 136.04V136.813C425.668 136.777 425.452 136.543 425.38 136.273C425.271 135.86 425.469 135.429 425.326 135.015C425.2 134.619 424.931 134.278 425.003 133.863C425.076 133.486 425.362 133.216 425.65 133.018C425.704 132.982 425.757 132.946 425.83 132.909C425.865 133.955 425.92 134.997 425.937 136.04Z" fill="#1CA79F"/>
<path d="M238.699 161.55C238.749 161.844 238.888 162.122 239.14 162.291C239.41 162.472 239.744 162.469 240.052 162.427C240.39 162.381 240.713 162.311 241.056 162.349C241.405 162.387 241.744 162.495 242.082 162.581C242.452 162.675 242.835 162.756 243.219 162.725C243.653 162.692 244.06 162.54 244.468 162.398C245.3 162.11 246.158 161.983 247.037 162.033C247.105 162.038 247.175 161.99 247.206 161.932C247.586 161.244 246.348 160.927 245.937 160.766C245.192 160.475 244.453 160.155 243.697 159.895C243.348 159.775 243.01 159.75 242.647 159.808C242.313 159.86 241.971 159.973 241.631 159.918C241.512 159.899 241.39 159.864 241.29 159.795C241.156 159.702 241.104 159.568 241.059 159.416C240.982 159.151 240.885 158.925 240.665 158.75C240.329 158.482 239.879 158.406 239.549 158.139C239.357 157.984 239.392 157.824 239.42 157.598C239.453 157.313 239.336 157.069 239.095 156.912C238.854 156.756 238.552 156.72 238.272 156.757C237.931 156.802 237.564 156.935 237.228 156.801C236.709 156.592 236.376 156.045 235.762 156.07C235.354 156.085 234.982 156.303 234.574 156.342C234.148 156.382 233.719 156.358 233.292 156.388C232.744 156.429 232.131 156.602 231.815 157.076C231.778 157.064 231.739 157.064 231.703 157.095C231.419 157.333 231.138 157.575 230.848 157.808C230.55 158.047 230.236 158.26 229.935 158.493C229.848 158.561 229.833 158.661 229.906 158.747C230.304 159.217 230.989 158.91 231.504 158.926C232.109 158.945 232.571 159.459 233.146 159.598C233.861 159.77 234.456 159.265 235.08 159.012C235.752 158.738 236.472 158.605 237.189 158.752C237.713 158.861 238.263 159.142 238.552 159.608C238.93 160.206 238.589 160.9 238.699 161.55Z" fill="#1CA79F"/>
<path d="M414.612 185.49C413.732 187.252 412.814 188.995 411.844 190.703C410.891 192.375 409.902 194.009 408.878 195.628C408.357 196.455 407.836 197.264 407.296 198.074C406.757 198.864 406.2 199.674 405.642 200.464C404.905 201.489 404.151 202.513 403.395 203.521C402.981 204.059 402.568 204.599 402.154 205.12C402.137 205.103 402.118 205.067 402.101 205.031C401.616 204.187 401.598 203.179 401.706 202.226C401.832 201.237 402.083 200.248 402.118 199.261C402.118 198.757 402.082 198.272 401.939 197.804C401.795 197.373 401.561 197.014 401.31 196.636C400.861 195.935 400.465 195.179 400.717 194.335C400.95 193.562 401.562 192.968 402.208 192.537C403.573 191.638 405.498 191.458 406.431 189.984C406.827 189.355 407.097 188.564 407.816 188.222C408.211 188.025 408.696 188.025 409.056 187.755C409.326 187.539 409.488 187.233 409.65 186.928C409.956 186.317 410.244 185.634 410.908 185.364C411.771 185.023 412.634 185.508 413.478 185.634C413.82 185.687 414.196 185.67 414.521 185.544C414.558 185.525 414.577 185.508 414.612 185.49Z" fill="#1CA79F"/>
<path d="M412.025 161.104C411.851 161.346 411.848 161.657 411.784 161.936C411.725 162.195 411.589 162.392 411.39 162.565C411.014 162.893 410.54 163.096 410.229 163.501C409.893 163.939 409.744 164.522 409.284 164.858C408.868 165.161 408.344 165.259 407.86 165.398C407.381 165.536 406.825 165.721 406.517 166.139C406.333 166.387 406.339 166.674 406.295 166.965C406.252 167.253 406.152 167.529 406.051 167.802C405.857 168.32 405.634 168.863 405.747 169.426C405.86 169.985 406.317 170.36 406.767 170.66C407.284 171.004 407.82 171.346 408.412 171.544C409.334 171.853 410.371 171.776 411.263 171.404C412.158 171.03 412.943 170.369 413.374 169.49C413.833 168.556 413.93 167.508 414.215 166.519C414.35 166.053 414.532 165.585 414.838 165.201C415.003 164.994 415.233 164.845 415.389 164.634C415.533 164.44 415.563 164.199 415.476 163.975C415.288 163.485 414.781 163.203 414.616 162.698C414.437 162.151 414.448 161.545 413.943 161.169C413.733 161.011 413.475 160.946 413.222 161.033C413.158 161.054 413.126 161.101 413.113 161.153L412.957 161.108C412.961 161.095 412.964 161.081 412.957 161.063C412.785 160.649 412.236 160.81 412.025 161.104Z" fill="#1CA79F"/>
<path d="M423.402 160.72C423.295 161.224 423.169 161.709 423.06 162.211C423.007 162.229 422.971 162.248 422.934 162.265C422.556 162.374 422.144 162.319 421.802 162.122C421.371 161.87 421.083 161.456 420.777 161.079C420.454 160.701 420.076 160.413 419.662 160.163C419.248 159.93 418.818 159.731 418.421 159.462C418.026 159.193 417.667 158.851 417.396 158.437C417.127 157.988 416.947 157.502 416.766 157.016C416.57 156.442 416.371 155.884 416.173 155.308C415.993 154.769 415.778 154.229 415.831 153.655C415.885 153.097 416.137 152.576 416.389 152.091C416.604 151.641 416.837 151.174 417.198 150.815C417.467 150.546 417.826 150.348 418.24 150.365C418.582 150.365 418.924 150.544 418.995 150.905C419.031 151.031 418.941 151.121 418.833 151.138V151.281C418.869 151.281 418.886 151.3 418.886 151.335C418.796 151.568 418.724 151.784 418.653 152.018C418.527 152.467 418.437 153.007 418.689 153.42C418.815 153.653 419.031 153.798 419.247 153.941C419.48 154.067 419.732 154.211 419.966 154.354C420.793 154.875 421.692 155.684 421.494 156.763C421.44 157.051 421.332 157.303 421.44 157.59C421.549 157.842 421.746 158.094 421.889 158.327C422.231 158.848 422.555 159.369 422.895 159.89C423.06 160.144 423.259 160.432 423.402 160.72Z" fill="#1CA79F"/>
<path d="M425.433 126.71C424.444 128.057 423.276 129.298 422.161 130.394C421.478 131.042 420.813 131.742 420.004 132.227C419.248 132.659 418.53 132.731 417.684 132.712C416.39 132.695 415.599 133.18 415.599 134.528C415.582 135.337 415.832 136.147 416.12 136.901C416.624 138.213 417.109 139.364 416.804 140.819C416.588 141.915 415.887 142.724 414.7 142.581C414.574 142.562 414.484 142.419 414.484 142.312C414.683 139.742 412.543 137.44 409.99 137.422C408.965 140.855 410.529 144.397 409.864 147.885C409.397 150.401 407.634 152.27 405.46 153.492C404.381 154.103 403.213 154.571 402.027 154.966C401.361 155.182 400.679 155.38 400.013 155.56C399.293 155.739 398.611 155.812 398.251 156.513C397.928 157.142 397.873 157.986 398.107 158.651C398.359 159.316 398.97 159.766 399.438 160.268C400.192 161.112 400.391 161.922 399.978 163C399.871 163.252 399.799 163.504 399.726 163.737C399.762 163.774 399.78 163.81 399.816 163.845C400.696 164.906 401.991 166.145 401.794 167.674C401.758 167.836 401.74 168.033 401.595 168.142C401.452 168.232 401.271 168.213 401.145 168.123C400.966 168.016 400.803 167.854 400.641 167.728C400.479 167.602 400.318 167.458 400.156 167.332C399.778 167.027 399.402 166.722 399.024 166.416C398.898 166.685 398.755 166.937 398.556 167.189C398.52 167.208 398.503 167.243 398.484 167.26C398.61 167.403 398.736 167.548 398.843 167.692C399.005 167.907 399.148 168.123 399.345 168.321C399.525 168.484 399.723 168.61 399.939 168.734C400.389 168.95 400.856 169.093 401.323 169.274C402.167 169.616 402.994 170.209 403.085 171.18C403.121 171.701 402.959 172.239 403.121 172.743C403.265 173.211 403.696 173.48 404.11 173.696C405.099 174.2 406.142 174.612 407.202 174.954C409.305 175.638 411.534 175.997 413.744 176.033C414.877 176.033 415.992 175.943 417.106 175.817C417.7 175.745 418.292 175.691 418.905 175.691C418.743 176.105 418.582 176.537 418.401 176.949C416.658 177.596 414.896 178.28 413.026 178.261C411.751 178.261 410.51 177.902 409.288 177.614C408.083 177.345 406.861 177.056 405.639 176.77C404.633 176.537 403.625 176.248 402.71 175.763C401.775 175.296 401.021 174.595 400.463 173.715C399.87 172.816 399.457 171.809 398.827 170.946C398.18 170.03 397.317 169.274 396.473 168.537C396.455 168.518 396.437 168.518 396.437 168.501C396.095 168.573 395.736 168.61 395.377 168.591C395.27 168.591 395.144 168.518 395.107 168.392C394.137 164.977 389.427 165.372 387.27 163.108C386.856 162.676 386.514 162.172 386.264 161.634C385.941 160.897 385.905 160.124 385.635 159.369C385.168 158.057 383.766 157.716 382.993 156.654C382.741 156.332 382.615 155.99 382.579 155.595C382.543 155.163 382.615 154.821 382.058 154.714C381.699 154.643 381.321 154.84 381.052 155.037C380.026 155.738 379.398 156.925 378.373 157.68C377.115 158.615 375.749 159.423 374.419 160.268C373.682 160.753 372.693 161.221 372.387 162.12C372.154 162.84 372.351 163.611 372.441 164.348C372.603 165.715 372.189 166.92 371.595 168.142C371.254 168.825 370.786 169.814 369.852 169.49C368.791 169.112 368.199 167.512 367.874 166.559C367.622 165.859 367.443 165.122 367.3 164.402C367.12 163.611 366.994 162.838 366.832 162.065C366.509 160.519 366.454 158.613 364.909 157.769C363.903 157.231 362.752 156.96 362.015 156.026C361.368 155.182 361.152 154.121 360.613 153.222C359.678 151.64 358.061 152 356.497 151.856C355.04 151.713 353.729 151.1 352.362 150.705C350.924 150.274 349.523 150.417 348.066 150.256C346.789 150.113 345.981 149.573 345.082 148.729C344.525 148.225 343.625 147.471 342.835 147.974C342.583 148.118 342.566 148.352 342.295 148.425C341.756 149.557 343.374 151.121 344.057 151.876C344.847 152.739 345.764 153.566 346.898 153.908C348.606 154.429 350.924 153.835 351.373 156.172C351.768 158.131 350.168 159.641 348.784 160.737C346.896 162.229 344.721 163.362 342.421 164.081C341.054 164.512 339.131 165.177 338.106 163.775C337.352 162.75 336.884 161.33 336.346 160.18C335.842 159.119 335.339 158.059 334.835 156.998C333.721 154.661 332.625 152.324 331.51 149.987C331.042 148.981 330.448 147.956 330.251 146.86C330.053 145.8 330.324 144.738 330.036 143.679C329.856 142.942 329.478 142.205 328.94 141.647C328.292 140.983 327.699 140.91 326.782 141.072C326.045 141.216 325.362 141.342 324.608 141.235C323.008 141.036 321.461 140.12 320.581 138.754C320.077 137.981 319.88 136.975 319.233 136.292C318.443 135.447 317.435 135.932 316.572 136.399C315.278 137.082 314.164 137.55 312.923 136.488C312.007 135.698 311.287 135.194 310.065 135.032C308.878 134.87 307.656 134.906 306.453 134.852C305.195 134.816 303.954 134.78 302.696 134.744C301.636 134.708 300.485 134.564 299.532 135.122C297.069 136.523 296.494 140.748 293.043 140.317C291.605 140.137 289.591 139.436 288.693 138.232C288.262 137.638 288.189 136.991 288.315 136.29C288.441 135.715 288.602 135.301 288.441 134.673C288.333 134.312 288.136 133.972 288.027 133.594C287.433 131.689 289.681 131.779 290.956 131.653C291.945 131.545 295.252 131.706 294.48 129.946C294.085 129.065 292.988 128.687 292.521 127.824C292.468 127.717 292.485 127.519 292.63 127.446C293.205 127.195 293.6 126.817 293.905 126.314C293.402 126.188 292.863 125.991 292.63 125.524C292.414 125.11 292.487 124.535 292.882 124.266C293.422 123.906 294.266 124.032 294.877 124.014C296.118 123.977 297.141 123.439 298.184 122.828C300.233 121.606 301.995 119.97 304.043 118.765C304.979 118.208 306.002 117.759 307.081 117.597C308.267 117.434 309.328 117.866 310.497 117.866C311.701 117.847 312.33 116.894 313.391 116.535C314.361 116.211 315.405 116.589 316.375 116.32C317.562 115.995 318.389 114.846 319.18 113.965C319.934 113.139 320.707 112.329 321.427 111.485C321.875 110.945 322.343 110.334 322.505 109.633C322.721 108.789 322.164 108.447 321.445 108.249C320.619 108.016 319.773 107.98 318.965 107.674C317.654 107.17 316.772 105.876 316.827 104.457C316.844 103.684 317.222 103.019 317.402 102.282C317.455 102.067 317.545 101.761 317.491 101.545C317.258 100.413 316.233 101.689 316.071 102.031C315.693 102.821 315.64 103.739 315.046 104.421C314.525 105.015 313.751 105.248 313.07 105.626C311.056 106.722 312.153 108.969 311.487 110.731C311.092 111.756 309.797 113.157 308.612 112.294C308.144 111.953 307.766 111.359 307.39 110.928C307.012 110.496 306.616 110.065 306.238 109.616C305.448 108.753 304.675 107.873 303.902 106.991C302.877 105.823 300.9 104.186 301.582 102.39C301.924 101.473 302.787 100.664 303.398 99.9094C304.117 99.0103 304.854 98.1112 305.572 97.2135C307.155 95.2719 308.719 93.3129 310.282 91.3713C311.63 89.699 312.907 87.8298 314.687 86.5716C316.125 85.5465 317.833 85.0441 319.594 84.9717C323.494 84.7921 327.305 86.392 330.757 88.0281C330.847 88.0643 330.919 88.1715 330.919 88.2801C330.829 89.5383 330.757 90.7791 330.667 92.0373C330.613 92.7569 330.56 92.99 331.368 93.1522C331.943 93.2607 332.519 93.2246 333.075 93.0812C335.268 92.5774 336.76 90.7979 338.413 89.4326C340.013 88.1208 341.703 87.4736 343.751 87.2217C346.161 86.9162 348.551 86.6816 350.942 86.2328C353.386 85.7651 355.777 85.1541 358.149 84.4171C360.45 83.6976 362.607 82.9432 364.369 81.2362C365.879 79.7796 367.281 78.1985 368.791 76.742C371.577 74.046 374.65 71.5108 378.246 70.0369C382.272 68.3646 386.407 68.6165 390.541 69.6778C391.908 70.0195 393.273 70.3974 394.621 70.81C397.821 71.7627 400.966 72.8776 404.076 74.0634C405.891 74.7468 407.688 75.5011 409.469 76.2569C418.262 91.0281 423.833 108.196 425.433 126.71Z" fill="#1CA79F"/>
<path opacity="0.41" d="M275.726 88.6117C285.824 77.0692 316.86 70.4741 319.002 61.9187C319.927 53.9554 310.044 51.7778 303.776 52.758C273.521 53.7165 236.37 66.9877 230.274 100.173C228.589 110.192 231.786 131.77 244.839 133.255C261.006 135.004 254.887 103.683 275.726 88.6117Z" fill="#EDEBCD"/>
<path opacity="0.65" d="M425.94 136.048V136.813C426.015 145.011 425.131 153.014 423.408 160.717C423.303 161.227 423.167 161.706 423.063 162.216C421.984 166.817 420.576 171.313 418.912 175.69C418.747 176.11 418.598 176.544 418.402 176.949C417.279 179.857 416.005 182.705 414.61 185.492C413.726 187.245 412.812 188.999 411.838 190.707C410.894 192.371 409.905 194.02 408.871 195.623C408.361 196.446 407.837 197.272 407.297 198.081C406.757 198.86 406.203 199.669 405.648 200.464C404.899 201.483 404.149 202.517 403.399 203.522C403.114 203.897 402.83 204.256 402.56 204.617C402.425 204.796 402.29 204.961 402.156 205.126C380.994 232.028 347.827 249.624 311.603 250.148C309.954 250.178 308.321 250.162 306.702 250.103C284.655 249.444 264.573 242.13 247.982 230.125C247.922 230.095 247.892 230.05 247.831 230.02C246.812 229.286 245.823 228.536 244.834 227.757C244.534 227.516 244.22 227.277 243.921 227.037C243.097 226.393 242.302 225.718 241.508 225.059C241.343 224.939 241.209 224.804 241.058 224.67V224.655C240.444 224.131 239.845 223.606 239.245 223.081C235.349 219.589 231.692 215.813 228.32 211.797C225.847 208.859 223.508 205.787 221.335 202.594C345.264 182.361 363.399 71.9061 366.021 36.2363C380.319 43.3106 392.998 53.576 402.949 66.4954C406.562 71.2908 409.783 76.4321 412.601 81.8573C412.615 81.9022 412.631 81.9471 412.66 81.992C413.604 83.8207 414.503 85.6942 415.357 87.5967C415.417 87.7024 415.462 87.8066 415.507 87.9109C418.145 93.8153 420.318 100.005 421.981 106.449C421.996 106.494 421.996 106.539 422.012 106.584C424.185 114.992 425.474 123.804 425.833 132.917C425.865 133.949 425.925 134.999 425.94 136.048Z" fill="#232323"/>
<path opacity="0.65" d="M425.937 136.043V136.811C426.012 145.012 425.126 153.012 423.405 160.719C423.296 161.22 423.17 161.705 423.062 162.214C421.983 166.811 420.579 171.308 418.908 175.69C418.748 176.108 418.591 176.542 418.407 176.952C417.279 179.861 415.999 182.703 414.612 185.487C413.735 187.251 412.815 188.998 411.845 190.704C410.892 192.376 409.906 194.014 408.878 195.627C408.36 196.455 407.842 197.266 407.299 198.077C406.763 198.863 406.204 199.674 405.644 200.467C404.908 201.486 404.155 202.514 403.395 203.518C402.985 204.061 402.576 204.596 402.159 205.122C381.002 232.029 347.833 249.625 311.613 250.152C307.433 250.212 303.312 250.035 299.267 249.625C371.849 237.213 403.647 134.571 414.706 86.156C414.932 86.6324 415.149 87.1088 415.366 87.5938C415.417 87.6937 415.466 87.8023 415.508 87.9036C418.149 93.8138 420.322 100.008 421.986 106.452C421.995 106.494 422.002 106.536 422.019 106.578C424.184 114.988 425.48 123.807 425.831 132.918C425.862 133.952 425.92 134.997 425.937 136.043Z" fill="#232323"/>
<path d="M267.68 113.016C255.52 113.016 251.444 102.656 251.002 96.9514C250.879 95.3559 252.072 93.9644 253.666 93.8414C255.281 93.727 256.648 94.9056 256.775 96.4939C256.876 97.6667 258.109 107.925 268.833 107.185C279.669 106.439 279.921 97.7564 279.914 96.7704C279.903 95.1778 281.178 93.866 282.769 93.8442C282.783 93.8442 282.796 93.8442 282.811 93.8442C284.383 93.8442 285.672 95.0923 285.705 96.6691C285.814 101.906 282.511 112.05 269.231 112.963C268.7 112.998 268.183 113.016 267.68 113.016Z" fill="#0F2B2A"/>
<path d="M338.567 113.016C326.406 113.016 322.329 102.656 321.887 96.9514C321.764 95.3559 322.957 93.9644 324.551 93.8414C326.144 93.7328 327.534 94.9056 327.661 96.4953C327.764 97.6826 329.001 107.928 339.719 107.185C350.555 106.439 350.807 97.7564 350.8 96.7704C350.79 95.1778 352.064 93.866 353.655 93.8443C353.67 93.8443 353.683 93.8443 353.697 93.8443C355.27 93.8443 356.558 95.0923 356.59 96.6691C356.699 101.906 353.397 112.05 340.116 112.963C339.586 112.998 339.069 113.016 338.567 113.016Z" fill="#0F2B2A"/>
<path d="M301.582 130.906C292.299 130.906 289.187 123.005 288.85 118.654C288.727 117.058 289.92 115.665 291.514 115.544C293.091 115.426 294.492 116.605 294.622 118.193C294.735 119.431 295.655 125.564 302.369 125.088C309.185 124.619 309.527 119.488 309.525 118.464C309.524 116.876 310.802 115.568 312.391 115.551C313.933 115.584 315.284 116.783 315.317 118.37C315.401 122.388 312.884 130.169 302.767 130.865C302.361 130.894 301.966 130.906 301.582 130.906Z" fill="#0F2B2A"/>
<path d="M317.36 121.444C310.228 121.444 306.799 116.244 305.952 113.243C305.518 111.704 306.413 110.104 307.953 109.67C309.481 109.241 311.072 110.118 311.518 111.642C311.762 112.432 313.242 116.273 318.686 115.559C320.269 115.365 321.727 116.469 321.935 118.054C322.144 119.641 321.027 121.095 319.442 121.303C318.715 121.399 318.02 121.444 317.36 121.444Z" fill="#0F2B2A"/>
<path d="M285.71 213.731C285.71 213.731 228.21 158.516 263.677 142.025C299.144 125.534 297.838 171.012 297.838 171.012C297.838 171.012 320.845 131.88 350.835 158.531C380.825 185.182 285.71 213.731 285.71 213.731Z" fill="#F2EAD5"/>
<path d="M343.621 199.611C338.668 199.611 333.734 198.261 329.529 195.133C329.311 194.971 329.115 194.777 328.95 194.56C328.695 194.227 322.477 186.3 315.391 190.559C314.02 191.382 312.24 190.939 311.418 189.566C310.595 188.195 311.038 186.416 312.411 185.593C321.404 180.194 329.825 186.388 333.289 190.704C341.314 196.387 353.23 193.574 359.787 187.625C367.413 180.707 370.432 170.03 371.622 162.291C371.864 160.709 373.349 159.628 374.923 159.869C376.504 160.112 377.589 161.59 377.345 163.17C376.013 171.834 372.56 183.854 363.677 191.915C358.561 196.559 351.069 199.611 343.621 199.611Z" fill="#0F2B2A"/>
<path d="M330.067 194.363C329.716 194.363 329.36 194.298 329.014 194.163C327.527 193.584 326.79 191.909 327.365 190.422C327.507 190.047 330.537 181.8 324.568 176.33C323.389 175.248 323.31 173.417 324.391 172.238C325.471 171.061 327.301 170.98 328.483 172.06C337.413 180.246 332.958 192.022 332.764 192.52C332.318 193.662 331.224 194.363 330.067 194.363Z" fill="#0F2B2A"/>
<path d="M268.348 181.161C267.697 181.161 267.042 180.944 266.502 180.495C261.964 176.736 256.295 177.083 256.241 177.083C255.075 177.175 253.972 176.544 253.445 175.507C253.018 174.667 252.986 173.615 253.36 172.622C253.968 171.006 255.71 168.731 263.844 165.472C265.328 164.88 267.015 165.599 267.608 167.082C268.203 168.566 267.482 170.251 265.997 170.848C264.769 171.34 263.742 171.791 262.887 172.197C265.198 172.875 267.788 174.041 270.196 176.036C271.428 177.055 271.599 178.881 270.578 180.111C270.006 180.802 269.179 181.161 268.348 181.161Z" fill="#0F2B2A"/>
<path d="M363.918 148.956C363.918 148.956 346.417 132.152 357.212 127.132C368.006 122.113 367.646 138.141 367.646 138.141C367.646 138.141 374.612 124.044 383.739 132.155C392.866 140.267 363.918 148.956 363.918 148.956Z" fill="#F2EAD5"/>
<path d="M251.568 142.684C251.568 142.684 228.401 135.479 235.811 126.164C243.221 116.847 250.066 131.344 250.066 131.344C250.066 131.344 249.992 115.62 261.783 118.794C273.575 121.968 251.568 142.684 251.568 142.684Z" fill="#F2EAD5"/>
<path d="M235.316 113.059C235.316 113.059 222.618 109.111 226.68 104.004C230.741 98.8973 234.492 106.843 234.492 106.843C234.492 106.843 234.452 98.2255 240.915 99.9644C247.379 101.705 235.316 113.059 235.316 113.059Z" fill="#F2EAD5"/>
<path d="M384.65 119.378C384.65 119.378 376.988 108.51 383.319 106.935C389.651 105.361 387.783 113.947 387.783 113.947C387.783 113.947 393.002 107.089 397.067 112.406C401.132 117.724 384.65 119.378 384.65 119.378Z" fill="#F2EAD5"/>
</svg>
