<svg width="500" height="496" viewBox="0 0 500 496" fill="none" xmlns="http://www.w3.org/2000/svg">
<path d="M20.9475 337.643C20.9475 337.643 -0.555375 367.336 0.010995 378.11C0.577365 388.883 5.68097 425.176 18.157 433.114C30.633 441.053 88.8037 436.579 88.8037 436.579C88.8037 436.579 60.027 339.708 20.9475 337.643Z" fill="#8DB7A4"/>
<path d="M477.477 349.992C477.477 349.992 494.98 382.205 493.03 392.816C491.082 403.428 481.349 438.762 467.957 445.027C454.564 451.292 397.453 439.373 397.453 439.373C397.453 439.373 438.454 347.007 477.477 349.992Z" fill="#8DB7A4"/>
<path d="M448.386 395.629C448.258 395.82 448.099 396.011 447.94 396.17C397.285 458.852 316.434 497.512 236.347 495.889C235.679 495.889 235.011 495.857 234.374 495.825C184.133 494.457 134.305 477.148 92.5591 439.889V439.857C91.2864 438.775 90.0454 437.693 88.8045 436.579C-31.9468 330.146 -22.274 129.149 119.414 43.5888H119.446C201.919 -10.0572 294.607 -11.5526 367.853 24.7205C399.067 40.1525 426.749 62.4891 448.545 90.553C480.109 131.058 499.486 183.495 499.868 244.618C501.841 302.273 481.731 354.169 448.386 395.629Z" fill="#B5E5E8"/>
<path d="M302.592 386.064C302.347 387.572 302.602 389.039 303.626 390.204C304.466 391.161 305.714 391.772 306.967 391.941C309.812 392.323 312.338 390.426 313.602 387.989C313.948 387.321 314.193 386.615 314.387 385.889C314.604 385.081 314.763 384.244 315.1 383.474C315.686 382.144 316.764 381.139 317.824 380.181C318.976 379.14 320.07 378.094 320.952 376.805C321.824 375.529 322.476 374.107 322.956 372.64C324.022 369.385 324.169 365.917 324.035 362.518C323.997 361.586 323.939 360.657 323.876 359.728C323.822 358.952 323.879 358.029 323.561 357.303C323.227 356.54 322.488 356.343 321.728 356.244C320.793 356.123 319.857 356.005 318.922 355.888C318.212 355.798 317.506 355.706 316.796 355.617C316.869 355.579 316.939 355.537 317.013 355.509C317.175 355.442 317.108 355.229 316.939 355.254C316.612 355.305 316.306 355.407 316.023 355.553C315.886 355.579 315.762 355.646 315.679 355.757C315.021 356.202 314.512 356.877 314.193 357.615C313.598 358.996 313.519 360.482 313.239 361.943C313.096 362.684 312.902 363.425 312.529 364.09C312.198 364.682 311.734 365.182 311.215 365.614C310.191 366.47 308.975 367.059 307.877 367.807C306.665 368.634 305.628 369.671 305.036 371.039C304.727 371.752 304.537 372.49 304.467 373.264C304.387 374.167 304.527 375.068 304.626 375.965C304.826 377.725 304.587 379.389 304.091 381.081C303.607 382.736 302.869 384.355 302.592 386.064Z" fill="#1CA79F"/>
<path d="M320.687 312.417C318.11 309.923 314.171 311.908 311.129 312.169C306.993 312.525 303.881 309.07 301.303 306.298C299.697 304.571 298.618 302.77 298.147 300.444C297.765 298.551 297.425 296.74 296.588 294.981C295.089 291.827 292.693 289.225 290.724 286.371C289.712 284.904 288.789 283.354 288.236 281.652C287.602 279.705 287.793 277.652 287.284 275.692C286.785 273.764 285.439 272.278 284.106 270.865C282.441 269.106 280.777 267.346 279.11 265.587C277.704 264.101 276.348 262.497 274.118 262.567C272.059 262.631 270.233 263.824 268.451 264.721C264.451 266.735 260.032 268.059 255.536 268.161C251.472 268.256 247.387 267.289 243.9 265.173C242.239 264.168 240.746 262.901 239.506 261.409C238.309 259.971 237.336 258.323 235.904 257.091C232.483 254.148 228.124 255.437 224.341 256.859C219.998 258.494 215.597 259.672 210.948 259.968C208.801 260.104 206.659 259.907 204.515 260.006C202.981 260.076 201.288 260.375 200.184 261.539C198.991 262.796 199.032 264.508 198.95 266.124C198.908 266.952 198.826 267.874 198.224 268.504C197.613 269.144 196.656 269.313 195.851 269.586C194.011 270.207 193.063 271.422 192.366 273.188C191.72 274.824 191.04 276.332 190.002 277.767C188.007 280.526 185.417 282.788 183.365 285.502C181.154 288.426 179.903 291.78 180.473 295.48C181.134 299.779 183.696 303.511 186.108 307.018C187.47 308.997 188.831 310.976 190.193 312.955C191.469 314.81 192.659 316.805 194.171 318.479C196.881 321.479 200.7 321.702 204.461 321.107C206.462 320.792 208.428 320.292 210.436 320.006C212.695 319.685 214.986 319.739 217.233 320.127C221.659 320.89 225.805 322.739 229.788 324.753C231.589 325.663 233.835 326.506 235.2 328.05C235.875 328.813 236.247 329.819 236.263 330.837C236.282 332.027 235.71 333.045 235.325 334.136C233.845 338.298 237.122 342.241 239.178 345.578C241.303 349.031 243.696 353.014 243.346 357.237C243.168 359.394 242.035 361.106 241.116 363.002C240.186 364.918 239.871 366.96 240.136 369.073C240.409 371.272 241.16 373.369 242 375.408C242.955 377.728 243.963 380.028 244.946 382.338C246.862 386.834 248.777 391.33 250.693 395.823C251.651 398.073 252.608 400.319 253.566 402.569C254.043 403.692 254.524 404.818 255.001 405.941C255.418 406.918 255.765 408.016 256.385 408.891C257.537 410.52 259.453 410.466 261.228 410.135C263.083 409.788 264.897 409.225 266.634 408.48C270.14 406.982 273.332 404.77 275.941 401.983C277.223 400.615 278.346 399.11 279.323 397.513C279.807 396.723 280.265 395.909 280.85 395.19C281.544 394.337 282.4 393.771 283.361 393.259C285.133 392.32 286.54 391.368 287.431 389.51C288.318 387.655 288.932 385.648 289.572 383.697C290.822 379.888 291.981 376 294.011 372.516C295.051 370.731 296.362 369.223 297.73 367.692C299.108 366.149 300.336 364.51 300.896 362.487C301.994 358.522 300.696 354.402 300.253 350.443C299.888 347.208 300.269 344.115 301.679 341.162C302.929 338.547 304.727 336.243 306.636 334.079C310.563 329.625 315.297 325.676 318.361 320.525C319.765 318.167 320.792 315.574 321.133 312.84C321.155 312.564 320.894 312.389 320.687 312.417Z" fill="#1CA79F"/>
<path d="M109.818 53.58C109.668 54.9864 109.843 56.5518 109.242 57.8723C108.631 59.215 107.161 59.6351 105.996 60.3573C103.476 61.9196 103.244 64.7164 103.072 67.4146C102.974 68.9483 102.732 70.3738 102.219 71.8279C101.678 73.3583 101.001 74.857 100.759 76.4765C100.323 79.407 101.494 82.1307 103.397 84.3103C107.492 89.0035 113.932 90.0503 118.59 93.9386C121.113 96.0449 122.612 98.9532 124.034 101.855C125.609 105.075 127.184 108.301 128.486 111.642C129.742 114.869 130.77 118.223 131.203 121.665C131.422 123.396 131.349 125.143 131.537 126.874C131.715 128.497 132.329 129.827 133.265 131.147C134.156 132.41 135.043 133.607 135.432 135.131C135.807 136.61 135.743 138.179 135.527 139.678C135.082 142.767 134.067 145.761 133.872 148.892C133.659 152.31 134.865 155.45 136.243 158.514C137.77 161.909 139.323 165.295 140.863 168.687C141.636 170.389 142.413 172.094 143.183 173.797C143.797 175.152 144.366 176.552 145.327 177.704C146.151 178.694 147.332 179.413 148.659 179.314C149.982 179.215 151.093 178.369 151.844 177.319C153.75 174.649 152.811 171.172 153.584 168.168C154.297 165.416 156.018 163.074 158.064 161.149C162.49 156.984 168.287 154.916 173.375 151.75C175.879 150.191 178.237 148.342 180.028 145.978C180.967 144.743 181.747 143.4 182.606 142.109C183.516 140.737 184.55 139.544 185.823 138.497C187.054 137.485 188.333 136.547 189.335 135.29C190.15 134.265 190.789 133.139 191.283 131.93C192.275 129.489 192.654 126.861 192.937 124.258C193.236 121.503 193.405 118.728 193.959 116.008C194.235 114.656 194.605 113.316 195.145 112.047C195.75 110.627 196.533 109.294 197.3 107.961C198.811 105.326 200.284 102.574 200.31 99.4591C200.332 96.5286 199.205 93.754 198.136 91.0812C197.214 88.768 196.208 86.3754 195.906 83.8808C196.262 84.0399 196.794 83.8617 196.813 83.343C196.949 79.4707 197.096 75.5984 197.236 71.7293C197.303 69.8393 197.373 67.946 197.443 66.056C197.503 64.3632 197.579 62.61 196.934 61.0064C195.81 58.2318 193.259 56.0459 190.729 54.5599C188.126 53.0295 185.199 52.0686 182.259 51.4291C175.405 49.94 167.992 50.3377 161.45 47.5599C159.957 46.9267 158.554 46.0994 157.342 45.0176C156.254 44.0471 155.223 42.978 153.81 42.4944C152.19 41.9407 150.437 42.3512 148.799 42.5803C146.921 42.8412 145.034 43.0321 143.144 43.1498C139.418 43.3821 135.705 43.2835 131.986 43.0289C128.416 42.7839 124.823 42.5421 121.279 43.169C120.655 43.2771 120.031 43.433 119.414 43.6176C116.837 45.2753 114.298 46.984 111.781 48.7245C110.753 50.1149 110.015 51.725 109.818 53.58Z" fill="#1CA79F"/>
<path d="M173.034 353.088C172.954 354.987 171.965 356.731 170.816 358.236C169.588 359.859 168.083 361.325 167.37 363.305C166.658 365.363 166.775 367.581 166.54 369.719C165.709 376.411 161.945 383.42 155.413 385.915C153.472 386.628 151.334 386.745 149.552 387.776C147.888 388.727 146.819 390.43 146.068 392.132C144.483 395.537 143.535 399.142 141.314 402.231C140.286 403.615 139.096 404.885 137.63 405.795C135.768 406.982 133.589 407.497 131.609 408.449C130.817 408.885 129.987 409.4 129.354 410.071C128.682 410.746 128.167 411.576 128.046 412.486C127.769 414.507 129.312 416.247 129.312 418.268C129.35 419.97 128.202 421.198 126.897 422.15C125.195 423.378 123.333 424.447 121.669 425.713C119.926 427.059 118.265 428.485 116.68 430.031C115.175 431.536 113.591 433.121 113.037 435.218C112.563 436.92 112.639 438.743 111.888 440.366C111.176 441.909 109.712 442.663 108.522 443.812C107.968 444.365 107.532 445.078 107.847 445.912C108.162 446.704 108.796 447.337 108.955 448.209C109.273 449.596 108.598 450.783 107.806 451.891C107.688 451.811 107.609 451.731 107.491 451.652C105.235 450.029 103.056 448.365 100.879 446.663C100.205 446.147 99.5332 445.635 98.8586 445.078C97.0354 443.653 95.295 442.186 93.5513 440.722C93.1949 440.445 92.8767 440.168 92.5617 439.892V439.854C93.354 432.885 94.0286 425.876 95.0977 418.942C95.454 416.804 95.89 414.704 96.485 412.646C96.8413 411.3 97.2773 409.992 97.7132 408.684C98.3082 407.02 98.8205 405.318 99.1387 403.577C99.495 401.757 99.6542 399.893 99.7719 398.034C100.011 394.391 100.246 390.707 100.485 387.063C100.602 385.32 100.761 383.538 100.841 381.797C100.882 380.213 100.841 378.59 100.287 377.123C99.2564 374.272 96.3673 373.082 93.9522 371.698C92.7654 370.986 91.6168 370.193 90.6654 369.162C89.6345 368.014 88.804 366.668 87.9735 365.36C85.9944 362.191 84.0121 358.984 82.033 355.776C81.0435 354.192 80.0539 352.569 79.0612 350.984C78.2689 349.677 77.2412 348.293 77.3589 346.667C77.4766 345.12 78.587 343.895 78.6252 342.349C78.6634 340.764 78.0716 339.259 78.6635 337.716C79.2171 336.37 80.3658 335.381 81.1994 334.191C82.1508 332.924 82.9017 331.457 83.4171 329.914C83.9326 328.33 84.1299 326.707 84.1712 325.043C84.1712 324.686 84.1712 324.33 84.2094 323.974C83.0225 323.935 81.8326 323.815 80.6457 323.617C76.6048 322.943 72.6847 321.282 69.3979 318.905C67.7751 317.718 66.3083 316.369 65.0006 314.864C63.5751 313.2 62.4647 311.3 61.001 309.678C57.7142 305.993 53.0813 306.349 48.5663 306.311C44.0512 306.232 39.5776 305.28 35.4571 303.422C33.3984 302.512 31.378 301.402 29.6343 299.976C27.9702 298.63 26.9011 296.928 26.1088 294.987C25.3579 292.967 24.6833 290.987 23.3756 289.285C22.2269 287.701 20.8014 286.393 19.2964 285.168C16.4073 282.832 13.1969 280.812 10.6227 278.04C9.23546 276.497 8.20772 274.754 7.13862 272.934C6.7027 272.141 6.18725 271.429 5.67179 270.716C5.63361 270.716 5.63363 270.678 5.63363 270.678C5.51272 269.29 5.35681 267.944 5.27726 266.56C5.11817 265.135 5.0386 263.709 4.95906 262.243C4.87951 261.212 4.79993 260.222 4.76174 259.233C4.64402 257.292 4.52309 255.392 4.4849 253.451C4.40536 251.51 4.36722 249.611 4.32585 247.67C4.04903 229.454 6.02816 211.753 9.91002 194.724C10.7818 190.921 11.73 187.16 12.8023 183.399C12.9996 182.846 13.1586 182.289 13.3177 181.735C13.7536 180.151 14.2277 178.569 14.7432 177.023C15.3764 175.082 16.0096 173.141 16.6842 171.242C17.3174 169.301 18.0301 167.401 18.7428 165.498C20.881 159.835 23.2579 154.212 25.832 148.749C28.5652 148.036 31.1775 147.047 34.0698 147.441C36.0107 147.718 37.8721 148.351 39.7716 148.708C41.8303 149.144 43.9303 149.261 46.0685 149.144C48.089 149.026 50.1095 148.67 52.0472 148.033C53.5904 147.559 55.4137 146.41 57.0364 146.964C58.3442 147.438 59.095 148.746 59.7282 149.856C60.7591 151.718 61.7487 153.579 62.7764 155.399C63.5687 156.904 64.4406 158.447 64.5996 160.191C64.7587 161.658 64.2019 162.924 63.3332 164.073C61.3128 166.727 58.621 168.865 56.7596 171.678C55.6905 173.262 54.8982 175.123 54.8982 177.061C54.8982 178.21 55.2546 179.12 55.6905 180.189C55.8878 180.704 56.0086 181.258 55.8877 181.812C55.5313 183.396 54.0264 184.306 53.8673 185.97C53.7082 187.593 54.5004 189.219 55.8877 190.049C56.7182 190.485 57.6314 190.724 58.4619 191.157C59.0569 191.513 59.6105 191.949 60.0846 192.423C61.195 193.492 62.1051 194.8 63.2123 195.828C65.6687 198.046 69.5092 197.571 71.6474 200.184C72.7547 201.491 73.3116 203.471 75.0139 204.225C77.1521 205.214 77.5498 202.879 78.5775 201.692C79.6085 200.464 80.9926 200.9 82.3799 200.741C84.4003 200.543 84.7948 198.246 84.6771 196.582C84.518 194.959 84.044 193.295 84.5181 191.672C84.7567 190.8 85.3485 190.167 85.7081 189.337C86.1026 188.427 85.7876 187.437 85.9054 186.486C86.2617 183.594 89.0331 181.576 91.3304 180.151C92.5172 179.397 93.6276 179.359 94.6586 180.389C95.3713 181.144 96.0045 181.656 96.9941 182.012C97.6686 182.289 98.34 182.486 99.0146 182.804C101.668 184.192 102.104 187.479 104.201 189.378C105.509 190.565 106.972 191.119 107.803 192.783C108.557 194.208 108.792 195.793 109.27 197.336C110.301 200.9 112.951 203.436 115.605 205.889C118.099 208.186 120.635 210.563 121.902 213.77C123.368 217.372 122.14 221.018 121.23 224.582C120.874 226.087 120.677 227.91 119.487 228.976C118.179 230.125 116.318 230.72 114.816 231.592C113.034 232.581 111.252 233.889 110.577 235.91C110.024 237.376 110.854 239.158 109.944 240.504C109.626 241.058 109.114 241.456 108.598 241.812C107.886 242.407 107.332 242.999 106.816 243.791C106.104 244.94 105.47 246.088 104.163 246.683C102.184 247.593 99.7273 247.078 98.3018 245.455C98.2223 245.497 98.1841 245.497 98.1427 245.497C96.9559 245.576 95.7659 246.171 94.8177 246.842C93.6309 247.714 92.7177 248.901 92.164 250.247C91.5308 251.714 91.6899 253.219 91.4513 254.762C91.254 256.188 90.5413 257.059 89.6281 258.128C88.3203 259.675 89.1921 261.138 88.9949 262.92C88.4794 267.159 83.0926 268.384 80.6776 271.276C78.6985 273.611 79.6084 276.424 80.5598 279.036C81.0339 280.344 81.5494 281.69 81.7467 283.074C81.8644 284.105 81.9853 285.451 81.2725 286.281C79.5289 288.261 76.363 284.541 75.3734 283.313C73.4739 281.015 72.0483 278.244 69.6301 276.345C68.4019 275.355 66.9383 274.563 65.3156 274.563C63.5719 274.524 62.1083 275.552 60.4441 275.829C57.1955 276.345 54.0295 274.525 50.94 276.265C48.1272 277.85 46.584 280.86 45.9508 283.949C45.5945 285.731 45.4767 287.592 45.3972 289.412C45.3176 291.153 45.1999 292.896 45.3972 294.599C45.5944 296.263 46.1895 297.924 47.4177 299.072C48.4868 300.103 50.1509 300.775 51.535 299.944C52.5659 299.311 53.2786 298.163 54.1091 297.253C54.8218 296.46 55.6523 295.827 56.6832 295.471C58.6241 294.72 61.4751 294.599 63.2951 295.789C65.3537 297.097 63.8106 299.314 63.5719 301.096C63.4128 302.324 64.8797 303.273 65.5511 304.144C66.3815 305.213 66.6997 306.559 67.3329 307.746C68.9174 310.597 71.3325 312.894 73.6298 315.15C75.9653 317.368 78.6189 319.825 82.0266 320.06C83.0957 320.14 84.203 320.019 85.1957 320.416C86.303 318.517 88.244 317.209 90.185 316.299C92.6 315.15 95.2918 314.358 97.9073 313.884C100.599 313.407 103.53 313.407 105.827 315.112C106.024 315.23 106.066 315.469 105.986 315.666C107.73 315.586 109.432 315.071 111.134 314.635C112.996 314.161 114.895 313.725 116.836 314.081C118.736 314.438 120.282 315.666 121.587 317.053C124.199 319.707 126.576 322.873 130.022 324.537C131.883 325.409 133.862 325.367 135.883 325.803C137.585 326.16 138.893 327.031 139.92 328.419C140.872 329.726 141.467 331.231 142.256 332.616C143.245 334.397 144.474 335.546 146.335 336.456C150.612 338.477 155.009 340.297 159.323 342.238C163.243 343.981 167.163 345.801 170.53 348.496C172.003 349.68 173.114 351.105 173.034 353.088Z" fill="#1CA79F"/>
<path d="M67.7151 115.575C67.5719 115.48 67.3873 115.435 67.1741 115.486C66.4773 115.655 65.7869 115.858 65.1059 116.084C64.005 116.453 62.8309 116.873 61.9241 117.621C60.8263 118.528 60.0246 119.864 58.5705 120.265C57.7114 120.501 56.8268 120.202 55.9613 120.154C55.1881 120.109 54.3895 120.303 53.785 120.806C53.1009 121.373 52.9226 122.273 53.2154 123.094C53.4476 123.746 53.9058 124.399 53.9408 125.038C53.9694 125.573 53.8263 126.11 53.6036 126.613C53.3299 127.224 52.9767 127.797 52.6267 128.366C51.8949 129.56 51.0995 130.807 50.9181 132.226C50.7272 133.725 51.3031 135.214 52.3341 136.302C52.8559 136.852 53.5018 137.272 54.2081 137.543C55.0163 137.851 55.8881 137.871 56.7409 137.778C57.6318 137.683 58.5355 137.489 59.4359 137.587C59.9768 137.645 60.5973 137.839 61.1064 138.074C63.601 139.232 65.4655 141.466 68.1415 142.287C69.7133 142.771 71.3519 142.561 72.9015 142.112C74.4511 141.663 75.9528 140.986 77.5565 140.731C79.0011 140.502 80.4075 140.772 81.6262 141.584C82.7557 142.331 83.5862 143.487 83.9171 144.801C84.1462 145.704 84.3402 146.506 84.9639 147.228C85.4698 147.817 86.1444 148.256 86.5898 148.899C87.4521 150.143 87.5635 151.715 87.4648 153.182C87.3376 155.078 86.7998 156.927 86.7743 158.836C86.7521 160.557 87.2262 162.199 88.1171 163.666C88.9666 165.066 90.1154 166.272 91.3117 167.379C91.8972 167.92 92.4986 168.445 93.1063 168.96C93.7458 169.504 94.4108 170.042 95.1553 170.434C96.7494 171.27 98.4645 171.184 100.033 170.341C101.484 169.559 102.735 168.311 103.826 167.093C104.936 165.855 105.935 164.315 105.675 162.578C105.541 161.69 105.067 160.929 104.8 160.083C104.605 159.456 104.539 158.887 104.545 158.222C104.567 155.447 105.859 152.793 105.996 149.997C106.063 148.638 105.786 147.241 105.003 146.112C104.052 144.743 102.585 143.957 101.265 143.009C99.0118 141.39 97.8154 138.838 96.8068 136.33C95.7345 133.658 94.7831 130.874 92.9471 128.602C91.1526 126.381 88.5721 125.108 85.998 124.007C83.5225 122.948 80.8466 121.971 78.8707 120.109C78.3552 119.623 77.9257 119.088 77.5247 118.506C77.0443 117.809 76.5574 117.118 75.886 116.593C74.6515 115.636 73.1433 115.27 71.6065 115.203C70.2892 115.146 69.0005 115.321 67.7151 115.575Z" fill="#1CA79F"/>
<path d="M200.048 33.983L199.826 33.9575C199.826 33.9575 199.956 34.1293 200.048 33.983Z" fill="#1CA79F"/>
<path d="M200.678 165.699C201.578 166.205 202.612 166.463 203.646 166.354C204.852 166.227 205.975 165.731 207.009 165.117C208.861 164.016 210.544 162.504 211.337 160.459C211.744 159.412 211.862 158.266 211.664 157.159C211.464 156.045 210.847 155.062 210.058 154.267C208.381 152.571 206.176 151.702 203.853 151.352C202.634 151.168 201.406 151.047 200.21 150.732C199.058 150.429 197.932 150.028 196.761 149.803C194.947 149.456 192.809 149.65 191.469 151.075C191.447 151.097 191.434 151.126 191.415 151.148C191.282 151.098 191.135 151.094 191.008 151.193C190.018 151.944 189.15 152.886 188.303 153.793C187.568 154.582 186.814 155.527 186.63 156.621C186.461 157.633 186.801 158.648 187.584 159.319C188.284 159.921 189.175 160.248 190.066 160.452C192.185 160.939 194.441 160.977 196.325 162.193C197.893 163.211 199.032 164.779 200.678 165.699Z" fill="#1CA79F"/>
<path d="M499.859 244.621V246.324C499.264 246.244 498.79 245.729 498.63 245.137C498.392 244.227 498.828 243.276 498.513 242.366C498.236 241.494 497.641 240.743 497.8 239.83C497.959 238.999 498.592 238.404 499.225 237.968C499.343 237.889 499.461 237.809 499.62 237.73C499.7 240.027 499.821 242.324 499.859 244.621Z" fill="#1CA79F"/>
<path d="M87.3635 300.823C87.4749 301.469 87.7804 302.083 88.3372 302.458C88.929 302.856 89.6673 302.849 90.3482 302.757C91.0895 302.655 91.8023 302.503 92.5596 302.582C93.3264 302.665 94.0741 302.904 94.8219 303.094C95.6364 303.301 96.4828 303.48 97.3259 303.413C98.2837 303.34 99.181 303.002 100.081 302.69C101.914 302.057 103.804 301.777 105.742 301.885C105.891 301.895 106.044 301.79 106.117 301.663C106.951 300.145 104.227 299.448 103.321 299.095C101.679 298.452 100.05 297.749 98.3855 297.173C97.6187 296.906 96.8741 296.855 96.0755 296.982C95.3405 297.097 94.5864 297.345 93.8355 297.224C93.5714 297.183 93.3072 297.103 93.0845 296.954C92.7854 296.75 92.6709 296.454 92.5754 296.117C92.4068 295.534 92.1905 295.035 91.7068 294.65C90.9686 294.058 89.9759 293.893 89.2472 293.304C88.8272 292.963 88.9036 292.613 88.9641 292.114C89.0373 291.484 88.7795 290.946 88.2513 290.603C87.72 290.256 87.0549 290.179 86.4377 290.259C85.6867 290.358 84.8754 290.653 84.1372 290.354C82.9949 289.896 82.2599 288.69 80.9108 288.744C80.0103 288.779 79.1926 289.257 78.2921 289.346C77.3567 289.435 76.4085 289.381 75.4698 289.448C74.2607 289.537 72.9116 289.918 72.218 290.962C72.1384 290.937 72.0493 290.937 71.9698 291.003C71.3461 291.532 70.7257 292.06 70.0861 292.575C69.4306 293.103 68.737 293.571 68.0752 294.083C67.8843 294.233 67.8524 294.453 68.0115 294.64C68.8897 295.678 70.398 295 71.5307 295.038C72.8639 295.079 73.8821 296.212 75.1484 296.518C76.7266 296.896 78.0344 295.786 79.4121 295.223C80.8917 294.621 82.4762 294.325 84.0576 294.65C85.2126 294.889 86.4217 295.506 87.0645 296.537C87.8758 297.86 87.1217 299.388 87.3635 300.823Z" fill="#1CA79F"/>
<path d="M474.91 353.562C472.969 357.444 470.948 361.284 468.81 365.045C466.71 368.73 464.534 372.332 462.275 375.895C461.126 377.719 459.977 379.5 458.791 381.282C457.601 383.026 456.376 384.808 455.147 386.548C453.525 388.804 451.86 391.063 450.196 393.281C449.286 394.468 448.373 395.658 447.463 396.806C447.425 396.768 447.384 396.689 447.345 396.609C446.276 394.748 446.238 392.53 446.474 390.43C446.75 388.25 447.304 386.074 447.384 383.894C447.384 382.784 447.304 381.715 446.989 380.687C446.671 379.736 446.159 378.947 445.602 378.113C444.612 376.57 443.74 374.906 444.294 373.044C444.809 371.342 446.155 370.034 447.581 369.083C450.591 367.104 454.829 366.706 456.888 363.458C457.76 362.073 458.355 360.33 459.936 359.576C460.808 359.14 461.877 359.14 462.669 358.545C463.264 358.071 463.621 357.396 463.977 356.725C464.651 355.379 465.285 353.874 466.748 353.279C468.648 352.525 470.551 353.597 472.412 353.874C473.166 353.991 473.997 353.953 474.709 353.676C474.792 353.641 474.83 353.603 474.91 353.562Z" fill="#1CA79F"/>
<path d="M469.208 299.839C468.826 300.374 468.819 301.058 468.679 301.672C468.549 302.242 468.247 302.678 467.814 303.056C466.983 303.782 465.943 304.227 465.256 305.121C464.518 306.085 464.187 307.371 463.172 308.109C462.255 308.774 461.103 308.994 460.034 309.299C458.978 309.601 457.753 310.012 457.072 310.931C456.668 311.479 456.681 312.109 456.585 312.751C456.49 313.385 456.27 313.995 456.047 314.594C455.621 315.736 455.128 316.929 455.379 318.173C455.627 319.405 456.636 320.232 457.629 320.891C458.768 321.648 459.948 322.402 461.253 322.838C463.286 323.519 465.568 323.35 467.534 322.529C469.507 321.705 471.234 320.248 472.186 318.313C473.198 316.258 473.411 313.945 474.041 311.768C474.34 310.74 474.741 309.71 475.415 308.866C475.778 308.411 476.287 308.08 476.631 307.616C476.946 307.189 477.013 306.658 476.822 306.162C476.408 305.083 475.291 304.459 474.929 303.349C474.534 302.143 474.559 300.813 473.446 299.979C472.981 299.633 472.415 299.486 471.855 299.68C471.715 299.728 471.645 299.83 471.616 299.944L471.269 299.846C471.279 299.817 471.285 299.785 471.269 299.747C470.884 298.837 469.675 299.19 469.208 299.839Z" fill="#1CA79F"/>
<path d="M494.274 298.993C494.039 300.103 493.759 301.172 493.523 302.28C493.405 302.321 493.326 302.359 493.246 302.397C492.416 302.636 491.503 302.515 490.752 302.082C489.8 301.529 489.167 300.615 488.493 299.785C487.78 298.951 486.949 298.318 486.036 297.764C485.126 297.249 484.175 296.813 483.303 296.221C482.431 295.626 481.639 294.875 481.047 293.965C480.452 292.976 480.058 291.907 479.66 290.838C479.224 289.571 478.788 288.343 478.352 287.077C477.957 285.89 477.48 284.7 477.601 283.433C477.719 282.205 478.272 281.057 478.829 279.988C479.303 278.998 479.819 277.967 480.611 277.175C481.206 276.58 481.998 276.144 482.908 276.185C483.663 276.185 484.413 276.583 484.573 277.372C484.652 277.649 484.455 277.846 484.216 277.888V278.206C484.296 278.206 484.334 278.247 484.334 278.323C484.137 278.839 483.977 279.313 483.818 279.828C483.542 280.818 483.344 282.005 483.898 282.918C484.175 283.433 484.649 283.748 485.126 284.067C485.642 284.343 486.195 284.662 486.711 284.977C488.534 286.125 490.513 287.907 490.077 290.284C489.959 290.917 489.721 291.471 489.959 292.104C490.198 292.658 490.634 293.214 490.949 293.727C491.703 294.875 492.416 296.024 493.167 297.173C493.523 297.726 493.959 298.36 494.274 298.993Z" fill="#1CA79F"/>
<path d="M498.751 224.067C496.575 227.039 494 229.769 491.544 232.184C490.039 233.609 488.576 235.156 486.794 236.225C485.13 237.176 483.545 237.335 481.687 237.294C478.836 237.256 477.092 238.325 477.092 241.293C477.054 243.075 477.608 244.857 478.241 246.521C479.351 249.413 480.42 251.946 479.746 255.153C479.272 257.568 477.725 259.35 475.113 259.035C474.836 258.997 474.639 258.679 474.639 258.44C475.075 252.777 470.363 247.708 464.74 247.67C462.484 255.233 465.927 263.035 464.463 270.716C463.432 276.259 459.554 280.379 454.762 283.071C452.385 284.417 449.811 285.448 447.199 286.32C445.732 286.794 444.227 287.23 442.763 287.628C441.179 288.022 439.674 288.181 438.881 289.727C438.169 291.115 438.051 292.976 438.563 294.44C439.117 295.903 440.463 296.896 441.494 298.003C443.158 299.865 443.594 301.647 442.68 304.024C442.442 304.577 442.283 305.134 442.127 305.646C442.206 305.726 442.245 305.805 442.324 305.882C444.265 308.217 447.116 310.95 446.68 314.317C446.6 314.673 446.559 315.109 446.244 315.348C445.926 315.545 445.531 315.507 445.255 315.31C444.86 315.071 444.504 314.715 444.144 314.438C443.788 314.161 443.431 313.846 443.075 313.566C442.244 312.891 441.411 312.22 440.58 311.545C440.304 312.14 439.985 312.694 439.549 313.248C439.47 313.289 439.432 313.365 439.39 313.407C439.667 313.725 439.944 314.04 440.183 314.358C440.539 314.832 440.857 315.31 441.29 315.745C441.688 316.102 442.12 316.379 442.598 316.655C443.587 317.13 444.618 317.448 445.646 317.845C447.507 318.596 449.327 319.904 449.528 322.042C449.607 323.191 449.251 324.378 449.607 325.488C449.926 326.519 450.874 327.111 451.787 327.588C453.963 328.699 456.261 329.609 458.599 330.36C463.232 331.865 468.142 332.657 473.013 332.737C475.508 332.737 477.964 332.539 480.417 332.262C481.725 332.103 483.03 331.986 484.379 331.986C484.022 332.899 483.666 333.847 483.271 334.757C479.431 336.183 475.549 337.688 471.432 337.646C468.619 337.646 465.889 336.854 463.194 336.221C460.54 335.629 457.848 334.992 455.153 334.359C452.936 333.844 450.718 333.211 448.697 332.142C446.639 331.111 444.975 329.567 443.746 327.627C442.439 325.647 441.529 323.43 440.141 321.527C438.716 319.506 436.816 317.846 434.955 316.22C434.917 316.178 434.875 316.178 434.875 316.14C434.124 316.299 433.332 316.379 432.54 316.337C432.301 316.337 432.024 316.178 431.945 315.901C429.807 308.376 419.431 309.248 414.68 304.259C413.77 303.308 413.016 302.2 412.462 301.014C411.75 299.391 411.67 297.685 411.078 296.024C410.047 293.132 406.958 292.381 405.256 290.043C404.702 289.33 404.422 288.579 404.345 287.707C404.266 286.756 404.425 286.005 403.197 285.766C402.405 285.607 401.574 286.043 400.979 286.479C398.723 288.025 397.336 290.638 395.08 292.302C392.309 294.36 389.299 296.142 386.368 298.003C384.745 299.073 382.566 300.104 381.894 302.083C381.379 303.667 381.815 305.37 382.012 306.992C382.368 310.002 381.458 312.656 380.151 315.348C379.4 316.853 378.369 319.032 376.31 318.316C373.975 317.486 372.667 313.961 371.954 311.86C371.401 310.314 371.003 308.691 370.688 307.107C370.293 305.363 370.013 303.661 369.657 301.959C368.944 298.551 368.826 294.354 365.419 292.493C363.201 291.306 360.668 290.711 359.042 288.652C357.617 286.791 357.143 284.455 355.953 282.473C353.894 278.989 350.33 279.781 346.884 279.463C343.677 279.148 340.785 277.799 337.775 276.927C334.606 275.976 331.519 276.294 328.309 275.937C325.496 275.622 323.714 274.432 321.735 272.571C320.507 271.46 318.528 269.8 316.784 270.907C316.23 271.225 316.189 271.741 315.597 271.896C314.407 274.391 317.974 277.837 319.479 279.498C321.223 281.401 323.24 283.221 325.735 283.972C329.496 285.12 334.606 283.812 335.595 288.961C336.467 293.278 332.942 296.603 329.893 299.018C325.735 302.305 320.943 304.8 315.874 306.384C312.864 307.336 308.626 308.8 306.37 305.713C304.706 303.454 303.678 300.326 302.488 297.793C301.378 295.458 300.27 293.119 299.16 290.784C296.707 285.636 294.288 280.487 291.835 275.339C290.804 273.121 289.5 270.865 289.064 268.447C288.628 266.112 289.223 263.773 288.59 261.438C288.195 259.815 287.361 258.189 286.175 256.964C284.749 255.497 283.441 255.341 281.421 255.698C279.798 256.016 278.293 256.293 276.629 256.054C273.104 255.618 269.699 253.601 267.758 250.591C266.648 248.888 266.215 246.671 264.789 245.166C263.046 243.304 260.828 244.373 258.928 245.404C256.078 246.909 253.621 247.94 250.891 245.602C248.871 243.858 247.286 242.751 244.594 242.394C241.982 242.038 239.287 242.117 236.633 242C233.862 241.92 231.129 241.841 228.357 241.761C226.022 241.682 223.486 241.367 221.386 242.592C215.961 245.681 214.694 254.985 207.09 254.037C203.921 253.642 199.485 252.096 197.506 249.442C196.558 248.134 196.399 246.709 196.676 245.166C196.952 243.899 197.309 242.986 196.952 241.602C196.714 240.81 196.278 240.059 196.042 239.225C194.735 235.028 199.686 235.226 202.498 234.949C204.678 234.71 211.964 235.066 210.262 231.188C209.39 229.247 206.975 228.416 205.944 226.517C205.827 226.278 205.865 225.842 206.183 225.686C207.449 225.133 208.321 224.299 208.993 223.192C207.885 222.915 206.695 222.479 206.183 221.451C205.706 220.538 205.865 219.272 206.737 218.68C207.927 217.888 209.785 218.164 211.134 218.126C213.867 218.047 216.123 216.86 218.42 215.514C222.935 212.822 226.817 209.217 231.329 206.563C233.388 205.335 235.647 204.346 238.02 203.989C240.633 203.633 242.972 204.584 245.546 204.584C248.199 204.543 249.587 202.446 251.922 201.654C254.06 200.941 256.358 201.772 258.496 201.18C261.111 200.467 262.931 197.931 264.675 195.993C266.339 194.17 268.041 192.388 269.626 190.527C270.615 189.337 271.646 187.991 272.003 186.448C272.477 184.586 271.252 183.835 269.667 183.4C267.844 182.884 265.983 182.805 264.201 182.133C261.309 181.026 259.371 178.172 259.488 175.044C259.527 173.342 260.36 171.875 260.755 170.252C260.873 169.778 261.073 169.103 260.952 168.629C260.437 166.135 258.181 168.948 257.824 169.698C256.994 171.439 256.873 173.459 255.568 174.964C254.42 176.272 252.718 176.788 251.213 177.618C246.777 180.033 249.192 184.984 247.728 188.866C246.857 191.122 244.006 194.211 241.393 192.312C240.362 191.558 239.532 190.253 238.701 189.302C237.871 188.351 236.999 187.402 236.166 186.41C234.422 184.51 232.72 182.569 231.017 180.628C228.758 178.054 224.405 174.449 225.907 170.491C226.661 168.47 228.561 166.688 229.907 165.024C231.491 163.045 233.114 161.063 234.699 159.084C238.183 154.807 241.629 150.49 245.075 146.213C248.043 142.529 250.856 138.411 254.776 135.64C257.942 133.384 261.706 132.274 265.585 132.115C274.179 131.72 282.573 135.242 290.177 138.847C290.375 138.927 290.534 139.165 290.534 139.401C290.337 142.172 290.177 144.906 289.98 147.677C289.862 149.261 289.742 149.777 291.523 150.133C292.79 150.372 294.059 150.292 295.284 149.974C300.114 148.864 303.401 144.944 307.044 141.934C310.57 139.045 314.293 137.619 318.805 137.062C324.112 136.388 329.378 135.872 334.644 134.883C340.031 133.852 345.297 132.506 350.524 130.883C355.593 129.299 360.347 127.634 364.225 123.873C367.55 120.666 370.64 117.182 373.968 113.975C380.106 108.034 386.877 102.45 394.8 99.2046C403.671 95.52 412.777 96.0768 421.887 98.4123C424.897 99.1632 427.907 99.9969 430.876 100.907C437.924 103.007 444.854 105.46 451.704 108.076C455.704 109.581 459.665 111.245 463.585 112.906C482.95 145.459 495.226 183.279 498.751 224.067Z" fill="#1CA79F"/>
<path opacity="0.41" d="M168.938 140.136C191.183 114.707 259.561 100.178 264.276 81.3289C266.313 63.7842 244.542 58.9891 230.733 61.1496C164.08 63.2592 82.2361 92.5004 68.8055 165.607C65.0923 187.682 72.1338 235.216 100.891 238.49C136.506 242.34 123.027 173.335 168.938 140.136Z" fill="#EDEBCD"/>
<path opacity="0.65" d="M499.867 244.618V246.305C500.026 264.377 498.085 282.005 494.267 298.996C494.044 300.078 493.758 301.16 493.535 302.273C491.149 312.423 488.062 322.319 484.371 331.96C484.021 332.883 483.671 333.837 483.258 334.76C480.776 341.156 477.976 347.424 474.89 353.565C472.98 357.447 470.944 361.297 468.812 365.051C466.712 368.742 464.549 372.338 462.258 375.901C461.144 377.715 459.998 379.497 458.789 381.279C457.612 383.029 456.371 384.811 455.13 386.561C453.539 388.788 451.853 391.079 450.198 393.274C449.594 394.07 448.989 394.865 448.385 395.629C448.257 395.82 448.098 396.011 447.939 396.17C397.284 458.852 316.433 497.512 236.346 495.889C235.678 495.889 235.01 495.857 234.373 495.825C186.9 493.821 143.659 477.848 107.799 451.884C107.672 451.82 107.608 451.725 107.513 451.661C105.222 450.038 103.058 448.384 100.895 446.666C100.195 446.157 99.5265 445.616 98.8583 445.075C97.0447 443.643 95.2947 442.179 93.5447 440.716C93.1947 440.461 92.8765 440.175 92.5583 439.888V439.857C91.2856 438.775 90.0446 437.693 88.8037 436.579C80.1172 428.816 71.9717 420.447 64.4944 411.506C59.0534 405.015 53.8988 398.27 49.126 391.238C322.129 346.66 362.093 103.312 367.852 24.7204C367.884 24.3385 367.916 23.9249 367.948 23.5431C394.675 36.716 418.221 55.0116 437.726 77.2209C441.512 81.5164 445.107 85.971 448.544 90.5529C456.785 101.371 464.103 113.017 470.467 125.267C470.499 125.362 470.562 125.458 470.594 125.521C472.694 129.594 474.699 133.699 476.576 137.899C476.671 138.122 476.767 138.344 476.862 138.567C482.685 151.581 487.49 165.231 491.149 179.422C491.149 179.517 491.181 179.613 491.212 179.708C495.985 198.227 498.849 217.668 499.613 237.745C499.676 240.036 499.835 242.327 499.867 244.618Z" fill="#232323"/>
<path opacity="0.65" d="M499.868 244.618V246.305C500.027 264.378 498.086 282.005 494.268 298.996C494.045 300.078 493.759 301.16 493.536 302.273C491.15 312.424 488.063 322.319 484.372 331.96C484.022 332.883 483.672 333.837 483.259 334.76C480.777 341.156 477.977 347.424 474.89 353.565C472.981 357.447 470.945 361.297 468.813 365.051C466.713 368.742 464.549 372.338 462.258 375.901C461.145 377.715 459.999 379.497 458.79 381.279C457.613 383.029 456.372 384.811 455.131 386.561C453.54 388.788 451.854 391.079 450.199 393.274C449.595 394.07 448.99 394.865 448.385 395.629C448.322 395.724 448.258 395.788 448.195 395.884C397.539 458.725 316.561 497.512 236.347 495.889H236.22C231.033 495.73 225.879 495.348 220.788 494.839C380.707 467.507 450.74 241.373 475.113 134.717C475.59 135.767 476.068 136.817 476.577 137.899C476.672 138.122 476.768 138.344 476.863 138.567C482.686 151.581 487.49 165.231 491.15 179.422C491.15 179.518 491.181 179.613 491.213 179.708C495.986 198.227 498.85 217.668 499.613 237.746C499.677 240.036 499.836 242.327 499.868 244.618Z" fill="#232323"/>
<path d="M370.859 175.855C370.214 175.855 369.555 175.757 368.909 175.543C362.058 173.338 327.488 162.052 319.568 156.764C317.045 155.081 315.74 152.332 316.081 149.42C316.478 146.025 317.306 138.958 368.794 119.82C372.084 118.598 375.75 120.275 376.975 123.568C378.2 126.864 376.52 130.53 373.227 131.752C358.371 137.272 341.497 144.546 333.078 149.284C343.072 153.465 361.12 159.663 372.807 163.43C376.154 164.509 377.99 168.095 376.911 171.439C376.046 174.137 373.545 175.855 370.859 175.855Z" fill="#0F2B2A"/>
<path d="M142.058 171.769C139.532 171.769 137.139 170.252 136.146 167.763C134.842 164.502 136.433 160.795 139.694 159.491C150.776 155.058 167.796 147.874 177.272 143.117C168.337 138.888 150.506 132.614 134.858 127.971C131.485 126.975 129.566 123.431 130.565 120.064C131.561 116.692 135.109 114.767 138.472 115.772C192.284 131.732 193.63 138.678 194.275 142.016C194.826 144.851 193.763 147.651 191.428 149.5C184.122 155.294 150.983 168.686 144.416 171.311C143.643 171.62 142.844 171.769 142.058 171.769Z" fill="#0F2B2A"/>
<path d="M169.434 105.896C167.338 105.896 165.285 104.862 164.07 102.965C162.17 100.003 163.036 96.0702 165.995 94.1738C168.534 92.5447 191.106 78.2391 202.163 76.4891C205.606 75.9513 208.893 78.306 209.443 81.7806C209.994 85.252 207.623 88.5102 204.152 89.0606C197.791 90.0661 181.583 99.303 172.861 104.89C171.799 105.574 170.609 105.896 169.434 105.896Z" fill="#0F2B2A"/>
<path d="M339.251 105.896C338.076 105.896 336.886 105.571 335.824 104.893C327.102 99.306 310.894 90.0723 304.533 89.0637C301.062 88.5132 298.692 85.2549 299.242 81.7835C299.796 78.3089 303.089 75.9544 306.522 76.4921C317.582 78.2421 340.151 92.5478 342.69 94.1769C345.649 96.0733 346.508 100.006 344.615 102.968C343.403 104.862 341.347 105.896 339.251 105.896Z" fill="#0F2B2A"/>
<path d="M257.053 218.756C277.668 217.627 290.087 208.714 297.602 198.166C309.598 181.347 308.993 160.36 308.993 160.36L271.673 162.25L197.396 166.027C197.396 166.027 202.598 221.795 257.053 218.756Z" fill="#E0CCA0"/>
<path d="M257.053 218.756C277.668 217.627 290.087 208.714 297.602 198.166C297.519 197.746 293.364 177.23 271.673 162.25L197.396 166.027C197.396 166.027 202.598 221.795 257.053 218.756Z" fill="#F2EAD5"/>
<path d="M114.284 394.869C115.372 395.495 116.562 396.09 117.851 396.65C116.034 395.759 114.812 395.133 114.284 394.869Z" fill="#B54B57"/>
<path d="M246.337 416.947C246.337 416.947 72.7348 290.755 146.776 238.732C220.818 186.709 252.128 293.428 252.128 293.428C252.128 293.428 280.255 191.322 359.42 239.782C438.584 288.273 246.337 416.947 246.337 416.947Z" fill="#F2EAD5"/>
<path opacity="0.47" d="M252.128 293.428L246.337 416.947C246.337 416.947 72.7348 290.755 146.776 238.732C220.818 186.709 252.128 293.428 252.128 293.428Z" fill="#E0CCA0"/>
<path d="M230.896 342.206C232.449 350.819 115.786 409.425 101.872 409.317L82.7615 406.629L55.9799 420.737C50.7044 417.199 45.7566 413.546 41.3911 409.67C26.1818 396.278 17.6831 380.509 24.3841 359.493C28.5618 356.829 31.6769 354.974 31.6769 354.974C31.6769 354.974 20.2159 311.246 36.9556 292.699C46.8575 281.747 56.8962 270.611 62.0031 256.751C64.6822 249.553 66.3941 241.898 69.8528 235.028C73.3751 228.13 79.0705 221.814 86.5797 220.048C87.4515 219.835 88.3807 219.688 89.2589 219.956C91.0471 220.522 91.8744 222.504 92.3517 224.439C92.3739 224.63 92.428 224.824 92.4821 225.018C96.5676 246.308 93.0994 268.978 82.9302 288.041C82.9302 288.041 210.169 239.193 214.758 246.33C216.444 248.961 217.236 251.644 217.57 253.922C218.114 257.772 217.37 260.601 217.37 260.601C217.37 260.601 134.992 306.073 133.452 310.203C132.383 313.178 173.616 302.518 199.952 297.501C210.599 295.41 218.808 294.347 220.793 295.401C222.779 296.486 223.953 299.187 224.523 302.528C225.073 305.614 225.213 309.251 225.114 312.592C225.028 318.227 224.316 323.035 224.316 323.035C224.316 323.035 224.809 324.015 225.525 325.676C226.467 327.919 227.828 331.33 229.05 335.024C229.792 337.404 230.498 339.892 230.896 342.206Z" fill="#F3A080"/>
<path d="M230.895 342.205C232.448 350.819 115.785 409.425 101.871 409.317L82.7611 406.628L55.9795 420.737C50.704 417.199 45.7561 413.546 41.3906 409.67C51.8112 401.165 65.3373 389.052 72.0478 386.707C89.5512 380.556 108.019 377.543 125.964 372.751C143.91 367.959 161.833 361.064 175.601 348.582C184.001 340.965 190.499 331.279 194.648 320.715C197.305 313.963 197.616 304.965 199.958 297.497C210.605 295.407 218.814 294.344 220.799 295.397C222.785 296.482 223.959 299.184 224.528 302.525C225.079 305.611 225.219 309.248 225.12 312.589C225.034 318.224 224.322 323.032 224.322 323.032C224.322 323.032 224.815 324.012 225.531 325.673C226.473 327.916 227.834 331.327 229.056 335.021C229.791 337.404 230.498 339.892 230.895 342.205Z" fill="#F8BF92"/>
<path d="M225.118 312.576C222.839 313.467 220.504 314.348 218.114 315.166C204.162 319.99 190.989 322.713 181.393 324.148C172.385 325.485 166.492 325.809 165.792 325.832C166.409 325.523 171.713 322.936 180.008 319.347C188.883 315.507 201.107 310.466 214.837 305.735C218.149 304.596 221.388 303.536 224.532 302.525C225.099 305.601 225.226 309.229 225.118 312.576Z" fill="#B54B57"/>
<path d="M229.022 335.005C206.969 343.115 187.922 345.797 186.719 345.96C187.728 345.253 203.701 334.47 225.551 325.666C226.473 327.919 227.842 331.326 229.022 335.005Z" fill="#B54B57"/>
<path d="M264.719 345.843C262.593 354.332 375.065 420.619 388.96 421.443L408.207 420.04L433.984 435.908C439.482 432.729 444.665 429.417 449.282 425.841C465.354 413.498 474.889 398.33 469.611 376.913C465.621 373.977 462.636 371.918 462.636 371.918C462.636 371.918 476.999 329.058 461.538 309.43C452.394 297.838 443.122 286.056 438.954 271.884C436.765 264.524 435.568 256.77 432.577 249.684C429.523 242.563 424.266 235.881 416.891 233.616C416.038 233.345 415.118 233.138 414.221 233.345C412.398 233.791 411.44 235.712 410.836 237.612C410.801 237.803 410.734 237.991 410.667 238.182C405.162 259.15 407.107 282.002 415.978 301.701C415.978 301.701 292.296 244.44 287.24 251.253C285.382 253.766 284.411 256.388 283.924 258.641C283.122 262.446 283.676 265.319 283.676 265.319C283.676 265.319 362.825 316.207 364.085 320.429C364.953 323.468 324.525 310.072 298.583 303.301C288.099 300.501 279.982 298.891 277.93 299.808C275.877 300.756 274.525 303.374 273.733 306.671C272.979 309.713 272.594 313.334 272.47 316.671C272.177 322.3 272.568 327.143 272.568 327.143C272.568 327.143 272.011 328.088 271.184 329.695C270.096 331.871 268.508 335.183 267.041 338.785C266.141 341.124 265.269 343.561 264.719 345.843Z" fill="#F3A080"/>
<path d="M264.719 345.843C262.593 354.332 375.065 420.619 388.96 421.443L408.207 420.04L433.984 435.908C439.482 432.729 444.665 429.417 449.282 425.841C439.456 416.658 426.77 403.666 420.232 400.876C403.18 393.567 384.958 389.323 367.372 383.338C349.785 377.356 332.365 369.274 319.466 355.897C311.594 347.736 305.761 337.637 302.331 326.818C300.133 319.904 300.422 310.903 298.586 303.298C288.102 300.498 279.985 298.888 277.933 299.804C275.881 300.753 274.528 303.371 273.736 306.668C272.982 309.709 272.597 313.33 272.473 316.668C272.18 322.297 272.571 327.14 272.571 327.14C272.571 327.14 272.015 328.085 271.187 329.692C270.099 331.868 268.511 335.18 267.045 338.782C266.141 341.124 265.269 343.561 264.719 345.843Z" fill="#F8BF92"/>
<path d="M272.469 316.665C274.681 317.706 276.952 318.746 279.282 319.72C292.881 325.469 305.84 329.065 315.319 331.143C324.216 333.08 330.077 333.796 330.773 333.866C330.175 333.519 325.059 330.583 317.021 326.446C308.424 322.017 296.562 316.175 283.182 310.531C279.953 309.172 276.793 307.896 273.726 306.677C272.953 309.71 272.587 313.318 272.469 316.665Z" fill="#B54B57"/>
<path d="M267.07 338.782C288.529 348.35 307.353 352.302 308.546 352.547C307.585 351.774 292.369 339.947 271.162 329.698C270.09 331.884 268.496 335.19 267.07 338.782Z" fill="#B54B57"/>
</svg>
