<svg width="500" height="539" viewBox="0 0 500 539" fill="none" xmlns="http://www.w3.org/2000/svg">
<path d="M428.757 370.567C428.504 370.906 428.221 371.215 427.968 371.554C385.49 423.757 318.066 456.004 251.177 454.905C208.446 454.229 165.938 439.91 130.31 408.509C130.001 408.256 129.717 408.031 129.464 407.775V407.747C128.393 406.846 127.351 405.914 126.308 404.985C24.7216 315.491 32.8395 146.423 152.043 74.4636H152.071C221.467 29.3356 299.433 28.0674 361.022 58.5949C387.35 71.6464 410.717 90.5019 429.094 114.235C455.506 148.256 471.714 192.285 472.05 243.559C473.716 292.064 456.804 335.698 428.757 370.567Z" fill="#B5E5E8"/>
<path d="M306.12 362.516C305.915 363.784 306.129 365.019 306.988 366.001C307.694 366.804 308.743 367.319 309.797 367.461C312.189 367.781 314.316 366.187 315.379 364.137C315.668 363.576 315.876 362.98 316.038 362.371C316.218 361.693 316.355 360.986 316.638 360.341C317.131 359.223 318.04 358.375 318.93 357.571C319.898 356.695 320.821 355.816 321.561 354.732C322.295 353.658 322.843 352.462 323.246 351.228C324.142 348.491 324.267 345.571 324.153 342.715C324.122 341.931 324.072 341.149 324.019 340.368C323.975 339.714 324.022 338.938 323.755 338.326C323.471 337.684 322.854 337.52 322.214 337.437C321.427 337.336 320.64 337.236 319.853 337.136C319.258 337.061 318.663 336.983 318.068 336.908C318.129 336.878 318.187 336.841 318.251 336.816C318.388 336.761 318.332 336.58 318.19 336.602C317.915 336.644 317.659 336.733 317.42 336.853C317.303 336.872 317.2 336.93 317.131 337.025C316.574 337.398 316.146 337.968 315.879 338.588C315.379 339.75 315.312 340.999 315.078 342.228C314.959 342.854 314.795 343.474 314.483 344.033C314.205 344.531 313.816 344.951 313.379 345.315C312.517 346.033 311.493 346.528 310.573 347.159C309.552 347.857 308.682 348.728 308.184 349.879C307.925 350.477 307.764 351.1 307.706 351.751C307.639 352.513 307.756 353.269 307.842 354.023C308.009 355.505 307.809 356.901 307.391 358.325C306.977 359.715 306.354 361.078 306.12 362.516Z" fill="#1CA79F"/>
<path d="M321.344 300.571C319.175 298.474 315.863 300.143 313.304 300.362C309.825 300.66 307.206 297.757 305.039 295.426C303.688 293.974 302.778 292.459 302.386 290.501C302.063 288.907 301.78 287.386 301.073 285.907C299.811 283.253 297.797 281.065 296.143 278.665C295.292 277.433 294.513 276.128 294.048 274.696C293.517 273.061 293.676 271.334 293.248 269.685C292.828 268.061 291.693 266.812 290.572 265.624C289.173 264.142 287.772 262.665 286.373 261.186C285.191 259.937 284.048 258.588 282.173 258.647C280.444 258.702 278.906 259.706 277.407 260.46C274.042 262.154 270.326 263.266 266.544 263.355C263.126 263.433 259.689 262.624 256.755 260.844C255.359 259.998 254.104 258.933 253.059 257.679C252.052 256.469 251.231 255.081 250.027 254.047C247.152 251.572 243.483 252.654 240.302 253.852C236.648 255.229 232.949 256.216 229.036 256.466C227.228 256.58 225.426 256.414 223.624 256.5C222.334 256.558 220.91 256.811 219.981 257.79C218.977 258.847 219.013 260.288 218.943 261.647C218.907 262.343 218.841 263.119 218.334 263.65C217.82 264.189 217.016 264.331 216.338 264.559C214.791 265.082 213.993 266.103 213.406 267.588C212.861 268.964 212.288 270.233 211.418 271.44C209.741 273.759 207.561 275.664 205.834 277.947C203.973 280.408 202.922 283.228 203.4 286.34C203.956 289.956 206.109 293.096 208.139 296.043C209.285 297.709 210.431 299.375 211.577 301.038C212.65 302.598 213.651 304.275 214.922 305.685C217.203 308.211 220.412 308.397 223.577 307.896C225.259 307.632 226.914 307.212 228.602 306.97C230.502 306.7 232.429 306.745 234.32 307.07C238.044 307.713 241.531 309.267 244.88 310.964C246.395 311.729 248.284 312.438 249.432 313.736C249.999 314.379 250.311 315.224 250.328 316.081C250.344 317.082 249.863 317.939 249.538 318.856C248.295 322.358 251.048 325.676 252.778 328.482C254.566 331.388 256.579 334.736 256.285 338.288C256.134 340.101 255.18 341.541 254.41 343.138C253.629 344.751 253.364 346.467 253.584 348.244C253.815 350.093 254.444 351.856 255.153 353.572C255.956 355.524 256.805 357.46 257.631 359.401C259.241 363.183 260.854 366.963 262.464 370.745C263.271 372.636 264.074 374.527 264.881 376.418C265.284 377.364 265.685 378.31 266.088 379.255C266.438 380.078 266.73 381.002 267.25 381.736C268.218 383.107 269.831 383.062 271.324 382.781C272.885 382.489 274.411 382.014 275.872 381.391C278.819 380.128 281.506 378.271 283.7 375.926C284.776 374.775 285.722 373.509 286.545 372.166C286.951 371.502 287.338 370.817 287.83 370.211C288.414 369.494 289.132 369.018 289.941 368.587C291.431 367.797 292.616 366.996 293.364 365.433C294.112 363.873 294.627 362.182 295.166 360.541C296.218 357.338 297.191 354.067 298.899 351.136C299.772 349.634 300.876 348.366 302.027 347.078C303.187 345.78 304.219 344.4 304.689 342.698C305.612 339.364 304.522 335.896 304.146 332.567C303.84 329.844 304.157 327.244 305.345 324.761C306.396 322.561 307.909 320.622 309.514 318.801C312.818 315.052 316.8 311.731 319.375 307.401C320.555 305.418 321.42 303.238 321.706 300.938C321.737 300.693 321.517 300.546 321.344 300.571Z" fill="#1CA79F"/>
<path d="M143.973 82.8484C143.848 84.0304 143.993 85.3486 143.489 86.4582C142.975 87.5873 141.737 87.9405 140.758 88.5496C138.637 89.8622 138.442 92.215 138.3 94.4843C138.217 95.7747 138.014 96.9734 137.582 98.197C137.129 99.4846 136.556 100.744 136.356 102.107C135.989 104.571 136.973 106.863 138.575 108.698C142.018 112.645 147.436 113.526 151.354 116.797C153.476 118.568 154.739 121.013 155.935 123.454C157.261 126.16 158.585 128.878 159.681 131.686C160.737 134.401 161.602 137.221 161.967 140.118C162.15 141.576 162.089 143.044 162.248 144.499C162.395 145.864 162.915 146.982 163.699 148.095C164.45 149.157 165.195 150.164 165.521 151.446C165.835 152.692 165.785 154.01 165.601 155.27C165.226 157.87 164.375 160.387 164.211 163.02C164.03 165.896 165.045 168.538 166.205 171.113C167.49 173.969 168.797 176.817 170.093 179.668C170.744 181.1 171.394 182.532 172.045 183.967C172.562 185.105 173.041 186.284 173.847 187.254C174.54 188.086 175.535 188.689 176.651 188.606C177.763 188.523 178.697 187.811 179.329 186.926C180.931 184.679 180.141 181.754 180.794 179.228C181.392 176.915 182.841 174.943 184.563 173.324C188.284 169.82 193.162 168.082 197.442 165.418C199.55 164.108 201.53 162.55 203.04 160.562C203.83 159.522 204.486 158.393 205.206 157.305C205.971 156.151 206.842 155.147 207.912 154.268C208.947 153.417 210.026 152.628 210.866 151.571C211.55 150.709 212.089 149.76 212.504 148.743C213.341 146.687 213.658 144.479 213.897 142.288C214.147 139.971 214.289 137.635 214.757 135.349C214.987 134.212 215.299 133.085 215.755 132.017C216.264 130.824 216.923 129.703 217.565 128.58C218.836 126.363 220.077 124.05 220.099 121.427C220.118 118.963 219.17 116.63 218.272 114.38C217.496 112.436 216.65 110.42 216.395 108.323C216.695 108.456 217.143 108.306 217.156 107.872C217.271 104.616 217.393 101.359 217.513 98.1025C217.571 96.5117 217.629 94.9209 217.685 93.3302C217.738 91.9063 217.802 90.4323 217.257 89.0835C216.311 86.7475 214.164 84.912 212.039 83.6605C209.851 82.3729 207.389 81.5636 204.917 81.0269C199.152 79.7754 192.917 80.1091 187.413 77.7702C186.159 77.2363 184.98 76.5438 183.959 75.6316C183.044 74.8168 182.176 73.9157 180.989 73.5097C179.626 73.0425 178.152 73.3901 176.773 73.582C175.193 73.8017 173.608 73.963 172.017 74.0631C168.883 74.2578 165.76 74.1771 162.631 73.9602C159.631 73.7544 156.608 73.5514 153.626 74.077C153.103 74.1688 152.578 74.2995 152.058 74.4552C149.891 75.8485 147.753 77.2863 145.636 78.7492C144.758 79.9367 144.14 81.291 143.973 82.8484Z" fill="#1CA79F"/>
<path d="M197.146 334.778C197.08 336.377 196.248 337.843 195.28 339.108C194.248 340.473 192.98 341.705 192.382 343.371C191.782 345.104 191.882 346.97 191.682 348.766C190.984 354.395 187.819 360.291 182.321 362.391C180.688 362.992 178.889 363.092 177.39 363.957C175.991 364.755 175.093 366.19 174.459 367.622C173.126 370.486 172.328 373.518 170.462 376.115C169.597 377.281 168.596 378.348 167.364 379.113C165.798 380.112 163.966 380.545 162.3 381.344C161.635 381.711 160.934 382.145 160.4 382.709C159.836 383.276 159.402 383.975 159.302 384.739C159.068 386.439 160.367 387.904 160.367 389.603C160.4 391.036 159.435 392.067 158.334 392.868C156.902 393.9 155.336 394.801 153.937 395.866C152.472 396.998 151.073 398.197 149.741 399.496C148.475 400.761 147.143 402.093 146.676 403.859C146.275 405.291 146.342 406.824 145.711 408.189C145.11 409.488 143.878 410.122 142.88 411.087C142.413 411.554 142.048 412.152 142.312 412.853C142.579 413.52 143.111 414.052 143.244 414.786C143.511 415.951 142.944 416.952 142.279 417.884C142.179 417.817 142.112 417.75 142.012 417.684C140.113 416.318 138.28 414.919 136.45 413.487C135.883 413.053 135.318 412.622 134.751 412.155C133.218 410.956 131.753 409.724 130.287 408.489C129.987 408.256 129.72 408.022 129.453 407.791V407.758C130.12 401.896 130.685 396 131.583 390.171C131.884 388.371 132.251 386.605 132.748 384.876C133.049 383.744 133.416 382.645 133.78 381.544C134.281 380.145 134.712 378.713 134.979 377.247C135.279 375.715 135.413 374.149 135.513 372.583C135.713 369.519 135.913 366.421 136.111 363.356C136.211 361.89 136.344 360.391 136.411 358.926C136.444 357.594 136.411 356.228 135.944 354.996C135.079 352.599 132.646 351.598 130.615 350.432C129.617 349.832 128.649 349.167 127.851 348.299C126.983 347.334 126.285 346.2 125.584 345.101C123.919 342.437 122.253 339.739 120.587 337.039C119.753 335.707 118.921 334.341 118.09 333.009C117.425 331.911 116.557 330.745 116.657 329.38C116.757 328.081 117.689 327.047 117.722 325.751C117.756 324.418 117.255 323.153 117.756 321.852C118.223 320.72 119.188 319.888 119.889 318.887C120.687 317.822 121.321 316.59 121.755 315.288C122.189 313.956 122.356 312.591 122.389 311.192C122.389 310.891 122.389 310.594 122.422 310.293C121.424 310.26 120.423 310.16 119.424 309.993C116.026 309.426 112.728 308.027 109.963 306.03C108.598 305.032 107.366 303.897 106.265 302.632C105.066 301.233 104.132 299.634 102.9 298.268C100.135 295.17 96.2361 295.471 92.4399 295.437C88.6438 295.37 84.8783 294.572 81.4131 293.007C79.6805 292.242 77.9813 291.307 76.5157 290.109C75.1169 288.977 74.2186 287.545 73.5511 285.912C72.917 284.213 72.3525 282.547 71.254 281.115C70.2862 279.783 69.0875 278.684 67.8222 277.65C65.3915 275.683 62.6939 273.984 60.5275 271.654C59.3623 270.355 58.4945 268.889 57.5962 267.357C57.2291 266.689 56.7981 266.092 56.3643 265.491C56.3309 265.491 56.3309 265.457 56.3309 265.457C56.2308 264.292 56.0973 263.158 56.0306 261.992C55.8971 260.794 55.8303 259.595 55.7635 258.36C55.6968 257.495 55.6301 256.661 55.5967 255.829C55.4966 254.197 55.3964 252.598 55.363 250.965C55.2963 249.333 55.263 247.734 55.2296 246.101C54.996 230.781 56.6619 215.891 59.9268 201.566C60.6582 198.368 61.4591 195.203 62.3574 192.041C62.5243 191.573 62.6578 191.109 62.7913 190.642C63.1584 189.31 63.5588 187.978 63.9899 186.679C64.5239 185.046 65.0551 183.414 65.6224 181.815C66.1564 180.182 66.7542 178.583 67.3549 176.984C69.1543 172.22 71.1511 167.49 73.3175 162.895C75.6175 162.295 77.8145 161.463 80.2451 161.797C81.8776 162.03 83.4433 162.562 85.0424 162.862C86.7749 163.229 88.541 163.329 90.3375 163.229C92.0367 163.129 93.7359 162.829 95.3684 162.297C96.6672 161.897 98.1995 160.932 99.565 161.399C100.664 161.8 101.298 162.898 101.829 163.83C102.694 165.395 103.528 166.961 104.393 168.494C105.06 169.759 105.792 171.058 105.925 172.523C106.059 173.755 105.592 174.82 104.86 175.788C103.161 178.019 100.897 179.818 99.3314 182.185C98.4331 183.517 97.7657 185.082 97.7657 186.715C97.7657 187.68 98.066 188.448 98.4331 189.346C98.6 189.78 98.7001 190.244 98.5999 190.711C98.2996 192.043 97.0342 192.811 96.9007 194.21C96.7673 195.575 97.4347 196.941 98.5999 197.642C99.298 198.009 100.066 198.209 100.766 198.573C101.267 198.874 101.731 199.241 102.132 199.638C103.064 200.537 103.831 201.638 104.763 202.503C106.829 204.369 110.058 203.969 111.857 206.168C112.789 207.267 113.256 208.933 114.688 209.567C116.488 210.398 116.821 208.435 117.686 207.434C118.551 206.402 119.719 206.766 120.884 206.636C122.584 206.469 122.915 204.536 122.817 203.137C122.684 201.772 122.283 200.373 122.684 199.007C122.884 198.276 123.385 197.742 123.685 197.041C124.019 196.276 123.752 195.442 123.852 194.644C124.152 192.213 126.483 190.514 128.416 189.315C129.414 188.681 130.348 188.648 131.213 189.515C131.811 190.15 132.345 190.581 133.18 190.881C133.747 191.115 134.311 191.281 134.879 191.548C137.109 192.714 137.476 195.478 139.242 197.077C140.341 198.076 141.573 198.543 142.274 199.942C142.908 201.14 143.105 202.472 143.506 203.771C144.373 206.769 146.604 208.902 148.834 210.966C150.934 212.899 153.064 214.895 154.129 217.593C155.361 220.624 154.329 223.689 153.565 226.687C153.264 227.952 153.097 229.485 152.099 230.383C151 231.348 149.435 231.849 148.169 232.583C146.67 233.417 145.171 234.516 144.604 236.212C144.137 237.444 144.838 238.943 144.07 240.075C143.803 240.542 143.372 240.873 142.938 241.173C142.338 241.674 141.873 242.172 141.439 242.839C140.839 243.804 140.307 244.772 139.209 245.27C137.543 246.035 135.477 245.604 134.278 244.238C134.211 244.271 134.178 244.271 134.145 244.271C133.146 244.338 132.145 244.839 131.347 245.403C130.348 246.135 129.581 247.136 129.116 248.268C128.582 249.5 128.716 250.768 128.516 252.067C128.349 253.265 127.751 254 126.983 254.898C125.885 256.197 126.616 257.429 126.452 258.928C126.018 262.493 121.488 263.525 119.455 265.955C117.789 267.921 118.557 270.285 119.355 272.482C119.755 273.581 120.189 274.716 120.353 275.881C120.453 276.749 120.554 277.88 119.953 278.578C118.487 280.244 115.823 277.113 114.989 276.081C113.39 274.148 112.191 271.818 110.158 270.219C109.126 269.384 107.894 268.72 106.529 268.72C105.063 268.686 103.831 269.551 102.432 269.785C99.7013 270.219 97.0371 268.686 94.4368 270.152C92.0729 271.484 90.7741 274.015 90.2402 276.615C89.9398 278.114 89.8397 279.68 89.773 281.212C89.7062 282.678 89.6061 284.143 89.773 285.576C89.9398 286.974 90.4404 288.373 91.4722 289.338C92.3704 290.206 93.7721 290.771 94.9374 290.073C95.8023 289.539 96.4029 288.574 97.1038 287.809C97.7017 287.141 98.4026 286.61 99.2703 286.31C100.903 285.676 103.3 285.576 104.832 286.577C106.565 287.675 105.266 289.541 105.066 291.04C104.932 292.072 106.164 292.873 106.732 293.604C107.43 294.503 107.697 295.635 108.231 296.636C109.563 299.033 111.596 300.966 113.526 302.865C115.492 304.731 117.722 306.795 120.587 306.995C121.485 307.062 122.42 306.962 123.251 307.296C124.186 305.696 125.815 304.598 127.448 303.833C129.481 302.865 131.744 302.201 133.944 301.8C136.211 301.4 138.675 301.4 140.608 302.832C140.775 302.932 140.808 303.132 140.741 303.299C142.207 303.232 143.639 302.799 145.071 302.434C146.637 302.034 148.236 301.669 149.869 301.967C151.468 302.267 152.766 303.299 153.865 304.464C156.062 306.698 158.061 309.362 160.959 310.761C162.525 311.495 164.191 311.462 165.89 311.826C167.322 312.126 168.421 312.858 169.289 314.026C170.09 315.124 170.587 316.39 171.255 317.558C172.086 319.057 173.121 320.022 174.687 320.789C178.285 322.488 181.981 324.021 185.613 325.653C188.912 327.119 192.207 328.651 195.038 330.918C196.279 331.913 197.213 333.112 197.146 334.778Z" fill="#1CA79F"/>
<path d="M108.558 134.999C108.438 134.918 108.283 134.882 108.102 134.924C107.515 135.065 106.934 135.238 106.364 135.427C105.438 135.738 104.45 136.089 103.688 136.72C102.765 137.482 102.089 138.608 100.868 138.945C100.145 139.145 99.4027 138.892 98.6741 138.85C98.0233 138.811 97.3531 138.975 96.8442 139.398C96.2685 139.877 96.1184 140.63 96.3659 141.323C96.5633 141.873 96.9471 142.421 96.9749 142.961C96.9999 143.408 96.8804 143.865 96.6913 144.284C96.4605 144.799 96.1628 145.28 95.868 145.761C95.2506 146.765 94.5832 147.816 94.4302 149.01C94.2717 150.269 94.7556 151.524 95.6205 152.439C96.06 152.903 96.6022 153.253 97.1974 153.481C97.8759 153.743 98.6102 153.757 99.3277 153.679C100.079 153.598 100.835 153.437 101.594 153.518C102.05 153.568 102.573 153.729 103.001 153.929C105.101 154.903 106.67 156.783 108.92 157.472C110.241 157.878 111.62 157.703 112.924 157.325C114.228 156.947 115.491 156.379 116.84 156.162C118.055 155.968 119.237 156.198 120.263 156.88C121.212 157.511 121.91 158.482 122.191 159.586C122.383 160.345 122.547 161.018 123.069 161.63C123.495 162.125 124.062 162.495 124.435 163.034C125.161 164.08 125.253 165.404 125.169 166.636C125.061 168.232 124.61 169.787 124.591 171.391C124.571 172.837 124.972 174.22 125.72 175.454C126.435 176.634 127.402 177.646 128.406 178.578C128.899 179.034 129.405 179.473 129.916 179.907C130.453 180.363 131.015 180.816 131.641 181.147C132.981 181.851 134.424 181.779 135.743 181.069C136.964 180.41 138.015 179.362 138.933 178.338C139.867 177.296 140.707 176.002 140.487 174.54C140.376 173.791 139.975 173.152 139.753 172.44C139.589 171.914 139.533 171.433 139.539 170.874C139.555 168.541 140.643 166.308 140.76 163.955C140.815 162.812 140.584 161.638 139.923 160.687C139.124 159.539 137.89 158.877 136.777 158.076C134.883 156.713 133.874 154.566 133.028 152.458C132.127 150.208 131.326 147.869 129.783 145.959C128.273 144.09 126.104 143.019 123.937 142.093C121.854 141.203 119.604 140.38 117.941 138.814C117.507 138.405 117.146 137.955 116.809 137.465C116.406 136.879 115.997 136.297 115.43 135.858C114.393 135.051 113.124 134.746 111.831 134.687C110.722 134.637 109.64 134.782 108.558 134.999Z" fill="#1CA79F"/>
<path d="M219.87 66.3652L219.684 66.343C219.684 66.343 219.792 66.4904 219.87 66.3652Z" fill="#1CA79F"/>
<path d="M220.398 177.157C221.157 177.582 222.025 177.799 222.895 177.707C223.91 177.602 224.856 177.182 225.724 176.664C227.281 175.738 228.699 174.467 229.364 172.746C229.706 171.864 229.806 170.902 229.639 169.973C229.47 169.036 228.95 168.21 228.288 167.54C226.878 166.113 225.023 165.384 223.071 165.09C222.044 164.934 221.013 164.834 220.006 164.567C219.038 164.311 218.09 163.974 217.102 163.785C215.576 163.496 213.779 163.657 212.653 164.856C212.633 164.875 212.625 164.898 212.606 164.917C212.494 164.873 212.369 164.873 212.263 164.953C211.432 165.585 210.7 166.377 209.989 167.139C209.368 167.801 208.734 168.599 208.581 169.52C208.44 170.371 208.726 171.225 209.385 171.789C209.975 172.295 210.726 172.571 211.471 172.74C213.254 173.149 215.153 173.182 216.735 174.206C218.056 175.065 219.016 176.383 220.398 177.157Z" fill="#1CA79F"/>
<path d="M472.052 243.543V244.975C471.551 244.908 471.154 244.474 471.02 243.977C470.82 243.212 471.187 242.411 470.92 241.646C470.686 240.912 470.189 240.281 470.319 239.513C470.453 238.815 470.987 238.314 471.518 237.947C471.618 237.881 471.718 237.814 471.852 237.747C471.918 239.677 472.019 241.61 472.052 243.543Z" fill="#1CA79F"/>
<path d="M125.087 290.815C125.178 291.357 125.437 291.875 125.904 292.189C126.402 292.525 127.025 292.52 127.595 292.442C128.221 292.356 128.819 292.228 129.453 292.297C130.098 292.367 130.727 292.567 131.355 292.728C132.039 292.904 132.751 293.051 133.463 292.995C134.27 292.931 135.023 292.651 135.78 292.389C137.32 291.855 138.911 291.619 140.541 291.711C140.666 291.719 140.797 291.63 140.855 291.524C141.556 290.248 139.264 289.661 138.502 289.363C137.123 288.824 135.752 288.231 134.35 287.748C133.705 287.522 133.079 287.481 132.406 287.586C131.786 287.684 131.152 287.889 130.521 287.789C130.301 287.753 130.076 287.689 129.889 287.561C129.639 287.389 129.542 287.139 129.461 286.858C129.319 286.368 129.139 285.948 128.73 285.623C128.107 285.125 127.275 284.986 126.661 284.491C126.307 284.205 126.371 283.91 126.422 283.49C126.483 282.961 126.269 282.508 125.821 282.216C125.373 281.927 124.814 281.86 124.294 281.927C123.663 282.01 122.981 282.258 122.358 282.007C121.396 281.621 120.782 280.609 119.644 280.653C118.888 280.684 118.198 281.084 117.441 281.159C116.654 281.234 115.859 281.187 115.069 281.245C114.051 281.321 112.917 281.643 112.333 282.519C112.263 282.497 112.191 282.497 112.124 282.555C111.598 283 111.076 283.445 110.539 283.876C109.988 284.321 109.404 284.713 108.848 285.144C108.687 285.27 108.659 285.453 108.795 285.615C109.535 286.488 110.803 285.918 111.757 285.948C112.878 285.984 113.734 286.936 114.799 287.191C116.126 287.511 117.227 286.574 118.384 286.104C119.63 285.598 120.962 285.35 122.292 285.623C123.262 285.823 124.28 286.343 124.82 287.208C125.515 288.323 124.881 289.608 125.087 290.815Z" fill="#1CA79F"/>
<path d="M451.066 335.178C449.434 338.443 447.735 341.675 445.935 344.837C444.169 347.935 442.34 350.966 440.44 353.964C439.475 355.497 438.507 356.996 437.509 358.495C436.51 359.96 435.476 361.459 434.444 362.925C433.079 364.824 431.68 366.721 430.281 368.587C429.513 369.585 428.749 370.587 427.984 371.552C427.95 371.518 427.917 371.451 427.884 371.385C426.985 369.819 426.952 367.953 427.152 366.19C427.386 364.357 427.85 362.524 427.917 360.694C427.917 359.763 427.85 358.862 427.583 357.997C427.316 357.199 426.885 356.531 426.418 355.83C425.587 354.532 424.852 353.133 425.32 351.567C425.753 350.135 426.885 349.036 428.084 348.235C430.615 346.569 434.18 346.236 435.913 343.505C436.644 342.339 437.145 340.874 438.477 340.24C439.208 339.873 440.109 339.873 440.774 339.375C441.274 338.974 441.572 338.41 441.872 337.843C442.44 336.711 442.971 335.445 444.206 334.945C445.805 334.311 447.404 335.212 448.97 335.445C449.604 335.545 450.302 335.512 450.902 335.278C450.966 335.242 451 335.212 451.066 335.178Z" fill="#1CA79F"/>
<path d="M446.27 289.989C445.947 290.437 445.944 291.012 445.825 291.532C445.716 292.011 445.46 292.378 445.096 292.698C444.398 293.307 443.522 293.682 442.946 294.433C442.323 295.242 442.048 296.324 441.194 296.947C440.424 297.506 439.453 297.69 438.555 297.948C437.668 298.204 436.636 298.546 436.063 299.322C435.724 299.781 435.735 300.312 435.652 300.852C435.571 301.386 435.385 301.897 435.198 302.401C434.839 303.363 434.425 304.367 434.636 305.413C434.848 306.447 435.693 307.142 436.528 307.699C437.484 308.336 438.48 308.97 439.576 309.337C441.283 309.91 443.205 309.768 444.857 309.078C446.514 308.386 447.969 307.159 448.77 305.532C449.621 303.802 449.799 301.858 450.33 300.026C450.58 299.161 450.917 298.296 451.484 297.584C451.79 297.2 452.218 296.922 452.507 296.533C452.772 296.174 452.83 295.726 452.669 295.312C452.318 294.405 451.381 293.882 451.075 292.945C450.744 291.93 450.764 290.812 449.829 290.111C449.44 289.819 448.962 289.697 448.492 289.861C448.375 289.9 448.314 289.989 448.291 290.084L447.999 290C448.008 289.975 448.013 289.95 447.999 289.917C447.68 289.146 446.664 289.444 446.27 289.989Z" fill="#1CA79F"/>
<path d="M467.356 289.277C467.156 290.209 466.922 291.11 466.722 292.041C466.622 292.075 466.555 292.108 466.488 292.142C465.79 292.342 465.023 292.242 464.389 291.875C463.59 291.407 463.056 290.643 462.489 289.942C461.888 289.241 461.19 288.71 460.423 288.243C459.655 287.809 458.857 287.442 458.126 286.944C457.391 286.443 456.727 285.812 456.226 285.044C455.726 284.213 455.395 283.312 455.061 282.414C454.694 281.348 454.33 280.314 453.963 279.249C453.629 278.25 453.231 277.249 453.331 276.184C453.431 275.152 453.896 274.184 454.363 273.286C454.763 272.455 455.194 271.587 455.862 270.922C456.363 270.422 457.027 270.055 457.795 270.088C458.429 270.088 459.06 270.422 459.194 271.086C459.26 271.32 459.093 271.487 458.893 271.52V271.787C458.96 271.787 458.993 271.821 458.993 271.887C458.827 272.321 458.693 272.719 458.56 273.153C458.326 273.984 458.159 274.985 458.626 275.75C458.86 276.184 459.258 276.448 459.658 276.715C460.092 276.949 460.559 277.216 460.99 277.48C462.523 278.448 464.188 279.944 463.821 281.944C463.721 282.477 463.521 282.942 463.721 283.476C463.921 283.943 464.288 284.41 464.553 284.841C465.187 285.806 465.785 286.774 466.419 287.739C466.722 288.209 467.089 288.743 467.356 289.277Z" fill="#1CA79F"/>
<path d="M471.118 226.253C469.285 228.75 467.122 231.05 465.055 233.08C463.79 234.279 462.558 235.578 461.059 236.479C459.66 237.277 458.328 237.411 456.762 237.377C454.365 237.344 452.899 238.242 452.899 240.742C452.866 242.241 453.333 243.74 453.864 245.139C454.796 247.57 455.697 249.703 455.13 252.4C454.729 254.433 453.431 255.932 451.234 255.665C451 255.632 450.833 255.365 450.833 255.165C451.2 250.401 447.234 246.137 442.507 246.104C440.607 252.467 443.505 259.028 442.273 265.491C441.408 270.155 438.143 273.62 434.113 275.884C432.114 277.015 429.95 277.883 427.75 278.615C426.518 279.015 425.253 279.379 424.021 279.713C422.689 280.047 421.424 280.18 420.756 281.479C420.155 282.644 420.058 284.21 420.489 285.442C420.956 286.674 422.088 287.508 422.953 288.44C424.352 290.006 424.719 291.505 423.951 293.501C423.751 293.969 423.618 294.433 423.484 294.867C423.551 294.934 423.584 295 423.651 295.067C425.284 297.033 427.681 299.331 427.317 302.162C427.25 302.462 427.216 302.829 426.949 303.027C426.682 303.193 426.349 303.16 426.118 302.993C425.784 302.793 425.487 302.493 425.186 302.259C424.886 302.025 424.588 301.758 424.288 301.528C423.587 300.96 422.889 300.396 422.188 299.828C421.955 300.329 421.688 300.793 421.323 301.261C421.257 301.294 421.223 301.361 421.19 301.394C421.423 301.661 421.657 301.928 421.857 302.195C422.158 302.596 422.425 302.996 422.789 303.36C423.123 303.661 423.487 303.894 423.887 304.125C424.722 304.526 425.587 304.793 426.454 305.123C428.02 305.758 429.553 306.856 429.719 308.655C429.786 309.62 429.486 310.622 429.786 311.553C430.053 312.418 430.851 312.919 431.619 313.319C433.452 314.251 435.382 315.018 437.348 315.65C441.244 316.915 445.377 317.583 449.473 317.649C451.57 317.649 453.636 317.482 455.703 317.249C456.801 317.115 457.9 317.015 459.034 317.015C458.734 317.783 458.436 318.581 458.103 319.349C454.871 320.547 451.606 321.813 448.144 321.779C445.777 321.779 443.48 321.115 441.216 320.581C438.986 320.08 436.719 319.549 434.453 319.015C432.587 318.581 430.721 318.05 429.024 317.149C427.292 316.281 425.893 314.982 424.861 313.35C423.762 311.684 422.995 309.818 421.83 308.222C420.631 306.522 419.032 305.123 417.466 303.758C417.433 303.725 417.399 303.725 417.399 303.691C416.765 303.825 416.101 303.891 415.433 303.858C415.233 303.858 414.999 303.725 414.933 303.491C413.133 297.161 404.406 297.896 400.41 293.699C399.642 292.898 399.011 291.966 398.544 290.968C397.946 289.602 397.876 288.17 397.379 286.771C396.514 284.341 393.913 283.707 392.481 281.74C392.014 281.143 391.78 280.508 391.714 279.774C391.647 278.973 391.78 278.342 390.749 278.142C390.084 278.008 389.383 278.375 388.883 278.74C386.983 280.038 385.818 282.238 383.918 283.637C381.588 285.37 379.057 286.869 376.59 288.434C375.225 289.333 373.392 290.2 372.825 291.866C372.394 293.198 372.758 294.631 372.925 295.996C373.225 298.53 372.458 300.76 371.359 303.024C370.725 304.289 369.86 306.122 368.128 305.521C366.161 304.82 365.063 301.856 364.462 300.093C363.995 298.794 363.661 297.428 363.397 296.096C363.063 294.631 362.83 293.198 362.532 291.766C361.931 288.902 361.834 285.37 358.967 283.804C357.101 282.806 354.97 282.305 353.605 280.572C352.406 279.007 352.006 277.04 351.007 275.377C349.275 272.446 346.277 273.114 343.379 272.847C340.681 272.58 338.248 271.448 335.717 270.716C333.053 269.915 330.456 270.182 327.755 269.885C325.391 269.618 323.892 268.619 322.226 267.054C321.195 266.122 319.529 264.723 318.063 265.655C317.596 265.922 317.563 266.356 317.065 266.489C316.066 268.589 319.064 271.484 320.33 272.883C321.795 274.482 323.495 276.014 325.591 276.648C328.756 277.613 333.053 276.515 333.885 280.845C334.616 284.477 331.654 287.272 329.087 289.305C325.589 292.069 321.559 294.169 317.296 295.501C314.765 296.302 311.2 297.534 309.3 294.936C307.901 293.037 307.036 290.406 306.035 288.273C305.104 286.307 304.169 284.344 303.237 282.377C301.174 278.047 299.141 273.717 297.075 269.387C296.207 267.521 295.108 265.624 294.744 263.591C294.377 261.625 294.878 259.662 294.344 257.696C294.01 256.33 293.312 254.965 292.311 253.933C291.112 252.701 290.014 252.567 288.314 252.868C286.949 253.135 285.683 253.368 284.285 253.168C281.32 252.801 278.456 251.102 276.823 248.571C275.891 247.139 275.524 245.273 274.326 244.007C272.86 242.441 270.994 243.34 269.395 244.207C266.995 245.473 264.931 246.341 262.634 244.374C260.935 242.909 259.603 241.977 257.339 241.677C255.139 241.376 252.875 241.443 250.642 241.343C248.312 241.276 246.012 241.209 243.681 241.143C241.715 241.076 239.585 240.809 237.819 241.844C233.255 244.441 232.19 252.27 225.794 251.469C223.129 251.135 219.397 249.836 217.731 247.606C216.933 246.507 216.8 245.309 217.033 244.007C217.267 242.942 217.567 242.174 217.267 241.009C217.067 240.342 216.7 239.711 216.499 239.01C215.401 235.481 219.564 235.647 221.928 235.414C223.761 235.214 229.89 235.514 228.458 232.249C227.724 230.616 225.693 229.918 224.826 228.319C224.726 228.119 224.759 227.752 225.026 227.619C226.091 227.151 226.825 226.453 227.39 225.519C226.458 225.285 225.457 224.921 225.026 224.053C224.626 223.286 224.759 222.221 225.493 221.72C226.492 221.052 228.057 221.286 229.192 221.253C231.492 221.186 233.389 220.188 235.322 219.056C239.118 216.789 242.383 213.758 246.181 211.527C247.914 210.496 249.814 209.661 251.81 209.361C254.007 209.061 255.974 209.862 258.14 209.862C260.37 209.828 261.538 208.062 263.502 207.398C265.301 206.797 267.231 207.498 269.031 206.997C271.23 206.396 272.76 204.266 274.228 202.634C275.627 201.101 277.059 199.602 278.392 198.037C279.223 197.038 280.091 195.903 280.391 194.605C280.792 193.039 279.76 192.408 278.428 192.041C276.895 191.607 275.33 191.54 273.831 190.975C271.397 190.041 269.768 187.644 269.868 185.013C269.901 183.581 270.599 182.349 270.933 180.983C271.033 180.583 271.2 180.018 271.1 179.618C270.666 177.521 268.769 179.885 268.469 180.519C267.771 181.984 267.671 183.684 266.569 184.949C265.604 186.047 264.172 186.481 262.904 187.179C259.175 189.212 261.205 193.376 259.973 196.64C259.241 198.54 256.841 201.137 254.644 199.538C253.779 198.904 253.078 197.806 252.378 197.008C251.68 196.209 250.945 195.408 250.245 194.577C248.779 192.978 247.347 191.345 245.914 189.713C244.015 187.546 240.352 184.515 241.618 181.186C242.252 179.487 243.848 177.988 244.983 176.589C246.315 174.923 247.68 173.257 249.013 171.592C251.944 167.993 254.842 164.364 257.74 160.765C260.237 157.667 262.604 154.202 265.902 151.871C268.566 149.972 271.731 149.04 274.996 148.907C282.224 148.573 289.285 151.537 295.681 154.569C295.848 154.636 295.982 154.836 295.982 155.036C295.815 157.367 295.681 159.666 295.514 161.997C295.414 163.329 295.314 163.763 296.813 164.063C297.878 164.264 298.946 164.197 299.978 163.93C304.041 162.998 306.806 159.7 309.87 157.166C312.835 154.736 315.966 153.537 319.762 153.07C324.226 152.502 328.656 152.071 333.086 151.237C337.617 150.372 342.047 149.238 346.444 147.872C350.707 146.54 354.706 145.141 357.968 141.976C360.766 139.279 363.364 136.347 366.161 133.65C371.326 128.652 377.021 123.955 383.682 121.224C391.143 118.126 398.805 118.593 406.467 120.559C408.998 121.193 411.531 121.891 414.029 122.659C419.958 124.425 425.787 126.491 431.549 128.688C434.914 129.954 438.246 131.353 441.542 132.751C457.827 160.134 468.153 191.946 471.118 226.253Z" fill="#1CA79F"/>
<path opacity="0.41" d="M193.702 155.656C212.412 134.267 269.927 122.047 273.896 106.193C275.609 91.4363 257.296 87.401 245.682 89.2171C189.619 90.9914 120.774 115.587 109.48 177.079C106.354 195.645 112.281 235.631 136.47 238.384C166.422 241.624 155.084 183.581 193.702 155.656Z" fill="#EDEBCD"/>
<path opacity="0.65" d="M472.053 243.554V244.964C472.195 260.157 470.559 274.983 467.345 289.274C467.147 290.206 466.922 291.107 466.724 292.036C464.722 300.576 462.13 308.892 459.029 317.01C458.721 317.799 458.437 318.589 458.098 319.349C456.012 324.733 453.645 330.003 451.05 335.162C449.443 338.432 447.724 341.672 445.919 344.828C444.173 347.929 442.34 350.975 440.424 353.961C439.465 355.483 438.508 357.007 437.493 358.5C436.506 359.938 435.463 361.459 434.448 362.925C433.065 364.813 431.686 366.729 430.276 368.59C429.77 369.238 429.261 369.913 428.755 370.564C428.502 370.904 428.218 371.212 427.965 371.552C388.786 421.416 327.308 454.026 260.196 454.986C257.181 455.013 254.163 455.013 251.177 454.902C210.276 453.69 173.071 440.16 142.29 417.892C142.176 417.836 142.121 417.75 142.037 417.695C140.121 416.312 138.289 414.933 136.456 413.495C135.891 413.045 135.329 412.622 134.765 412.141C133.213 410.956 131.747 409.716 130.312 408.506C130.004 408.253 129.72 408.028 129.467 407.772V407.744C128.396 406.843 127.353 405.911 126.311 404.982C119.01 398.5 112.133 391.425 105.848 383.927C101.281 378.46 96.9399 372.764 92.9102 366.874C322.58 329.385 356.15 124.661 361.028 58.5894C387.356 71.6408 410.723 90.4963 429.1 114.23C435.949 123.249 442.037 132.946 447.338 143.15C447.366 143.205 447.424 143.292 447.452 143.375C449.198 146.785 450.889 150.225 452.469 153.776C452.552 153.946 452.638 154.143 452.722 154.341C457.628 165.279 461.657 176.778 464.73 188.701C464.758 188.784 464.758 188.87 464.786 188.954C468.816 204.514 471.213 220.861 471.861 237.744C471.911 239.666 472.025 241.61 472.053 243.554Z" fill="#232323"/>
<path d="M298.83 244.741C298.646 246.755 298.649 248.782 298.777 250.762C299.964 269.562 314.659 285.158 334.054 286.916C334.299 286.938 334.483 286.955 334.73 286.916C335.278 286.966 335.834 286.955 336.388 286.944C356.736 287.681 374.363 272.307 376.223 251.752C376.793 245.47 375.803 239.416 373.595 233.929C369.401 223.219 360.455 214.723 349.217 211.182L349.155 211.177C346.583 210.39 343.866 209.836 341.06 209.583C339.169 209.411 337.328 209.369 335.473 209.508C316.442 210.487 300.59 225.285 298.83 244.741Z" fill="#F2EAD5"/>
<path d="M298.83 244.741C298.646 246.755 298.649 248.782 298.777 250.762C299.964 269.562 314.659 285.158 334.054 286.916C334.299 286.938 334.483 286.955 334.73 286.916C335.278 286.966 335.834 286.955 336.388 286.944C347.203 278.884 354.501 266.878 355.76 252.973C357.323 235.714 349.125 219.659 335.473 209.508C316.442 210.487 300.59 225.285 298.83 244.741Z" fill="#0F2B2A"/>
<path d="M142.237 252.795C142.479 254.942 142.919 257.067 143.48 259.111C148.778 278.545 167.536 291.707 188.225 289.363C188.486 289.332 188.681 289.313 188.934 289.216C189.521 289.149 190.099 289.018 190.675 288.887C212.144 285.269 227.284 265.365 224.801 243.44C224.042 236.737 221.7 230.611 218.204 225.341C211.502 215.029 200.3 208.062 187.766 206.78L187.702 206.788C184.837 206.519 181.873 206.527 178.88 206.866C176.864 207.094 174.926 207.445 173.012 207.992C153.295 213.124 139.884 232.04 142.237 252.795Z" fill="#F2EAD5"/>
<path d="M142.237 252.795C142.479 254.942 142.919 257.067 143.48 259.111C148.778 278.545 167.536 291.707 188.225 289.363C188.486 289.332 188.681 289.313 188.934 289.216C189.521 289.149 190.099 289.018 190.675 288.887C200.261 278.114 205.314 263.966 203.634 249.132C201.549 230.719 189.498 215.676 173.009 207.987C153.295 213.123 139.884 232.04 142.237 252.795Z" fill="#0F2B2A"/>
<path d="M340.603 198.89C338.723 198.89 336.894 197.939 335.845 196.215C334.046 193.253 331.103 190.995 327.774 190.016C324.451 189.04 320.752 189.348 317.629 190.867C314.865 192.207 311.539 191.059 310.193 188.297C308.852 185.536 310.001 182.207 312.762 180.863C318.344 178.149 324.96 177.599 330.909 179.345C336.866 181.094 342.127 185.138 345.351 190.439C346.947 193.064 346.11 196.485 343.487 198.081C342.583 198.629 341.585 198.89 340.603 198.89Z" fill="#0F2B2A"/>
<path d="M184.45 196.257C182.812 196.257 181.191 195.536 180.095 194.157C178.182 191.751 178.582 188.253 180.988 186.342C187.404 181.239 195.452 178.397 203.651 178.338C203.665 178.338 203.678 178.338 203.692 178.338C206.746 178.338 209.232 180.802 209.254 183.859C209.277 186.929 206.804 189.437 203.734 189.462C198.008 189.504 192.39 191.49 187.91 195.05C186.886 195.862 185.666 196.257 184.45 196.257Z" fill="#0F2B2A"/>
<path d="M243.432 290.907C244.155 291.919 244.995 292.82 245.93 293.607C251.717 298.485 261.045 298.977 267.394 294.594C278.732 286.763 270.403 272.474 260.174 268.274C246.263 262.562 234.828 278.831 243.432 290.907Z" fill="#F2EAD5"/>
<path d="M119.769 87.5706C118.109 93.6778 119.63 100.461 123.351 105.581C130.373 115.253 145.299 118.009 155.313 111.485C161.34 107.558 165.3 100.998 167.272 94.0811C169.958 84.6589 173.621 53.5779 155.756 60.5333C149.042 63.1475 142.782 67.4943 136.283 70.6368C128.977 74.1716 122.008 79.336 119.769 87.5706Z" fill="#CEB57E"/>
<path d="M214.633 47.988C218.039 42.654 218.612 35.7292 216.59 29.7305C212.775 18.4033 199.353 11.3172 187.846 14.5543C180.923 16.5038 175.183 21.582 171.237 27.5946C165.861 35.7848 153.085 64.3573 172.213 63.0502C179.399 62.5607 186.675 60.2803 193.814 59.2207C201.845 58.0276 210.038 55.1798 214.633 47.988Z" fill="#CEB57E"/>
<path d="M173.426 9.37318C169.958 4.07806 163.876 0.715783 157.577 0.0983905C145.682 -1.06687 133.712 8.2691 131.946 20.0913C130.884 27.2052 133.162 34.5222 137.03 40.5876C142.295 48.8501 163.114 72.2192 169.769 54.237C172.269 47.4818 173.173 39.9118 175.133 32.9648C177.339 25.1528 178.101 16.5121 173.426 9.37318Z" fill="#CEB57E"/>
<path d="M121.308 31.1182C115.056 32.1083 109.497 36.2771 106.349 41.7696C100.408 52.1401 104.015 66.8853 114.072 73.3428C120.123 77.228 127.732 78.1513 134.849 77.1139C144.544 75.6984 174.395 66.2957 160.724 52.8521C155.587 47.8017 149.055 43.8721 143.523 39.2361C137.305 34.0216 129.735 29.7833 121.308 31.1182Z" fill="#CEB57E"/>
<path d="M185.408 107.199C191.293 109.53 198.201 108.773 203.708 105.647C214.103 99.7461 218.506 85.2207 213.138 74.5415C209.909 68.1145 203.83 63.4479 197.175 60.7169C188.112 56.9987 157.631 49.8903 162.554 68.4232C164.403 75.3842 168.024 82.092 170.424 88.9C173.119 96.5563 177.474 104.057 185.408 107.199Z" fill="#CEB57E"/>
<path d="M166.656 46.4111C160.34 50.6216 155.507 57.0124 153.171 64.2348C154.13 67.8668 159.111 69.9498 162.846 69.5271C166.578 69.1044 169.824 66.735 172.405 64.0067C173.798 62.5328 175.088 60.8725 175.628 58.9146C176.273 56.5647 175.75 54.0117 174.654 51.8369C173.556 49.6593 168.328 48.1826 166.656 46.4111Z" fill="#CEB57E"/>
<path d="M329.448 44.2391C323.683 46.8533 319.431 52.3514 317.857 58.4808C314.884 70.0583 322.276 83.3128 333.689 86.867C340.556 89.0056 348.137 87.8737 354.722 84.9842C363.694 81.0462 389.975 64.0485 373.222 54.7209C366.928 51.2167 359.586 49.1643 353.023 46.1636C345.639 42.7874 337.219 40.7127 329.448 44.2391Z" fill="#CEB57E"/>
<path d="M420.428 92.0786C426.711 91.3027 432.412 87.3258 435.744 81.9445C442.037 71.7825 438.939 56.9234 429.108 50.1266C423.193 46.0356 415.62 44.8537 408.473 45.6463C398.736 46.7281 368.579 55.1018 381.78 69.0071C386.739 74.2299 393.135 78.382 398.503 83.2043C404.54 88.6301 411.957 93.1243 420.428 92.0786Z" fill="#CEB57E"/>
<path d="M423.9 35.7152C425.769 29.6665 424.479 22.839 420.939 17.5912C414.25 7.68508 399.43 4.41736 389.196 10.5941C383.038 14.3123 378.853 20.7338 376.648 27.5779C373.641 36.9028 368.913 67.8419 387.007 61.5011C393.804 59.1205 400.214 54.9907 406.814 52.0706C414.239 48.7889 421.381 43.8665 423.9 35.7152Z" fill="#CEB57E"/>
<path d="M373.917 9.43157C369.167 5.2461 362.412 3.62197 356.174 4.70102C344.396 6.73674 335.338 18.9149 336.776 30.7817C337.641 37.9206 341.782 44.3699 347.119 49.1922C354.391 55.7582 380.669 72.7588 382.308 53.6558C382.922 46.4807 381.785 38.9412 381.829 31.7244C381.882 23.6038 380.322 15.0715 373.917 9.43157Z" fill="#CEB57E"/>
<path d="M356.178 107.319C358.136 113.34 363.123 118.179 369.041 120.426C380.215 124.67 394.212 118.802 399.015 107.856C401.904 101.27 401.626 93.6111 399.488 86.7447C396.573 77.392 382.612 49.3785 371.477 64.9858C367.294 70.8482 364.435 77.9148 360.72 84.1054C356.543 91.0664 353.539 99.2037 356.178 107.319Z" fill="#CEB57E"/>
<path d="M391.049 54.1146C383.777 51.9343 375.773 52.2847 368.72 55.0907C366.534 58.1471 368.106 63.3115 370.812 65.9174C373.518 68.5232 377.411 69.5105 381.16 69.7608C383.184 69.8943 385.287 69.8303 387.136 68.996C389.358 67.9948 390.991 65.9646 391.97 63.7315C392.946 61.5011 390.752 56.5313 391.049 54.1146Z" fill="#CEB57E"/>
<path d="M172.124 100.653C172.124 100.653 64.9954 17.1573 46.482 73.7488C24.2086 141.829 172.124 100.653 172.124 100.653Z" fill="#284746"/>
<path d="M171.754 101.993C170.792 101.729 75.0518 75.6315 44.9887 82.4312L44.374 79.7169C75.1352 72.7615 168.528 98.2247 172.491 99.3121L171.754 101.993Z" fill="#F2EAD5"/>
<path d="M189.502 74.7052C189.502 74.7052 323.29 98.1243 313.067 39.4637C300.763 -31.1025 189.502 74.7052 189.502 74.7052Z" fill="#284746"/>
<path d="M189.804 76.0623L189.195 73.348C190.171 73.1283 286.943 51.222 310.304 31.0984L312.117 33.2064C288.234 53.7834 193.812 75.1613 189.804 76.0623Z" fill="#F2EAD5"/>
<path d="M417.01 135.663C417.01 135.663 365.686 9.90973 321.448 49.7677C268.232 97.7157 417.01 135.663 417.01 135.663Z" fill="#284746"/>
<path d="M416.026 136.642C415.319 135.933 345.298 65.6307 315.833 56.5534L316.653 53.8947C346.783 63.1778 415.105 131.767 417.997 134.684L416.026 136.642Z" fill="#F2EAD5"/>
<path d="M403.459 136.289C403.459 136.289 524.065 161.669 495.673 207.637C461.516 262.938 403.459 136.289 403.459 136.289Z" fill="#284746"/>
<path d="M490.414 213.813C477.532 189.012 403.42 137.946 402.672 137.435L404.246 135.143C407.319 137.254 479.682 187.118 492.878 212.534L490.414 213.813Z" fill="#F2EAD5"/>
<path d="M173.184 121.786C173.184 121.786 38.4617 139.045 65.602 192.043C98.2542 255.801 173.184 121.786 173.184 121.786Z" fill="#284746"/>
<path d="M70.7168 199.218L68.3584 197.744C85.0753 171.016 168.929 122.628 172.489 120.581L173.874 122.993C173.009 123.49 87.0666 173.076 70.7168 199.218Z" fill="#F2EAD5"/>
<path d="M89.6343 129.631C89.6343 129.631 -33.3073 187.366 8.77547 229.49C59.4016 280.166 89.6343 129.631 89.6343 129.631Z" fill="#284746"/>
<path d="M15.8399 234.752L13.145 234.071C20.8596 203.504 85.8443 131.739 88.6059 128.697L90.6639 130.568C89.9937 131.305 23.3905 204.856 15.8399 234.752Z" fill="#F2EAD5"/>
<path d="M398.58 167.281C401.408 173.185 407.182 177.465 413.556 178.961C425.592 181.787 439.139 173.858 442.571 161.98C444.634 154.833 443.302 147.021 440.171 140.271C435.904 131.08 417.767 104.268 408.481 121.789C404.993 128.371 403.027 136.008 400.065 142.858C396.733 150.57 394.767 159.322 398.58 167.281Z" fill="#71B699"/>
<path d="M446.099 72.1804C445.162 65.7005 440.93 59.8909 435.292 56.562C424.649 50.2713 409.351 53.7949 402.532 64.107C398.427 70.3115 397.367 78.1679 398.341 85.5433C399.667 95.5884 408.975 126.594 423.067 112.642C428.362 107.402 432.517 100.7 437.389 95.0461C442.874 88.6831 447.362 80.9156 446.099 72.1804Z" fill="#71B699"/>
<path d="M387.739 69.7971C381.445 67.995 374.412 69.4745 369.061 73.2483C358.961 80.3762 355.899 95.772 362.506 106.22C366.483 112.508 373.211 116.697 380.338 118.832C390.044 121.741 422.138 125.969 415.196 107.394C412.587 100.416 408.179 93.8781 405.02 87.1146C401.466 79.5057 396.224 72.2249 387.739 69.7971Z" fill="#55A581"/>
<path d="M361.634 122.044C357.41 127.045 355.872 134.067 357.123 140.494C359.482 152.63 372.269 161.736 384.508 159.995C391.873 158.946 398.453 154.527 403.325 148.904C409.958 141.245 426.975 113.707 407.185 112.422C399.751 111.938 391.981 113.279 384.517 113.387C376.118 113.507 367.33 115.303 361.634 122.044Z" fill="#71B699"/>
<path d="M463.237 138.289C469.419 136.136 474.317 130.874 476.516 124.709C480.666 113.065 474.297 98.7172 462.875 93.9811C456.003 91.1333 448.089 91.5866 441.033 93.9449C431.425 97.1598 402.758 112.194 419.132 123.377C425.284 127.576 432.654 130.382 439.134 134.089C446.423 138.261 454.902 141.189 463.237 138.289Z" fill="#55A581"/>
<path d="M407.472 103.37C405.372 110.937 405.906 119.205 408.96 126.439C412.166 128.633 417.472 126.897 420.109 124.044C422.745 121.191 423.685 117.144 423.861 113.262C423.955 111.165 423.844 108.993 422.943 107.096C421.861 104.822 419.725 103.175 417.397 102.213C415.07 101.248 409.98 103.626 407.472 103.37Z" fill="#F2EAD5"/>
<path d="M132.365 150.114C136.592 146.17 138.67 140.174 138.247 134.409C137.446 123.524 127.184 114.207 116.274 114.458C109.708 114.608 103.479 117.798 98.6201 122.217C92.004 128.241 74.2136 150.609 91.4283 153.798C97.8942 154.997 104.847 154.633 111.402 155.317C118.774 156.087 126.667 155.431 132.365 150.114Z" fill="#B4C953"/>
<path d="M39.6883 135.227C34.4767 137.73 30.7027 142.83 29.3873 148.459C26.9038 159.088 33.9148 171.041 44.4049 174.061C50.7151 175.877 57.615 174.695 63.5692 171.925C71.6815 168.151 95.3371 152.116 79.8606 143.931C74.0454 140.855 67.3013 139.128 61.2498 136.517C54.4418 133.58 46.7133 131.853 39.6883 135.227Z" fill="#9EAF38"/>
<path d="M53.1064 185.018C53.251 190.797 56.3574 196.332 60.9517 199.839C69.6257 206.463 83.4058 204.97 90.4613 196.643C94.7052 191.632 96.4545 184.857 96.371 178.288C96.257 169.342 91.3318 141.189 77.5183 151.949C72.3289 155.99 67.9877 161.432 63.1265 165.882C57.6562 170.888 52.9117 177.229 53.1064 185.018Z" fill="#B4C953"/>
<path d="M104.023 193.198C109.351 195.434 115.673 194.872 120.756 192.121C130.356 186.926 134.645 173.747 129.942 163.896C127.114 157.97 121.649 153.596 115.625 150.979C107.418 147.416 79.7248 140.363 83.8741 157.372C85.4315 163.763 88.6157 169.954 90.6793 176.214C93.0014 183.253 96.8393 190.18 104.023 193.198Z" fill="#9EAF38"/>
<path d="M90.8444 103.314C87.3959 98.6754 81.6698 95.9416 75.8936 95.7191C64.9863 95.3019 54.5852 104.46 53.6174 115.331C53.0334 121.872 55.5085 128.419 59.3602 133.739C64.6081 140.983 84.854 161.157 89.9433 144.404C91.8567 138.111 92.2684 131.161 93.6811 124.723C95.2663 117.484 95.4915 109.569 90.8444 103.314Z" fill="#B4C953"/>
<path d="M76.1724 159.522C83.1 159.288 89.9247 156.655 95.2115 152.169C96.2127 148.887 93.3482 144.877 90.2473 143.409C87.1464 141.94 83.4894 142.221 80.1716 143.1C78.3806 143.573 76.5785 144.243 75.2214 145.503C73.5917 147.016 72.7685 149.249 72.5738 151.465C72.3764 153.682 75.7247 157.342 76.1724 159.522Z" fill="#F2EAD5"/>
<path d="M139.871 108.643C138.21 114.75 139.731 121.533 143.453 126.653C150.475 136.325 165.4 139.081 175.415 132.557C181.442 128.63 185.402 122.07 187.374 115.153C190.06 105.731 193.723 74.65 175.857 81.6054C169.147 84.2196 162.884 88.5663 156.384 91.7089C149.076 95.2436 142.107 100.408 139.871 108.643Z" fill="#55A581"/>
<path d="M234.731 69.0601C238.138 63.726 238.711 56.7984 236.689 50.8025C232.873 39.4753 219.452 32.3892 207.944 35.6263C201.022 37.5759 195.282 42.654 191.336 48.6667C185.96 56.8568 173.184 85.4293 192.312 84.1222C199.498 83.6328 206.773 81.3523 213.912 80.2927C221.944 79.0997 230.137 76.2519 234.731 69.0601Z" fill="#55A581"/>
<path d="M193.524 30.4452C190.056 25.1501 183.974 21.7878 177.675 21.1704C165.781 20.0052 153.811 29.3411 152.048 41.1633C150.986 48.2773 153.266 55.5942 157.129 61.6596C162.393 69.9221 183.212 93.2913 189.867 75.309C192.367 68.5539 193.271 60.9839 195.232 54.0396C197.437 46.2249 198.199 37.5841 193.524 30.4452Z" fill="#71B699"/>
<path d="M141.408 52.1902C135.156 53.1803 129.597 57.3491 126.448 62.8416C120.508 73.2122 124.115 87.9573 134.171 94.4149C140.223 98.3 147.832 99.2233 154.949 98.186C164.643 96.7704 194.495 87.3677 180.823 73.9241C175.687 68.8737 169.154 64.9441 163.623 60.3081C157.404 55.0937 149.837 50.8553 141.408 52.1902Z" fill="#71B699"/>
<path d="M205.506 128.271C211.391 130.602 218.299 129.845 223.806 126.72C234.201 120.818 238.604 106.293 233.236 95.6135C230.007 89.1865 223.928 84.5199 217.273 81.7889C208.209 78.0707 177.729 70.9623 182.649 89.4952C184.498 96.4562 188.119 103.167 190.519 109.972C193.217 117.628 197.572 125.129 205.506 128.271Z" fill="#71B699"/>
<path d="M186.756 67.4831C180.44 71.6936 175.607 78.0844 173.271 85.3068C174.23 88.9389 179.211 91.0219 182.946 90.5991C186.681 90.1764 189.923 87.807 192.504 85.0788C193.898 83.6048 195.188 81.9445 195.727 79.9867C196.373 77.6367 195.85 75.0837 194.754 72.9089C193.656 70.7313 188.43 69.2546 186.756 67.4831Z" fill="#F2EAD5"/>
<path d="M243.936 92.7795C239.84 97.1596 238.113 103.512 238.958 109.446C240.555 120.657 251.832 129.575 263.109 128.547C269.895 127.929 276.116 124.189 280.833 119.269C287.254 112.569 304.088 88.1657 286.047 86.0771C279.27 85.2929 272.1 86.1578 265.267 85.9131C257.58 85.6377 249.46 86.8753 243.936 92.7795Z" fill="#B4C953"/>
<path d="M340.905 101.651C346.122 98.6949 349.668 93.1467 350.633 87.2286C352.454 76.0544 344.353 64.1737 333.285 61.7904C326.624 60.3554 319.569 62.0657 313.6 65.3529C305.471 69.8304 282.119 88.0963 298.714 95.4744C304.949 98.2471 312.049 99.5598 318.498 101.835C325.751 104.393 333.871 105.639 340.905 101.651Z" fill="#B4C953"/>
<path d="M323.503 51.0667C322.944 45.0958 319.339 39.5865 314.339 36.2798C304.895 30.0364 290.739 32.5532 284.026 41.6695C279.985 47.1565 278.653 54.2927 279.203 61.084C279.954 70.3337 287.037 99.1231 300.573 87.0145C305.659 82.4647 309.77 76.5271 314.486 71.5797C319.79 66.012 324.253 59.115 323.503 51.0667Z" fill="#B4C953"/>
<path d="M270.229 46.1914C264.556 44.253 258.053 45.2792 252.986 48.4858C243.417 54.5401 239.907 68.4815 245.469 78.3458C248.815 84.2806 254.777 88.4216 261.199 90.7048C269.942 93.814 299.104 99.1592 293.612 81.85C291.548 75.3479 287.819 69.1628 285.241 62.8304C282.338 55.7054 277.88 48.8056 270.229 46.1914Z" fill="#9EAF38"/>
<path d="M290.209 138.289C294.105 142.847 300.224 145.272 306.22 145.094C317.538 144.757 327.659 134.543 327.892 123.224C328.034 116.413 325.011 109.811 320.648 104.577C314.705 97.449 292.331 77.9983 288.243 95.6941C286.708 102.341 286.769 109.563 285.762 116.327C284.633 123.933 284.958 132.143 290.209 138.289Z" fill="#9EAF38"/>
<path d="M301.428 79.08C294.273 79.8087 287.395 83.018 282.242 88.0322C281.438 91.5002 284.686 95.4493 287.999 96.748C291.311 98.0468 295.076 97.4989 298.45 96.3586C300.271 95.7413 302.087 94.9236 303.403 93.522C304.982 91.8395 305.678 89.47 305.722 87.1645C305.767 84.8562 302.043 81.3049 301.428 79.08Z" fill="#F2EAD5"/>
<path d="M282.291 454.468C268.625 465.153 268.376 472.607 268.376 485.527C268.376 490.248 265.891 495.715 253.716 495.715C243.529 495.715 240.05 491.988 240.05 479.067C240.05 457.698 249.492 447.511 256.698 441.299C264.898 434.342 278.813 426.639 278.813 413.222C278.813 401.792 268.874 396.326 256.45 396.326C231.106 396.326 236.572 415.459 223.154 415.459C216.446 415.459 208.246 410.986 208.246 401.296C208.246 387.879 223.651 368.001 257.195 368.001C289 368.001 310.12 385.643 310.12 408.999C310.12 432.354 289 449.25 282.291 454.468ZM272.179 520.197C272.179 529.892 264.139 538.405 253.971 538.405C243.803 538.405 236 529.893 236 520.197C236 510.265 244.04 501.989 253.971 501.989C263.903 501.99 272.179 510.266 272.179 520.197Z" fill="#5DB1AF"/>
<path d="M252.447 396.505C251.224 396.388 249.969 396.326 248.685 396.326C225.934 396.326 228.009 411.741 218.966 414.896C220.37 415.271 221.793 415.459 223.155 415.459C235.814 415.458 231.668 398.429 252.447 396.505Z" fill="#539E9C"/>
<path d="M257.195 368C255.874 368 254.592 368.041 253.327 368.101C282.944 369.485 302.354 386.611 302.354 408.998C302.354 432.354 281.234 449.251 274.525 454.468C260.859 465.153 260.61 472.607 260.61 485.527C260.61 489.684 258.68 494.416 249.91 495.489C251.06 495.642 252.322 495.715 253.715 495.715C265.89 495.715 268.375 490.249 268.375 485.527C268.375 472.606 268.624 465.152 282.29 454.468C288.999 449.25 310.119 432.354 310.119 408.998C310.12 385.642 289 368 257.195 368Z" fill="#539E9C"/>
<path d="M253.971 501.99C252.706 501.99 251.472 502.126 250.281 502.381C258.486 504.127 264.789 511.532 264.789 520.198C264.789 528.682 258.632 536.26 250.281 538.021C251.467 538.272 252.7 538.405 253.971 538.405C264.139 538.405 272.179 529.893 272.179 520.197C272.179 510.266 263.903 501.99 253.971 501.99Z" fill="#539E9C"/>
<path d="M369.193 426.574C364.229 430.455 364.139 433.162 364.139 437.856C364.139 439.571 363.237 441.556 358.814 441.556C355.114 441.556 353.85 440.202 353.85 435.509C353.85 427.747 357.28 424.047 359.897 421.791C362.875 419.264 367.93 416.466 367.93 411.592C367.93 407.44 364.32 405.455 359.807 405.455C350.601 405.455 352.587 412.405 347.713 412.405C345.276 412.405 342.298 410.78 342.298 407.26C342.298 402.387 347.894 395.166 360.078 395.166C371.63 395.166 379.302 401.574 379.302 410.058C379.301 418.541 371.629 424.678 369.193 426.574ZM365.52 450.448C365.52 453.97 362.6 457.062 358.907 457.062C355.214 457.062 352.379 453.97 352.379 450.448C352.379 446.841 355.299 443.835 358.907 443.835C362.514 443.835 365.52 446.841 365.52 450.448Z" fill="#FFD278"/>
<path d="M440.552 449.551C434.28 454.455 434.166 457.876 434.166 463.806C434.166 465.973 433.026 468.482 427.438 468.482C422.762 468.482 421.166 466.771 421.166 460.841C421.166 451.034 425.5 446.358 428.807 443.507C432.57 440.314 438.957 436.779 438.957 430.62C438.957 425.374 434.395 422.865 428.693 422.865C417.061 422.865 419.57 431.646 413.411 431.646C410.332 431.646 406.569 429.593 406.569 425.146C406.569 418.988 413.639 409.865 429.035 409.865C443.632 409.865 453.325 417.962 453.325 428.682C453.324 439.401 443.631 447.156 440.552 449.551ZM435.911 479.718C435.911 484.168 432.221 488.075 427.554 488.075C422.887 488.075 419.306 484.168 419.306 479.718C419.306 475.16 422.996 471.361 427.554 471.361C432.112 471.362 435.911 475.16 435.911 479.718Z" fill="#FFE2C2"/>
<path d="M94.621 465.904C88.785 470.467 88.679 473.65 88.679 479.168C88.679 481.184 87.618 483.519 82.418 483.519C78.067 483.519 76.582 481.927 76.582 476.409C76.582 467.283 80.614 462.932 83.692 460.28C87.194 457.309 93.136 454.019 93.136 448.289C93.136 443.408 88.891 441.073 83.586 441.073C72.762 441.073 75.097 449.244 69.367 449.244C66.502 449.244 63 447.334 63 443.195C63 437.465 69.579 428.976 83.904 428.976C97.487 428.976 106.506 436.51 106.506 446.485C106.506 456.46 97.486 463.676 94.621 465.904ZM90.302 493.975C90.302 498.116 86.868 501.751 82.526 501.751C78.183 501.751 74.851 498.116 74.851 493.975C74.851 489.734 78.285 486.199 82.526 486.199C86.767 486.199 90.302 489.733 90.302 493.975Z" fill="#FFE2C2"/>
<path d="M143.009 471.615C140.27 473.756 140.221 475.25 140.221 477.839C140.221 478.785 139.723 479.881 137.283 479.881C135.241 479.881 134.544 479.134 134.544 476.545C134.544 472.263 136.436 470.221 137.88 468.976C139.523 467.582 142.312 466.038 142.312 463.349C142.312 461.058 140.32 459.963 137.831 459.963C132.752 459.963 133.847 463.797 131.159 463.797C129.815 463.797 128.171 462.901 128.171 460.959C128.171 458.27 131.258 454.287 137.98 454.287C144.354 454.287 148.586 457.822 148.586 462.503C148.586 467.184 144.354 470.57 143.009 471.615ZM140.983 484.787C140.983 486.73 139.372 488.436 137.334 488.436C135.296 488.436 133.732 486.73 133.732 484.787C133.732 482.797 135.343 481.138 137.334 481.138C139.324 481.139 140.983 482.797 140.983 484.787Z" fill="#FFD278"/>
<path d="M154.102 418.624C150.208 421.668 150.137 423.792 150.137 427.474C150.137 428.819 149.429 430.377 145.96 430.377C143.057 430.377 142.066 429.315 142.066 425.634C142.066 419.545 144.756 416.643 146.809 414.873C149.145 412.891 153.11 410.696 153.11 406.873C153.11 403.616 150.278 402.059 146.738 402.059C139.517 402.059 141.074 407.511 137.251 407.511C135.34 407.511 133.003 406.237 133.003 403.475C133.003 399.652 137.393 393.988 146.95 393.988C156.012 393.988 162.03 399.015 162.03 405.67C162.032 412.323 156.014 417.137 154.102 418.624ZM151.221 437.353C151.221 440.116 148.93 442.541 146.033 442.541C143.136 442.541 140.912 440.116 140.912 437.353C140.912 434.523 143.203 432.165 146.033 432.165C148.863 432.165 151.221 434.523 151.221 437.353Z" fill="#D8ECEC"/>
<path d="M398.406 492.115C395.589 494.317 395.538 495.854 395.538 498.517C395.538 499.49 395.026 500.617 392.516 500.617C390.416 500.617 389.699 499.849 389.699 497.185C389.699 492.78 391.645 490.68 393.131 489.4C394.821 487.966 397.69 486.378 397.69 483.612C397.69 481.256 395.641 480.129 393.08 480.129C387.856 480.129 388.983 484.073 386.217 484.073C384.834 484.073 383.144 483.151 383.144 481.153C383.144 478.387 386.32 474.29 393.234 474.29C399.79 474.29 404.144 477.927 404.144 482.741C404.143 487.556 399.789 491.039 398.406 492.115ZM396.322 505.664C396.322 507.663 394.665 509.417 392.569 509.417C390.473 509.417 388.864 507.662 388.864 505.664C388.864 503.617 390.521 501.911 392.569 501.911C394.617 501.911 396.322 503.617 396.322 505.664Z" fill="#C5E3E2"/>
</svg>
