<svg width="45" height="45" viewBox="0 0 45 45" fill="none" xmlns="http://www.w3.org/2000/svg">
<g clip-path="url(#clip0_197_2141)">
<path d="M22.5 0C10.0735 0 0 10.0735 0 22.5C0 34.9265 10.0735 45 22.5 45C34.9265 45 45 34.9265 45 22.5C45 10.0735 34.9265 0 22.5 0Z" fill="#40B3E0"/>
<path d="M33.4481 12.9429L29.4294 33.2047C29.4294 33.2047 28.8674 34.6099 27.3218 33.9354L18.0479 26.8254L14.6757 25.1956L8.99905 23.2845C8.99905 23.2845 8.12788 22.9754 8.0435 22.301C7.9593 21.6265 9.02717 21.2612 9.02717 21.2612L31.5933 12.4089C31.5933 12.4089 33.4481 11.594 33.4481 12.9429Z" fill="white"/>
<path d="M17.3352 32.9772C17.3352 32.9772 17.0645 32.9519 16.7271 31.8839C16.39 30.816 14.6758 25.1956 14.6758 25.1956L28.3053 16.5401C28.3053 16.5401 29.0923 16.0623 29.0642 16.5401C29.0642 16.5401 29.2046 16.6243 28.7831 17.0177C28.3616 17.4113 18.0761 26.6568 18.0761 26.6568" fill="#D2E5F1"/>
<path d="M21.6038 29.5516L17.9356 32.896C17.9356 32.896 17.6489 33.1136 17.3351 32.9772L18.0375 26.7649" fill="#B5CFE4"/>
</g>
<defs>
<clipPath id="clip0_197_2141">
<rect width="45" height="45" fill="white"/>
</clipPath>
</defs>
</svg>
