<svg width="33" height="19" viewBox="0 0 33 19" fill="none" xmlns="http://www.w3.org/2000/svg">
<path d="M0 18.1343C0.775776 12.2651 2.99945 6.22356 7.78566 2.75646C10.963 0.455008 15.0978 -0.478503 18.956 0.23445C22.8139 0.94771 26.3124 3.50998 27.202 8.24674C27.202 8.24674 14.934 5.11644 5.61261 12.2862C27.1736 4.22809 32.9851 14.5497 32.9851 14.5497L31.1715 15.5534C30.3652 14.0266 28.8768 12.9503 27.2764 12.3026C26.7989 12.1092 26.3099 11.95 25.8136 11.8154C24.1732 14.5318 21.2839 16.4836 18.1353 16.9284C15.0224 17.3683 11.9034 16.4256 8.78715 16.0123C5.68343 15.6001 2.15346 15.8677 0 18.1343Z" fill="#27685E"/>
</svg>
