<svg width="128" height="129" viewBox="0 0 128 129" fill="none" xmlns="http://www.w3.org/2000/svg">
<path d="M115.143 101.559C114.981 101.772 114.819 101.976 114.665 102.181C101.629 118.381 80.7914 128.407 60.1327 128.058C47.0197 127.854 33.966 123.454 23.044 113.811C22.9501 113.742 22.8735 113.666 22.7878 113.589V113.581C22.4386 113.283 22.0976 112.984 21.7566 112.686C-9.35464 85.1805 -6.83994 33.3422 29.7199 11.2593H29.7282C51.0351 -2.59581 74.9671 -2.98787 93.878 6.39056C102.012 10.4151 109.225 16.2549 114.886 23.6046C122.926 34.0324 127.863 47.5029 127.965 63.1742C128.469 77.7789 123.473 90.952 115.143 101.559Z" fill="#B5E5E8"/>
<path d="M77.0241 99.6946C76.9607 100.083 77.0266 100.463 77.291 100.764C77.5076 101.011 77.8297 101.169 78.1534 101.212C78.8881 101.31 79.5405 100.821 79.8666 100.191C79.9556 100.019 80.0198 99.8363 80.0692 99.6493C80.1244 99.4409 80.1664 99.2243 80.2537 99.0258C80.4053 98.6823 80.6837 98.4228 80.9572 98.1749C81.2545 97.9055 81.537 97.6362 81.7644 97.3034C81.9892 96.974 82.1581 96.6066 82.2825 96.2277C82.5576 95.3876 82.5955 94.4914 82.5609 93.6142C82.551 93.3737 82.5362 93.134 82.5197 92.8935C82.5057 92.6925 82.5205 92.4544 82.4382 92.2675C82.3517 92.0698 82.1614 92.0195 81.9654 91.994C81.724 91.9627 81.4827 91.9322 81.2405 91.9017C81.0577 91.8787 80.8748 91.8548 80.692 91.8317C80.7109 91.8218 80.729 91.8111 80.748 91.8037C80.7891 91.7864 80.7719 91.7313 80.729 91.7378C80.6442 91.751 80.5659 91.7774 80.4926 91.8153C80.4572 91.8219 80.4259 91.8392 80.4045 91.868C80.234 91.9825 80.1022 92.1571 80.0207 92.3482C79.8675 92.7048 79.8469 93.0887 79.7744 93.4651C79.7373 93.657 79.6871 93.8481 79.5915 94.0194C79.5058 94.1726 79.3864 94.3011 79.2522 94.4123C78.9878 94.6331 78.6739 94.7846 78.3906 94.9782C78.0776 95.1924 77.8099 95.4601 77.6567 95.8126C77.5776 95.9963 77.5274 96.1874 77.5101 96.3875C77.4895 96.6214 77.5257 96.8537 77.5513 97.0852C77.6032 97.5398 77.5414 97.969 77.4129 98.4063C77.2869 98.8347 77.0958 99.2531 77.0241 99.6946Z" fill="#1CA79F"/>
<path d="M81.6975 80.6766C81.032 80.0325 80.0147 80.5448 79.2297 80.6123C78.1614 80.7038 77.3575 79.8117 76.692 79.0968C76.2777 78.6511 75.9984 78.1858 75.8774 77.5853C75.7785 77.096 75.6912 76.629 75.4746 76.1743C75.0875 75.3597 74.4689 74.6876 73.9607 73.9512C73.6995 73.5723 73.4607 73.172 73.3182 72.733C73.1551 72.2306 73.2045 71.7001 73.0727 71.1944C72.9434 70.6961 72.5958 70.3122 72.2515 69.9481C71.8224 69.4935 71.3916 69.0396 70.9625 68.585C70.5992 68.2011 70.2492 67.7876 69.6726 67.8049C69.1413 67.8214 68.6693 68.1295 68.2089 68.3609C67.176 68.8807 66.0352 69.2225 64.8738 69.2497C63.8244 69.2744 62.7693 69.0248 61.869 68.4787C61.4407 68.2192 61.0552 67.8922 60.7348 67.5067C60.4259 67.1353 60.1739 66.7094 59.8049 66.3923C58.9219 65.6329 57.7959 65.9648 56.8191 66.333C55.698 66.7556 54.5613 67.0595 53.3604 67.1361C52.8053 67.1715 52.2526 67.1204 51.6991 67.146C51.3029 67.1641 50.8663 67.2415 50.5805 67.5414C50.2724 67.8659 50.2832 68.3082 50.2617 68.7258C50.251 68.9391 50.2296 69.178 50.0748 69.3403C49.9166 69.5058 49.6695 69.5495 49.4619 69.6195C48.9875 69.7801 48.742 70.0939 48.5617 70.5494C48.3945 70.972 48.219 71.3616 47.9505 71.7322C47.4357 72.4447 46.766 73.0287 46.2364 73.7297C45.6656 74.485 45.3427 75.3507 45.4893 76.307C45.6598 77.4173 46.3212 78.381 46.9448 79.2862C47.2965 79.7977 47.6482 80.3084 47.9999 80.8199C48.3294 81.2985 48.6366 81.8141 49.027 82.2465C49.7272 83.0216 50.7131 83.0784 51.6842 82.9252C52.2007 82.8437 52.7089 82.7144 53.227 82.6411C53.8101 82.5579 54.4016 82.5719 54.9822 82.6724C56.1247 82.8692 57.1963 83.3469 58.2243 83.8675C58.6896 84.1031 59.2695 84.3205 59.6212 84.7192C59.7958 84.916 59.8914 85.1764 59.8963 85.4391C59.9013 85.7463 59.7538 86.0091 59.6533 86.2908C59.2711 87.3657 60.1171 88.3838 60.6483 89.2453C61.1977 90.1374 61.8155 91.1653 61.7249 92.2559C61.6788 92.8127 61.3864 93.255 61.1491 93.7443C60.9094 94.2393 60.8279 94.7665 60.8954 95.3117C60.9663 95.8801 61.1598 96.4204 61.3765 96.9476C61.6236 97.5464 61.883 98.1411 62.1376 98.7366C62.6318 99.8971 63.1268 101.059 63.621 102.219C63.8681 102.8 64.116 103.38 64.3623 103.96C64.4859 104.25 64.6094 104.541 64.733 104.831C64.84 105.084 64.9307 105.367 65.0904 105.593C65.3878 106.014 65.8828 106 66.3408 105.914C66.8202 105.824 67.288 105.679 67.7361 105.487C68.6413 105.1 69.4658 104.53 70.1396 103.81C70.4699 103.456 70.7607 103.068 71.0127 102.655C71.1371 102.451 71.2565 102.241 71.4073 102.055C71.5868 101.834 71.8067 101.689 72.0555 101.557C72.5135 101.314 72.8767 101.068 73.1065 100.588C73.3363 100.109 73.4945 99.5908 73.66 99.0867C73.9829 98.1032 74.2819 97.0991 74.8057 96.1997C75.0743 95.7392 75.4128 95.3496 75.7662 94.9534C76.122 94.5548 76.4391 94.1314 76.5833 93.6092C76.8666 92.5862 76.5314 91.5211 76.4169 90.499C76.323 89.6637 76.421 88.8648 76.7851 88.1029C77.1079 87.4275 77.5725 86.8328 78.0651 86.2735C79.079 85.1228 80.3014 84.1031 81.0929 82.7737C81.4553 82.165 81.7205 81.4953 81.8087 80.7894C81.8177 80.7145 81.751 80.6692 81.6975 80.6766Z" fill="#1CA79F"/>
<path d="M27.2449 13.8365C27.2061 14.1998 27.2506 14.6042 27.0958 14.9444C26.9384 15.2912 26.5579 15.3999 26.2573 15.586C25.6066 15.9896 25.5464 16.712 25.502 17.408C25.4764 17.8042 25.4146 18.1724 25.2812 18.5472C25.1412 18.9425 24.9666 19.3297 24.904 19.7473C24.7919 20.5042 25.0934 21.2068 25.586 21.7702C26.6427 22.9819 28.3058 23.252 29.5092 24.2561C30.1607 24.7997 30.5478 25.5509 30.9152 26.3005C31.3221 27.1316 31.729 27.9651 32.065 28.8275C32.3896 29.6603 32.6548 30.5268 32.7668 31.4155C32.8236 31.8628 32.8047 32.3133 32.8533 32.7606C32.8986 33.1798 33.0584 33.5233 33.2997 33.8643C33.5304 34.1905 33.7593 34.4994 33.859 34.8931C33.9562 35.2753 33.9397 35.6797 33.8837 36.0677C33.7684 36.8658 33.5065 37.6384 33.4562 38.4465C33.401 39.3294 33.7124 40.1399 34.0682 40.9315C34.4628 41.8087 34.8639 42.6826 35.2617 43.5582C35.4619 43.9981 35.6612 44.4379 35.8614 44.8777C36.0203 45.227 36.167 45.5894 36.4149 45.8867C36.6274 46.1421 36.933 46.3274 37.2756 46.3019C37.6175 46.2763 37.9041 46.0572 38.0977 45.7863C38.5894 45.0968 38.3472 44.1982 38.5474 43.4231C38.7311 42.7123 39.1759 42.1077 39.7038 41.6102C40.8463 40.5345 42.3437 40.0007 43.6575 39.1828C44.3041 38.7809 44.9128 38.3031 45.3757 37.6928C45.6179 37.3732 45.8188 37.0264 46.0412 36.6928C46.276 36.3387 46.5429 36.0306 46.8715 35.7604C47.1894 35.4993 47.5197 35.2572 47.7784 34.9326C47.9884 34.6682 48.154 34.3775 48.2816 34.0645C48.5386 33.4335 48.6358 32.7556 48.7091 32.0835C48.7866 31.3719 48.8294 30.6553 48.9727 29.9527C49.0436 29.6034 49.1391 29.2575 49.2791 28.9296C49.4348 28.5631 49.6374 28.2188 49.8351 27.8745C50.2255 27.1941 50.6061 26.4833 50.6127 25.6786C50.6184 24.9216 50.3277 24.2058 50.0517 23.5148C49.8137 22.9176 49.5534 22.299 49.4752 21.6557C49.5674 21.6969 49.705 21.6508 49.7091 21.5174C49.7437 20.5174 49.7816 19.5175 49.8178 18.5183C49.8351 18.0299 49.8532 17.5414 49.8713 17.0538C49.887 16.6165 49.9068 16.1642 49.7396 15.7499C49.4496 15.0333 48.7899 14.4691 48.1375 14.0853C47.4654 13.6899 46.7101 13.442 45.9506 13.2764C44.1805 12.8918 42.2663 12.9948 40.5769 12.2773C40.1915 12.1134 39.8299 11.9001 39.516 11.6208C39.2352 11.3704 38.9691 11.0937 38.6042 10.9693C38.1858 10.826 37.7336 10.9323 37.3102 10.9916C36.8259 11.0591 36.3383 11.1085 35.8498 11.139C34.8878 11.1991 33.929 11.1736 32.9678 11.1077C32.0461 11.0443 31.1178 10.9817 30.2027 11.1431C30.0421 11.1719 29.8806 11.2115 29.7208 11.2592C29.0553 11.6876 28.3997 12.1282 27.7498 12.578C27.4854 12.942 27.2959 13.358 27.2449 13.8365Z" fill="#1CA79F"/>
<path d="M43.5686 91.1785C43.548 91.6694 43.2926 92.1191 42.9961 92.5079C42.679 92.9272 42.2902 93.3052 42.1065 93.8167C41.922 94.3488 41.9533 94.9213 41.8916 95.4731C41.6766 97.2012 40.7055 99.0117 39.0177 99.6558C38.517 99.8395 37.9643 99.8708 37.5038 100.136C37.0747 100.381 36.7988 100.821 36.6044 101.261C36.195 102.141 35.9504 103.071 35.3771 103.869C35.111 104.226 34.8046 104.554 34.4257 104.789C33.9447 105.095 33.383 105.229 32.8715 105.474C32.6672 105.587 32.4522 105.72 32.2883 105.894C32.1145 106.067 31.9819 106.282 31.9506 106.517C31.8789 107.038 32.2776 107.488 32.2776 108.01C32.2875 108.45 31.9909 108.767 31.6541 109.013C31.2142 109.33 30.734 109.606 30.304 109.933C29.8543 110.28 29.4244 110.649 29.0158 111.047C28.627 111.436 28.2185 111.845 28.0752 112.387C27.9524 112.826 27.973 113.297 27.7786 113.716C27.595 114.115 27.2161 114.309 26.9097 114.606C26.7663 114.749 26.6543 114.933 26.7359 115.148C26.8174 115.352 26.9813 115.516 27.0217 115.741C27.1032 116.099 26.9294 116.405 26.7252 116.692C26.6947 116.671 26.6741 116.651 26.6436 116.63C26.0604 116.211 25.4987 115.782 24.9361 115.342C24.7623 115.209 24.5885 115.076 24.4147 114.933C23.9444 114.564 23.4947 114.186 23.0441 113.807C22.9519 113.736 22.8703 113.664 22.788 113.592V113.583C22.9922 111.783 23.166 109.972 23.4428 108.183C23.535 107.631 23.6471 107.089 23.8011 106.557C23.8933 106.21 24.0054 105.872 24.1182 105.534C24.2714 105.105 24.4048 104.665 24.4864 104.216C24.5786 103.745 24.619 103.264 24.6503 102.784C24.7121 101.843 24.773 100.892 24.834 99.9515C24.8645 99.5018 24.9056 99.0413 24.9262 98.5916C24.9369 98.1822 24.9262 97.763 24.7829 97.3849C24.5169 96.6485 23.7706 96.3421 23.1471 95.9838C22.8407 95.7993 22.5442 95.5951 22.2987 95.329C22.0326 95.0325 21.8185 94.6849 21.6035 94.3472C21.092 93.5293 20.5813 92.7006 20.0698 91.8728C19.8145 91.4643 19.5583 91.0442 19.303 90.6357C19.0987 90.298 18.8327 89.9405 18.8631 89.5212C18.8936 89.1226 19.1802 88.8055 19.1901 88.4068C19.2 87.9974 19.0468 87.6087 19.2 87.21C19.3433 86.8624 19.6399 86.6071 19.8548 86.2998C20.1003 85.9728 20.2947 85.5939 20.4273 85.1953C20.5607 84.7859 20.6118 84.3667 20.6217 83.9375C20.6217 83.8453 20.6217 83.753 20.6324 83.6616C20.3252 83.6517 20.0188 83.6204 19.7115 83.5693C18.6687 83.3955 17.6564 82.9664 16.8072 82.3528C16.388 82.0463 16.0099 81.6988 15.6722 81.31C15.304 80.8808 15.0174 80.3899 14.6393 79.9707C13.7909 79.0193 12.5941 79.1116 11.4286 79.1017C10.2631 79.0811 9.10746 78.8356 8.04409 78.3554C7.512 78.1199 6.99061 77.834 6.54088 77.4658C6.11174 77.1183 5.83498 76.6784 5.63071 76.1776C5.43632 75.6562 5.26252 75.1447 4.92564 74.7049C4.62911 74.2955 4.26093 73.9586 3.87215 73.6415C3.1259 73.0378 2.29728 72.5164 1.63257 71.8006C1.27509 71.4019 1.00904 70.9514 0.733112 70.4811C0.620268 70.2768 0.487652 70.0923 0.35504 69.9086C0.345156 69.9086 0.345158 69.8987 0.345158 69.8987C0.314682 69.5404 0.273498 69.1928 0.252906 68.8353C0.211722 68.4671 0.191128 68.099 0.170536 67.7209C0.149944 67.4548 0.129352 67.1995 0.119468 66.9433C0.0889917 66.4425 0.0576935 65.9516 0.0478094 65.45C0.0272174 64.9492 0.0173339 64.4583 0.00662602 63.9567C-0.0650341 59.2526 0.446471 54.682 1.44807 50.2844C1.67293 49.3026 1.91839 48.3315 2.19432 47.3595C2.24539 47.2162 2.28657 47.0729 2.32693 46.9296C2.43977 46.521 2.5625 46.1117 2.69512 45.713C2.85903 45.2122 3.02212 44.7106 3.19591 44.2197C3.35983 43.7189 3.54351 43.2279 3.72801 42.737C4.27988 41.275 4.89352 39.8228 5.55823 38.4119C6.26412 38.2274 6.93871 37.9721 7.68497 38.0742C8.18659 38.1459 8.66679 38.3097 9.15771 38.4012C9.6898 38.5132 10.2318 38.5445 10.7837 38.5132C11.305 38.4827 11.8264 38.3905 12.3281 38.2266C12.7267 38.1038 13.197 37.8073 13.6163 37.9506C13.954 38.0734 14.1484 38.4111 14.3115 38.6969C14.5775 39.1771 14.8329 39.6581 15.0989 40.1284C15.3032 40.5172 15.5281 40.9159 15.5692 41.3656C15.6104 41.7437 15.4671 42.0715 15.2422 42.368C14.7208 43.0533 14.0257 43.6052 13.5446 44.3317C13.2687 44.741 13.0636 45.2212 13.0636 45.722C13.0636 46.0186 13.1558 46.2542 13.2679 46.5301C13.3189 46.6627 13.3494 46.806 13.3189 46.9493C13.2267 47.3587 12.8387 47.5934 12.7975 48.0226C12.7564 48.4418 12.9615 48.8611 13.3189 49.0761C13.5339 49.1881 13.7687 49.2499 13.9836 49.3627C14.1369 49.455 14.2802 49.567 14.4029 49.6897C14.6895 49.9657 14.9243 50.3034 15.2109 50.5694C15.8452 51.1419 16.8369 51.0191 17.3887 51.6946C17.6754 52.0323 17.8179 52.5429 18.2577 52.7373C18.8104 52.9927 18.9125 52.3897 19.1778 52.0825C19.4438 51.7654 19.8013 51.8782 20.1596 51.8371C20.681 51.786 20.7831 51.1929 20.7527 50.7638C20.7115 50.3445 20.5887 49.9154 20.7115 49.4961C20.7732 49.2713 20.9264 49.1074 21.0179 48.8924C21.12 48.6576 21.0385 48.4015 21.0689 48.156C21.1612 47.4098 21.877 46.8884 22.47 46.5202C22.7773 46.3258 23.0631 46.3151 23.3291 46.5811C23.5128 46.7755 23.6767 46.9081 23.9321 47.0004C24.1059 47.0721 24.2796 47.1231 24.4534 47.2047C25.1387 47.563 25.2508 48.4114 25.7927 48.9023C26.1305 49.2087 26.5085 49.352 26.7235 49.782C26.9179 50.1502 26.9788 50.5595 27.1016 50.9582C27.3676 51.8782 28.0529 52.5331 28.7374 53.1673C29.3815 53.7603 30.0363 54.374 30.3633 55.2018C30.7414 56.1325 30.4251 57.0732 30.1896 57.9932C30.0973 58.382 30.0462 58.8523 29.7398 59.1283C29.4021 59.4248 28.9219 59.578 28.5331 59.8037C28.0727 60.059 27.6131 60.3967 27.4393 60.9181C27.296 61.297 27.5109 61.7566 27.2754 62.1042C27.1938 62.2475 27.0604 62.3497 26.9278 62.4419C26.7433 62.5951 26.6008 62.7483 26.4673 62.9534C26.2828 63.25 26.1197 63.5465 25.782 63.6997C25.2705 63.9353 24.6363 63.8018 24.2681 63.3826C24.2475 63.3933 24.2376 63.3933 24.2269 63.3933C23.9205 63.4139 23.6133 63.5671 23.3678 63.7409C23.0614 63.9657 22.8258 64.273 22.6825 64.6206C22.5194 64.9994 22.5598 65.3874 22.4988 65.7861C22.4478 66.1543 22.2641 66.3791 22.0285 66.655C21.6908 67.0537 21.9165 67.4326 21.8646 67.8922C21.732 68.9861 20.3408 69.3032 19.7173 70.0503C19.2058 70.6532 19.4414 71.3797 19.6868 72.0543C19.8095 72.392 19.943 72.7396 19.994 73.0971C20.0245 73.3631 20.055 73.7107 19.8713 73.9257C19.4216 74.4372 18.6037 73.476 18.3475 73.1588C17.8566 72.5658 17.4884 71.85 16.8649 71.3591C16.5478 71.1037 16.1697 70.8987 15.7504 70.8987C15.3007 70.8888 14.9218 71.154 14.4927 71.2257C13.6542 71.3583 12.8363 70.8879 12.0381 71.3385C11.3116 71.7479 10.913 72.5246 10.7499 73.3227C10.6576 73.7832 10.6272 74.2634 10.6066 74.7337C10.586 75.1834 10.5555 75.6332 10.6066 76.073C10.6576 76.503 10.8108 76.9321 11.128 77.2286C11.4039 77.4947 11.8338 77.6685 12.1913 77.4535C12.4574 77.2896 12.6411 76.9931 12.856 76.7583C13.0397 76.5541 13.2547 76.3901 13.5207 76.2979C14.0215 76.1035 14.7579 76.073 15.2282 76.3794C15.7603 76.7171 15.3608 77.2896 15.2999 77.75C15.2587 78.0671 15.6376 78.3126 15.8114 78.5375C16.0264 78.8134 16.1079 79.161 16.2718 79.4682C16.6812 80.2046 17.3047 80.7976 17.8978 81.3808C18.5007 81.9533 19.186 82.5875 20.0657 82.6493C20.3416 82.6699 20.6283 82.6386 20.8836 82.7415C21.1703 82.2506 21.6711 81.9129 22.1719 81.6782C22.7954 81.3816 23.4914 81.1774 24.166 81.0546C24.8612 80.9319 25.6181 80.9319 26.2112 81.3717C26.2622 81.4022 26.2721 81.464 26.2524 81.5151C26.7021 81.4945 27.1419 81.3619 27.5818 81.249C28.062 81.1263 28.5529 81.0134 29.0545 81.1057C29.5454 81.1979 29.9441 81.5142 30.2818 81.8725C30.9564 82.5578 31.57 83.3758 32.4596 83.8049C32.9406 84.0298 33.4513 84.0199 33.9727 84.1319C34.4126 84.2242 34.7494 84.449 35.0155 84.8065C35.2609 85.1442 35.4141 85.533 35.6192 85.8904C35.8746 86.3509 36.1917 86.6474 36.6727 86.8822C37.7773 87.4036 38.9123 87.8739 40.0268 88.3755C41.0391 88.8252 42.0514 89.2964 42.9203 89.9915C43.3025 90.2988 43.5892 90.667 43.5686 91.1785Z" fill="#1CA79F"/>
<path d="M16.3731 29.8464C16.336 29.8217 16.2882 29.8102 16.2331 29.8234C16.0535 29.867 15.8747 29.9198 15.6993 29.9782C15.4151 30.0738 15.1112 30.1817 14.8781 30.3752C14.5947 30.6092 14.3872 30.9551 14.0124 31.0581C13.7908 31.119 13.5619 31.0416 13.3386 31.0293C13.1385 31.0177 12.9326 31.068 12.7769 31.1973C12.6006 31.3439 12.5537 31.5762 12.6303 31.7879C12.6904 31.9567 12.8082 32.1248 12.8172 32.2903C12.8247 32.4279 12.7876 32.5671 12.7299 32.6972C12.6591 32.8545 12.5685 33.0028 12.4779 33.1502C12.2884 33.4583 12.0833 33.7812 12.0372 34.1477C11.9878 34.5348 12.1369 34.9195 12.4029 35.2004C12.538 35.3429 12.7044 35.4508 12.8873 35.5208C13.0957 35.6007 13.3213 35.6048 13.5413 35.5817C13.7719 35.557 14.0042 35.5068 14.2373 35.5323C14.3773 35.5471 14.5379 35.5974 14.6689 35.6583C15.313 35.9573 15.7949 36.5339 16.4851 36.7464C16.8912 36.8708 17.3137 36.8172 17.7148 36.7011C18.1152 36.585 18.5031 36.4104 18.9166 36.3445C19.2897 36.2852 19.6521 36.3552 19.9676 36.5644C20.2592 36.758 20.4734 37.0561 20.559 37.3947C20.6183 37.6278 20.6686 37.8345 20.8292 38.0223C20.9601 38.1747 21.1339 38.2875 21.2484 38.4539C21.4708 38.7751 21.4997 39.1812 21.4741 39.5593C21.4412 40.0494 21.302 40.5263 21.2962 41.0188C21.2904 41.4628 21.4132 41.887 21.643 42.2659C21.8629 42.6275 22.1594 42.9388 22.4683 43.2247C22.619 43.3647 22.7747 43.4998 22.932 43.6332C23.0968 43.7732 23.2689 43.9124 23.4617 44.0138C23.8727 44.2296 24.3158 44.2081 24.7211 43.9898C25.0958 43.788 25.4187 43.4652 25.7004 43.1513C25.9871 42.8317 26.2449 42.4339 26.1773 41.985C26.1427 41.7552 26.02 41.5592 25.9516 41.3409C25.9014 41.1794 25.8849 41.032 25.8858 40.8607C25.8907 40.1449 26.2251 39.4588 26.2605 38.7373C26.2778 38.3864 26.2062 38.0256 26.0035 37.734C25.7581 37.3806 25.3792 37.178 25.0382 36.9326C24.4567 36.5141 24.147 35.856 23.8875 35.2078C23.6108 34.5175 23.3645 33.7985 22.8909 33.212C22.4271 32.6379 21.7608 32.3101 21.0961 32.0259C20.4561 31.7524 19.7658 31.4996 19.2551 31.0194C19.1217 30.8942 19.0105 30.7558 18.9075 30.605C18.784 30.4247 18.658 30.2468 18.4842 30.1109C18.1654 29.8638 17.7758 29.769 17.3788 29.7517C17.037 29.7353 16.7042 29.7797 16.3731 29.8464Z" fill="#1CA79F"/>
<path d="M50.545 8.77587L50.4873 8.76929C50.4873 8.76929 50.5211 8.81376 50.545 8.77587Z" fill="#1CA79F"/>
<path d="M50.7074 42.789C50.9405 42.9191 51.2065 42.9867 51.4734 42.9578C51.7847 42.9249 52.0747 42.7964 52.3415 42.6382C52.8193 42.3541 53.2542 41.9636 53.4593 41.4348C53.5639 41.1639 53.5952 40.869 53.5441 40.5832C53.4922 40.2957 53.3324 40.042 53.129 39.8361C52.6957 39.3987 52.1266 39.1738 51.5269 39.0832C51.2123 39.0355 50.8952 39.0042 50.5863 38.9234C50.2889 38.8452 49.9982 38.7414 49.6951 38.6838C49.2264 38.5948 48.6745 38.6442 48.3286 39.0124C48.3228 39.0182 48.3195 39.0256 48.3146 39.0313C48.28 39.0182 48.2421 39.0174 48.2091 39.0429C47.9538 39.2364 47.7298 39.4794 47.5107 39.7142C47.3204 39.9176 47.126 40.1623 47.079 40.4448C47.0354 40.7059 47.1235 40.9678 47.3253 41.1416C47.5057 41.2965 47.7363 41.3813 47.9662 41.434C48.5139 41.5592 49.0962 41.5691 49.583 41.8838C49.9883 42.1465 50.2823 42.5518 50.7074 42.789Z" fill="#1CA79F"/>
<path d="M127.964 63.1692V63.6091C127.811 63.5885 127.688 63.4559 127.647 63.3018C127.585 63.0671 127.698 62.8216 127.617 62.586C127.545 62.3612 127.392 62.1668 127.433 61.9312C127.474 61.7162 127.637 61.563 127.801 61.4502C127.832 61.4296 127.862 61.409 127.903 61.3884C127.923 61.9831 127.954 62.5762 127.964 63.1692Z" fill="#1CA79F"/>
<path d="M21.4463 77.6816C21.4751 77.8488 21.5542 78.0069 21.6975 78.1033C21.8507 78.2062 22.041 78.2046 22.2164 78.1807C22.4084 78.1543 22.592 78.1148 22.7873 78.1362C22.9858 78.1577 23.1785 78.2194 23.3712 78.268C23.5813 78.3215 23.7996 78.3677 24.0178 78.3504C24.2649 78.3314 24.4964 78.245 24.7287 78.1642C25.2015 78.0003 25.6899 77.9278 26.1899 77.9567C26.2286 77.9591 26.2681 77.9319 26.2862 77.899C26.502 77.5077 25.7978 77.3274 25.5639 77.2359C25.1405 77.0704 24.7196 76.8884 24.2896 76.7401C24.0911 76.6717 23.8992 76.6577 23.6925 76.6907C23.5022 76.7203 23.3078 76.7846 23.1143 76.7533C23.0467 76.7426 22.9775 76.7228 22.9207 76.6833C22.8441 76.6305 22.8144 76.5539 22.7889 76.4675C22.7452 76.3167 22.6901 76.1882 22.5649 76.0886C22.3738 75.9362 22.1176 75.8933 21.9298 75.741C21.8211 75.6528 21.8408 75.5622 21.8565 75.4337C21.8754 75.2715 21.8087 75.1323 21.672 75.0433C21.5344 74.9544 21.3631 74.9338 21.2033 74.9552C21.0097 74.9807 20.8005 75.0565 20.6094 74.9799C20.3146 74.8613 20.1251 74.5499 19.7759 74.5639C19.5436 74.573 19.3319 74.6965 19.0996 74.7188C18.8575 74.7418 18.6137 74.7278 18.3707 74.7451C18.0585 74.7682 17.7101 74.867 17.5305 75.1364C17.5091 75.1298 17.4869 75.1298 17.4663 75.1471C17.3048 75.283 17.145 75.4206 16.9803 75.5532C16.8106 75.6891 16.6319 75.8101 16.4606 75.9428C16.4111 75.9815 16.4029 76.0383 16.4441 76.0869C16.6706 76.3546 17.0602 76.18 17.3534 76.189C17.6977 76.1998 17.9605 76.4922 18.2875 76.5712C18.6944 76.6692 19.0329 76.3818 19.3879 76.2376C19.7701 76.082 20.1795 76.0062 20.5872 76.0902C20.8854 76.152 21.1984 76.3118 21.3631 76.577C21.5781 76.9172 21.3837 77.3117 21.4463 77.6816Z" fill="#1CA79F"/>
<path d="M121.522 91.3012C121.021 92.3036 120.499 93.2953 119.947 94.2664C119.405 95.2178 118.842 96.1477 118.26 97.0686C117.963 97.5389 117.667 97.9993 117.359 98.4598C117.053 98.9095 116.736 99.3699 116.419 99.8197C116 100.403 115.57 100.985 115.14 101.558C114.905 101.865 114.67 102.172 114.435 102.469C114.425 102.459 114.414 102.438 114.404 102.418C114.128 101.937 114.118 101.364 114.179 100.822C114.251 100.26 114.394 99.697 114.414 99.1352C114.414 98.8486 114.393 98.5726 114.312 98.3066C114.23 98.0611 114.097 97.8569 113.954 97.6419C113.699 97.2432 113.473 96.8132 113.617 96.333C113.749 95.8932 114.098 95.5555 114.465 95.31C115.242 94.7985 116.336 94.6964 116.868 93.8579C117.093 93.4996 117.247 93.0499 117.655 92.8555C117.88 92.7435 118.156 92.7435 118.361 92.5894C118.514 92.4667 118.607 92.2929 118.699 92.1191C118.873 91.7715 119.036 91.3827 119.415 91.2295C119.905 91.0351 120.396 91.3111 120.877 91.3827C121.071 91.4132 121.285 91.4033 121.47 91.3317C121.491 91.321 121.502 91.3111 121.522 91.3012Z" fill="#1CA79F"/>
<path d="M120.05 77.428C119.951 77.5655 119.949 77.7426 119.913 77.9016C119.879 78.049 119.802 78.1611 119.689 78.2591C119.475 78.4461 119.206 78.5614 119.028 78.792C118.837 79.0408 118.752 79.3727 118.491 79.5638C118.254 79.7359 117.956 79.7919 117.681 79.871C117.408 79.9493 117.092 80.0547 116.916 80.2927C116.812 80.4336 116.815 80.5967 116.79 80.7622C116.766 80.9262 116.709 81.0835 116.651 81.2383C116.541 81.5332 116.414 81.8421 116.478 82.1625C116.543 82.4805 116.803 82.6938 117.059 82.8643C117.353 83.0603 117.658 83.2547 117.995 83.3675C118.519 83.543 119.109 83.4993 119.617 83.2877C120.126 83.0751 120.572 82.6987 120.817 82.1987C121.079 81.6675 121.134 81.0711 121.296 80.5085C121.373 80.2433 121.476 79.9773 121.65 79.759C121.744 79.6412 121.875 79.5564 121.964 79.4361C122.046 79.3257 122.063 79.189 122.013 79.0613C121.906 78.7829 121.618 78.6223 121.524 78.3349C121.422 78.0235 121.429 77.6792 121.141 77.4651C121.022 77.3753 120.875 77.3382 120.731 77.3876C120.695 77.4 120.677 77.4263 120.669 77.456L120.58 77.4304C120.583 77.423 120.584 77.4148 120.58 77.4049C120.482 77.1694 120.17 77.2608 120.05 77.428Z" fill="#1CA79F"/>
<path d="M126.522 77.2097C126.461 77.4963 126.39 77.7723 126.328 78.0581C126.297 78.068 126.277 78.0787 126.256 78.0885C126.041 78.1503 125.806 78.119 125.612 78.007C125.367 77.8637 125.203 77.6281 125.029 77.4139C124.845 77.199 124.63 77.0351 124.395 76.8926C124.159 76.7599 123.914 76.6471 123.689 76.4939C123.464 76.3407 123.26 76.1463 123.106 75.9107C122.952 75.6554 122.85 75.3786 122.747 75.1027C122.635 74.7757 122.522 74.4586 122.41 74.1308C122.307 73.8244 122.185 73.5171 122.215 73.1901C122.246 72.873 122.389 72.5765 122.532 72.3005C122.655 72.0444 122.788 71.7792 122.993 71.5749C123.146 71.4217 123.35 71.3088 123.586 71.3187C123.78 71.3187 123.975 71.4208 124.015 71.6259C124.036 71.6976 123.984 71.7487 123.923 71.7586V71.8401C123.943 71.8401 123.953 71.8508 123.953 71.8706C123.902 72.0032 123.861 72.1259 123.821 72.2594C123.749 72.5147 123.698 72.8219 123.841 73.0567C123.913 73.1893 124.036 73.2717 124.158 73.3532C124.291 73.4249 124.434 73.5064 124.568 73.588C125.038 73.8845 125.549 74.3449 125.437 74.9586C125.406 75.1225 125.344 75.2658 125.406 75.4289C125.468 75.5722 125.58 75.7155 125.661 75.8481C125.856 76.1447 126.04 76.4412 126.234 76.7377C126.328 76.8818 126.441 77.0458 126.522 77.2097Z" fill="#1CA79F"/>
<path d="M127.678 57.8615C127.115 58.6284 126.45 59.3343 125.816 59.9578C125.427 60.326 125.049 60.7247 124.589 61.0006C124.159 61.2461 123.75 61.2872 123.269 61.2765C122.533 61.2666 122.083 61.5426 122.083 62.3094C122.073 62.7699 122.216 63.2303 122.38 63.6594C122.666 64.4057 122.942 65.0605 122.769 65.8883C122.646 66.5118 122.247 66.9723 121.572 66.8907C121.5 66.88 121.449 66.7985 121.449 66.7375C121.562 65.2755 120.344 63.9659 118.892 63.956C118.309 65.9089 119.199 67.9236 118.821 69.9079C118.555 71.3394 117.552 72.4028 116.315 73.098C115.701 73.4456 115.037 73.7116 114.362 73.9365C113.983 74.0592 113.595 74.1721 113.216 74.2742C112.807 74.3763 112.419 74.4175 112.214 74.8162C112.03 75.1745 111.999 75.6547 112.132 76.0328C112.276 76.4108 112.623 76.667 112.889 76.9528C113.318 77.433 113.431 77.8934 113.197 78.5071C113.136 78.6504 113.094 78.7937 113.053 78.9263C113.074 78.9469 113.084 78.9675 113.104 78.9873C113.605 79.5911 114.342 80.2961 114.229 81.1659C114.209 81.2582 114.199 81.3702 114.117 81.432C114.035 81.483 113.932 81.4723 113.86 81.4213C113.758 81.3603 113.666 81.2681 113.574 81.1964C113.482 81.1248 113.39 81.0432 113.298 80.9715C113.083 80.7977 112.869 80.624 112.654 80.4502C112.582 80.6034 112.501 80.7467 112.388 80.89C112.367 80.9007 112.357 80.9205 112.347 80.9304C112.418 81.0119 112.49 81.0943 112.551 81.1758C112.643 81.2985 112.725 81.4213 112.837 81.5341C112.939 81.6264 113.052 81.698 113.174 81.7689C113.431 81.8916 113.696 81.9731 113.962 82.0761C114.442 82.2705 114.912 82.6082 114.964 83.1601C114.985 83.4566 114.893 83.763 114.985 84.0496C115.066 84.3157 115.312 84.4689 115.547 84.5916C116.11 84.8782 116.703 85.113 117.306 85.3074C118.503 85.6962 119.77 85.9004 121.028 85.921C121.672 85.921 122.306 85.87 122.941 85.7983C123.278 85.7571 123.615 85.7267 123.964 85.7267C123.871 85.9622 123.78 86.2077 123.677 86.4424C122.685 86.8106 121.683 87.1994 120.62 87.1887C119.894 87.1887 119.188 86.9844 118.493 86.8205C117.808 86.6673 117.112 86.5034 116.417 86.3403C115.845 86.2077 115.271 86.0438 114.751 85.7678C114.219 85.5018 113.79 85.1031 113.473 84.6023C113.135 84.0908 112.9 83.5184 112.542 83.0275C112.174 82.5061 111.683 82.0761 111.202 81.6568C111.193 81.6461 111.182 81.6461 111.182 81.6363C110.987 81.6774 110.783 81.698 110.579 81.6873C110.518 81.6873 110.446 81.6461 110.426 81.5745C109.874 79.6314 107.194 79.8563 105.967 78.568C105.732 78.3226 105.537 78.0359 105.395 77.7295C105.211 77.3103 105.19 76.8704 105.037 76.4413C104.771 75.695 103.974 75.5007 103.534 74.8969C103.391 74.7132 103.319 74.5188 103.298 74.294C103.278 74.0485 103.319 73.8541 103.002 73.7932C102.798 73.7528 102.583 73.8648 102.429 73.9768C101.846 74.3755 101.489 75.0509 100.906 75.4801C100.19 76.0122 99.4131 76.4718 98.6562 76.9528C98.2369 77.2287 97.6743 77.4948 97.5006 78.0063C97.3679 78.4157 97.48 78.8547 97.531 79.2739C97.6233 80.0515 97.3877 80.7368 97.05 81.432C96.8556 81.8208 96.5896 82.3833 96.0583 82.1988C95.4545 81.9838 95.1176 81.0737 94.9331 80.5317C94.7898 80.133 94.6877 79.7138 94.6061 79.3044C94.504 78.8547 94.4323 78.4148 94.3401 77.975C94.1564 77.0953 94.1251 76.0113 93.2462 75.5311C92.6738 75.2247 92.019 75.0707 91.5997 74.5394C91.2315 74.0592 91.1088 73.4555 90.8024 72.944C90.2703 72.0445 89.3502 72.2488 88.4607 72.1672C87.632 72.0857 86.8858 71.7373 86.1082 71.5124C85.2903 71.2669 84.493 71.3485 83.6644 71.2571C82.9379 71.1755 82.4783 70.8683 81.9668 70.3881C81.6496 70.1014 81.1381 69.6723 80.6884 69.9589C80.5451 70.0405 80.5352 70.1739 80.3812 70.2151C80.0748 70.8592 80.9948 71.7488 81.3836 72.1788C81.8333 72.6697 82.3547 73.14 82.9997 73.3344C83.9716 73.6309 85.2903 73.2932 85.5457 74.6226C85.7705 75.737 84.8604 76.5962 84.0729 77.2197C82.9988 78.0681 81.7617 78.713 80.4528 79.1216C79.6753 79.367 78.5814 79.7451 77.9983 78.9478C77.5691 78.3646 77.3031 77.5566 76.9967 76.9026C76.71 76.2988 76.4242 75.6959 76.1376 75.0921C75.5033 73.7627 74.8798 72.4333 74.2456 71.1038C73.9795 70.5314 73.6418 69.9482 73.5298 69.3247C73.417 68.7218 73.571 68.118 73.4071 67.5151C73.3049 67.0958 73.09 66.6766 72.7836 66.3595C72.4154 65.9814 72.0777 65.9402 71.5563 66.0325C71.137 66.114 70.7482 66.1857 70.3191 66.1247C69.4089 66.0119 68.5293 65.4905 68.0285 64.7137C67.7418 64.2739 67.6298 63.7014 67.2616 63.3127C66.8119 62.8325 66.2386 63.1084 65.7477 63.3736C65.0113 63.7624 64.3779 64.0284 63.672 63.4247C63.1506 62.975 62.7413 62.6883 62.0461 62.5961C61.3706 62.5038 60.6755 62.5244 59.991 62.4939C59.2752 62.4733 58.5693 62.4527 57.8535 62.4322C57.2506 62.4116 56.5958 62.33 56.0538 62.6471C54.6527 63.4444 54.3257 65.848 52.3621 65.6025C51.5441 65.5004 50.3984 65.1017 49.8877 64.4164C49.6423 64.0787 49.6011 63.7105 49.6727 63.3118C49.7444 62.9848 49.8358 62.7493 49.7444 62.3918C49.6826 62.1867 49.5706 61.9931 49.5088 61.7781C49.1711 60.6942 50.4495 60.7453 51.1751 60.6736C51.7377 60.6126 53.619 60.7041 53.18 59.7025C52.9551 59.2017 52.3308 58.9867 52.0655 58.4958C52.0351 58.4348 52.0449 58.322 52.1273 58.2808C52.4543 58.1375 52.6792 57.9225 52.853 57.6367C52.5663 57.565 52.2599 57.453 52.1273 57.187C52.0046 56.9514 52.0458 56.6244 52.2706 56.4712C52.5779 56.2669 53.0581 56.3386 53.4057 56.3279C54.1116 56.3073 54.6939 56.0009 55.2869 55.6533C56.4525 54.9581 57.4549 54.0273 58.6204 53.342C59.1525 53.0249 59.7348 52.7696 60.3485 52.6773C61.0231 52.585 61.6268 52.8305 62.2915 52.8305C62.9768 52.8198 63.3343 52.2778 63.9381 52.0735C64.4899 51.889 65.0838 52.104 65.6357 51.9508C66.3111 51.7663 66.7814 51.1123 67.2311 50.6115C67.6603 50.1412 68.1001 49.6808 68.5095 49.2006C68.7648 48.8933 69.0309 48.5457 69.1231 48.1471C69.2458 47.6669 68.9287 47.4725 68.5202 47.3596C68.0499 47.227 67.5688 47.2064 67.1092 47.0326C66.363 46.746 65.8613 46.0096 65.8926 45.2024C65.9025 44.7626 66.1175 44.3845 66.2197 43.9652C66.2501 43.8425 66.3012 43.6687 66.2707 43.546C66.1381 42.9019 65.5549 43.6275 65.4627 43.8219C65.2477 44.2717 65.2172 44.7939 64.8795 45.1818C64.583 45.5195 64.1432 45.6522 63.7552 45.8671C62.6095 46.4907 63.2338 47.769 62.8549 48.7714C62.6301 49.3546 61.8937 50.1519 61.2191 49.661C60.953 49.4666 60.7381 49.1289 60.5239 48.8834C60.3089 48.638 60.0841 48.3925 59.8691 48.1372C59.4194 47.6463 58.9795 47.1455 58.5397 46.6439C57.9565 45.9792 56.8322 45.0484 57.2201 44.0262C57.4145 43.5048 57.9054 43.0444 58.253 42.6152C58.6624 42.1037 59.0816 41.5922 59.4902 41.0816C60.3905 39.977 61.28 38.8626 62.1696 37.758C62.9365 36.8067 63.6629 35.7433 64.6753 35.0275C65.4932 34.4443 66.4651 34.1585 67.4667 34.1173C69.6857 34.0152 71.8536 34.9254 73.8173 35.8561C73.8683 35.8767 73.9095 35.9377 73.9095 35.9994C73.8585 36.7152 73.8173 37.4211 73.7662 38.1369C73.7357 38.5463 73.7053 38.6789 74.1649 38.7711C74.4919 38.8329 74.8197 38.8123 75.136 38.7308C76.3839 38.4441 77.2322 37.4318 78.1729 36.6551C79.0831 35.9088 80.0443 35.5407 81.2098 35.3973C82.5804 35.2235 83.9403 35.0901 85.3002 34.8348C86.6906 34.5687 88.0513 34.2211 89.4005 33.8019C90.7093 33.3925 91.9366 32.9634 92.939 31.9922C93.7981 31.1636 94.5954 30.2642 95.4545 29.4355C97.0393 27.9018 98.788 26.4596 100.833 25.6211C103.124 24.6697 105.476 24.813 107.828 25.4168C108.605 25.6112 109.382 25.8262 110.149 26.0609C111.969 26.6029 113.758 27.2371 115.528 27.9117C116.561 28.3005 117.583 28.7296 118.596 29.1596C123.598 37.5628 126.768 47.3292 127.678 57.8615Z" fill="#1CA79F"/>
<path opacity="0.41" d="M42.511 36.188C48.2553 29.6216 65.9117 25.8698 67.1299 21.0026C67.6563 16.4724 62.0338 15.2336 58.4681 15.7912C41.2565 16.3365 20.1217 23.8863 16.654 42.7651C15.6952 48.4649 17.5139 60.7402 24.9394 61.5853C34.1366 62.5803 30.6558 44.7617 42.511 36.188Z" fill="#EDEBCD"/>
<path opacity="0.65" d="M127.966 63.1744V63.6093C128.009 68.2729 127.506 72.8262 126.526 77.2082C126.466 77.4982 126.389 77.7708 126.329 78.0607C125.716 80.6784 124.914 83.2359 123.968 85.7259C123.874 85.9648 123.789 86.2119 123.678 86.4425C123.039 88.0965 122.314 89.7166 121.521 91.3022C121.018 92.2997 120.498 93.2972 119.943 94.2691C119.406 95.2155 118.844 96.1537 118.256 97.0655C117.966 97.5342 117.668 98.0037 117.36 98.4641C117.053 98.9073 116.738 99.3677 116.422 99.8199C115.996 100.4 115.57 100.988 115.143 101.559C114.981 101.773 114.819 101.977 114.665 102.182C114.589 102.284 114.512 102.378 114.436 102.472C102.397 117.776 83.5286 127.786 62.9209 128.084C61.9828 128.102 61.0536 128.093 60.1328 128.059C47.5906 127.684 36.1662 123.523 26.7276 116.694C26.6938 116.676 26.6765 116.651 26.6419 116.634C26.0621 116.216 25.4995 115.789 24.9369 115.346C24.7664 115.21 24.5877 115.074 24.4172 114.937C23.9485 114.57 23.4963 114.187 23.0449 113.812C22.951 113.743 22.8744 113.667 22.7888 113.59V113.582C22.4395 113.284 22.0985 112.985 21.7575 112.687C19.541 110.7 17.4604 108.552 15.542 106.267C14.1352 104.596 12.8049 102.848 11.5686 101.032C82.0707 89.5214 92.3873 26.6845 93.8789 6.39233C102.013 10.4168 109.226 16.2567 114.887 23.6064C116.942 26.3345 118.775 29.2593 120.378 32.3457C120.386 32.3712 120.395 32.3968 120.411 32.4223C120.948 33.4626 121.46 34.5284 121.946 35.6107C121.98 35.6709 122.005 35.7302 122.031 35.7895C123.531 39.1484 124.768 42.6697 125.714 46.3359C125.722 46.3614 125.722 46.3869 125.731 46.4125C126.968 51.1956 127.701 56.2085 127.905 61.3928C127.923 61.98 127.958 62.5772 127.966 63.1744Z" fill="#232323"/>
<path opacity="0.65" d="M127.964 63.1709V63.6083C128.007 68.2736 127.503 72.8245 126.524 77.2089C126.462 77.4939 126.39 77.7698 126.329 78.0598C125.715 80.6749 124.916 83.2333 123.965 85.7258C123.875 85.9638 123.785 86.2109 123.68 86.444C123.039 88.0988 122.311 89.7157 121.522 91.2996C121.022 92.3028 120.499 93.297 119.947 94.2673C119.406 95.2187 118.845 96.1502 118.26 97.0678C117.965 97.539 117.67 98.0002 117.361 98.4615C117.056 98.9088 116.738 99.37 116.42 99.8214C116.001 100.401 115.573 100.986 115.141 101.557C114.907 101.866 114.674 102.171 114.437 102.47C102.401 117.777 83.5318 127.787 62.9266 128.087C60.5486 128.121 58.2044 128.02 55.9031 127.787C97.1942 120.726 115.284 62.3341 121.575 34.791C121.704 35.062 121.827 35.333 121.951 35.6089C121.98 35.6658 122.008 35.7275 122.031 35.7852C123.534 39.1475 124.77 42.6712 125.717 46.3374C125.721 46.3613 125.726 46.3851 125.735 46.409C126.967 51.193 127.704 56.21 127.904 61.3934C127.922 61.9815 127.954 62.5762 127.964 63.1709Z" fill="#232323"/>
<path d="M37.9339 50.071C31.0158 50.071 28.6971 44.1776 28.4459 40.9323C28.3759 40.0246 29.0546 39.2331 29.9615 39.1631C30.8799 39.098 31.6574 39.7685 31.7299 40.672C31.7876 41.3392 32.4885 47.175 38.5895 46.7541C44.7539 46.3299 44.8972 41.3903 44.8931 40.8294C44.8874 39.9233 45.6122 39.177 46.5174 39.1647C46.5257 39.1647 46.5331 39.1647 46.5413 39.1647C47.4358 39.1647 48.1689 39.8747 48.1878 40.7717C48.2496 43.751 46.3708 49.5217 38.816 50.0414C38.5137 50.0612 38.2197 50.071 37.9339 50.071Z" fill="#0F2B2A"/>
<path d="M78.2604 50.0711C71.3423 50.0711 69.0228 44.1777 68.7716 40.9324C68.7016 40.0247 69.3803 39.2332 70.2871 39.1631C71.1932 39.1014 71.9839 39.7686 72.0564 40.673C72.1149 41.3484 72.8183 47.1767 78.916 46.7542C85.0804 46.33 85.2237 41.3904 85.2196 40.8295C85.2139 39.9234 85.9387 39.1771 86.8439 39.1648C86.8522 39.1648 86.8596 39.1648 86.8678 39.1648C87.7623 39.1648 88.4954 39.8748 88.5135 40.7718C88.5753 43.751 86.6973 49.5217 79.1417 50.0415C78.8402 50.0613 78.5462 50.0711 78.2604 50.0711Z" fill="#0F2B2A"/>
<path d="M57.2203 60.2487C51.9389 60.2487 50.1688 55.7539 49.9769 53.2787C49.9069 52.371 50.5856 51.5786 51.4925 51.5095C52.3895 51.4427 53.1868 52.1132 53.2609 53.0168C53.3251 53.7211 53.8482 57.2102 57.6676 56.9392C61.5455 56.6723 61.7399 53.7532 61.739 53.1708C61.7382 52.2672 62.4655 51.5235 63.3691 51.5136C64.2463 51.5325 65.0148 52.2146 65.0338 53.1173C65.0815 55.403 63.65 59.8295 57.8941 60.2256C57.6635 60.2421 57.4386 60.2487 57.2203 60.2487Z" fill="#0F2B2A"/>
<path d="M66.196 54.8659C62.1385 54.8659 60.188 51.9081 59.7062 50.2006C59.4591 49.325 59.9681 48.4148 60.8445 48.1677C61.7135 47.9239 62.6187 48.4231 62.8724 49.2896C63.0116 49.7393 63.8534 51.9245 66.9504 51.5185C67.8507 51.4081 68.6802 52.0357 68.7988 52.9377C68.9174 53.8404 68.2823 54.6674 67.3804 54.786C66.9669 54.8403 66.5716 54.8659 66.196 54.8659Z" fill="#0F2B2A"/>
<path d="M48.1904 107.367C48.1904 107.367 15.4796 75.956 35.6565 66.5743C55.8333 57.1926 55.0904 83.0644 55.0904 83.0644C55.0904 83.0644 68.1787 60.8028 85.2395 75.9643C102.3 91.1257 48.1904 107.367 48.1904 107.367Z" fill="#F2EAD5"/>
<path d="M81.1359 99.3345C78.3181 99.3345 75.511 98.566 73.119 96.7869C72.9947 96.6946 72.8835 96.5842 72.7896 96.4607C72.6446 96.2713 69.1069 91.7616 65.0758 94.1849C64.2958 94.6527 63.2835 94.4007 62.8156 93.6198C62.3478 92.8398 62.5998 91.8275 63.3807 91.3597C68.4965 88.2881 73.2871 91.8119 75.2581 94.2672C79.823 97.5002 86.6019 95.8998 90.3323 92.5153C94.6706 88.5797 96.388 82.5059 97.0651 78.1034C97.2026 77.2031 98.0477 76.5886 98.943 76.7253C99.8425 76.8637 100.459 77.7047 100.321 78.6033C99.5633 83.5322 97.5988 90.3704 92.5455 94.9558C89.6346 97.5982 85.3729 99.3345 81.1359 99.3345Z" fill="#0F2B2A"/>
<path d="M73.4247 96.3487C73.2254 96.3487 73.0228 96.3116 72.8259 96.235C71.98 95.9056 71.5608 94.9526 71.8878 94.1066C71.9685 93.8933 73.6924 89.2016 70.2964 86.0898C69.6259 85.4745 69.5806 84.4325 70.1959 83.7621C70.8104 83.0924 71.8515 83.0463 72.5236 83.6608C77.6041 88.3178 75.0696 95.0168 74.9593 95.3002C74.7056 95.95 74.0829 96.3487 73.4247 96.3487Z" fill="#0F2B2A"/>
<path d="M38.3136 88.8385C37.9429 88.8385 37.5706 88.7149 37.2634 88.4596C34.682 86.3213 31.4564 86.5182 31.426 86.5182C30.7629 86.5709 30.1353 86.2118 29.8354 85.622C29.5924 85.1443 29.5743 84.5455 29.7868 83.9804C30.1328 83.0612 31.1237 81.7672 35.7511 79.9131C36.5954 79.5762 37.555 79.9856 37.8927 80.829C38.2312 81.6733 37.821 82.6321 36.9759 82.9714C36.2774 83.2515 35.6934 83.5076 35.2066 83.7391C36.5212 84.1246 37.9948 84.7876 39.3646 85.9227C40.0655 86.5025 40.1627 87.5412 39.582 88.2413C39.2567 88.6342 38.7864 88.8385 38.3136 88.8385Z" fill="#0F2B2A"/>
<path d="M92.682 70.5175C92.682 70.5175 82.7262 60.9578 88.8676 58.1021C95.0081 55.2464 94.803 64.3646 94.803 64.3646C94.803 64.3646 98.7657 56.3452 103.958 60.9595C109.151 65.5746 92.682 70.5175 92.682 70.5175Z" fill="#F2EAD5"/>
<path d="M28.7678 66.9491C28.7678 66.9491 15.5881 62.8504 19.8037 57.5509C24.0193 52.2505 27.9128 60.498 27.9128 60.498C27.9128 60.498 27.8708 51.5528 34.5789 53.3584C41.2869 55.1639 28.7678 66.9491 28.7678 66.9491Z" fill="#F2EAD5"/>
<path d="M19.5222 50.0958C19.5222 50.0958 12.2985 47.8497 14.6089 44.9445C16.9194 42.0394 19.0535 46.5598 19.0535 46.5598C19.0535 46.5598 19.0304 41.6572 22.7074 42.6465C26.3843 43.6365 19.5222 50.0958 19.5222 50.0958Z" fill="#F2EAD5"/>
<path d="M104.476 53.6905C104.476 53.6905 100.117 47.508 103.719 46.6118C107.321 45.7165 106.259 50.6009 106.259 50.6009C106.259 50.6009 109.228 46.6999 111.54 49.7245C113.853 52.7499 104.476 53.6905 104.476 53.6905Z" fill="#F2EAD5"/>
</svg>
